<?xml version="1.0" encoding="utf-8"?>
<!-- Generator: Adobe Illustrator 15.0.0, SVG Export Plug-In . SVG Version: 6.00 Build 0)  -->
<!DOCTYPE svg PUBLIC "-//W3C//DTD SVG 1.1//EN" "http://www.w3.org/Graphics/SVG/1.1/DTD/svg11.dtd">
<svg version="1.1" id="Ebene_1" xmlns="http://www.w3.org/2000/svg" xmlns:xlink="http://www.w3.org/1999/xlink" x="0px" y="0px"
	 width="157.186px" height="124.596px" viewBox="0 0 157.186 124.596" enable-background="new 0 0 157.186 124.596"
	 xml:space="preserve">
<g>
	<g>
		<g>
			<linearGradient id="SVGID_1_" gradientUnits="userSpaceOnUse" x1="-26.1084" y1="-12.7925" x2="235.7808" y2="175.0304">
				<stop  offset="0" style="stop-color:#6C8D7E"/>
				<stop  offset="0.1273" style="stop-color:#EEEFF0"/>
				<stop  offset="0.4364" style="stop-color:#6C8D7E"/>
				<stop  offset="0.4978" style="stop-color:#8CA59A"/>
				<stop  offset="0.632" style="stop-color:#DCE1E0"/>
				<stop  offset="0.6606" style="stop-color:#EEEFF0"/>
				<stop  offset="1" style="stop-color:#6C8D7E"/>
			</linearGradient>
			<path fill="url(#SVGID_1_)" d="M78.938,124.596L78.938,124.596c-4.201,0-7.49-0.499-8.053-0.592l-59.657-6.759
				C5.021,117.156,0,112.081,0,105.854V18.743C0,12.516,5.021,7.439,11.229,7.351l59.657-6.759C71.449,0.5,74.738,0,78.938,0
				c2.652,0,5.134,0.2,7.384,0.593l59.637,6.757c6.205,0.089,11.227,5.165,11.227,11.392v87.112c0,6.227-5.021,11.302-11.227,11.391
				l-59.637,6.759C84.073,124.396,81.59,124.596,78.938,124.596L78.938,124.596z M11.394,12.826c-3.26,0-5.917,2.654-5.917,5.917
				v87.112c0,3.262,2.657,5.916,5.917,5.916l0.306,0.017l60.014,6.805c0.032,0.005,3.188,0.528,7.225,0.528
				c2.364,0,4.556-0.177,6.51-0.523l0.171-0.026l60.176-6.8c3.264,0,5.916-2.654,5.916-5.916V18.743
				c0-3.263-2.652-5.917-5.916-5.917l-0.311-0.017L85.449,6c-1.954-0.347-4.146-0.523-6.51-0.523c-4.037,0-7.193,0.522-7.225,0.527
				l-0.148,0.021L11.394,12.826L11.394,12.826z"/>
		</g>
		<path fill="#00A098" stroke="#FFFFFF" stroke-width="3" d="M144.705,10.935L85.808,4.26c-7.049-1.251-14.429,0-14.429,0
			l-58.897,6.674c-4.7,0-8.51,3.811-8.51,8.514v42.792v0.115v42.792c0,4.703,3.81,8.514,8.51,8.514l58.897,6.675
			c0,0,7.379,1.251,14.429,0l58.896-6.675c4.702,0,8.518-3.811,8.518-8.514V62.355v-0.115V19.449
			C153.222,14.745,149.407,10.935,144.705,10.935z"/>
		<path fill="#B2CAC2" d="M144.705,10.935L85.808,4.26c-7.049-1.251-14.429,0-14.429,0l-58.897,6.674c-4.7,0-8.51,3.811-8.51,8.514
			v42.792v0.115v42.792c0,4.703,3.81,8.514,8.51,8.514l58.897,6.675c0,0,7.379,1.251,14.429,0l58.896-6.675
			c4.702,0,8.518-3.811,8.518-8.514V62.355v-0.115V19.449C153.222,14.745,149.407,10.935,144.705,10.935z"/>
		<linearGradient id="SVGID_2_" gradientUnits="userSpaceOnUse" x1="238.9009" y1="-79.9272" x2="-119.3598" y2="237.9279">
			<stop  offset="0" style="stop-color:#FFFFFF"/>
			<stop  offset="0.1515" style="stop-color:#12110B"/>
			<stop  offset="0.297" style="stop-color:#F6F6F7"/>
			<stop  offset="0.4545" style="stop-color:#12110B"/>
			<stop  offset="0.6121" style="stop-color:#F6F6F7"/>
			<stop  offset="0.7758" style="stop-color:#12110B"/>
			<stop  offset="1" style="stop-color:#F6F6F7"/>
		</linearGradient>
		<path opacity="0.36" fill="url(#SVGID_2_)" d="M144.705,10.935L85.808,4.26c-7.049-1.251-14.429,0-14.429,0l-58.897,6.674
			c-4.7,0-8.51,3.811-8.51,8.514v42.792v0.115v42.792c0,4.703,3.81,8.514,8.51,8.514l58.897,6.675c0,0,7.379,1.251,14.429,0
			l58.896-6.675c4.702,0,8.518-3.811,8.518-8.514V62.355v-0.115V19.449C153.222,14.745,149.407,10.935,144.705,10.935z"/>
		<radialGradient id="SVGID_3_" cx="78.5972" cy="62.2979" r="67.0891" gradientUnits="userSpaceOnUse">
			<stop  offset="0" style="stop-color:#FFFFFF"/>
			<stop  offset="1" style="stop-color:#12110B"/>
		</radialGradient>
		<path opacity="0.4" fill="url(#SVGID_3_)" d="M153.222,87.737L82.458,60.758l70.765,23.79v-3.743l-70.72-20.112l70.72,17.092
			v-3.572L82.54,60.623l70.683,10.682v-3.467l-70.65-7.288l70.65,4.447v-2.642v-0.115v-0.662l-70.626-1.106l70.626-1.715v-3.418
			l-70.606,5.056l70.606-7.9v-3.473L82.627,60.317l70.595-14.206V42.53L82.633,60.238l70.589-20.736v-3.754L82.631,60.158
			l70.591-27.612v-4.001L82.622,60.08l70.601-34.979v-4.342L82.604,60.001l70.3-42.828c-0.363-1.314-1.034-2.498-1.931-3.475
			L82.583,59.924l65.582-48.25c-1.059-0.471-2.227-0.739-3.46-0.739l-1.62-0.184L82.555,59.852l56.355-49.574L134.25,9.75
			L82.518,59.78l48.148-50.437l-4.059-0.459L82.477,59.712l40.975-51.186l-3.621-0.411l-37.4,51.533l34.562-51.854l-3.296-0.374
			L82.377,59.588l28.711-52.463l-3.054-0.346L82.319,59.534l23.277-53.031l-2.885-0.327L82.255,59.484l18.14-53.571L97.625,5.6
			L82.188,59.44L95.387,5.345L92.692,5.04L82.12,59.403l8.374-54.611l-2.665-0.303l-5.781,54.882l3.591-55.137
			c-0.894-0.154-1.79-0.268-2.677-0.349l-0.988,55.459L80.744,3.741c-0.941-0.036-1.852-0.042-2.713-0.027l3.863,55.614
			L75.801,3.801c-1.066,0.063-1.984,0.151-2.708,0.231l8.723,55.282L70.874,4.317l-2.728,0.31L81.737,59.31L65.876,4.883l-2.8,0.318
			l18.583,54.109L60.73,5.467l-2.92,0.332l23.767,53.522L55.34,6.078l-3.092,0.35L81.5,59.335L49.605,6.728l-3.337,0.378
			l35.155,52.253L43.391,7.432l-3.667,0.417l41.624,51.54L36.524,8.209l-4.113,0.467l48.865,50.745l-52.5-50.333l-4.725,0.536
			l57.157,49.841L19.817,10.103l-5.569,0.632l66.897,48.776L9.45,11.501c-1.437,0.549-2.687,1.471-3.628,2.657l75.262,45.406
			L4.255,17.3c-0.179,0.688-0.284,1.404-0.284,2.148v2.406l77.057,37.767L3.972,25.6v4.344l77.008,29.74L3.972,33.425v4.076
			L80.938,59.75L3.972,40.795v3.89L80.898,59.82L3.972,47.853v3.771l76.896,8.268L3.972,54.718v3.715l76.873,1.535L3.972,61.503
			v0.738v0.115v3.532l76.846-5.838L3.972,68.985v3.777l76.835-12.635L3.972,75.937v3.899l76.83-19.626L3.972,83.14v4.09
			l76.833-26.942L3.972,90.727v4.362l76.842-34.722L3.972,98.854v4.739l76.857-43.148L4.312,107.517
			c0.412,1.426,1.184,2.699,2.217,3.71l74.324-50.705L9.844,113.239c0.83,0.271,1.717,0.422,2.638,0.422l3.123,0.355l65.277-53.422
			l-60.776,53.932l5.019,0.568l55.795-54.427l-51.927,54.865l4.378,0.497l47.588-55.294l-44.178,55.68l3.907,0.443l40.32-56.06
			l-37.246,56.408l3.561,0.404l33.737-56.751l-30.912,57.07l3.303,0.376l27.666-57.391l-25.024,57.691l3.123,0.353L81.18,60.963
			l-19.451,58.28l2.997,0.338l16.52-58.574l-14.088,58.85l2.921,0.331l11.236-59.144l-8.851,59.445
			c0.695,0.087,1.691,0.193,2.9,0.276l6.027-59.688l-3.634,59.797c0.917,0.021,1.889,0.021,2.903-0.016l0.807-59.757l1.576,59.602
			c0.917-0.086,1.844-0.205,2.765-0.368l0.105-0.012l-4.37-59.203l6.724,58.935l2.862-0.322l-9.504-58.601l11.868,58.332
			l2.894-0.329L81.704,61.138l17.095,57.727l2.968-0.336L81.783,61.135l22.481,57.11l3.103-0.352L81.862,61.125l28.133,56.471
			l3.287-0.374L81.94,61.11l34.155,55.794l3.554-0.403l-37.63-55.415l40.697,55.067l3.907-0.442L82.092,61.058l47.945,54.266
			l4.384-0.496L82.165,61.021l56.145,53.366l5.042-0.571l-61.12-52.836l65.43,52.145c1.365-0.506,2.568-1.349,3.501-2.435
			L82.295,60.932l70.529,46.788c0.255-0.811,0.397-1.675,0.397-2.572v-1.932L82.356,60.879l70.866,38.585v-4.315L82.407,60.82
			l70.815,30.899V87.737z"/>
	</g>
	<g>
		<g>
			<g>
				<g>
					<path fill="#FFFFFF" d="M57.875,62.389l1.843-12.521h2.213l-2.367,15.35h-3.6L53.6,49.868h2.432L57.875,62.389z"/>
					<path fill="#FFFFFF" d="M65.465,56.336h3.311v2.193h-3.311v4.495h4.167v2.193h-6.578v-15.35h6.578v2.192h-4.167V56.336z"/>
					<path fill="#FFFFFF" d="M78.121,59.495v2.039c0,2.457-1.227,3.86-3.597,3.86c-2.369,0-3.595-1.403-3.595-3.86v-7.982
						c0-2.457,1.227-3.86,3.595-3.86c2.37,0,3.597,1.403,3.597,3.86v1.491H75.84v-1.644c0-1.096-0.483-1.514-1.25-1.514
						c-0.769,0-1.251,0.418-1.251,1.514v8.289c0,1.097,0.482,1.492,1.251,1.492c0.768,0,1.25-0.395,1.25-1.492v-2.192H78.121z"/>
					<path fill="#FFFFFF" d="M78.891,49.868h7.458v2.192h-2.523v13.157h-2.41V52.061h-2.524V49.868z"/>
					<path fill="#FFFFFF" d="M87.204,53.552c0-2.457,1.295-3.86,3.662-3.86c2.369,0,3.665,1.403,3.665,3.86v7.982
						c0,2.457-1.296,3.86-3.665,3.86c-2.367,0-3.662-1.403-3.662-3.86V53.552z M89.615,61.687c0,1.097,0.483,1.514,1.251,1.514
						s1.252-0.417,1.252-1.514v-8.289c0-1.096-0.484-1.514-1.252-1.514s-1.251,0.418-1.251,1.514V61.687z"/>
					<path fill="#FFFFFF" d="M101.129,65.218c-0.129-0.394-0.217-0.635-0.217-1.885v-2.414c0-1.425-0.482-1.95-1.581-1.95h-0.83
						v6.249h-2.413v-15.35h3.64c2.499,0,3.574,1.161,3.574,3.53v1.207c0,1.579-0.506,2.609-1.579,3.113
						c1.205,0.505,1.6,1.667,1.6,3.268v2.369c0,0.746,0.024,1.293,0.264,1.863H101.129z M98.501,52.061v4.714h0.938
						c0.9,0,1.447-0.395,1.447-1.622v-1.513c0-1.097-0.369-1.579-1.223-1.579H98.501z"/>
					<path fill="#FFFFFF" d="M65.079,73.195v0.55c0,1.577-0.481,2.588-1.557,3.092c1.293,0.504,1.798,1.666,1.798,3.289v1.25
						c0,2.368-1.25,3.641-3.661,3.641h-3.792V69.665h3.638C64.004,69.665,65.079,70.827,65.079,73.195z M60.278,71.858v4.057h0.942
						c0.898,0,1.446-0.396,1.446-1.623v-0.855c0-1.096-0.37-1.578-1.228-1.578H60.278z M60.278,78.108v4.715h1.381
						c0.809,0,1.251-0.373,1.251-1.514v-1.336c0-1.427-0.463-1.865-1.56-1.865H60.278z"/>
					<path fill="#FFFFFF" d="M74.577,85.017h-2.432l-0.418-2.785h-2.962l-0.418,2.785h-2.214l2.457-15.352h3.531L74.577,85.017z
						 M69.071,80.147h2.326l-1.163-7.764L69.071,80.147z"/>
					<path fill="#FFFFFF" d="M75.701,69.665h3.813c2.411,0,3.596,1.338,3.596,3.795v7.763c0,2.457-1.185,3.794-3.596,3.794h-3.813
						V69.665z M78.109,71.858v10.965h1.36c0.769,0,1.23-0.395,1.23-1.49v-7.984c0-1.096-0.461-1.49-1.23-1.49H78.109z"/>
					<path fill="#FFFFFF" d="M88.267,76.463h3.378v4.87c0,2.455-1.228,3.859-3.596,3.859c-2.369,0-3.596-1.404-3.596-3.859v-7.984
						c0-2.455,1.227-3.859,3.596-3.859c2.368,0,3.596,1.404,3.596,3.859v1.494h-2.281v-1.647c0-1.096-0.481-1.513-1.251-1.513
						c-0.767,0-1.251,0.417-1.251,1.513v8.29c0,1.098,0.484,1.49,1.251,1.49c0.77,0,1.251-0.393,1.251-1.49v-2.828h-1.097V76.463z"
						/>
					<path fill="#FFFFFF" d="M95.616,76.134h3.31v2.193h-3.31v4.496h4.167v2.193h-6.58V69.665h6.58v2.193h-4.167V76.134z"/>
				</g>
			</g>
			<g>
				<g>
					<path fill="#6C8D7E" d="M57.875,62.062l1.843-12.521h2.213l-2.367,15.35h-3.6L53.6,49.54h2.432L57.875,62.062z"/>
					<path fill="#6C8D7E" d="M65.465,56.008h3.311v2.194h-3.311v4.495h4.167v2.192h-6.578V49.54h6.578v2.192h-4.167V56.008z"/>
					<path fill="#6C8D7E" d="M78.121,59.167v2.039c0,2.456-1.227,3.859-3.597,3.859c-2.369,0-3.595-1.403-3.595-3.859v-7.983
						c0-2.457,1.227-3.86,3.595-3.86c2.37,0,3.597,1.404,3.597,3.86v1.492H75.84V53.07c0-1.097-0.483-1.513-1.25-1.513
						c-0.769,0-1.251,0.416-1.251,1.513v8.291c0,1.097,0.482,1.49,1.251,1.49c0.768,0,1.25-0.394,1.25-1.49v-2.193H78.121z"/>
					<path fill="#6C8D7E" d="M78.891,49.54h7.458v2.192h-2.523V64.89h-2.41V51.732h-2.524V49.54z"/>
					<path fill="#6C8D7E" d="M87.204,53.224c0-2.457,1.295-3.86,3.662-3.86c2.369,0,3.665,1.404,3.665,3.86v7.983
						c0,2.456-1.296,3.859-3.665,3.859c-2.367,0-3.662-1.403-3.662-3.859V53.224z M89.615,61.36c0,1.097,0.483,1.513,1.251,1.513
						s1.252-0.416,1.252-1.513V53.07c0-1.097-0.484-1.513-1.252-1.513s-1.251,0.416-1.251,1.513V61.36z"/>
					<path fill="#6C8D7E" d="M101.129,64.89c-0.129-0.393-0.217-0.635-0.217-1.885v-2.413c0-1.424-0.482-1.952-1.581-1.952h-0.83
						v6.25h-2.413V49.54h3.64c2.499,0,3.574,1.161,3.574,3.53v1.207c0,1.579-0.506,2.61-1.579,3.113
						c1.205,0.505,1.6,1.667,1.6,3.268v2.37c0,0.745,0.024,1.292,0.264,1.862H101.129z M98.501,51.732v4.716h0.938
						c0.9,0,1.447-0.396,1.447-1.623v-1.514c0-1.097-0.369-1.58-1.223-1.58H98.501z"/>
					<path fill="#6C8D7E" d="M65.079,72.868v0.549c0,1.579-0.481,2.587-1.557,3.093c1.293,0.503,1.798,1.666,1.798,3.288v1.25
						c0,2.369-1.25,3.642-3.661,3.642h-3.792V69.338h3.638C64.004,69.338,65.079,70.499,65.079,72.868z M60.278,71.53v4.058h0.942
						c0.898,0,1.446-0.396,1.446-1.624v-0.854c0-1.097-0.37-1.579-1.228-1.579H60.278z M60.278,77.78v4.715h1.381
						c0.809,0,1.251-0.373,1.251-1.512v-1.338c0-1.426-0.463-1.865-1.56-1.865H60.278z"/>
					<path fill="#6C8D7E" d="M74.577,84.689h-2.432l-0.418-2.786h-2.962l-0.418,2.786h-2.214l2.457-15.352h3.531L74.577,84.689z
						 M69.071,79.82h2.326l-1.163-7.763L69.071,79.82z"/>
					<path fill="#6C8D7E" d="M75.701,69.338h3.813c2.411,0,3.596,1.339,3.596,3.794v7.764c0,2.457-1.185,3.794-3.596,3.794h-3.813
						V69.338z M78.109,71.53v10.965h1.36c0.769,0,1.23-0.395,1.23-1.49v-7.984c0-1.095-0.461-1.49-1.23-1.49H78.109z"/>
					<path fill="#6C8D7E" d="M88.267,76.136h3.378v4.869c0,2.455-1.228,3.859-3.596,3.859c-2.369,0-3.596-1.404-3.596-3.859v-7.984
						c0-2.455,1.227-3.858,3.596-3.858c2.368,0,3.596,1.403,3.596,3.858v1.492h-2.281v-1.645c0-1.096-0.481-1.513-1.251-1.513
						c-0.767,0-1.251,0.417-1.251,1.513v8.29c0,1.097,0.484,1.491,1.251,1.491c0.77,0,1.251-0.395,1.251-1.491v-2.829h-1.097V76.136
						z"/>
					<path fill="#6C8D7E" d="M95.616,75.806h3.31v2.195h-3.31v4.494h4.167v2.194h-6.58V69.338h6.58v2.192h-4.167V75.806z"/>
				</g>
			</g>
		</g>
		<g>
			<g>
				<g>
					<path fill="#68876F" d="M70.844,30.517l-0.404,1.876h-3.699l-2.052,9.527h-3.648l3.648-16.927
						c-1.951,0.077-3.292,1.191-3.292,5.247c0,1.291,0.326,1.495,0.351,1.723c-1.748,0-2.709-0.634-2.709-2.459
						c0-3.369,2.379-6.587,8.636-6.587c1.015,0,2.612,0.303,4.209,0.303c0.782,0,1.571-0.075,2.281-0.303
						c-0.356,1.065-0.433,2.61-2.411,3.041c-1.163,0-2.378-0.229-3.545-0.481l-1.062,5.041H70.844z"/>
					<path fill="#68876F" d="M75.807,29.25l-0.327,1.572c0.885-0.761,1.849-1.572,3.065-1.572c1.139,0,1.75,0.938,1.75,1.901
						c0,0.887-0.583,1.85-1.825,1.85c-1.419,0-0.709-1.672-1.468-1.672c-0.762,0-1.219,0.38-1.852,0.962l-2.025,9.629h-3.651
						l2.687-12.67H75.807z"/>
					<path fill="#68876F" d="M85.208,39.945c2.001,0,3.215-1.117,4.482-2.56h0.863c-1.445,2.332-3.597,4.688-6.966,4.688
						c-2.384,0-3.955-1.166-3.955-4.029c0-2.913,1.646-9.02,6.841-9.02c2.257,0,2.79,1.166,2.79,2.432
						c0,2.915-2.79,5.169-5.83,5.347c-0.025,0.355-0.054,0.709-0.054,1.013C83.38,39.538,83.991,39.945,85.208,39.945z
						 M86.677,30.365c-1.293,0-2.532,2.712-3.041,5.22c1.95-0.126,3.675-2.077,3.675-4.18
						C87.311,30.771,87.157,30.365,86.677,30.365z"/>
					<path fill="#68876F" d="M94.658,39.665c0.96,0,2.175-0.633,2.989-1.342c-0.531,2.889-2.354,3.75-4.385,3.75
						c-2.355,0-3.926-1.166-3.926-4.029c0-2.913,1.647-9.02,6.839-9.02c2.257,0,2.786,1.166,2.786,2.432
						c0,2.94-2.786,5.169-5.824,5.347c-0.027,0.252-0.051,0.533-0.051,0.759C93.086,39.159,93.77,39.665,94.658,39.665z
						 M96.377,30.365c-1.264,0-2.534,2.812-3.062,5.22c1.978-0.101,3.699-2.051,3.699-4.18
						C97.014,30.771,96.863,30.365,96.377,30.365z"/>
				</g>
				<g>
					<g>
						<polygon fill="#68876F" points="47.776,30.396 48.953,32.778 51.583,33.161 49.679,35.017 50.129,37.635 47.776,36.398 
							45.424,37.635 45.874,35.017 43.972,33.161 46.601,32.778 						"/>
						<polygon fill="#68876F" points="36.733,30.396 37.908,32.778 40.538,33.161 38.635,35.017 39.083,37.635 36.733,36.398 
							34.38,37.635 34.83,35.017 32.926,33.161 35.556,32.778 						"/>
						<polygon fill="#68876F" points="25.689,30.396 26.863,32.778 29.492,33.161 27.589,35.017 28.041,37.635 25.689,36.398 
							23.334,37.635 23.785,35.017 21.88,33.161 24.513,32.778 						"/>
					</g>
					<g>
						<polygon fill="#68876F" points="131.499,30.396 132.674,32.778 135.306,33.161 133.401,35.017 133.849,37.635 131.499,36.398 
							129.147,37.635 129.594,35.017 127.696,33.161 130.325,32.778 						"/>
						<polygon fill="#68876F" points="120.454,30.396 121.63,32.778 124.26,33.161 122.356,35.017 122.807,37.635 120.454,36.398 
							118.102,37.635 118.551,35.017 116.648,33.161 119.278,32.778 						"/>
						<polygon fill="#68876F" points="109.409,30.396 110.586,32.778 113.215,33.161 111.31,35.017 111.762,37.635 109.409,36.398 
							107.057,37.635 107.506,35.017 105.604,33.161 108.234,32.778 						"/>
					</g>
				</g>
			</g>
			<g>
				<g>
					<path fill="#FFFFFF" d="M70.844,29.982l-0.404,1.876h-3.699l-2.052,9.526h-3.648l3.648-16.925
						c-1.951,0.076-3.292,1.19-3.292,5.246c0,1.293,0.326,1.495,0.351,1.724c-1.748,0-2.709-0.635-2.709-2.458
						c0-3.372,2.379-6.589,8.636-6.589c1.015,0,2.612,0.304,4.209,0.304c0.782,0,1.571-0.075,2.281-0.304
						c-0.356,1.065-0.433,2.609-2.411,3.041c-1.163,0-2.378-0.228-3.545-0.481l-1.062,5.041H70.844z"/>
					<path fill="#FFFFFF" d="M75.807,28.716l-0.327,1.571c0.885-0.761,1.849-1.571,3.065-1.571c1.139,0,1.75,0.937,1.75,1.901
						c0,0.887-0.583,1.85-1.825,1.85c-1.419,0-0.709-1.674-1.468-1.674c-0.762,0-1.219,0.381-1.852,0.964l-2.025,9.627h-3.651
						l2.687-12.668H75.807z"/>
					<path fill="#FFFFFF" d="M85.208,39.409c2.001,0,3.215-1.116,4.482-2.559h0.863c-1.445,2.331-3.597,4.688-6.966,4.688
						c-2.384,0-3.955-1.166-3.955-4.029c0-2.913,1.646-9.021,6.841-9.021c2.257,0,2.79,1.165,2.79,2.434
						c0,2.914-2.79,5.168-5.83,5.346c-0.025,0.355-0.054,0.709-0.054,1.013C83.38,39.004,83.991,39.409,85.208,39.409z
						 M86.677,29.831c-1.293,0-2.532,2.712-3.041,5.22c1.95-0.126,3.675-2.078,3.675-4.181
						C87.311,30.238,87.157,29.831,86.677,29.831z"/>
					<path fill="#FFFFFF" d="M94.658,39.131c0.96,0,2.175-0.634,2.989-1.343c-0.531,2.89-2.354,3.75-4.385,3.75
						c-2.355,0-3.926-1.166-3.926-4.029c0-2.913,1.647-9.021,6.839-9.021c2.257,0,2.786,1.165,2.786,2.434
						c0,2.939-2.786,5.168-5.824,5.346c-0.027,0.253-0.051,0.533-0.051,0.761C93.086,38.625,93.77,39.131,94.658,39.131z
						 M96.377,29.831c-1.264,0-2.534,2.812-3.062,5.22c1.978-0.1,3.699-2.053,3.699-4.181
						C97.014,30.238,96.863,29.831,96.377,29.831z"/>
				</g>
				<g>
					<g>
						<polygon fill="#FFFFFF" points="47.776,29.861 48.953,32.244 51.583,32.626 49.679,34.481 50.129,37.1 47.776,35.864 
							45.424,37.1 45.874,34.481 43.972,32.626 46.601,32.244 						"/>
						<polygon fill="#FFFFFF" points="36.733,29.861 37.908,32.244 40.538,32.626 38.635,34.481 39.083,37.1 36.733,35.864 
							34.38,37.1 34.83,34.481 32.926,32.626 35.556,32.244 						"/>
						<polygon fill="#FFFFFF" points="25.689,29.861 26.863,32.244 29.492,32.626 27.589,34.481 28.041,37.1 25.689,35.864 
							23.334,37.1 23.785,34.481 21.88,32.626 24.513,32.244 						"/>
					</g>
					<g>
						<polygon fill="#FFFFFF" points="131.499,29.861 132.674,32.244 135.306,32.626 133.401,34.481 133.849,37.1 131.499,35.864 
							129.147,37.1 129.594,34.481 127.696,32.626 130.325,32.244 						"/>
						<polygon fill="#FFFFFF" points="120.454,29.861 121.63,32.244 124.26,32.626 122.356,34.481 122.807,37.1 120.454,35.864 
							118.102,37.1 118.551,34.481 116.648,32.626 119.278,32.244 						"/>
						<polygon fill="#FFFFFF" points="109.409,29.861 110.586,32.244 113.215,32.626 111.31,34.481 111.762,37.1 109.409,35.864 
							107.057,37.1 107.506,34.481 105.604,32.626 108.234,32.244 						"/>
					</g>
				</g>
			</g>
		</g>
		<g>
			<g>
				<path fill="#68876F" d="M29.544,101.247v-1.093h0.907v-1.749l-1.753-2.533h-0.791v-1.093h3.234v1.093h-0.636l0.952,1.576
					l0.962-1.576h-0.667v-1.093h2.847v1.093h-0.793l-1.673,2.533v1.749h0.903v1.093H29.544z"/>
				<path fill="#68876F" d="M37.928,94.677c1.117,0,1.995,0.322,2.634,0.968c0.642,0.645,0.962,1.431,0.962,2.356
					c0,0.931-0.323,1.717-0.965,2.359c-0.64,0.645-1.519,0.966-2.631,0.966c-1.158,0-2.044-0.331-2.664-0.993
					c-0.621-0.661-0.93-1.439-0.93-2.332c0-0.923,0.318-1.709,0.956-2.354C35.926,95.001,36.806,94.677,37.928,94.677z
					 M37.928,95.858c-0.495,0-0.916,0.187-1.261,0.557c-0.347,0.373-0.52,0.918-0.52,1.637c0,0.636,0.171,1.145,0.512,1.525
					c0.342,0.381,0.765,0.573,1.269,0.573c0.496,0,0.918-0.187,1.265-0.561c0.348-0.375,0.521-0.913,0.521-1.616
					c0-0.629-0.166-1.139-0.498-1.529C38.885,96.054,38.455,95.858,37.928,95.858z"/>
				<path fill="#68876F" d="M42.17,95.872v-1.093h3.086v1.093h-0.638v2.924c0,0.391,0.017,0.672,0.05,0.844
					c0.032,0.174,0.12,0.314,0.258,0.426c0.139,0.112,0.314,0.168,0.53,0.168c0.221,0,0.403-0.053,0.548-0.158
					c0.147-0.105,0.24-0.237,0.282-0.395c0.042-0.158,0.063-0.48,0.063-0.968v-2.841h-0.63v-1.093h2.578v1.093h-0.791v3.236
					c0,0.439-0.024,0.76-0.07,0.959c-0.045,0.201-0.154,0.399-0.321,0.596c-0.169,0.197-0.409,0.356-0.728,0.479
					c-0.317,0.123-0.682,0.185-1.094,0.185c-0.479,0-0.886-0.067-1.222-0.202c-0.336-0.136-0.584-0.314-0.748-0.538
					c-0.167-0.223-0.272-0.444-0.318-0.663c-0.045-0.221-0.07-0.596-0.07-1.127v-2.924H42.17z"/>
				<path fill="#68876F" d="M53.889,101.247v-1.093h0.971v-4.282h-0.971v1.508H52.78v-2.601h5.863v2.601h-1.1v-1.508h-1v4.282h0.973
					v1.093H53.889z"/>
				<path fill="#68876F" d="M59.225,101.247v-1.093h0.808v-4.282h-0.808v-1.093h3.123v1.093h-0.678v1.418h1.763v-1.418h-0.656
					v-1.093h3.1v1.093h-0.809v4.282h0.809v1.093h-3.1v-1.093h0.656v-1.767h-1.763v1.767h0.678v1.093H59.225z"/>
				<path fill="#68876F" d="M66.482,101.247v-1.093h0.775v-4.282h-0.775v-1.093h5.7v2.05h-1.236v-0.957h-2.005v1.492h1.619v1.093
					h-1.619v1.697h2.005v-0.968h1.236v2.061H66.482z"/>
				<path fill="#68876F" d="M77.5,101.247v-1.093h0.981v-4.282H77.5v-1.093h3.065c0.644,0,1.163,0.04,1.557,0.119
					c0.395,0.079,0.773,0.253,1.131,0.524c0.359,0.271,0.647,0.636,0.865,1.09c0.219,0.457,0.324,0.961,0.324,1.517
					c0,0.449-0.074,0.878-0.226,1.286c-0.154,0.407-0.341,0.736-0.565,0.984c-0.225,0.25-0.492,0.448-0.809,0.596
					c-0.311,0.146-0.6,0.242-0.863,0.287c-0.26,0.042-0.666,0.064-1.214,0.064H77.5z M80.163,100.154h0.402
					c0.491,0,0.879-0.063,1.163-0.19c0.288-0.127,0.52-0.352,0.692-0.672c0.174-0.32,0.262-0.74,0.262-1.258
					c0-0.494-0.09-0.912-0.264-1.256c-0.176-0.344-0.413-0.581-0.711-0.711c-0.301-0.131-0.682-0.195-1.143-0.195h-0.402V100.154z"
					/>
				<path fill="#68876F" d="M85.229,101.247v-1.093h0.775v-4.282h-0.775v-1.093h5.699v2.05h-1.237v-0.957h-2.003v1.492h1.618v1.093
					h-1.618v1.697h2.003v-0.968h1.237v2.061H85.229z"/>
				<path fill="#68876F" d="M91.713,101.247v-2.204h1.099c0.014,0.403,0.116,0.7,0.316,0.892c0.2,0.189,0.426,0.285,0.679,0.285
					c0.199,0,0.366-0.068,0.502-0.207c0.137-0.139,0.203-0.301,0.203-0.486c0-0.197-0.066-0.365-0.196-0.499
					c-0.134-0.135-0.379-0.29-0.731-0.462c-0.748-0.359-1.258-0.678-1.525-0.954c-0.266-0.275-0.4-0.649-0.4-1.118
					c0-0.565,0.176-1.002,0.531-1.313c0.354-0.311,0.756-0.466,1.205-0.466c0.512,0,0.913,0.201,1.193,0.603v-0.537h1.094v1.968
					h-1.094c-0.033-0.305-0.14-0.541-0.315-0.706c-0.172-0.165-0.378-0.248-0.608-0.248c-0.182,0-0.333,0.048-0.456,0.144
					c-0.126,0.097-0.187,0.223-0.187,0.378c0,0.132,0.051,0.259,0.152,0.378c0.105,0.119,0.402,0.289,0.899,0.508
					c0.479,0.213,0.845,0.405,1.099,0.576c0.255,0.174,0.457,0.396,0.605,0.672c0.148,0.273,0.225,0.591,0.225,0.951
					c0,0.639-0.188,1.119-0.559,1.442c-0.373,0.323-0.812,0.484-1.319,0.484c-0.569,0-1.005-0.21-1.312-0.63v0.551H91.713z"/>
				<path fill="#68876F" d="M96.526,101.247v-1.093h0.984v-4.282h-0.984v-1.093h3.656v1.093h-0.99v4.282h0.99v1.093H96.526z"/>
				<path fill="#68876F" d="M104.946,99.076v-1.094h3.032c0,0.785-0.143,1.407-0.425,1.866c-0.283,0.459-0.695,0.818-1.238,1.082
					c-0.541,0.264-1.146,0.396-1.82,0.396c-1.168,0-2.064-0.313-2.689-0.938c-0.623-0.627-0.936-1.421-0.936-2.387
					c0-0.67,0.152-1.26,0.463-1.773c0.31-0.514,0.728-0.9,1.252-1.16c0.523-0.26,1.093-0.391,1.708-0.391
					c0.866,0,1.544,0.211,2.026,0.633v-0.53h1.096v2.298h-1.096c-0.115-0.389-0.342-0.693-0.686-0.916
					c-0.338-0.225-0.705-0.336-1.096-0.336c-0.515,0-0.952,0.182-1.314,0.547c-0.365,0.363-0.545,0.869-0.545,1.514
					c0,0.738,0.185,1.299,0.554,1.686c0.367,0.385,0.818,0.579,1.349,0.579c0.391,0,0.715-0.095,0.971-0.284
					c0.258-0.188,0.438-0.453,0.533-0.79H104.946z"/>
				<path fill="#68876F" d="M108.674,101.247v-1.093h0.867v-4.282h-0.867v-1.093h2.717l2.381,4.034v-2.941h-0.842v-1.093h2.901
					v1.093h-0.905v5.42h-1.441l-2.793-4.793v3.655h0.814v1.093H108.674z"/>
				<path fill="#68876F" d="M116.28,101.247v-1.093h0.775v-4.282h-0.775v-1.093h5.7v2.05h-1.238v-0.957h-2.003v1.492h1.618v1.093
					h-1.618v1.697h2.003v-0.968h1.238v2.061H116.28z"/>
				<path fill="#68876F" d="M129.274,100.154v1.093h-1.972l-1.457-2.83h-0.742v1.737h0.809v1.093h-3.38v-1.093h0.891v-4.282h-0.891
					v-1.093h3.902c0.734,0,1.262,0.185,1.589,0.556c0.321,0.371,0.484,0.79,0.484,1.258c0,0.733-0.372,1.271-1.12,1.609l1.051,1.952
					H129.274z M125.103,97.383h0.577c0.713,0,1.07-0.254,1.07-0.763c0-0.25-0.081-0.438-0.245-0.562
					c-0.163-0.126-0.386-0.187-0.673-0.187h-0.729V97.383z"/>
			</g>
			<g>
				<path fill="#FFFFFF" d="M29.544,100.948v-1.093h0.907v-1.748l-1.753-2.532h-0.791v-1.094h3.234v1.094h-0.636l0.952,1.574
					l0.962-1.574h-0.667v-1.094h2.847v1.094h-0.793l-1.673,2.532v1.748h0.903v1.093H29.544z"/>
				<path fill="#FFFFFF" d="M37.928,94.379c1.117,0,1.995,0.322,2.634,0.967c0.642,0.645,0.962,1.431,0.962,2.356
					c0,0.932-0.323,1.717-0.965,2.361c-0.64,0.643-1.519,0.965-2.631,0.965c-1.158,0-2.044-0.332-2.664-0.994
					c-0.621-0.66-0.93-1.438-0.93-2.332c0-0.924,0.318-1.709,0.956-2.354C35.926,94.702,36.806,94.379,37.928,94.379z M37.928,95.56
					c-0.495,0-0.916,0.186-1.261,0.559c-0.347,0.371-0.52,0.917-0.52,1.636c0,0.636,0.171,1.145,0.512,1.526
					c0.342,0.381,0.765,0.571,1.269,0.571c0.496,0,0.918-0.187,1.265-0.56c0.348-0.375,0.521-0.914,0.521-1.617
					c0-0.629-0.166-1.139-0.498-1.529C38.885,95.755,38.455,95.56,37.928,95.56z"/>
				<path fill="#FFFFFF" d="M42.17,95.575v-1.094h3.086v1.094h-0.638v2.922c0,0.392,0.017,0.674,0.05,0.846
					c0.032,0.172,0.12,0.312,0.258,0.426c0.139,0.109,0.314,0.167,0.53,0.167c0.221,0,0.403-0.054,0.548-0.159
					c0.147-0.104,0.24-0.237,0.282-0.395c0.042-0.158,0.063-0.48,0.063-0.967v-2.84h-0.63v-1.094h2.578v1.094h-0.791v3.235
					c0,0.438-0.024,0.76-0.07,0.958c-0.045,0.201-0.154,0.399-0.321,0.598c-0.169,0.195-0.409,0.355-0.728,0.479
					c-0.317,0.121-0.682,0.184-1.094,0.184c-0.479,0-0.886-0.068-1.222-0.203s-0.584-0.313-0.748-0.537
					c-0.167-0.223-0.272-0.445-0.318-0.664c-0.045-0.221-0.07-0.596-0.07-1.127v-2.922H42.17z"/>
				<path fill="#FFFFFF" d="M53.889,100.948v-1.093h0.971v-4.28h-0.971v1.506H52.78v-2.6h5.863v2.6h-1.1v-1.506h-1v4.28h0.973v1.093
					H53.889z"/>
				<path fill="#FFFFFF" d="M59.225,100.948v-1.093h0.808v-4.28h-0.808v-1.094h3.123v1.094h-0.678v1.416h1.763v-1.416h-0.656v-1.094
					h3.1v1.094h-0.809v4.28h0.809v1.093h-3.1v-1.093h0.656v-1.767h-1.763v1.767h0.678v1.093H59.225z"/>
				<path fill="#FFFFFF" d="M66.482,100.948v-1.093h0.775v-4.28h-0.775v-1.094h5.7v2.051h-1.236v-0.957h-2.005v1.49h1.619v1.094
					h-1.619v1.696h2.005v-0.967h1.236v2.06H66.482z"/>
				<path fill="#FFFFFF" d="M77.5,100.948v-1.093h0.981v-4.28H77.5v-1.094h3.065c0.644,0,1.163,0.039,1.557,0.118
					c0.395,0.079,0.773,0.254,1.131,0.524c0.359,0.272,0.647,0.636,0.865,1.092c0.219,0.455,0.324,0.96,0.324,1.515
					c0,0.45-0.074,0.878-0.226,1.286c-0.154,0.407-0.341,0.736-0.565,0.985s-0.492,0.448-0.809,0.595
					c-0.311,0.148-0.6,0.243-0.863,0.286c-0.26,0.044-0.666,0.065-1.214,0.065H77.5z M80.163,99.855h0.402
					c0.491,0,0.879-0.063,1.163-0.188c0.288-0.128,0.52-0.353,0.692-0.674c0.174-0.32,0.262-0.738,0.262-1.258
					c0-0.492-0.09-0.911-0.264-1.256c-0.176-0.343-0.413-0.58-0.711-0.711c-0.301-0.13-0.682-0.193-1.143-0.193h-0.402V99.855z"/>
				<path fill="#FFFFFF" d="M85.229,100.948v-1.093h0.775v-4.28h-0.775v-1.094h5.699v2.051h-1.237v-0.957h-2.003v1.49h1.618v1.094
					h-1.618v1.696h2.003v-0.967h1.237v2.06H85.229z"/>
				<path fill="#FFFFFF" d="M91.713,100.948v-2.203h1.099c0.014,0.403,0.116,0.699,0.316,0.891c0.2,0.189,0.426,0.286,0.679,0.286
					c0.199,0,0.366-0.069,0.502-0.208c0.137-0.139,0.203-0.3,0.203-0.485c0-0.198-0.066-0.366-0.196-0.501
					c-0.134-0.134-0.379-0.287-0.731-0.461c-0.748-0.359-1.258-0.677-1.525-0.953c-0.266-0.276-0.4-0.648-0.4-1.118
					c0-0.565,0.176-1.003,0.531-1.313c0.354-0.311,0.756-0.466,1.205-0.466c0.512,0,0.913,0.2,1.193,0.602v-0.536h1.094v1.966
					h-1.094c-0.033-0.304-0.14-0.538-0.315-0.704c-0.172-0.166-0.378-0.248-0.608-0.248c-0.182,0-0.333,0.047-0.456,0.144
					c-0.126,0.097-0.187,0.223-0.187,0.377c0,0.132,0.051,0.259,0.152,0.379c0.105,0.118,0.402,0.289,0.899,0.507
					c0.479,0.213,0.845,0.405,1.099,0.578c0.255,0.173,0.457,0.396,0.605,0.669c0.148,0.274,0.225,0.593,0.225,0.952
					c0,0.641-0.188,1.119-0.559,1.443c-0.373,0.322-0.812,0.484-1.319,0.484c-0.569,0-1.005-0.211-1.312-0.63v0.55H91.713z"/>
				<path fill="#FFFFFF" d="M96.526,100.948v-1.093h0.984v-4.28h-0.984v-1.094h3.656v1.094h-0.99v4.28h0.99v1.093H96.526z"/>
				<path fill="#FFFFFF" d="M104.946,98.777v-1.093h3.032c0,0.785-0.143,1.406-0.425,1.865c-0.283,0.458-0.695,0.818-1.238,1.083
					c-0.541,0.263-1.146,0.396-1.82,0.396c-1.168,0-2.064-0.314-2.689-0.939c-0.623-0.627-0.936-1.422-0.936-2.387
					c0-0.668,0.152-1.26,0.463-1.772c0.31-0.515,0.728-0.899,1.252-1.161c0.523-0.26,1.093-0.39,1.708-0.39
					c0.866,0,1.544,0.21,2.026,0.632v-0.529h1.096v2.296h-1.096c-0.115-0.388-0.342-0.692-0.686-0.915
					c-0.338-0.224-0.705-0.336-1.096-0.336c-0.515,0-0.952,0.184-1.314,0.547c-0.365,0.365-0.545,0.869-0.545,1.514
					c0,0.737,0.185,1.299,0.554,1.686c0.367,0.387,0.818,0.579,1.349,0.579c0.391,0,0.715-0.095,0.971-0.284
					c0.258-0.189,0.438-0.451,0.533-0.79H104.946z"/>
				<path fill="#FFFFFF" d="M108.674,100.948v-1.093h0.867v-4.28h-0.867v-1.094h2.717l2.381,4.032v-2.938h-0.842v-1.094h2.901v1.094
					h-0.905v5.42h-1.441l-2.793-4.793v3.653h0.814v1.093H108.674z"/>
				<path fill="#FFFFFF" d="M116.28,100.948v-1.093h0.775v-4.28h-0.775v-1.094h5.7v2.051h-1.238v-0.957h-2.003v1.49h1.618v1.094
					h-1.618v1.696h2.003v-0.967h1.238v2.06H116.28z"/>
				<path fill="#FFFFFF" d="M129.274,99.855v1.093h-1.972l-1.457-2.83h-0.742v1.737h0.809v1.093h-3.38v-1.093h0.891v-4.28h-0.891
					v-1.094h3.902c0.734,0,1.262,0.186,1.589,0.555c0.321,0.371,0.484,0.79,0.484,1.258c0,0.734-0.372,1.271-1.12,1.609l1.051,1.952
					H129.274z M125.103,97.083h0.577c0.713,0,1.07-0.254,1.07-0.762c0-0.25-0.081-0.438-0.245-0.562
					c-0.163-0.124-0.386-0.185-0.673-0.185h-0.729V97.083z"/>
			</g>
		</g>
	</g>
</g>
</svg>
