<?xml version="1.0" encoding="utf-8"?>
<!-- Generator: Adobe Illustrator 15.0.0, SVG Export Plug-In . SVG Version: 6.00 Build 0)  -->
<!DOCTYPE svg PUBLIC "-//W3C//DTD SVG 1.1//EN" "http://www.w3.org/Graphics/SVG/1.1/DTD/svg11.dtd">
<svg version="1.1" id="Ebene_1" xmlns="http://www.w3.org/2000/svg" xmlns:xlink="http://www.w3.org/1999/xlink" x="0px" y="0px"
	 height="150.89px" viewBox="0 0 156.58 150.89" enable-background="new 0 0 156.58 150.89" xml:space="preserve">
<g>
	<g>
		<path fill="#5B906A" d="M156.58,103.062l-3.359-1.564c-5.079-2.361-10.349-4.496-15.697-6.381V61.744
			c0.002-5.654,1.345-9.138,2.616-11.222c0.643-1.043,1.27-1.738,1.727-2.17c0.23-0.215,0.418-0.363,0.542-0.456l0.136-0.097
			l0.013-0.006l3.926-2.159l-7.37-23.231l-4.761,0.867h0.003c-1.533,0.278-2.982,0.415-4.295,0.415
			c-3.028-0.003-5.267-0.737-7.018-1.811c-2.616-1.605-4.191-4.084-5.112-6.275c-0.918-2.182-1.154-4.028-1.163-4.123v-0.011
			l-0.448-3.976L78.596,0L44.825,6.714l-3.887,0.783l-0.469,3.979v-0.011c-0.009,0.133-0.436,3.368-2.311,6.374
			c-0.937,1.508-2.208,2.956-3.959,4.033c-1.754,1.073-3.992,1.809-7.026,1.812c-1.317,0-2.765-0.137-4.288-0.413l-0.094-0.018
			l-4.669-0.851l-6.011,18.96l-1.278,4.214l3.794,2.184c0.094,0.061,1.34,0.855,2.578,2.951c1.241,2.109,2.505,5.549,2.511,11.033
			V95.25c-5.343,1.897-10.605,4.04-15.679,6.415L0,103.555l10.667,13.423l-2.299,15.075l-2.969,7.757l7.721-3.397
			c6.188-2.724,12.109-4.97,18.043-6.872c4.73,5.6,10.74,10.127,17.857,13.435v0.001c6.571,3.201,11.896,4.971,15.335,6.024
			l0.014,0.003l0.016,0.006c1.562,0.444,6.981,1.842,14.156,1.878h-0.015l0.23,0.002l0.117,0.001l0.045-0.006
			c7.07-0.066,12.415-1.441,13.997-1.894l0.012-0.005l0.019-0.004c3.389-1.04,8.683-2.801,15.18-5.965v0.002
			c0.009-0.002,0.013-0.007,0.021-0.01c0.004-0.001,0.006-0.003,0.01-0.006l0,0c7.235-3.363,13.312-7.961,18.072-13.656
			c6.048,1.895,12.03,4.125,18.227,6.824l6.062,2.643l-3.992-21.748l8.022-10.229L156.58,103.062z M90.922,142.238
			c-1.271,0.362-6.021,1.58-12.274,1.609h-0.046c-6.278-0.029-11.007-1.242-12.227-1.592c-3.207-0.983-8.138-2.622-14.302-5.623
			l-0.012-0.006l-0.02-0.01c-6.983-3.243-12.632-7.71-16.86-13.286l-0.742-0.978l-0.741-0.979l-1.176,0.357l-1.176,0.359
			c-5.039,1.539-10.049,3.334-15.161,5.4l1.904-12.49l-6.983-8.789c4.328-1.883,8.769-3.613,13.26-5.137l1.196-0.404l1.193-0.405
			V61.744c0.006-7.149-1.823-12.043-3.843-15.194c-1.357-2.124-2.769-3.436-3.731-4.179l3.798-11.984
			c1.438,0.204,2.85,0.339,4.198,0.339c4.384,0.003,7.94-1.1,10.718-2.803c4.17-2.557,6.533-6.357,7.862-9.518
			c0.869-2.074,1.309-3.884,1.521-4.999l31.32-6.228l31.356,6.226c0.324,1.687,1.163,4.978,3.235,8.31
			c1.398,2.246,3.383,4.513,6.16,6.212c2.773,1.702,6.327,2.805,10.709,2.8c1.342,0,2.756-0.137,4.198-0.341l3.805,11.993
			c-0.895,0.705-2.238,1.964-3.557,3.965c-2.075,3.148-4.03,8.118-4.024,15.401v38.4l2.398,0.808
			c4.516,1.518,8.975,3.242,13.317,5.124l-7.169,9.143l2.201,11.998c-5.101-2.029-10.133-3.794-15.231-5.314l-1.175-0.35
			l-1.172-0.353l-1.473,1.962c-4.249,5.659-9.949,10.187-17.045,13.486l-0.016,0.005l-0.016,0.009
			C99,139.633,94.085,141.268,90.922,142.238z M142.568,47.782L142.568,47.782L142.568,47.782L142.568,47.782z"/>
		<g>
			<path fill="#E4EBBC" d="M78.774,149.128H78.55c-6.95-0.035-12.227-1.396-13.677-1.811c-3.396-1.04-8.614-2.773-15.083-5.925
				c-7.309-3.393-13.384-8.067-18.055-13.895c-6.367,1.994-12.702,4.39-19.324,7.304l-3.858,1.699l1.529-3.996l2.438-16.021
				l-9.755-12.279l2.021-0.945c5.39-2.521,11-4.798,16.69-6.773V61.744c0-11.883-5.718-15.362-5.964-15.505l-2.589-1.49l0.868-2.866
				l5.544-17.471l3.233,0.591c1.617,0.294,3.166,0.442,4.608,0.442c13.286-0.003,14.976-13.215,15.04-13.776l0.32-2.699l2.659-0.535
				l33.398-6.64l36.118,7.17l0.305,2.714c0.067,0.556,1.77,13.766,15.041,13.766c1.434,0,2.984-0.148,4.61-0.444l3.234-0.589
				l6.463,20.377l-2.692,1.479c-0.209,0.122-5.915,3.608-5.915,15.476v34.61c5.706,1.964,11.322,4.229,16.716,6.738l1.673,0.778
				l-1.079,1.999l-8.417,10.735l3.534,19.273l-3.028-1.32c-6.627-2.888-13.024-5.263-19.511-7.248
				c-4.695,5.918-10.834,10.663-18.261,14.111c-6.406,3.122-11.606,4.849-14.955,5.877c-1.484,0.426-6.733,1.779-13.636,1.828
				L78.774,149.128L78.774,149.128z M33.038,123.416l0.741,0.979c4.413,5.819,10.307,10.47,17.521,13.818
				c6.279,3.058,11.322,4.731,14.572,5.728c1.312,0.377,6.196,1.635,12.721,1.666h0.063c6.509-0.031,11.422-1.297,12.771-1.685
				c3.208-0.982,8.232-2.651,14.444-5.679c7.334-3.404,13.282-8.119,17.713-14.024l0.735-0.981l1.176,0.352
				c6.03,1.797,11.96,3.918,18.042,6.453l-2.635-14.361l8.086-10.312c-5.042-2.264-10.261-4.307-15.549-6.086l-1.199-0.403V61.744
				c0-13.945,7.393-18.364,7.707-18.545l0.189-0.104l-4.653-14.663l-0.188,0.033c-1.833,0.333-3.593,0.5-5.237,0.5
				c-16.369,0-18.457-16.194-18.538-16.883l-0.019-0.165L78.599,5.384l-32.864,6.534l-0.02,0.16
				c-0.08,0.686-2.149,16.884-18.537,16.887c-1.651,0-3.415-0.168-5.237-0.499l-0.188-0.034l-4.649,14.662l0.166,0.096
				c0.794,0.457,7.727,4.846,7.727,18.554v37.26L23.8,99.408c-5.265,1.788-10.467,3.838-15.495,6.108l7.929,9.98l-2.256,14.796
				c6.079-2.566,11.958-4.708,17.885-6.519L33.038,123.416L33.038,123.416z"/>
		</g>
		<g>
			<g>
				<path fill="#5B906A" d="M78.653,147.369l-0.07-0.002c-6.751-0.032-11.832-1.342-13.229-1.742
					c-3.319-1.018-8.432-2.715-14.796-5.814c-27.781-12.897-27.33-39.824-27.324-40.096V61.744c0-12.946-6.563-16.868-6.842-17.029
					l-1.379-0.793l0.464-1.527l5.064-15.972l1.714,0.312c1.723,0.312,3.377,0.47,4.919,0.47h0.004
					c14.81-0.001,16.715-14.706,16.787-15.333l0.17-1.427l1.408-0.284l33.053-6.571l2.012,0.396l32.501,6.457l0.16,1.435
					c0.072,0.622,1.979,15.327,16.789,15.327c1.545,0,3.201-0.159,4.925-0.47l1.711-0.312l5.554,17.52l-1.42,0.783
					c-0.264,0.151-6.827,4.074-6.827,17.02v38.028c0.007,0.214,0.458,27.141-27.358,40.054c-6.329,3.084-11.439,4.781-14.729,5.791
					c-1.429,0.408-6.512,1.718-13.25,1.75L78.653,147.369L78.653,147.369z M19.678,42.226c2.493,2.059,7.508,7.672,7.508,19.518
					v38.028c-0.023,1.053-0.32,24.679,25.072,36.469c6.148,2.996,11.059,4.626,14.22,5.594c0.875,0.249,5.722,1.548,12.111,1.579
					l0.107,0.002c6.365-0.041,11.19-1.332,12.093-1.592c3.129-0.957,8.039-2.587,14.157-5.568
					c25.514-11.847,25.107-36.183,25.102-36.428V61.744c0-11.845,5.016-17.459,7.509-19.518l-3.593-11.333
					c-1.348,0.176-2.656,0.265-3.906,0.265c-15.316,0-19.479-12.961-20.45-17.384L78.616,7.62L47.63,13.774
					c-0.976,4.423-5.137,17.381-20.452,17.384h-0.004c-1.251,0-2.557-0.089-3.901-0.265L19.678,42.226L19.678,42.226z"/>
			</g>
		</g>
		<path fill="#E4EBBC" d="M78.653,5.607l-0.024-0.005l-32.701,6.496c0,0-2.32,20.526-24.026,16.58l-4.54,14.313
			c0,0,7.85,4.312,7.85,18.752c0,14.441,0,38.028,0,38.028s-0.741,25.745,26.214,38.263c5.742,2.797,10.552,4.49,14.475,5.689
			c1.202,0.346,6.169,1.645,12.754,1.668V5.607z"/>
		<path fill="#E7690B" d="M78.581,5.607l0.023-0.005l32.702,6.496c0,0,2.319,20.526,24.029,16.58l4.54,14.313
			c0,0-7.85,4.312-7.85,18.752c0,14.441,0,38.028,0,38.028s0.738,25.745-26.217,38.263c-5.743,2.797-10.553,4.49-14.476,5.689
			c-1.201,0.346-6.169,1.645-12.753,1.668V5.607z"/>
		<g opacity="0.2">
			<radialGradient id="SVGID_1_" cx="87.3213" cy="145.0249" r="87.419" gradientUnits="userSpaceOnUse">
				<stop  offset="0" style="stop-color:#FFFFFF"/>
				<stop  offset="1" style="stop-color:#2B2523"/>
			</radialGradient>
			<path fill="url(#SVGID_1_)" d="M84.986,144.97l47.167-86.186c0.975-12.067,7.723-15.793,7.723-15.793l-2.29-7.214L84.323,145.05
				C84.55,145.025,84.769,144.998,84.986,144.97z"/>
			<radialGradient id="SVGID_2_" cx="87.3193" cy="145.0249" r="87.4212" gradientUnits="userSpaceOnUse">
				<stop  offset="0" style="stop-color:#FFFFFF"/>
				<stop  offset="1" style="stop-color:#2B2523"/>
			</radialGradient>
			<path fill="url(#SVGID_2_)" d="M97.51,141.619l28.125-20.693c1.27-2.049,2.289-4.082,3.104-6.033l-34.318,27.836
				C95.405,142.396,96.438,142.025,97.51,141.619z"/>
			<radialGradient id="SVGID_3_" cx="87.3223" cy="145.0259" r="87.4108" gradientUnits="userSpaceOnUse">
				<stop  offset="0" style="stop-color:#FFFFFF"/>
				<stop  offset="1" style="stop-color:#2B2523"/>
			</radialGradient>
			<path fill="url(#SVGID_3_)" d="M105.81,138.035c6.975-3.238,12.081-7.363,15.84-11.698l-20.354,13.758
				C102.731,139.479,104.231,138.801,105.81,138.035z"/>
			<radialGradient id="SVGID_4_" cx="87.3203" cy="145.0259" r="87.4201" gradientUnits="userSpaceOnUse">
				<stop  offset="0" style="stop-color:#FFFFFF"/>
				<stop  offset="1" style="stop-color:#2B2523"/>
			</radialGradient>
			<path fill="url(#SVGID_4_)" d="M91.334,143.724c0.428-0.131,0.873-0.271,1.321-0.414l37.777-33.232
				c0.617-2.148,0.994-4.078,1.227-5.678l-40.798,39.454C91.053,143.802,91.217,143.759,91.334,143.724z"/>
			<radialGradient id="SVGID_5_" cx="87.3213" cy="145.0259" r="87.4178" gradientUnits="userSpaceOnUse">
				<stop  offset="0" style="stop-color:#FFFFFF"/>
				<stop  offset="1" style="stop-color:#2B2523"/>
			</radialGradient>
			<path fill="url(#SVGID_5_)" d="M132.026,94.359l-43.43,50.02c0.439-0.09,0.839-0.176,1.19-0.258l42.239-44.247
				c0-0.062,0-0.102,0-0.102S132.026,97.674,132.026,94.359z"/>
			<radialGradient id="SVGID_6_" cx="87.3203" cy="145.0269" r="87.4221" gradientUnits="userSpaceOnUse">
				<stop  offset="0" style="stop-color:#FFFFFF"/>
				<stop  offset="1" style="stop-color:#2B2523"/>
			</radialGradient>
			<path fill="url(#SVGID_6_)" d="M86.892,144.692c0.32-0.055,0.629-0.106,0.92-0.161l44.215-55.228c0-2.093,0-4.392,0-6.795
				L86.892,144.692z"/>
			<radialGradient id="SVGID_7_" cx="87.3213" cy="145.0269" r="87.4104" gradientUnits="userSpaceOnUse">
				<stop  offset="0" style="stop-color:#FFFFFF"/>
				<stop  offset="1" style="stop-color:#2B2523"/>
			</radialGradient>
			<path fill="url(#SVGID_7_)" d="M76.46,145.333c0.17,0.008,0.346,0.015,0.519,0.021L41.284,22.873
				c-1.365,1.675-3.122,3.226-5.376,4.37L76.46,145.333z"/>
			<radialGradient id="SVGID_8_" cx="87.3232" cy="145.0259" r="87.422" gradientUnits="userSpaceOnUse">
				<stop  offset="0" style="stop-color:#FFFFFF"/>
				<stop  offset="1" style="stop-color:#2B2523"/>
			</radialGradient>
			<path fill="url(#SVGID_8_)" d="M77.343,145.369c0.16,0.006,0.326,0.007,0.49,0.009L51.106,11.069l-5.179,1.029
				c0,0-0.17,1.476-0.83,3.553L77.343,145.369z"/>
			<radialGradient id="SVGID_9_" cx="87.3232" cy="145.0259" r="87.4108" gradientUnits="userSpaceOnUse">
				<stop  offset="0" style="stop-color:#FFFFFF"/>
				<stop  offset="1" style="stop-color:#2B2523"/>
			</radialGradient>
			<path fill="url(#SVGID_9_)" d="M82.872,145.197L122.61,27.822c-2.267-0.918-4.087-2.231-5.546-3.712L82.334,145.24
				C82.516,145.226,82.693,145.21,82.872,145.197z"/>
			<radialGradient id="SVGID_10_" cx="87.3223" cy="145.0249" r="87.4121" gradientUnits="userSpaceOnUse">
				<stop  offset="0" style="stop-color:#FFFFFF"/>
				<stop  offset="1" style="stop-color:#2B2523"/>
			</radialGradient>
			<path fill="url(#SVGID_10_)" d="M81.955,145.267l31.056-127.283c-1.398-3.22-1.704-5.886-1.704-5.886l-3.802-0.753
				L81.451,145.297C81.621,145.287,81.789,145.278,81.955,145.267z"/>
			<radialGradient id="SVGID_11_" cx="87.3242" cy="145.0269" r="87.4075" gradientUnits="userSpaceOnUse">
				<stop  offset="0" style="stop-color:#FFFFFF"/>
				<stop  offset="1" style="stop-color:#2B2523"/>
			</radialGradient>
			<path fill="url(#SVGID_11_)" d="M83.869,145.099l51.073-116.362c-2.656,0.451-5.019,0.536-7.118,0.331L83.281,145.161
				C83.48,145.14,83.675,145.121,83.869,145.099z"/>
			<radialGradient id="SVGID_12_" cx="87.3213" cy="145.0249" r="87.4156" gradientUnits="userSpaceOnUse">
				<stop  offset="0" style="stop-color:#FFFFFF"/>
				<stop  offset="1" style="stop-color:#2B2523"/>
			</radialGradient>
			<path fill="url(#SVGID_12_)" d="M75.51,145.281c0.185,0.012,0.369,0.025,0.56,0.033L30.817,28.888
				c-2.038,0.34-4.343,0.402-6.961,0.087L75.51,145.281z"/>
			<radialGradient id="SVGID_13_" cx="87.3203" cy="145.0269" r="87.4121" gradientUnits="userSpaceOnUse">
				<stop  offset="0" style="stop-color:#FFFFFF"/>
				<stop  offset="1" style="stop-color:#2B2523"/>
			</radialGradient>
			<path fill="url(#SVGID_13_)" d="M70.121,144.656c0.333,0.056,0.682,0.111,1.045,0.166L25.211,92.349c0,2.398,0,4.36,0,5.662
				L70.121,144.656z"/>
			<radialGradient id="SVGID_14_" cx="87.3203" cy="145.0259" r="87.4223" gradientUnits="userSpaceOnUse">
				<stop  offset="0" style="stop-color:#FFFFFF"/>
				<stop  offset="1" style="stop-color:#2B2523"/>
			</radialGradient>
			<path fill="url(#SVGID_14_)" d="M85.505,144.9c0.264-0.036,0.518-0.072,0.766-0.11l45.756-68.646c0-2.951,0-5.915,0-8.727
				L85.505,144.9z"/>
			<radialGradient id="SVGID_15_" cx="87.3213" cy="145.0259" r="87.4135" gradientUnits="userSpaceOnUse">
				<stop  offset="0" style="stop-color:#FFFFFF"/>
				<stop  offset="1" style="stop-color:#2B2523"/>
			</radialGradient>
			<path fill="url(#SVGID_15_)" d="M73.266,145.087c0.236,0.027,0.469,0.051,0.711,0.074L25.211,64.724c0,2.814,0,5.857,0,8.936
				L73.266,145.087z"/>
			<radialGradient id="SVGID_16_" cx="87.3193" cy="145.0249" r="87.4107" gradientUnits="userSpaceOnUse">
				<stop  offset="0" style="stop-color:#FFFFFF"/>
				<stop  offset="1" style="stop-color:#2B2523"/>
			</radialGradient>
			<path fill="url(#SVGID_16_)" d="M67.802,144.201c0.418,0.093,0.887,0.191,1.41,0.289l-43.873-42.066
				c0.133,1.414,0.396,3.32,0.917,5.549L67.802,144.201z"/>
			<radialGradient id="SVGID_17_" cx="87.3203" cy="145.0249" r="87.4074" gradientUnits="userSpaceOnUse">
				<stop  offset="0" style="stop-color:#FFFFFF"/>
				<stop  offset="1" style="stop-color:#2B2523"/>
			</radialGradient>
			<path fill="url(#SVGID_17_)" d="M64.033,143.134c0.643,0.207,1.27,0.407,1.866,0.59c0.136,0.038,0.327,0.092,0.557,0.15
				l-38.827-31.221c0.65,1.846,1.489,3.799,2.543,5.789L64.033,143.134z"/>
			<radialGradient id="SVGID_18_" cx="87.3193" cy="145.0278" r="87.4117" gradientUnits="userSpaceOnUse">
				<stop  offset="0" style="stop-color:#FFFFFF"/>
				<stop  offset="1" style="stop-color:#2B2523"/>
			</radialGradient>
			<path fill="url(#SVGID_18_)" d="M39.455,130.254l15.877,9.578c2.156,0.94,4.161,1.722,6.015,2.386l-28.092-18.813
				C34.939,125.74,36.99,128.055,39.455,130.254z"/>
			<radialGradient id="SVGID_19_" cx="87.3223" cy="145.0259" r="87.4164" gradientUnits="userSpaceOnUse">
				<stop  offset="0" style="stop-color:#FFFFFF"/>
				<stop  offset="1" style="stop-color:#2B2523"/>
			</radialGradient>
			<path fill="url(#SVGID_19_)" d="M71.863,144.919c0.27,0.037,0.551,0.07,0.836,0.105L25.211,80.186c0,2.425,0,4.777,0,6.968
				L71.863,144.919z"/>
			<radialGradient id="SVGID_20_" cx="87.3213" cy="145.0249" r="87.4169" gradientUnits="userSpaceOnUse">
				<stop  offset="0" style="stop-color:#FFFFFF"/>
				<stop  offset="1" style="stop-color:#2B2523"/>
			</radialGradient>
			<path fill="url(#SVGID_20_)" d="M80.613,145.339c0.16-0.006,0.324-0.012,0.484-0.02l20.717-135.107l-6.823-1.354L80.613,145.339z
				"/>
			<radialGradient id="SVGID_21_" cx="87.3203" cy="145.0259" r="87.4649" gradientUnits="userSpaceOnUse">
				<stop  offset="0" style="stop-color:#FFFFFF"/>
				<stop  offset="1" style="stop-color:#2B2523"/>
			</radialGradient>
			<path fill="url(#SVGID_21_)" d="M79.798,145.372c0.164-0.005,0.315-0.013,0.473-0.019L89.232,7.714l-6.957-1.384L79.798,145.372z
				"/>
			<radialGradient id="SVGID_22_" cx="87.3232" cy="145.0269" r="87.4158" gradientUnits="userSpaceOnUse">
				<stop  offset="0" style="stop-color:#FFFFFF"/>
				<stop  offset="1" style="stop-color:#2B2523"/>
			</radialGradient>
			<path fill="url(#SVGID_22_)" d="M78.993,145.386c0.156-0.004,0.314-0.006,0.472-0.009L76.378,6.051l-6.965,1.383L78.993,145.386z
				"/>
			<radialGradient id="SVGID_23_" cx="87.3242" cy="145.0269" r="87.4232" gradientUnits="userSpaceOnUse">
				<stop  offset="0" style="stop-color:#FFFFFF"/>
				<stop  offset="1" style="stop-color:#2B2523"/>
			</radialGradient>
			<path fill="url(#SVGID_23_)" d="M78.181,145.384c0.133,0.002,0.264,0.006,0.4,0.008l0,0c0.012,0,0.023,0,0.035,0
				c0.013,0,0.025,0,0.037,0l0,0h0.003L63.646,8.579L56.81,9.938L78.181,145.384z"/>
			<radialGradient id="SVGID_24_" cx="87.3223" cy="145.0259" r="87.4106" gradientUnits="userSpaceOnUse">
				<stop  offset="0" style="stop-color:#FFFFFF"/>
				<stop  offset="1" style="stop-color:#2B2523"/>
			</radialGradient>
			<path fill="url(#SVGID_24_)" d="M18.326,43.68c1.611,1.296,4.808,4.611,6.206,11.221l49.927,90.301
				c0.209,0.019,0.411,0.038,0.623,0.053L20.229,33.945l-2.652,8.373L18.326,43.68z"/>
		</g>
		<g>
			<g>
				<path fill="#E4EBBC" d="M50.319,52.429l0.896-7.544l-3.146-8.792c-2.157,1.021-3.329,3.023-3.081,5.663
					c0.113,1.227,0.443,1.39,0.488,1.604c-1.657,0.154-2.626-0.363-2.79-2.091c-0.297-3.194,3.841-6.659,7.852-7.032
					c0.338-0.03,0.65-0.036,0.965-0.04l2.894,8.403l2.759-8.858l1.588-0.148l-3.685,10.934l-0.893,7.547L50.319,52.429z"/>
				<path fill="#E4EBBC" d="M67.341,42.86c0.098,0.044,0.197,0.04,0.268,0.036c1.107-0.055,2.64-0.855,3.643-1.628L71.5,41.91
					c-0.867,1.033-2.427,1.833-4.171,2.208c-0.17,4.479-2.448,7.392-5.413,7.537c-2.241,0.108-3.909-0.875-4.04-3.625
					c-0.137-2.772,1.225-8.64,6.19-8.876C66.142,39.051,67.22,40.328,67.341,42.86z M65.33,44.287
					c-0.512-0.096-0.676-0.5-0.699-0.982c-0.033-0.675,0.257-1.125,0.684-1.338c-0.097-1.011-0.357-1.385-0.98-1.354
					c-1.715,0.083-2.996,4.569-2.884,6.933c0.078,1.59,0.408,1.936,1.327,1.894C63.957,49.381,65.082,47.149,65.33,44.287z"/>
				<path fill="#E4EBBC" d="M73.792,39.12l-1.663,8.213c-0.045,0.194-0.066,0.411-0.062,0.604c0.002,0.555,0.176,1.059,0.729,1.054
					c0.943-0.008,1.561-0.928,1.912-2.139l1.569-7.754l3.474-0.032l-1.663,8.213c-0.07,0.315-0.092,0.556-0.092,0.773
					c0.008,0.675,0.324,0.891,0.998,0.884c0.457-0.006,0.578-0.077,0.796-0.151c-0.106,1.736-1.354,2.495-2.655,2.506
					c-1.328,0.013-2.203-0.849-2.385-2.271c-1.187,1.988-2.56,2.316-3.573,2.324c-1.445,0.013-2.587-0.844-2.604-2.871
					c-0.004-0.458,0.062-0.989,0.178-1.569l1.572-7.755L73.792,39.12z"/>
				<path fill="#E4EBBC" d="M82.83,41.627c-1.662-0.098-2.541-0.753-2.441-2.487c0.188-3.203,2.896-6.112,8.844-5.764
					c1.109,0.064,4.011,0.861,6.466,1.007c1.182,0.068,2.251-0.013,2.948-0.408c-0.64,1.026-1.019,1.704-2.448,7.132
					c1.105-1.121,2.179-1.275,2.948-1.23c1.541,0.089,2.628,0.951,2.513,2.878c-0.114,1.949-1.438,4.797-1.521,6.146
					c-0.033,0.602,0.186,1.025,0.906,1.068c1.06,0.061,1.542-0.781,2.147-2.001l1.008,0.058c-1.577,3.872-3.462,4.268-4.739,4.193
					c-2.093-0.123-2.763-1.516-2.681-2.89c0.094-1.636,1.351-4.535,1.444-6.075c0.046-0.797-0.218-1.248-0.796-1.28
					c-0.842-0.05-1.523,0.853-1.951,1.961c-0.533,2.074-1.166,4.622-1.932,7.792l-3.468-0.203l4.2-15.172
					c-0.981-0.13-2.056-0.385-3.155-0.595l-4.319,15.575l-3.468-0.203l4.38-15.789c-2.702-0.062-4.903,0.847-5.128,4.629
					C82.518,41.197,82.818,41.409,82.83,41.627z"/>
				<path fill="#E4EBBC" d="M107.614,50.95c0.905,0.117,2.13-0.337,2.983-0.909c-0.848,2.663-2.675,3.259-4.589,3.014
					c-2.227-0.281-3.57-1.569-3.226-4.274c0.349-2.752,2.636-8.323,7.541-7.7c2.13,0.27,2.493,1.436,2.342,2.632
					c-0.354,2.775-3.252,4.547-6.146,4.351c-0.055,0.235-0.111,0.496-0.143,0.712C106.188,50.284,106.775,50.844,107.614,50.95z
					 M110.355,42.375c-1.197-0.151-2.732,2.353-3.52,4.562c1.877,0.141,3.737-1.496,3.991-3.505
					C110.906,42.834,110.81,42.433,110.355,42.375z"/>
			</g>
			<g>
				<path fill="#E4EBBC" d="M43.665,64.029l-1.309,13.777c0.494,0.28,0.967,0.373,1.424,0.318c2.847-0.332,3.935-6.239,3.368-11.079
					c-0.379-3.258-1.938-4.364-4.025-4.121c-3.567,0.417-6.023,2.912-5.598,6.553c0.141,1.222,0.477,1.378,0.524,1.592
					c-1.581,0.185-2.632-0.299-2.825-1.93c-0.382-3.283,3.312-6.797,8.177-7.365c4.649-0.541,6.775,2.488,7.203,6.156
					c0.642,5.512-1.766,11.741-5.313,12.155c-0.908,0.104-1.935-0.165-3.071-0.932l-0.078,0.981l-3.449,0.402l1.48-15.617
					L43.665,64.029z"/>
				<path fill="#E4EBBC" d="M56.965,76.8c1.896-0.138,2.974-1.281,4.079-2.741l0.814-0.057c-1.208,2.312-3.088,4.696-6.29,4.929
					c-2.26,0.165-3.831-0.833-4.028-3.552c-0.203-2.766,0.938-8.675,5.87-9.034c2.142-0.156,2.728,0.914,2.813,2.117
					c0.203,2.767-2.287,5.099-5.161,5.477c0,0.339,0,0.677,0.021,0.966C55.201,76.543,55.807,76.885,56.965,76.8z M57.694,67.606
					c-1.224,0.09-2.218,2.749-2.522,5.165c1.841-0.256,3.343-2.227,3.198-4.222C58.325,67.947,58.155,67.574,57.694,67.606z"/>
				<path fill="#E4EBBC" d="M71.26,73.655c-1.196,1.496-2.487,2.463-3.567,3.158c-0.973,1.104-2.502,1.548-3.729,1.597
					c-2.458,0.096-3.585-1.476-3.644-2.948c-0.045-1.108,0.553-1.954,1.191-2.292c1.254-2.44,2.028-4.863,2.683-7.256l3.55-0.622
					c0.537,6.234,0.814,7.164,0.879,8.757c0.012,0.336,0,0.626-0.064,0.92c0.641-0.413,1.248-0.872,1.69-1.275L71.26,73.655z
					 M62.24,75.192c-0.239,0.01-0.533-0.05-0.663-0.289c0.045,1.136,0.476,1.674,1.536,1.632c1.062-0.042,2.077-0.639,2.011-2.325
					c-0.049-1.253-0.294-1.992-0.683-5.699c-0.42,1.588-1.037,3.062-1.773,4.636c0.32,0.132,0.572,0.413,0.588,0.82
					C63.279,74.549,62.871,75.167,62.24,75.192z"/>
				<path fill="#E4EBBC" d="M75.307,65.912l-1.643,8.219c-0.068,0.314-0.09,0.556-0.088,0.772c0.007,0.676,0.324,0.89,1,0.879
					c0.939-0.008,1.796-0.935,2.146-2.145l1.01-0.011c-1.326,3.947-3.71,4.502-5.009,4.518c-1.447,0.016-2.589-0.838-2.616-2.864
					c-0.004-0.457,0.063-0.991,0.178-1.569l1.552-7.759L75.307,65.912z M74.162,60.789c1.06-0.012,1.94,0.846,1.95,1.905
					c0.012,1.063-0.846,1.916-1.905,1.926c-1.062,0.013-1.914-0.819-1.926-1.88C72.27,61.677,73.102,60.798,74.162,60.789z"/>
				<path fill="#E4EBBC" d="M88.479,66.124l-2.655,11.131c1.48-0.495,2.395-1.293,3.119-3.375l1.015,0.025
					c-1.019,3.159-2.874,4.033-4.377,4.405l-0.405,1.728c-0.807,3.431-2.849,4.034-4.44,3.995c-1.47-0.035-2.681-0.837-2.646-2.404
					c0.053-2.027,2.2-2.985,4.021-3.498l0.32-1.271c-0.721,0.729-1.674,1.288-2.926,1.255c-1.642-0.039-3.186-1.088-3.112-3.959
					c0.074-3.254,2.204-8.39,6.399-8.29c1.375,0.035,1.94,0.579,1.923,1.277l-0.003,0.146l0.294-1.248L88.479,66.124z
					 M80.229,82.139c0.502,0.013,1.1-0.698,1.447-2.112l0.164-0.695c-1.242,0.426-2.39,1.029-2.414,1.989
					C79.416,81.66,79.695,82.125,80.229,82.139z M79.965,73.905c-0.043,1.854,0.727,1.899,1.163,1.91
					c0.647,0.015,1.604-0.613,1.972-1.834l1.369-5.686c-0.016-0.267-0.194-0.897-0.967-0.917
					C81.451,67.332,80.02,71.638,79.965,73.905z"/>
				<path fill="#E4EBBC" d="M95.396,68.689c-0.862-0.062-1.586,0.899-2.035,2.077l-2.196,7.601L87.7,78.115l3.425-11.84l3.462,0.253
					l-0.354,1.23c1.094-1.08,2.165-1.196,2.913-1.143c1.536,0.113,2.611,0.988,2.473,2.915c-0.143,1.946-1.513,4.772-1.609,6.119
					c-0.042,0.601,0.17,1.029,0.891,1.082c1.057,0.077,1.553-0.76,2.174-1.97l1.01,0.074c-1.633,3.845-3.522,4.214-4.798,4.123
					c-2.094-0.152-2.74-1.554-2.641-2.924c0.121-1.636,1.416-4.514,1.529-6.055C96.231,69.186,95.978,68.732,95.396,68.689z"/>
				<path fill="#E4EBBC" d="M105.77,77.794c1.893,0.223,3.168-0.695,4.527-1.922l0.812,0.097c-1.623,2.044-3.923,4.031-7.108,3.657
					c-2.251-0.266-3.61-1.543-3.29-4.25c0.324-2.756,2.563-8.347,7.476-7.769c2.13,0.252,2.505,1.413,2.362,2.611
					c-0.324,2.756-3.211,4.579-6.106,4.408c-0.062,0.333-0.127,0.663-0.16,0.953C104.091,77.207,104.618,77.658,105.77,77.794z
					 M108.229,68.9c-1.224-0.144-2.698,2.284-3.458,4.597c1.859,0.099,3.706-1.554,3.94-3.543
					C108.779,69.355,108.684,68.954,108.229,68.9z"/>
				<path fill="#E4EBBC" d="M116.555,69.027l-0.548,1.429c0.948-0.582,1.978-1.201,3.12-1.019c1.074,0.171,1.505,1.146,1.359,2.051
					c-0.134,0.834-0.824,1.652-1.992,1.464c-1.336-0.211-0.418-1.679-1.131-1.793c-0.718-0.114-1.202,0.176-1.887,0.629l-3.35,8.755
					l-3.436-0.549l4.433-11.517L116.555,69.027z"/>
			</g>
		</g>
		<g>
			<g>
				<path fill="#5B906A" d="M50.319,51.021l0.896-7.545l-3.146-8.792c-2.157,1.023-3.329,3.023-3.081,5.665
					c0.113,1.225,0.443,1.39,0.488,1.602c-1.657,0.154-2.626-0.361-2.79-2.09c-0.297-3.193,3.841-6.659,7.852-7.033
					c0.338-0.029,0.65-0.035,0.965-0.039l2.894,8.402l2.759-8.857l1.588-0.148l-3.685,10.933l-0.893,7.546L50.319,51.021z"/>
				<path fill="#5B906A" d="M67.341,41.45c0.098,0.044,0.197,0.04,0.268,0.037c1.107-0.053,2.64-0.854,3.643-1.627L71.5,40.5
					c-0.867,1.033-2.427,1.833-4.171,2.21c-0.17,4.477-2.448,7.391-5.413,7.535c-2.241,0.109-3.909-0.875-4.04-3.625
					c-0.137-2.771,1.225-8.639,6.19-8.878C66.142,37.643,67.22,38.919,67.341,41.45z M65.33,42.878
					c-0.512-0.096-0.676-0.5-0.699-0.981c-0.033-0.675,0.257-1.125,0.684-1.338c-0.097-1.012-0.357-1.385-0.98-1.356
					c-1.715,0.084-2.996,4.569-2.884,6.933c0.078,1.59,0.408,1.937,1.327,1.893C63.957,47.973,65.082,45.741,65.33,42.878z"/>
				<path fill="#5B906A" d="M73.792,37.71l-1.663,8.213c-0.045,0.194-0.066,0.412-0.062,0.605c0.002,0.555,0.176,1.059,0.729,1.054
					c0.943-0.008,1.561-0.93,1.912-2.139l1.569-7.754l3.474-0.032l-1.663,8.213c-0.07,0.316-0.092,0.555-0.092,0.774
					c0.008,0.674,0.324,0.89,0.998,0.884c0.457-0.005,0.578-0.077,0.796-0.153c-0.106,1.737-1.354,2.497-2.655,2.508
					c-1.328,0.013-2.203-0.849-2.385-2.271c-1.187,1.988-2.56,2.316-3.573,2.323c-1.445,0.013-2.587-0.845-2.604-2.87
					c-0.004-0.458,0.062-0.99,0.178-1.568l1.572-7.756L73.792,37.71z"/>
				<path fill="#5B906A" d="M82.83,40.219c-1.662-0.098-2.541-0.755-2.441-2.488c0.188-3.202,2.896-6.112,8.844-5.763
					c1.109,0.063,4.011,0.86,6.466,1.007c1.182,0.066,2.251-0.013,2.948-0.409c-0.64,1.026-1.019,1.703-2.448,7.131
					c1.105-1.12,2.179-1.273,2.948-1.229c1.541,0.09,2.628,0.952,2.513,2.878c-0.114,1.95-1.438,4.797-1.521,6.145
					c-0.033,0.604,0.186,1.028,0.906,1.07c1.06,0.062,1.542-0.779,2.147-2.001l1.008,0.059c-1.577,3.871-3.462,4.268-4.739,4.193
					c-2.093-0.123-2.763-1.516-2.681-2.89c0.094-1.636,1.351-4.534,1.444-6.075c0.046-0.795-0.218-1.246-0.796-1.279
					c-0.842-0.05-1.523,0.853-1.951,1.962c-0.533,2.074-1.166,4.62-1.932,7.79l-3.468-0.202l4.2-15.174
					c-0.981-0.129-2.056-0.385-3.155-0.594l-4.319,15.575l-3.468-0.203l4.38-15.789c-2.702-0.063-4.903,0.847-5.128,4.628
					C82.518,39.789,82.818,40,82.83,40.219z"/>
				<path fill="#5B906A" d="M107.614,49.542c0.905,0.117,2.13-0.337,2.983-0.909c-0.848,2.663-2.675,3.259-4.589,3.015
					c-2.227-0.281-3.57-1.569-3.226-4.273c0.349-2.752,2.636-8.323,7.541-7.7c2.13,0.27,2.493,1.433,2.342,2.632
					c-0.354,2.776-3.252,4.547-6.146,4.351c-0.055,0.235-0.111,0.497-0.143,0.712C106.188,48.876,106.775,49.437,107.614,49.542z
					 M110.355,40.967c-1.197-0.151-2.732,2.352-3.52,4.562c1.877,0.141,3.737-1.495,3.991-3.504
					C110.906,41.426,110.81,41.025,110.355,40.967z"/>
			</g>
			<g>
				<path fill="#5B906A" d="M43.665,62.621l-1.309,13.776c0.494,0.282,0.967,0.374,1.424,0.319
					c2.847-0.332,3.935-6.239,3.368-11.078c-0.379-3.258-1.938-4.364-4.025-4.122c-3.567,0.416-6.023,2.911-5.598,6.554
					c0.141,1.222,0.477,1.377,0.524,1.591c-1.581,0.186-2.632-0.301-2.825-1.93c-0.382-3.282,3.312-6.797,8.177-7.364
					c4.649-0.541,6.775,2.489,7.203,6.156c0.642,5.511-1.766,11.741-5.313,12.156c-0.908,0.104-1.935-0.165-3.071-0.934
					l-0.078,0.981l-3.449,0.403l1.48-15.618L43.665,62.621z"/>
				<path fill="#5B906A" d="M56.965,75.391c1.896-0.136,2.974-1.28,4.079-2.739l0.814-0.058c-1.208,2.311-3.088,4.696-6.29,4.93
					c-2.26,0.165-3.831-0.834-4.028-3.552c-0.203-2.766,0.938-8.676,5.87-9.035c2.142-0.156,2.728,0.914,2.813,2.118
					c0.203,2.765-2.287,5.098-5.161,5.475c0,0.341,0,0.678,0.021,0.967C55.201,75.134,55.807,75.476,56.965,75.391z M57.694,66.198
					c-1.224,0.09-2.218,2.749-2.522,5.165c1.841-0.255,3.343-2.226,3.198-4.224C58.325,66.539,58.155,66.167,57.694,66.198z"/>
				<path fill="#5B906A" d="M71.26,72.246c-1.196,1.497-2.487,2.462-3.567,3.158c-0.973,1.103-2.502,1.549-3.729,1.598
					c-2.458,0.095-3.585-1.477-3.644-2.949c-0.045-1.107,0.553-1.954,1.191-2.292c1.254-2.442,2.028-4.863,2.683-7.258l3.55-0.62
					c0.537,6.235,0.814,7.165,0.879,8.756c0.012,0.337,0,0.626-0.064,0.921c0.641-0.413,1.248-0.872,1.69-1.274L71.26,72.246z
					 M62.24,73.784c-0.239,0.008-0.533-0.05-0.663-0.288c0.045,1.135,0.476,1.671,1.536,1.632c1.062-0.043,2.077-0.64,2.011-2.327
					c-0.049-1.252-0.294-1.992-0.683-5.699c-0.42,1.59-1.037,3.061-1.773,4.638c0.32,0.133,0.572,0.411,0.588,0.82
					C63.279,73.141,62.871,73.76,62.24,73.784z"/>
				<path fill="#5B906A" d="M75.307,64.502l-1.643,8.219c-0.068,0.315-0.09,0.558-0.088,0.773c0.007,0.677,0.324,0.89,1,0.88
					c0.939-0.01,1.796-0.936,2.146-2.147l1.01-0.01c-1.326,3.945-3.71,4.503-5.009,4.518c-1.447,0.016-2.589-0.839-2.616-2.865
					c-0.004-0.458,0.063-0.99,0.178-1.569l1.552-7.759L75.307,64.502z M74.162,59.379c1.06-0.01,1.94,0.846,1.95,1.907
					c0.012,1.062-0.846,1.916-1.905,1.926c-1.062,0.014-1.914-0.819-1.926-1.881C72.27,60.269,73.102,59.39,74.162,59.379z"/>
				<path fill="#5B906A" d="M88.479,64.717l-2.655,11.131c1.48-0.496,2.395-1.294,3.119-3.376l1.015,0.024
					c-1.019,3.161-2.874,4.035-4.377,4.406l-0.405,1.729c-0.807,3.43-2.849,4.031-4.44,3.993c-1.47-0.034-2.681-0.835-2.646-2.403
					c0.053-2.027,2.2-2.986,4.021-3.498l0.32-1.271c-0.721,0.731-1.674,1.288-2.926,1.255c-1.642-0.039-3.186-1.088-3.112-3.959
					c0.074-3.253,2.204-8.39,6.399-8.289c1.375,0.034,1.94,0.578,1.923,1.277l-0.003,0.144l0.294-1.247L88.479,64.717z
					 M80.229,80.732c0.502,0.012,1.1-0.699,1.447-2.113l0.164-0.697c-1.242,0.428-2.39,1.03-2.414,1.992
					C79.416,80.251,79.695,80.716,80.229,80.732z M79.965,72.496c-0.043,1.856,0.727,1.9,1.163,1.91
					c0.647,0.017,1.604-0.614,1.972-1.834l1.369-5.685c-0.016-0.267-0.194-0.897-0.967-0.917
					C81.451,65.922,80.02,70.229,79.965,72.496z"/>
				<path fill="#5B906A" d="M95.396,67.282c-0.862-0.063-1.586,0.899-2.035,2.075l-2.196,7.603L87.7,76.707l3.425-11.84l3.462,0.252
					l-0.354,1.231c1.094-1.082,2.165-1.197,2.913-1.143c1.536,0.112,2.611,0.988,2.473,2.914c-0.143,1.948-1.513,4.773-1.609,6.12
					c-0.042,0.602,0.17,1.028,0.891,1.08c1.057,0.078,1.553-0.757,2.174-1.969l1.01,0.074c-1.633,3.844-3.522,4.215-4.798,4.125
					c-2.094-0.153-2.74-1.554-2.641-2.924c0.121-1.638,1.416-4.515,1.529-6.055C96.231,67.777,95.978,67.324,95.396,67.282z"/>
				<path fill="#5B906A" d="M105.77,76.386c1.893,0.224,3.168-0.695,4.527-1.921l0.812,0.095c-1.623,2.047-3.923,4.033-7.108,3.658
					c-2.251-0.266-3.61-1.543-3.29-4.25c0.324-2.755,2.563-8.346,7.476-7.768c2.13,0.25,2.505,1.412,2.362,2.61
					c-0.324,2.756-3.211,4.579-6.106,4.407c-0.062,0.333-0.127,0.664-0.16,0.954C104.091,75.8,104.618,76.249,105.77,76.386z
					 M108.229,67.493c-1.224-0.145-2.698,2.284-3.458,4.596c1.859,0.098,3.706-1.554,3.94-3.543
					C108.779,67.947,108.684,67.545,108.229,67.493z"/>
				<path fill="#5B906A" d="M116.555,67.619l-0.548,1.429c0.948-0.582,1.978-1.2,3.12-1.018c1.074,0.171,1.505,1.145,1.359,2.051
					c-0.134,0.834-0.824,1.651-1.992,1.463c-1.336-0.211-0.418-1.679-1.131-1.792c-0.718-0.115-1.202,0.176-1.887,0.628l-3.35,8.756
					l-3.436-0.549l4.433-11.516L116.555,67.619z"/>
			</g>
		</g>
	</g>
	<radialGradient id="SVGID_25_" cx="23.3477" cy="27.5596" r="84.6921" gradientUnits="userSpaceOnUse">
		<stop  offset="0" style="stop-color:#FFFFFF"/>
		<stop  offset="1" style="stop-color:#2B2523"/>
	</radialGradient>
	<path opacity="0.66" fill="url(#SVGID_25_)" d="M111.294,12.584c-0.052-0.305-0.069-0.478-0.069-0.478L78.571,5.619V5.615
		L78.548,5.61l-0.014,0.002L78.522,5.61l-0.023,0.005v0.004l-32.653,6.487c0,0-2.316,20.526-24.026,16.58L17.279,43
		c0,0,7.851,4.312,7.851,18.751c0,14.441,0,38.028,0,38.028s-0.682,23.928,23.427,36.861
		C64.449,68.443,96.122,28.539,111.294,12.584z"/>
	<g>
		<path fill="#5B906A" d="M142.436,116.143l8.904-11.358l0.055-0.096c-22.164-10.312-46.872-16.078-72.929-16.078
			c-26.195,0-51.022,5.829-73.277,16.243l8.848,11.137l-2.588,16.967l-0.087,0.233c21.3-9.373,42.338-14.592,67.104-14.592
			c24.551,0,45.895,5.125,67.054,14.346L142.436,116.143z"/>
		<g>
			<g>
				<path fill="#E4EBBC" d="M31.169,109.5l2.326-0.591l0.414,1.637l-2.322,0.592l1.205,4.732l-1.803,0.459l-2.917-11.461
					l4.763-1.214l0.418,1.636l-2.963,0.757L31.169,109.5z"/>
				<path fill="#E4EBBC" d="M40.347,114.09c-0.164-0.275-0.271-0.442-0.477-1.384l-0.402-1.814
					c-0.236-1.072-0.685-1.389-1.509-1.206l-0.627,0.138l1.033,4.703l-1.814,0.4l-2.544-11.553l2.741-0.604
					c1.881-0.415,2.883,0.282,3.274,2.064l0.199,0.908c0.264,1.189,0.055,2.048-0.672,2.605c0.99,0.18,1.48,0.988,1.746,2.192
					l0.391,1.783c0.125,0.562,0.23,0.97,0.506,1.358L40.347,114.09z M36.188,104.625l0.781,3.55l0.709-0.157
					c0.675-0.15,1.023-0.539,0.82-1.463l-0.251-1.138c-0.183-0.825-0.542-1.125-1.185-0.984L36.188,104.625z"/>
				<path fill="#E4EBBC" d="M43.671,106.439l2.511-0.466l0.309,1.661l-2.507,0.468l0.633,3.405l3.156-0.588l0.309,1.662
					l-4.982,0.928l-2.168-11.629l4.985-0.93l0.309,1.663l-3.156,0.586L43.671,106.439z"/>
				<path fill="#E4EBBC" d="M49.917,105.349l2.52-0.394l0.264,1.673l-2.523,0.391l0.533,3.424l3.175-0.493l0.257,1.67l-5.01,0.78
					l-1.82-11.691l5.01-0.781l0.261,1.671l-3.175,0.493L49.917,105.349z"/>
				<path fill="#E4EBBC" d="M60.302,108.669l0.367-9.742l1.692-0.184l-0.529,11.951l-2.757,0.301l-3.093-11.557l1.866-0.203
					L60.302,108.669z"/>
				<path fill="#E4EBBC" d="M65.735,103.48l2.541-0.193l0.127,1.686l-2.54,0.19l0.26,3.452l3.198-0.242l0.127,1.686l-5.052,0.381
					L63.51,98.651l5.052-0.381l0.125,1.685l-3.196,0.24L65.735,103.48z"/>
				<path fill="#E4EBBC" d="M75.716,105.358l0.066,1.569c0.078,1.891-0.821,3.013-2.644,3.09c-1.824,0.076-2.814-0.967-2.896-2.855
					l-0.257-6.146c-0.082-1.891,0.817-3.012,2.642-3.09c1.825-0.076,2.815,0.966,2.895,2.855l0.049,1.148l-1.758,0.074l-0.051-1.266
					c-0.037-0.845-0.422-1.15-1.012-1.125c-0.594,0.023-0.947,0.361-0.914,1.205l0.27,6.385c0.035,0.841,0.42,1.131,1.012,1.107
					c0.59-0.026,0.947-0.346,0.914-1.191l-0.072-1.688L75.716,105.358z"/>
				<path fill="#E4EBBC" d="M76.306,97.927l5.743-0.045l0.012,1.688l-1.941,0.017l0.082,10.133l-1.86,0.013l-0.078-10.132
					l-1.941,0.016L76.306,97.927z"/>
				<path fill="#E4EBBC" d="M82.945,100.72c0.055-1.889,1.081-2.943,2.905-2.893c1.822,0.049,2.788,1.158,2.736,3.05l-0.172,6.149
					c-0.052,1.891-1.078,2.943-2.902,2.893c-1.825-0.049-2.788-1.158-2.737-3.049L82.945,100.72z M84.629,107.041
					c-0.024,0.844,0.339,1.174,0.931,1.191c0.594,0.017,0.971-0.295,0.996-1.139l0.178-6.385c0.021-0.846-0.342-1.176-0.932-1.191
					c-0.592-0.018-0.97,0.293-0.994,1.138L84.629,107.041z"/>
				<path fill="#E4EBBC" d="M93.31,110.179c-0.082-0.311-0.134-0.5-0.07-1.461l0.125-1.854c0.072-1.097-0.27-1.525-1.112-1.582
					l-0.643-0.043l-0.32,4.803l-1.854-0.125l0.793-11.796l2.799,0.188c1.921,0.129,2.687,1.078,2.563,2.898l-0.064,0.926
					c-0.082,1.214-0.521,1.979-1.372,2.312c0.899,0.449,1.142,1.363,1.06,2.594l-0.121,1.819c-0.039,0.573-0.051,0.995,0.104,1.444
					L93.31,110.179z M91.967,99.931l-0.242,3.624l0.725,0.048c0.69,0.046,1.133-0.228,1.196-1.173l0.078-1.161
					c0.059-0.844-0.202-1.233-0.859-1.277L91.967,99.931z"/>
				<path fill="#E4EBBC" d="M105.3,102.306l-0.051,0.42c-0.154,1.207-0.621,1.93-1.494,2.213c0.943,0.51,1.215,1.449,1.057,2.689
					l-0.121,0.956c-0.229,1.812-1.307,2.663-3.152,2.429l-2.901-0.367l1.488-11.74l2.782,0.354
					C104.819,99.502,105.53,100.494,105.3,102.306z M101.15,105.597l-0.457,3.604l1.057,0.136c0.621,0.079,0.994-0.166,1.103-1.037
					l0.131-1.022c0.139-1.092-0.173-1.471-1.012-1.576L101.15,105.597z M101.756,100.818l-0.393,3.101l0.721,0.093
					c0.687,0.088,1.145-0.162,1.263-1.102l0.084-0.653c0.107-0.839-0.129-1.243-0.783-1.326L101.756,100.818z"/>
				<path fill="#E4EBBC" d="M111.242,112.533l-1.85-0.316l0.047-2.168l-2.246-0.386l-0.679,2.059l-1.684-0.286l3.864-11.334
					l2.681,0.461L111.242,112.533z M107.695,108.121l1.766,0.305l0.127-6.045L107.695,108.121z"/>
				<path fill="#E4EBBC" d="M114.544,101.144l2.871,0.635c1.813,0.403,2.483,1.606,2.075,3.455l-1.293,5.839
					c-0.41,1.849-1.524,2.657-3.339,2.256l-2.871-0.636L114.544,101.144z M115.994,103.195l-1.825,8.251l1.023,0.228
					c0.575,0.126,0.987-0.094,1.172-0.918l1.329-6.006c0.182-0.826-0.1-1.199-0.678-1.327L115.994,103.195z"/>
				<path fill="#E4EBBC" d="M122.997,108.552l2.514,0.682l-0.984,3.62c-0.496,1.827-1.693,2.623-3.453,2.146
					c-1.763-0.479-2.392-1.771-1.896-3.597l1.611-5.937c0.497-1.827,1.692-2.623,3.452-2.145c1.763,0.479,2.394,1.77,1.896,3.596
					l-0.3,1.109l-1.696-0.461l0.333-1.222c0.222-0.816-0.054-1.225-0.626-1.38c-0.572-0.154-1.016,0.059-1.236,0.875l-1.672,6.164
					c-0.221,0.816,0.058,1.206,0.631,1.361c0.568,0.155,1.008-0.042,1.229-0.855l0.57-2.105l-0.814-0.221L122.997,108.552z"/>
				<path fill="#E4EBBC" d="M128.646,109.955l2.426,0.779l-0.518,1.609l-2.427-0.783l-1.062,3.296l3.054,0.986l-0.516,1.605
					l-4.824-1.555l3.625-11.253l4.822,1.554l-0.516,1.608l-3.056-0.984L128.646,109.955z"/>
			</g>
		</g>
	</g>
</g>
</svg>
