<?xml version="1.0" encoding="utf-8"?>
<!-- Generator: Adobe Illustrator 15.0.0, SVG Export Plug-In . SVG Version: 6.00 Build 0)  -->
<!DOCTYPE svg PUBLIC "-//W3C//DTD SVG 1.1//EN" "http://www.w3.org/Graphics/SVG/1.1/DTD/svg11.dtd">
<svg version="1.1" id="Ebene_1" xmlns="http://www.w3.org/2000/svg" xmlns:xlink="http://www.w3.org/1999/xlink" x="0px" y="0px"
	 height="155.765px" viewBox="0 0 170.639 155.765" enable-background="new 0 0 170.639 155.765"
	 xml:space="preserve">
<g>
	<g>
		<g>
			<radialGradient id="SVGID_1_" cx="84.103" cy="97.1768" r="59.0351" gradientUnits="userSpaceOnUse">
				<stop  offset="0" style="stop-color:#FAF1D9"/>
				<stop  offset="1" style="stop-color:#E0DACF"/>
			</radialGradient>
			<path fill="url(#SVGID_1_)" d="M143.582,38.589H84.12h-0.028H24.624c0,104.497,58.07,116.889,59.468,117.171v0.005
				c0,0,0.006,0,0.013-0.003c0.01,0.003,0.016,0.003,0.016,0.003v-0.005C85.513,155.478,143.582,143.086,143.582,38.589z"/>
			<radialGradient id="SVGID_2_" cx="84.105" cy="17.8896" r="18.4909" gradientUnits="userSpaceOnUse">
				<stop  offset="0" style="stop-color:#6AA9A7"/>
				<stop  offset="1" style="stop-color:#46948B"/>
			</radialGradient>
			<path fill-rule="evenodd" clip-rule="evenodd" fill="url(#SVGID_2_)" d="M97.159,11.279c-0.424-0.474-0.756-1.232-0.756-2.085
				c0-1.801,1.515-3.365,3.366-3.365c1.846,0,3.409,1.564,3.409,3.365c0,1.753-1.326,3.175-3.032,3.414l-5.119,13.884
				c-4.029-0.522-8.055-0.806-10.945-0.806c-4.599,0-7.962,0.567-10.899,0.806L68.16,12.559c-1.66,0-3.129-1.564-3.129-3.365
				c0-1.848,1.563-3.412,3.411-3.412s3.367,1.564,3.367,3.412c0,0.521-0.144,0.996-0.808,2.038l4.881,5.544l2.037-9.858
				c-1.327-0.047-2.653-1.516-2.653-3.316c0-1.99,1.612-3.602,3.602-3.602c1.943,0,3.603,1.612,3.603,3.602
				c0,1.089-0.569,2.369-1.659,2.891l3.365,9.762h0.097l3.219-9.762c-0.901-0.711-1.42-1.753-1.42-2.891
				c0-1.99,1.61-3.602,3.601-3.602c1.941,0,3.601,1.612,3.601,3.602c0,1.707-0.992,2.843-2.462,3.316l1.656,9.858L97.159,11.279z
				 M70.341,35.779c0-2.132-0.051-6.396,2.746-6.633c2.938-0.237,6.302-0.807,10.9-0.807c2.938,0,6.92,0.285,10.945,0.807
				c3.034,0.378,2.985,3.98,2.985,6.633H70.341z"/>
			<radialGradient id="SVGID_3_" cx="85.7534" cy="86.7021" r="53.1928" gradientUnits="userSpaceOnUse">
				<stop  offset="0" style="stop-color:#6AA9A7"/>
				<stop  offset="1" style="stop-color:#46948B"/>
			</radialGradient>
			<path fill="url(#SVGID_3_)" d="M135.812,96.868c4.719-15.233,7.77-34.334,7.77-58.279h-27.819L27.925,78.365
				c4.911,27.143,14.648,44.886,24.663,56.449L135.812,96.868z"/>
		</g>
		<g>
			<g>
				<path fill="#58695F" d="M72.291,74.885l0.577,1.464l-2.328,1.094l2.922,7.429l-2.297,1.079l-5.191-13.204
					c-1.192,0.632-1.545,1.826,0.247,4.73c0.571,0.927,0.869,0.975,0.988,1.131c-1.101,0.514-1.987,0.347-2.796-0.962
					c-1.489-2.413-1.415-5.423,2.525-7.272c0.635-0.298,1.777-0.552,2.782-1.024c0.493-0.232,0.952-0.52,1.302-0.891
					c0.243,0.866,0.882,1.997-0.171,2.889c-0.734,0.343-1.6,0.541-2.448,0.702l1.562,3.929L72.291,74.885z"/>
				<path fill="#58695F" d="M74.858,72.511l0.485,1.223c0.221-0.806,0.469-1.671,1.234-2.031c0.717-0.336,1.516,0.157,1.941,0.847
					c0.391,0.635,0.451,1.496-0.33,1.863c-0.895,0.418-1.188-0.989-1.665-0.764c-0.477,0.225-0.598,0.632-0.736,1.236l2.983,7.497
					l-2.298,1.078l-3.913-9.87L74.858,72.511z"/>
				<path fill="#58695F" d="M85.496,77.395c1.263-0.592,1.533-1.748,1.691-3.156l0.543-0.254c0.123,2.096-0.19,4.419-2.312,5.414
					c-1.497,0.704-3.002,0.333-4.269-1.717c-1.288-2.088-2.954-6.948,0.317-8.483c1.416-0.666,2.269,0.01,2.826,0.917
					c1.29,2.088,0.537,4.528-1.303,5.554c0.142,0.261,0.286,0.522,0.416,0.74C84.171,77.644,84.731,77.754,85.496,77.395z
					 M82.185,70.099c-0.81,0.382-0.394,2.691,0.396,4.639c1.173-0.668,1.396-2.574,0.467-4.08
					C82.765,70.204,82.488,69.956,82.185,70.099z"/>
				<path fill="#58695F" d="M91.319,74.405c0.605-0.284,1.092-1.097,1.288-1.845c0.941,2.227,0.175,3.383-1.101,3.981
					c-1.482,0.697-2.986,0.326-4.252-1.725c-1.289-2.087-2.951-6.949,0.314-8.484c1.421-0.666,2.272,0.013,2.829,0.919
					c1.301,2.106,0.533,4.526-1.302,5.552c0.097,0.189,0.206,0.396,0.302,0.561C90.107,74.506,90.763,74.667,91.319,74.405z
					 M88.292,67.234c-0.8,0.374-0.352,2.764,0.379,4.646c1.199-0.659,1.42-2.564,0.479-4.089
					C88.87,67.338,88.594,67.091,88.292,67.234z"/>
				<path fill="#58695F" d="M55.878,111.466l-3.51-12.682l1.115-0.522l3.914,15.603l-2.423,1.139l-7.653-12.396
					c-1.356,1.432-1.248,3.206-0.018,5.204c0.575,0.927,0.87,0.972,0.987,1.13c-1.101,0.518-1.986,0.347-2.792-0.961
					c-1.495-2.413,0.02-6.097,2.686-7.347c0.221-0.104,0.44-0.184,0.655-0.265L55.878,111.466z"/>
				<path fill="#58695F" d="M63.121,109.352c1.261-0.59,1.533-1.747,1.691-3.158l0.543-0.254c0.121,2.097-0.194,4.421-2.312,5.417
					c-1.497,0.703-3.002,0.333-4.269-1.72c-1.292-2.086-2.954-6.947,0.317-8.482c1.419-0.666,2.265,0.012,2.828,0.92
					c1.288,2.087,0.531,4.526-1.305,5.551c0.143,0.264,0.284,0.524,0.418,0.742C61.795,109.604,62.356,109.712,63.121,109.352z
					 M59.812,102.057c-0.816,0.382-0.396,2.69,0.393,4.637c1.172-0.666,1.393-2.572,0.463-4.079
					C60.39,102.161,60.114,101.914,59.812,102.057z"/>
				<path fill="#58695F" d="M66.804,99.734c-0.277-0.454-0.602-0.679-0.903-0.536c-1.006,0.473,0.011,4.279,1.254,6.295
					c0.762,1.235,1.323,1.346,2.092,0.985c1.255-0.591,1.529-1.75,1.688-3.158l0.542-0.254c0.12,2.097-0.189,4.42-2.311,5.416
					c-1.5,0.704-3.005,0.333-4.271-1.718c-1.301-2.106-2.938-6.956,0.298-8.475c1.423-0.666,2.289,0.004,2.803,0.839
					c0.549,0.889,0.435,1.503-0.026,1.721c-0.177,0.082-0.412,0.099-0.69,0.046C67.154,100.435,66.995,100.042,66.804,99.734z"/>
				<path fill="#58695F" d="M69.486,92.785l1.229,3.123l0.953-0.449l0.324,0.787l-0.958,0.449l2.343,5.923
					c0.098,0.26,0.192,0.448,0.295,0.611c0.313,0.511,0.621,0.575,1.069,0.366c0.62-0.292,0.768-1.252,0.447-2.271l0.668-0.314
					c0.918,3.386-0.41,4.524-1.273,4.93c-0.956,0.448-2.107,0.148-3.051-1.377c-0.216-0.346-0.411-0.767-0.599-1.239l-2.197-5.551
					l-0.525,0.247l-0.32-0.787l0.526-0.246l-1.069-2.729L69.486,92.785z"/>
				<path fill="#58695F" d="M79.472,95.334c0.086,0.007,0.146-0.023,0.196-0.046c0.732-0.344,1.431-1.375,1.78-2.24l0.447,0.421
					c-0.146,1.029-0.863,2.067-1.891,2.833c1.817,3.478,1.522,6.331-0.439,7.253c-1.483,0.694-3.045,0.4-4.32-1.671
					c-1.291-2.089-2.894-6.953,0.39-8.495C77.007,92.744,78.294,93.43,79.472,95.334z M78.713,96.977
					c-0.391,0.067-0.675-0.196-0.897-0.56c-0.315-0.509-0.311-0.934-0.115-1.212c-0.501-0.748-0.84-0.964-1.256-0.77
					c-1.133,0.531-0.069,4.317,1.032,6.097c0.739,1.197,1.113,1.374,1.719,1.09C79.977,101.256,79.783,99.237,78.713,96.977z"/>
				<path fill="#58695F" d="M81.965,90.625l0.489,1.223c0.223-0.805,0.469-1.671,1.233-2.031c0.719-0.336,1.518,0.156,1.941,0.847
					c0.395,0.636,0.452,1.497-0.33,1.863c-0.891,0.42-1.185-0.988-1.666-0.764c-0.475,0.224-0.595,0.633-0.735,1.236l2.98,7.495
					l-2.295,1.079l-3.91-9.871L81.965,90.625z"/>
				<path fill="#58695F" d="M92.319,82.115l1.738,4.382l0.095-0.045c1.275-0.6,1.32-2.656,0.479-4.019
					c-0.638-1.035-1.799-1.683-3.312-0.973c-1.866,0.875-3.111,3.289-1.263,6.282c0.57,0.927,0.865,0.973,0.983,1.131
					c-1.054,0.493-1.987,0.345-2.737-0.872c-1.547-2.504-0.193-6.11,2.819-7.525c2.342-1.102,4.258-0.197,5.179,1.29
					c0.659,1.071,0.809,2.479,0.184,3.636c1.549-0.327,2.846,0.679,3.688,2.041c1.075,1.741,2.399,5.616-0.264,6.866
					c-0.687,0.321-1.723,0.505-2.408-0.603c-0.182-0.292-0.33-0.665-0.441-1.149c0.688,0.284,1.104,0.322,1.473,0.15
					c1.161-0.546,0.409-2.628-0.442-4.008c-0.784-1.271-1.772-2.14-2.937-1.593c-0.128,0.059-0.435,0.227-0.698,0.396l2.983,7.566
					l-2.295,1.077l-4.959-12.562L92.319,82.115z"/>
				<path fill="#58695F" d="M105.813,79.431l2.662,6.712c0.099,0.258,0.193,0.449,0.295,0.61c0.313,0.511,0.69,0.685,1.136,0.474
					c0.624-0.291,0.562-1.293,0.238-2.312l0.672-0.314c0.913,3.385-0.272,4.457-1.133,4.861c-0.895,0.42-1.824,0.11-2.593-0.934
					c0.021,1.066-0.215,2.253-1.348,2.783c-1.086,0.508-2.589,0.234-3.925-1.925c-1.513-2.454-2.599-6.978,0.177-8.279
					c0.908-0.428,1.54-0.206,1.863,0.32l0.08,0.127l-0.423-1.045L105.813,79.431z M104.023,88.024
					c0.862,1.396,1.384,1.174,1.671,1.04c0.465-0.218,0.795-1.076,0.339-2.219l-1.77-4.462c-0.134-0.218-0.57-0.622-1.079-0.383
					C101.83,82.637,102.97,86.316,104.023,88.024z"/>
				<path fill="#58695F" d="M112.627,71.552l4.219,10.662c0.099,0.26,0.193,0.45,0.294,0.612c0.314,0.509,0.621,0.574,1.07,0.363
					c0.617-0.291,0.625-1.183,0.301-2.203l0.673-0.314c0.917,3.387-0.339,4.35-1.199,4.752c-0.863,0.406-1.771,0.133-2.525-0.824
					c0.034,1.061-0.201,2.244-1.33,2.775c-1.085,0.51-2.592,0.234-3.924-1.926c-1.515-2.452-2.599-6.976,0.174-8.277
					c0.906-0.427,1.538-0.207,1.862,0.32l0.048,0.074l-1.8-4.543L112.627,71.552z M114.399,82.918l-1.784-4.523
					c-0.167-0.204-0.567-0.554-1.046-0.328c-1.355,0.635-0.216,4.316,0.837,6.021c0.86,1.397,1.386,1.176,1.672,1.041
					c0.447-0.211,0.788-1.025,0.377-2.119L114.399,82.918z"/>
				<path fill="#58695F" d="M122.566,71.568l3.619,9.165c0.728-0.855,0.937-1.75,0.406-3.539l0.674-0.314
					c0.855,2.688,0.069,3.948-0.729,4.721l0.567,1.416c1.122,2.822,0.088,3.943-0.965,4.436c-0.971,0.458-2.146,0.258-2.871-0.922
					c-0.943-1.525-0.011-2.947,0.931-3.926l-0.405-1.051c-0.116,0.778-0.469,1.506-1.296,1.895c-1.087,0.508-2.59,0.233-3.926-1.927
					c-1.515-2.45-2.599-6.974,0.175-8.277c0.909-0.426,1.539-0.207,1.865,0.321l0.066,0.108l-0.406-1.027L122.566,71.568z
					 M120.776,80.16c0.859,1.396,1.383,1.175,1.669,1.04c0.432-0.2,0.753-0.982,0.403-2.013l-1.843-4.685
					c-0.141-0.193-0.56-0.605-1.066-0.366C118.581,74.773,119.723,78.454,120.776,80.16z M124.898,86.207
					c0.334-0.156,0.38-0.88-0.073-2.05l-0.229-0.571c-0.599,0.727-1.059,1.551-0.611,2.277
					C124.144,86.117,124.546,86.373,124.898,86.207z"/>
				<path fill="#58695F" d="M130.723,77.362c0.607-0.284,1.092-1.098,1.289-1.847c0.942,2.227,0.177,3.383-1.101,3.982
					c-1.48,0.695-2.986,0.324-4.253-1.727c-1.287-2.087-2.953-6.949,0.318-8.483c1.417-0.667,2.269,0.012,2.826,0.92
					c1.302,2.105,0.537,4.526-1.303,5.55c0.098,0.19,0.206,0.396,0.307,0.56C129.511,77.463,130.165,77.624,130.723,77.362z
					 M127.697,70.191c-0.797,0.375-0.35,2.763,0.38,4.645c1.196-0.657,1.42-2.563,0.479-4.088
					C128.274,70.294,127.998,70.048,127.697,70.191z"/>
			</g>
			<g>
				<path fill="#EAE3D4" d="M72.201,74.458l0.579,1.463l-2.329,1.095l2.923,7.43l-2.297,1.078l-5.192-13.204
					c-1.193,0.632-1.544,1.826,0.247,4.729c0.571,0.928,0.869,0.976,0.988,1.131c-1.102,0.516-1.987,0.348-2.796-0.961
					c-1.489-2.414-1.414-5.423,2.526-7.271c0.634-0.298,1.775-0.552,2.781-1.024c0.492-0.233,0.952-0.52,1.302-0.891
					c0.244,0.867,0.882,1.998-0.173,2.889c-0.732,0.343-1.599,0.542-2.445,0.702l1.562,3.928L72.201,74.458z"/>
				<path fill="#EAE3D4" d="M74.769,72.084l0.486,1.223c0.222-0.806,0.469-1.671,1.233-2.031c0.719-0.336,1.519,0.156,1.942,0.846
					c0.391,0.635,0.451,1.496-0.33,1.863c-0.894,0.419-1.187-0.988-1.667-0.763c-0.475,0.225-0.595,0.632-0.736,1.236l2.984,7.497
					l-2.298,1.078l-3.911-9.87L74.769,72.084z"/>
				<path fill="#EAE3D4" d="M85.408,76.967c1.263-0.59,1.533-1.748,1.69-3.155l0.544-0.254c0.122,2.096-0.191,4.419-2.315,5.414
					c-1.497,0.704-3,0.333-4.267-1.717c-1.287-2.088-2.953-6.949,0.318-8.483c1.414-0.667,2.269,0.011,2.826,0.917
					c1.288,2.089,0.537,4.528-1.305,5.555c0.144,0.26,0.286,0.522,0.417,0.739C84.082,77.217,84.644,77.327,85.408,76.967z
					 M82.095,69.672c-0.809,0.383-0.394,2.692,0.397,4.64c1.173-0.667,1.396-2.574,0.466-4.08
					C82.677,69.777,82.399,69.53,82.095,69.672z"/>
				<path fill="#EAE3D4" d="M91.229,73.979c0.607-0.285,1.092-1.099,1.289-1.846c0.941,2.227,0.175,3.382-1.102,3.982
					c-1.48,0.696-2.986,0.324-4.252-1.726c-1.287-2.088-2.95-6.949,0.315-8.484c1.422-0.666,2.271,0.013,2.83,0.92
					c1.301,2.105,0.533,4.525-1.302,5.551c0.097,0.188,0.203,0.396,0.302,0.56C90.019,74.08,90.675,74.239,91.229,73.979z
					 M88.204,66.807c-0.8,0.375-0.353,2.763,0.378,4.646c1.198-0.658,1.421-2.564,0.479-4.087
					C88.781,66.912,88.506,66.665,88.204,66.807z"/>
				<path fill="#EAE3D4" d="M55.789,111.04L52.28,98.358l1.112-0.523l3.917,15.603l-2.425,1.139l-7.653-12.397
					c-1.354,1.433-1.246,3.207-0.015,5.204c0.573,0.928,0.869,0.975,0.985,1.13c-1.101,0.519-1.985,0.347-2.791-0.958
					c-1.495-2.414,0.018-6.099,2.683-7.348c0.224-0.104,0.44-0.184,0.658-0.265L55.789,111.04z"/>
				<path fill="#EAE3D4" d="M63.032,108.925c1.26-0.591,1.532-1.748,1.691-3.158l0.543-0.255c0.121,2.097-0.193,4.422-2.313,5.418
					c-1.498,0.702-3.001,0.333-4.268-1.72c-1.292-2.086-2.954-6.947,0.317-8.482c1.418-0.666,2.265,0.013,2.826,0.92
					c1.29,2.086,0.533,4.527-1.304,5.551c0.143,0.263,0.286,0.524,0.421,0.742C61.707,109.176,62.268,109.285,63.032,108.925z
					 M59.723,101.63c-0.814,0.382-0.396,2.691,0.395,4.637c1.171-0.667,1.393-2.572,0.463-4.078
					C60.3,101.734,60.024,101.488,59.723,101.63z"/>
				<path fill="#EAE3D4" d="M66.716,99.308c-0.28-0.453-0.602-0.679-0.903-0.535c-1.006,0.471,0.01,4.278,1.253,6.294
					c0.761,1.235,1.323,1.346,2.091,0.985c1.257-0.591,1.53-1.749,1.689-3.158l0.541-0.254c0.121,2.097-0.191,4.42-2.31,5.416
					c-1.5,0.704-3.006,0.335-4.271-1.718c-1.301-2.107-2.939-6.956,0.297-8.475c1.423-0.666,2.288,0.003,2.804,0.838
					c0.548,0.89,0.435,1.504-0.026,1.722c-0.178,0.082-0.413,0.1-0.692,0.046C67.065,100.008,66.907,99.614,66.716,99.308z"/>
				<path fill="#EAE3D4" d="M69.396,92.358l1.229,3.122l0.954-0.448l0.324,0.786l-0.958,0.45l2.341,5.923
					c0.099,0.259,0.194,0.448,0.296,0.61c0.313,0.511,0.621,0.576,1.068,0.367c0.622-0.292,0.769-1.252,0.448-2.272l0.668-0.313
					c0.918,3.386-0.412,4.524-1.275,4.93c-0.953,0.448-2.105,0.147-3.048-1.376c-0.217-0.346-0.414-0.767-0.599-1.24l-2.197-5.551
					l-0.526,0.248l-0.321-0.787l0.527-0.247l-1.069-2.729L69.396,92.358z"/>
				<path fill="#EAE3D4" d="M79.383,94.908c0.084,0.006,0.145-0.024,0.197-0.047c0.732-0.344,1.431-1.376,1.778-2.24l0.449,0.422
					c-0.147,1.029-0.863,2.066-1.892,2.832c1.817,3.478,1.523,6.332-0.438,7.253c-1.485,0.695-3.046,0.399-4.321-1.671
					c-1.292-2.089-2.895-6.953,0.391-8.496C76.917,92.317,78.206,93.002,79.383,94.908z M78.624,96.549
					c-0.391,0.068-0.676-0.195-0.898-0.559c-0.313-0.51-0.31-0.934-0.113-1.212c-0.501-0.749-0.84-0.964-1.257-0.77
					c-1.133,0.531-0.07,4.317,1.031,6.097c0.739,1.197,1.113,1.374,1.721,1.089C79.888,100.828,79.692,98.811,78.624,96.549z"/>
				<path fill="#EAE3D4" d="M81.877,90.198l0.487,1.224c0.223-0.806,0.47-1.672,1.234-2.032c0.719-0.337,1.518,0.156,1.942,0.847
					c0.394,0.636,0.45,1.497-0.33,1.863c-0.892,0.42-1.187-0.988-1.665-0.765c-0.477,0.226-0.597,0.633-0.736,1.238l2.979,7.494
					l-2.294,1.079l-3.912-9.87L81.877,90.198z"/>
				<path fill="#EAE3D4" d="M92.229,81.688l1.741,4.383l0.094-0.045c1.276-0.6,1.32-2.656,0.479-4.019
					c-0.638-1.035-1.799-1.683-3.313-0.972c-1.865,0.875-3.112,3.287-1.264,6.281c0.573,0.928,0.867,0.974,0.985,1.13
					c-1.054,0.495-1.987,0.347-2.737-0.87c-1.547-2.505-0.195-6.111,2.818-7.525c2.344-1.102,4.259-0.199,5.18,1.289
					c0.66,1.072,0.809,2.479,0.183,3.636c1.55-0.327,2.848,0.679,3.688,2.04c1.075,1.742,2.399,5.617-0.264,6.867
					c-0.686,0.32-1.723,0.506-2.408-0.604c-0.182-0.291-0.33-0.665-0.44-1.149c0.688,0.285,1.104,0.323,1.473,0.151
					c1.161-0.546,0.408-2.628-0.44-4.007c-0.789-1.271-1.775-2.142-2.94-1.595c-0.126,0.06-0.435,0.229-0.698,0.398l2.984,7.565
					l-2.295,1.077l-4.96-12.561L92.229,81.688z"/>
				<path fill="#EAE3D4" d="M105.724,79.004l2.663,6.711c0.098,0.26,0.193,0.449,0.294,0.611c0.314,0.511,0.692,0.686,1.136,0.474
					c0.626-0.291,0.562-1.292,0.238-2.312l0.673-0.314c0.914,3.385-0.273,4.457-1.133,4.861c-0.894,0.419-1.823,0.11-2.592-0.934
					c0.018,1.065-0.216,2.253-1.349,2.783c-1.085,0.508-2.591,0.234-3.925-1.925c-1.514-2.454-2.599-6.978,0.178-8.28
					c0.907-0.426,1.539-0.205,1.863,0.32l0.078,0.129l-0.423-1.046L105.724,79.004z M103.936,87.598
					c0.861,1.396,1.383,1.174,1.672,1.04c0.464-0.218,0.794-1.076,0.336-2.219l-1.768-4.462c-0.134-0.217-0.57-0.622-1.08-0.383
					C101.742,82.211,102.881,85.89,103.936,87.598z"/>
				<path fill="#EAE3D4" d="M112.539,71.126l4.216,10.661c0.099,0.26,0.195,0.449,0.296,0.612c0.315,0.509,0.622,0.573,1.069,0.364
					c0.619-0.293,0.626-1.184,0.302-2.203l0.672-0.314c0.918,3.386-0.339,4.35-1.199,4.752c-0.861,0.404-1.77,0.131-2.523-0.826
					c0.034,1.062-0.201,2.246-1.33,2.777c-1.086,0.509-2.593,0.232-3.926-1.926c-1.513-2.453-2.598-6.977,0.174-8.277
					c0.907-0.428,1.539-0.209,1.863,0.319l0.049,0.073l-1.8-4.542L112.539,71.126z M114.311,82.491l-1.784-4.523
					c-0.169-0.204-0.567-0.554-1.046-0.329c-1.356,0.637-0.218,4.316,0.837,6.022c0.859,1.397,1.387,1.175,1.672,1.04
					c0.448-0.209,0.787-1.023,0.378-2.119L114.311,82.491z"/>
				<path fill="#EAE3D4" d="M122.478,71.141l3.62,9.165c0.726-0.856,0.937-1.751,0.406-3.54l0.672-0.314
					c0.857,2.689,0.07,3.949-0.729,4.721l0.568,1.418c1.123,2.821,0.089,3.941-0.966,4.436c-0.97,0.457-2.144,0.256-2.87-0.923
					c-0.942-1.525-0.01-2.948,0.929-3.925l-0.402-1.052c-0.118,0.778-0.469,1.505-1.298,1.894c-1.086,0.51-2.589,0.234-3.925-1.926
					c-1.514-2.45-2.599-6.974,0.174-8.277c0.912-0.426,1.538-0.207,1.866,0.32l0.066,0.109l-0.406-1.028L122.478,71.141z
					 M120.688,79.734c0.859,1.396,1.384,1.174,1.668,1.039c0.432-0.201,0.753-0.982,0.403-2.013l-1.844-4.684
					c-0.139-0.193-0.558-0.605-1.064-0.366C118.491,74.347,119.635,78.027,120.688,79.734z M124.81,85.781
					c0.332-0.158,0.38-0.881-0.072-2.051l-0.229-0.57c-0.6,0.727-1.061,1.551-0.613,2.275
					C124.054,85.691,124.457,85.945,124.81,85.781z"/>
				<path fill="#EAE3D4" d="M130.636,76.936c0.605-0.284,1.09-1.098,1.286-1.846c0.944,2.227,0.179,3.381-1.101,3.98
					c-1.481,0.696-2.984,0.326-4.251-1.726c-1.288-2.086-2.954-6.948,0.316-8.482c1.419-0.667,2.27,0.011,2.827,0.919
					c1.302,2.105,0.537,4.526-1.304,5.55c0.099,0.189,0.207,0.396,0.308,0.561C129.422,77.035,130.076,77.197,130.636,76.936z
					 M127.607,69.765c-0.796,0.374-0.35,2.764,0.381,4.645c1.196-0.657,1.418-2.562,0.479-4.089
					C128.185,69.868,127.909,69.622,127.607,69.765z"/>
			</g>
		</g>
	</g>
	<g>
		<radialGradient id="SVGID_4_" cx="85.3193" cy="121.7607" r="62.4476" gradientUnits="userSpaceOnUse">
			<stop  offset="0" style="stop-color:#6AA9A7"/>
			<stop  offset="1" style="stop-color:#46948B"/>
		</radialGradient>
		<path fill-rule="evenodd" clip-rule="evenodd" fill="url(#SVGID_4_)" d="M31.741,107.45C32.884,93.525,14.28,101.425,0,99.362
			c0,0,5.27,7.036,12.466,11.534C7.201,113.992,0,121.596,0,121.596c14.28,2.063,32.884-5.835,31.741,8.091
			c-1.04,12.718,13.302,14.878,53.578,14.878s54.622-2.16,53.578-14.878c-1.144-13.926,17.461-6.027,31.741-8.091
			c0,0-7.202-7.604-12.466-10.699c7.199-4.498,12.466-11.534,12.466-11.534c-14.28,2.062-32.885-5.837-31.741,8.088
			c1.044,12.717-13.302,14.878-53.578,14.878S30.701,120.167,31.741,107.45z"/>
		<g>
			<g>
				<path fill="#58695F" d="M49.243,134.944l-1.907-6.424h1.577l1.154,4.38l1.152-4.38h1.44l-1.906,6.424v3.184h-1.511V134.944z"/>
				<path fill="#58695F" d="M52.934,130.827c0-1.537,0.81-2.416,2.287-2.416c1.484,0,2.294,0.879,2.294,2.416v4.996
					c0,1.535-0.81,2.415-2.294,2.415c-1.478,0-2.287-0.88-2.287-2.415V130.827z M54.441,135.92c0,0.685,0.301,0.946,0.779,0.946
					c0.482,0,0.783-0.262,0.783-0.946v-5.189c0-0.687-0.301-0.947-0.783-0.947c-0.479,0-0.779,0.261-0.779,0.947V135.92z"/>
				<path fill="#58695F" d="M59.926,128.521v7.412c0,0.687,0.305,0.934,0.785,0.934c0.479,0,0.782-0.247,0.782-0.934v-7.412h1.425
					v7.314c0,1.538-0.767,2.417-2.25,2.417c-1.481,0-2.248-0.879-2.248-2.417v-7.314H59.926z"/>
				<path fill="#58695F" d="M65.631,128.521h4.667v1.372h-1.579v8.235h-1.508v-8.235h-1.58V128.521z"/>
				<path fill="#58695F" d="M72.459,138.128h-1.507v-9.607h1.507v4.117h1.718v-4.117h1.539v9.607h-1.539v-4.116h-1.718V138.128z"/>
				<path fill="#58695F" d="M78.319,132.57h2.071v1.371h-2.071v2.814h2.608v1.372H76.81v-9.607h4.118v1.372h-2.608V132.57z"/>
				<path fill="#58695F" d="M83.979,128.521h2.391c1.51,0,2.248,0.837,2.248,2.375v4.859c0,1.537-0.738,2.373-2.248,2.373h-2.391
					V128.521z M85.49,129.893v6.863h0.852c0.481,0,0.768-0.247,0.768-0.933v-4.996c0-0.687-0.286-0.935-0.768-0.935H85.49z"/>
				<path fill="#58695F" d="M91.087,132.57h2.071v1.371h-2.071v2.814h2.608v1.372h-4.117v-9.607h4.117v1.372h-2.608V132.57z"/>
				<path fill="#58695F" d="M96.652,128.411c1.469,0,2.226,0.879,2.226,2.416v0.302h-1.425v-0.398c0-0.687-0.279-0.947-0.759-0.947
					s-0.755,0.261-0.755,0.947c0,1.976,2.952,2.347,2.952,5.093c0,1.535-0.771,2.415-2.251,2.415c-1.482,0-2.251-0.88-2.251-2.415
					v-0.591h1.429v0.688c0,0.685,0.301,0.933,0.779,0.933c0.483,0,0.781-0.248,0.781-0.933c0-1.979-2.951-2.348-2.951-5.093
					C94.428,129.29,95.184,128.411,96.652,128.411z"/>
				<path fill="#58695F" d="M99.753,128.521h1.51v9.607h-1.51V128.521z"/>
				<path fill="#58695F" d="M104.623,132.775h2.114v3.048c0,1.535-0.769,2.415-2.251,2.415c-1.48,0-2.251-0.88-2.251-2.415v-4.996
					c0-1.537,0.771-2.416,2.251-2.416c1.482,0,2.251,0.879,2.251,2.416v0.933h-1.429v-1.029c0-0.687-0.302-0.947-0.781-0.947
					c-0.481,0-0.783,0.261-0.783,0.947v5.189c0,0.685,0.302,0.933,0.783,0.933c0.479,0,0.781-0.248,0.781-0.933v-1.772h-0.686
					V132.775z"/>
				<path fill="#58695F" d="M109.053,131.171v6.957h-1.358v-9.607h1.891l1.556,5.752v-5.752h1.342v9.607h-1.547L109.053,131.171z"/>
				<path fill="#58695F" d="M115.071,132.57h2.072v1.371h-2.072v2.814h2.608v1.372h-4.119v-9.607h4.119v1.372h-2.608V132.57z"/>
				<path fill="#58695F" d="M121.767,138.128c-0.083-0.247-0.137-0.397-0.137-1.18v-1.51c0-0.893-0.305-1.221-0.99-1.221h-0.52v3.91
					h-1.511v-9.607h2.277c1.564,0,2.237,0.727,2.237,2.21v0.756c0,0.986-0.313,1.633-0.985,1.948
					c0.753,0.314,1.002,1.044,1.002,2.045v1.482c0,0.466,0.012,0.81,0.162,1.166H121.767z M120.12,129.893v2.951h0.59
					c0.565,0,0.907-0.246,0.907-1.016v-0.946c0-0.687-0.235-0.989-0.771-0.989H120.12z"/>
			</g>
			<g>
				<path fill="#EAE3D4" d="M49.243,134.742l-1.907-6.425h1.577l1.154,4.38l1.152-4.38h1.44l-1.906,6.425v3.183h-1.511V134.742z"/>
				<path fill="#EAE3D4" d="M52.934,130.624c0-1.537,0.81-2.415,2.287-2.415c1.484,0,2.294,0.878,2.294,2.415v4.996
					c0,1.535-0.81,2.415-2.294,2.415c-1.478,0-2.287-0.88-2.287-2.415V130.624z M54.441,135.717c0,0.685,0.301,0.945,0.779,0.945
					c0.482,0,0.783-0.261,0.783-0.945v-5.189c0-0.687-0.301-0.947-0.783-0.947c-0.479,0-0.779,0.261-0.779,0.947V135.717z"/>
				<path fill="#EAE3D4" d="M59.926,128.317v7.412c0,0.688,0.305,0.933,0.785,0.933c0.479,0,0.782-0.245,0.782-0.933v-7.412h1.425
					v7.314c0,1.539-0.767,2.415-2.25,2.415c-1.481,0-2.248-0.876-2.248-2.415v-7.314H59.926z"/>
				<path fill="#EAE3D4" d="M65.631,128.317h4.667v1.372h-1.579v8.235h-1.508v-8.235h-1.58V128.317z"/>
				<path fill="#EAE3D4" d="M72.459,137.925h-1.507v-9.607h1.507v4.118h1.718v-4.118h1.539v9.607h-1.539v-4.116h-1.718V137.925z"/>
				<path fill="#EAE3D4" d="M78.319,132.367h2.071v1.372h-2.071v2.813h2.608v1.372H76.81v-9.607h4.118v1.372h-2.608V132.367z"/>
				<path fill="#EAE3D4" d="M83.979,128.317h2.391c1.51,0,2.248,0.838,2.248,2.375v4.859c0,1.537-0.738,2.373-2.248,2.373h-2.391
					V128.317z M85.49,129.689v6.863h0.852c0.481,0,0.768-0.247,0.768-0.933v-4.996c0-0.686-0.286-0.935-0.768-0.935H85.49z"/>
				<path fill="#EAE3D4" d="M91.087,132.367h2.071v1.372h-2.071v2.813h2.608v1.372h-4.117v-9.607h4.117v1.372h-2.608V132.367z"/>
				<path fill="#EAE3D4" d="M96.652,128.209c1.469,0,2.226,0.878,2.226,2.415v0.302h-1.425v-0.398c0-0.687-0.279-0.947-0.759-0.947
					s-0.755,0.261-0.755,0.947c0,1.976,2.952,2.347,2.952,5.093c0,1.535-0.771,2.415-2.251,2.415c-1.482,0-2.251-0.88-2.251-2.415
					v-0.591h1.429v0.688c0,0.685,0.301,0.933,0.779,0.933c0.483,0,0.781-0.248,0.781-0.933c0-1.978-2.951-2.348-2.951-5.093
					C94.428,129.087,95.184,128.209,96.652,128.209z"/>
				<path fill="#EAE3D4" d="M99.753,128.317h1.51v9.607h-1.51V128.317z"/>
				<path fill="#EAE3D4" d="M104.623,132.573h2.114v3.047c0,1.535-0.769,2.415-2.251,2.415c-1.48,0-2.251-0.88-2.251-2.415v-4.996
					c0-1.537,0.771-2.415,2.251-2.415c1.482,0,2.251,0.878,2.251,2.415v0.933h-1.429v-1.029c0-0.687-0.302-0.947-0.781-0.947
					c-0.481,0-0.783,0.261-0.783,0.947v5.189c0,0.685,0.302,0.933,0.783,0.933c0.479,0,0.781-0.248,0.781-0.933v-1.771h-0.686
					V132.573z"/>
				<path fill="#EAE3D4" d="M109.053,130.968v6.957h-1.358v-9.607h1.891l1.556,5.752v-5.752h1.342v9.607h-1.547L109.053,130.968z"/>
				<path fill="#EAE3D4" d="M115.071,132.367h2.072v1.372h-2.072v2.813h2.608v1.372h-4.119v-9.607h4.119v1.372h-2.608V132.367z"/>
				<path fill="#EAE3D4" d="M121.767,137.925c-0.083-0.247-0.137-0.396-0.137-1.182v-1.508c0-0.892-0.305-1.221-0.99-1.221h-0.52
					v3.91h-1.511v-9.607h2.277c1.564,0,2.237,0.727,2.237,2.21v0.756c0,0.987-0.313,1.634-0.985,1.948
					c0.753,0.313,1.002,1.044,1.002,2.045v1.482c0,0.467,0.012,0.81,0.162,1.166H121.767z M120.12,129.689v2.952h0.59
					c0.565,0,0.907-0.247,0.907-1.017v-0.946c0-0.687-0.235-0.989-0.771-0.989H120.12z"/>
			</g>
		</g>
	</g>
</g>
</svg>
