<?xml version="1.0" encoding="utf-8"?>
<!-- Generator: Adobe Illustrator 15.0.0, SVG Export Plug-In . SVG Version: 6.00 Build 0)  -->
<!DOCTYPE svg PUBLIC "-//W3C//DTD SVG 1.1//EN" "http://www.w3.org/Graphics/SVG/1.1/DTD/svg11.dtd">
<svg version="1.1" id="Ebene_1" xmlns="http://www.w3.org/2000/svg" xmlns:xlink="http://www.w3.org/1999/xlink" x="0px" y="0px"
	 height="143.171px" viewBox="0 0 143.092 143.171" enable-background="new 0 0 143.092 143.171"
	 xml:space="preserve">
<g>
	<g>
		<linearGradient id="SVGID_1_" gradientUnits="userSpaceOnUse" x1="90.0117" y1="148.7432" x2="50.6592" y2="-14.0025">
			<stop  offset="0" style="stop-color:#914516"/>
			<stop  offset="1" style="stop-color:#703816"/>
		</linearGradient>
		<path fill-rule="evenodd" clip-rule="evenodd" fill="url(#SVGID_1_)" d="M142.61,69.777c-0.784-3.048-3.442-5.578-3.788-8.395
			c-0.041-0.345-0.122-0.676-0.233-1.001c-0.004-0.312-0.037-0.621-0.103-0.927c-0.587-2.783,1.108-6.013,0.862-9.176
			c-0.116-1.484-0.441-2.921-0.989-4.308c-0.517-1.384-1.235-2.671-2.142-3.853c-1.915-2.5-5.348-3.789-6.77-6.248
			c-0.171-0.299-0.376-0.577-0.608-0.83c-0.121-0.285-0.271-0.556-0.454-0.812c-1.631-2.333-1.33-5.966-2.793-8.78
			c-0.689-1.324-1.552-2.517-2.594-3.582c-1.018-1.072-2.18-1.976-3.478-2.708c-2.759-1.563-6.397-1.395-8.671-3.106
			c-0.277-0.208-0.573-0.386-0.886-0.527c-0.229-0.215-0.476-0.406-0.74-0.571c-2.404-1.506-3.569-4.982-5.998-6.987
			c-1.149-0.95-2.411-1.711-3.787-2.282c-1.356-0.591-2.781-0.968-4.26-1.135c-3.15-0.358-6.437,1.219-9.198,0.532
			c-0.332-0.082-0.673-0.128-1.019-0.138c-0.288-0.109-0.594-0.188-0.903-0.238c-2.806-0.446-5.234-3.189-8.259-4.085
			C74.375,0.199,72.917-0.012,71.425,0c-1.475-0.012-2.934,0.198-4.362,0.621c-2.904,0.863-5.009,3.23-7.603,3.945
			c-2.677,0.165-5.358-1.289-8.37-1.098c-1.487,0.095-2.927,0.399-4.325,0.927c-1.392,0.496-2.688,1.196-3.884,2.086
			c-2.41,1.793-3.522,4.625-5.66,6.227c-2.457,1.016-5.388,0.58-8.13,1.778c-1.368,0.596-2.62,1.371-3.753,2.34
			c-1.138,0.942-2.12,2.04-2.943,3.286c-1.746,2.646-1.828,6.288-3.689,8.438c-0.131,0.148-0.248,0.306-0.357,0.468
			c-0.079,0.089-0.154,0.182-0.225,0.277c-1.706,2.274-5.249,3.125-7.467,5.397c-1.039,1.067-1.906,2.258-2.589,3.582
			c-0.702,1.304-1.196,2.691-1.484,4.153c-0.621,3.108,0.678,6.512-0.24,9.206c-0.11,0.333-0.183,0.669-0.223,1.013
			c-0.133,0.288-0.239,0.588-0.317,0.896c-0.68,2.763-3.607,4.932-4.756,7.89c-0.542,1.39-0.872,2.824-0.984,4.311
			c-0.137,1.473-0.049,2.944,0.259,4.403c0.643,3.105,3.171,5.727,3.384,8.564c0.039,0.545,0.167,1.064,0.39,1.555
			c-0.081,0.509-0.071,1.027,0.019,1.544c0.5,2.797-1.289,5.975-1.136,9.141c0.068,1.49,0.35,2.936,0.853,4.339
			c0.475,1.399,1.151,2.706,2.021,3.916c1.855,2.573,5.234,3.943,6.581,6.448c0.112,0.214,0.243,0.417,0.391,0.612
			c0.08,0.168,0.171,0.335,0.275,0.493c1.529,2.395,1.096,6.033,2.438,8.886c0.631,1.351,1.448,2.576,2.445,3.681
			c0.974,1.113,2.1,2.062,3.366,2.847c2.696,1.672,6.335,1.649,8.541,3.452c0.096,0.077,0.193,0.151,0.297,0.221
			c2.043,1.794,2.859,4.959,5.076,7.07c1.082,1.03,2.283,1.877,3.615,2.546c1.308,0.685,2.703,1.16,4.171,1.436
			c3.112,0.58,6.499-0.759,9.207,0.121c0.328,0.107,0.665,0.176,1.002,0.212c0.289,0.129,0.583,0.23,0.891,0.302
			c2.771,0.646,4.974,3.549,7.945,4.661c1.393,0.522,2.831,0.839,4.32,0.933c1.469,0.117,2.945,0.01,4.398-0.311
			c3.097-0.682,5.688-3.239,8.522-3.486c0.347-0.029,0.684-0.097,1.009-0.199c0.312,0.009,0.626-0.016,0.933-0.068
			c2.804-0.487,5.967,1.32,9.136,1.184c1.491-0.061,2.936-0.334,4.342-0.828c1.403-0.466,2.714-1.142,3.926-2.003
			c2.583-1.84,3.973-5.21,6.487-6.542c0.303-0.161,0.584-0.357,0.848-0.577c0.29-0.113,0.57-0.259,0.83-0.427
			c2.394-1.545,6.008-1.119,8.875-2.481c1.349-0.641,2.569-1.458,3.67-2.465c1.108-0.979,2.053-2.108,2.83-3.379
			c1.66-2.7,1.62-6.345,3.413-8.555c0.215-0.27,0.405-0.556,0.555-0.861c0.222-0.22,0.423-0.46,0.6-0.719
			c1.595-2.358,5.091-3.378,7.198-5.752c0.986-1.115,1.795-2.346,2.416-3.702c0.635-1.334,1.065-2.746,1.285-4.217
			c0.468-3.135-0.99-6.476-0.205-9.209c0.096-0.331,0.152-0.669,0.176-1.012c0.117-0.287,0.209-0.586,0.269-0.895
			c0.546-2.794,3.369-5.103,4.378-8.107c0.472-1.414,0.738-2.861,0.774-4.354C143.145,72.69,142.982,71.217,142.61,69.777z"/>
		<circle fill-rule="evenodd" clip-rule="evenodd" fill="#FCF1D1" cx="71.546" cy="71.585" r="59.304"/>
		<g>
			<g>
				<g>
					<path fill="#A2BAA2" d="M20.374,73.736l-1.534,0.059l-1.901,1.453l0.022,0.568l-0.583,0.021l-0.07-1.913l0.582-0.02
						l0.022,0.585l1.398-1.079l-1.471-0.885l0.021,0.583l-0.582,0.022l-0.069-1.854l0.582-0.021l0.025,0.616l1.997,1.22l1.533-0.057
						L20.324,72.4l0.581-0.022l0.074,1.964l-0.582,0.02L20.374,73.736z"/>
					<path fill="#A2BAA2" d="M18.601,68.42c-0.672-0.071-1.215-0.349-1.621-0.835c-0.403-0.485-0.573-1.082-0.497-1.787
						c0.072-0.712,0.359-1.268,0.859-1.67c0.5-0.4,1.089-0.565,1.769-0.494c0.695,0.073,1.247,0.36,1.648,0.862
						c0.403,0.504,0.568,1.107,0.496,1.81c-0.046,0.448-0.198,0.85-0.45,1.202c-0.254,0.354-0.583,0.606-0.982,0.754
						C19.418,68.411,19.011,68.464,18.601,68.42z M18.681,67.658c0.509,0.054,0.951-0.05,1.328-0.312
						c0.371-0.26,0.586-0.634,0.634-1.117c0.05-0.479-0.082-0.89-0.404-1.236c-0.317-0.346-0.721-0.544-1.209-0.594
						c-0.491-0.051-0.924,0.062-1.3,0.341c-0.373,0.278-0.582,0.654-0.631,1.128c-0.053,0.473,0.077,0.877,0.379,1.211
						C17.781,67.413,18.184,67.608,18.681,67.658z"/>
					<path fill="#A2BAA2" d="M18.388,58.578l2.252,0.593c0.35,0.091,0.594,0.138,0.737,0.138c0.143-0.001,0.28-0.061,0.411-0.178
						c0.134-0.117,0.229-0.288,0.287-0.512c0.07-0.268,0.083-0.483,0.038-0.647c-0.04-0.163-0.126-0.286-0.249-0.369
						c-0.125-0.082-0.361-0.168-0.709-0.259l-2.285-0.601l-0.135,0.519l-0.563-0.148l0.463-1.759l0.562,0.148l-0.148,0.563
						l2.354,0.619c0.315,0.083,0.544,0.157,0.678,0.223c0.138,0.063,0.268,0.175,0.395,0.336c0.123,0.158,0.205,0.359,0.242,0.6
						c0.035,0.24,0.017,0.515-0.065,0.822c-0.093,0.342-0.209,0.613-0.356,0.816c-0.147,0.205-0.308,0.344-0.485,0.419
						c-0.177,0.074-0.353,0.111-0.528,0.104c-0.175-0.006-0.439-0.054-0.786-0.147l-2.285-0.601l-0.147,0.557L17.5,59.667
						l0.468-1.77l0.562,0.148L18.388,58.578z"/>
					<path fill="#A2BAA2" d="M28.071,44.506l-2.947-1.867l-0.517,0.812l1.004,0.634l-0.308,0.488l-1.494-0.948l2.018-3.185
						l1.492,0.946l-0.307,0.486l-1.003-0.636l-0.512,0.809l2.948,1.868l0.323-0.512l0.493,0.312l-1.021,1.606l-0.492-0.311
						L28.071,44.506z"/>
					<path fill="#A2BAA2" d="M31.354,39.795l-2.663-2.254l-0.341,0.402l-0.443-0.375l1.149-1.359l0.445,0.377l-0.354,0.418
						l1.013,0.859l1.313-1.542l-1.021-0.86l-0.349,0.415L29.657,35.5l1.149-1.358l0.445,0.375l-0.344,0.407l2.662,2.255l0.345-0.406
						l0.442,0.375l-1.149,1.358l-0.445-0.377l0.353-0.416l-1.201-1.018l-1.309,1.545l1.203,1.017l0.353-0.417l0.445,0.375
						l-1.149,1.358l-0.445-0.376L31.354,39.795z"/>
					<path fill="#A2BAA2" d="M36.546,34.167L34.23,31.56l-0.451,0.4l-0.385-0.437l2.888-2.567l0.93,1.048l-0.428,0.382l-0.546-0.612
						l-1.484,1.319l0.918,1.036l1.293-1.15l0.388,0.435l-1.291,1.15l1.01,1.139l1.486-1.32l-0.562-0.633l0.43-0.382l0.949,1.068
						l-2.891,2.567l-0.389-0.435L36.546,34.167z"/>
					<path fill="#A2BAA2" d="M49.671,25.229l-1.38-3.206l-0.579,0.25l-0.23-0.536l1.655-0.709c0.455-0.197,0.818-0.325,1.082-0.384
						c0.268-0.059,0.553-0.056,0.857,0.012c0.303,0.065,0.584,0.215,0.847,0.444c0.265,0.23,0.475,0.533,0.637,0.902
						c0.179,0.423,0.271,0.818,0.272,1.186c0,0.369-0.074,0.677-0.222,0.922c-0.153,0.249-0.363,0.465-0.638,0.654
						c-0.27,0.188-0.64,0.382-1.1,0.58l-1.553,0.669l-0.231-0.536L49.671,25.229z M50.315,24.95l0.341-0.146
						c0.376-0.162,0.663-0.313,0.863-0.456c0.2-0.141,0.352-0.301,0.453-0.481c0.104-0.179,0.151-0.402,0.149-0.672
						c-0.006-0.27-0.075-0.56-0.209-0.872c-0.16-0.369-0.372-0.651-0.639-0.842c-0.266-0.192-0.535-0.277-0.811-0.253
						c-0.274,0.025-0.661,0.146-1.161,0.36l-0.364,0.157L50.315,24.95z"/>
					<path fill="#A2BAA2" d="M56.952,22.465l-0.901-3.373L55.47,19.25l-0.152-0.562l3.736-1l0.363,1.352l-0.559,0.15l-0.209-0.792
						l-1.922,0.513l0.358,1.337l1.672-0.447l0.15,0.563l-1.674,0.447l0.395,1.471l1.92-0.514l-0.218-0.818l0.554-0.148l0.371,1.378
						l-3.736,1.001l-0.149-0.562L56.952,22.465z"/>
					<path fill="#A2BAA2" d="M63.347,21.593l-0.221-1.677l0.578-0.074l0.054,0.408c0.342,0.465,0.738,0.669,1.182,0.61
						c0.229-0.03,0.412-0.124,0.55-0.285c0.142-0.159,0.194-0.353,0.165-0.577c-0.029-0.22-0.114-0.369-0.255-0.448
						c-0.142-0.08-0.397-0.143-0.762-0.19c-0.429-0.058-0.75-0.121-0.961-0.194c-0.215-0.072-0.391-0.192-0.531-0.357
						c-0.145-0.168-0.229-0.375-0.263-0.625c-0.052-0.388,0.035-0.713,0.265-0.978c0.228-0.266,0.534-0.423,0.926-0.475
						c0.367-0.048,0.728,0.026,1.073,0.223l-0.04-0.307l0.563-0.073l0.186,1.399l-0.565,0.071l-0.043-0.321
						c-0.283-0.324-0.634-0.459-1.048-0.404c-0.253,0.033-0.439,0.116-0.557,0.25c-0.12,0.133-0.17,0.281-0.148,0.442
						c0.017,0.125,0.066,0.229,0.145,0.313c0.082,0.085,0.18,0.143,0.291,0.174c0.112,0.029,0.329,0.063,0.651,0.103
						c0.42,0.051,0.729,0.112,0.924,0.179c0.195,0.068,0.373,0.2,0.534,0.396c0.163,0.198,0.258,0.437,0.296,0.715
						c0.051,0.394-0.045,0.738-0.287,1.03c-0.245,0.292-0.571,0.467-0.98,0.52c-0.42,0.056-0.818-0.045-1.193-0.305l0.05,0.381
						L63.347,21.593z"/>
					<path fill="#A2BAA2" d="M70.106,20.387l-0.078-3.488l-0.498,0.012l-0.016-0.581l1.707-0.038l0.015,0.582l-0.504,0.01
						l0.076,3.487l0.502-0.011l0.012,0.583l-1.706,0.035l-0.012-0.58L70.106,20.387z"/>
					<path fill="#A2BAA2" d="M77.896,19.076l1.684,0.179c-0.005,0.059-0.011,0.113-0.011,0.159
						c-0.071,0.649-0.341,1.146-0.808,1.493c-0.467,0.346-1.049,0.48-1.747,0.406c-0.836-0.088-1.434-0.391-1.793-0.911
						c-0.362-0.52-0.506-1.103-0.438-1.753c0.072-0.68,0.341-1.224,0.808-1.631c0.467-0.404,1.062-0.569,1.776-0.492
						c0.646,0.066,1.167,0.321,1.564,0.76l0.055-0.516l0.589,0.062l-0.162,1.521l-0.588-0.062c-0.085-0.267-0.259-0.515-0.518-0.744
						c-0.266-0.227-0.574-0.362-0.94-0.399c-0.505-0.055-0.922,0.075-1.249,0.385c-0.33,0.312-0.521,0.705-0.571,1.188
						c-0.061,0.551,0.064,1.007,0.359,1.366c0.301,0.36,0.686,0.563,1.153,0.613c0.371,0.04,0.71-0.028,1.021-0.203
						c0.31-0.176,0.506-0.425,0.591-0.752l-0.836-0.09L77.896,19.076z"/>
					<path fill="#A2BAA2" d="M83.104,21.646l0.905-3.368l-0.64-0.173l0.146-0.563l1.534,0.412l1.034,4.022l0.787-2.932l-0.634-0.171
						l0.149-0.562l1.844,0.496l-0.15,0.562l-0.663-0.179l-1.066,3.979l-0.695-0.187l-1.128-4.415l-0.866,3.229l0.645,0.173
						l-0.152,0.562l-1.841-0.494l0.15-0.562L83.104,21.646z"/>
					<path fill="#A2BAA2" d="M90.518,23.982l1.38-3.204l-0.555-0.238l0.23-0.537l3.553,1.532l-0.555,1.285l-0.528-0.227l0.325-0.752
						l-1.826-0.786l-0.548,1.272l1.591,0.683l-0.231,0.536l-1.588-0.685l-0.602,1.399l1.825,0.785l0.333-0.778l0.528,0.229
						l-0.562,1.311l-3.555-1.528l0.232-0.536L90.518,23.982z"/>
					<path fill="#A2BAA2" d="M96.787,26.994l1.8-2.987l-0.548-0.331l0.3-0.497l1.618,0.973c0.337,0.205,0.591,0.391,0.759,0.565
						c0.166,0.172,0.264,0.381,0.292,0.628c0.028,0.247-0.035,0.497-0.187,0.75c-0.316,0.527-0.787,0.694-1.419,0.499l-0.17,1.875
						l0.488,0.294l-0.298,0.498l-0.867-0.521l0.218-2.408l-0.564-0.339l-0.82,1.364l0.507,0.308l-0.298,0.499l-1.661-0.999
						l0.303-0.5L96.787,26.994z M98.51,25.495l0.468,0.283c0.23,0.136,0.407,0.223,0.53,0.259c0.126,0.035,0.251,0.028,0.373-0.021
						c0.127-0.05,0.233-0.151,0.324-0.303c0.079-0.13,0.109-0.26,0.093-0.392c-0.014-0.132-0.066-0.241-0.152-0.327
						c-0.089-0.085-0.237-0.19-0.447-0.318l-0.512-0.306L98.51,25.495z"/>
				</g>
				<g>
					<path fill="#A2BAA2" d="M122.717,69.432l1.535-0.057l1.901-1.454l-0.021-0.569l0.582-0.021l0.07,1.913l-0.582,0.021
						l-0.022-0.586l-1.397,1.078l1.469,0.887l-0.021-0.584l0.582-0.021l0.066,1.854l-0.582,0.02l-0.022-0.615l-1.998-1.219
						l-1.534,0.057l0.024,0.634l-0.582,0.021l-0.072-1.962l0.581-0.021L122.717,69.432z"/>
					<path fill="#A2BAA2" d="M124.491,74.75c0.672,0.069,1.215,0.348,1.618,0.834c0.406,0.486,0.576,1.081,0.5,1.787
						c-0.073,0.712-0.359,1.268-0.862,1.669c-0.497,0.401-1.088,0.566-1.768,0.495c-0.693-0.072-1.244-0.36-1.646-0.863
						c-0.404-0.504-0.571-1.105-0.496-1.81c0.046-0.446,0.196-0.848,0.449-1.202c0.255-0.354,0.581-0.604,0.982-0.753
						C123.672,74.759,124.08,74.705,124.491,74.75z M124.409,75.51c-0.509-0.053-0.949,0.052-1.325,0.313
						c-0.374,0.261-0.586,0.633-0.636,1.118c-0.05,0.477,0.082,0.891,0.402,1.236c0.32,0.344,0.725,0.543,1.212,0.592
						c0.49,0.051,0.924-0.062,1.298-0.34c0.375-0.279,0.587-0.656,0.633-1.128c0.051-0.475-0.076-0.877-0.38-1.212
						C125.311,75.756,124.908,75.562,124.409,75.51z"/>
					<path fill="#A2BAA2" d="M124.701,84.59l-2.25-0.592c-0.35-0.091-0.596-0.138-0.739-0.138c-0.143,0.002-0.28,0.06-0.408,0.178
						c-0.136,0.116-0.229,0.289-0.287,0.513c-0.07,0.267-0.085,0.483-0.041,0.646c0.043,0.165,0.126,0.287,0.252,0.37
						c0.125,0.082,0.362,0.169,0.708,0.26l2.285,0.601l0.136-0.52l0.563,0.147l-0.465,1.76l-0.562-0.147l0.148-0.563l-2.353-0.621
						c-0.313-0.081-0.543-0.155-0.68-0.221c-0.138-0.063-0.265-0.176-0.392-0.338c-0.124-0.157-0.205-0.357-0.243-0.598
						c-0.037-0.242-0.016-0.515,0.066-0.823c0.09-0.341,0.208-0.612,0.356-0.816c0.145-0.205,0.308-0.343,0.484-0.42
						c0.177-0.074,0.354-0.109,0.529-0.103c0.175,0.006,0.438,0.054,0.786,0.146l2.285,0.6l0.147-0.556l0.562,0.148l-0.468,1.769
						l-0.562-0.148L124.701,84.59z"/>
					<path fill="#A2BAA2" d="M115.021,98.663l2.947,1.867l0.514-0.812l-1.002-0.636l0.308-0.486l1.494,0.946l-2.017,3.185
						l-1.495-0.946l0.308-0.484l1.002,0.636l0.515-0.811l-2.949-1.865l-0.324,0.51l-0.491-0.31l1.019-1.608l0.492,0.311
						L115.021,98.663z"/>
					<path fill="#A2BAA2" d="M111.735,103.374l2.664,2.254l0.341-0.403l0.445,0.377l-1.151,1.357l-0.443-0.375l0.354-0.42
						l-1.016-0.86l-1.31,1.545l1.018,0.86l0.352-0.417l0.444,0.376l-1.148,1.359l-0.446-0.377l0.342-0.406l-2.66-2.254l-0.345,0.405
						l-0.441-0.375l1.147-1.359l0.446,0.376l-0.353,0.416l1.199,1.02l1.309-1.545l-1.201-1.018l-0.354,0.418l-0.443-0.377
						l1.149-1.356l0.442,0.375L111.735,103.374z"/>
					<path fill="#A2BAA2" d="M106.545,109l2.316,2.609l0.45-0.399l0.387,0.435l-2.893,2.568l-0.928-1.048l0.427-0.384l0.548,0.613
						l1.482-1.318l-0.916-1.036l-1.294,1.149l-0.387-0.435l1.291-1.15l-1.009-1.138l-1.487,1.32l0.563,0.632l-0.43,0.383
						l-0.95-1.067l2.891-2.568l0.389,0.435L106.545,109z"/>
					<path fill="#A2BAA2" d="M93.42,117.941l1.378,3.204l0.581-0.248l0.23,0.534l-1.654,0.71c-0.457,0.197-0.819,0.324-1.084,0.383
						c-0.27,0.06-0.551,0.057-0.857-0.01c-0.303-0.067-0.584-0.216-0.846-0.445c-0.266-0.231-0.477-0.53-0.637-0.901
						c-0.181-0.422-0.271-0.817-0.272-1.187c0-0.368,0.075-0.676,0.223-0.921c0.153-0.249,0.363-0.467,0.636-0.654
						c0.271-0.188,0.64-0.384,1.1-0.58l1.555-0.67L94,117.691L93.42,117.941z M92.773,118.22l-0.337,0.144
						c-0.377,0.162-0.665,0.313-0.865,0.457c-0.201,0.142-0.352,0.302-0.454,0.482c-0.103,0.177-0.151,0.401-0.148,0.671
						c0.007,0.271,0.074,0.562,0.208,0.874c0.162,0.369,0.374,0.65,0.639,0.842c0.267,0.192,0.534,0.276,0.811,0.251
						c0.275-0.024,0.662-0.144,1.163-0.36l0.364-0.156L92.773,118.22z"/>
					<path fill="#A2BAA2" d="M86.141,120.705l0.9,3.371l0.581-0.156l0.152,0.562l-3.736,0.997l-0.362-1.351l0.556-0.15l0.21,0.791
						l1.921-0.514l-0.359-1.337l-1.669,0.446l-0.151-0.562l1.672-0.447l-0.393-1.47l-1.923,0.514l0.224,0.817l-0.56,0.148
						l-0.368-1.38l3.734-0.999l0.152,0.562L86.141,120.705z"/>
					<path fill="#A2BAA2" d="M79.743,121.577l0.219,1.676l-0.574,0.073l-0.054-0.407c-0.344-0.465-0.739-0.67-1.185-0.609
						c-0.229,0.029-0.412,0.124-0.55,0.283c-0.139,0.159-0.193,0.354-0.163,0.579c0.029,0.22,0.113,0.368,0.255,0.446
						c0.141,0.081,0.396,0.145,0.763,0.192c0.429,0.058,0.748,0.121,0.961,0.192c0.211,0.073,0.391,0.194,0.533,0.359
						c0.14,0.168,0.228,0.376,0.26,0.625c0.051,0.387-0.037,0.714-0.264,0.979c-0.23,0.264-0.535,0.423-0.927,0.474
						c-0.368,0.049-0.726-0.027-1.073-0.224l0.04,0.309l-0.564,0.074l-0.184-1.399l0.565-0.074l0.041,0.321
						c0.284,0.324,0.634,0.46,1.05,0.406c0.253-0.033,0.437-0.117,0.557-0.25c0.12-0.135,0.17-0.281,0.148-0.443
						c-0.018-0.123-0.065-0.228-0.146-0.312c-0.081-0.085-0.18-0.143-0.29-0.174c-0.113-0.03-0.328-0.065-0.651-0.104
						c-0.422-0.05-0.73-0.112-0.926-0.178c-0.195-0.067-0.371-0.199-0.532-0.398c-0.163-0.196-0.261-0.435-0.297-0.713
						c-0.053-0.395,0.045-0.737,0.288-1.03c0.244-0.294,0.568-0.465,0.98-0.521c0.419-0.055,0.816,0.047,1.193,0.305l-0.05-0.381
						L79.743,121.577z"/>
					<path fill="#A2BAA2" d="M72.982,122.78l0.079,3.49l0.501-0.013l0.014,0.583l-1.706,0.036l-0.015-0.581l0.501-0.012
						l-0.074-3.486l-0.504,0.009l-0.012-0.58l1.705-0.038l0.014,0.58L72.982,122.78z"/>
					<path fill="#A2BAA2" d="M65.194,124.093l-1.683-0.178c0.005-0.061,0.008-0.113,0.012-0.159c0.07-0.651,0.339-1.147,0.805-1.493
						c0.468-0.345,1.05-0.479,1.749-0.407c0.836,0.09,1.433,0.393,1.793,0.91c0.361,0.521,0.506,1.104,0.438,1.756
						c-0.073,0.68-0.343,1.224-0.809,1.629c-0.467,0.406-1.062,0.569-1.776,0.495c-0.647-0.068-1.17-0.324-1.563-0.762l-0.055,0.517
						l-0.588-0.062l0.161-1.52l0.587,0.062c0.085,0.267,0.258,0.515,0.519,0.742c0.264,0.229,0.575,0.362,0.939,0.399
						c0.506,0.055,0.921-0.074,1.25-0.383c0.329-0.312,0.52-0.707,0.571-1.19c0.057-0.551-0.064-1.007-0.362-1.364
						c-0.299-0.36-0.683-0.563-1.151-0.615c-0.37-0.038-0.709,0.029-1.021,0.204c-0.309,0.175-0.507,0.426-0.59,0.753l0.834,0.09
						L65.194,124.093z"/>
					<path fill="#A2BAA2" d="M59.985,121.522l-0.904,3.37l0.641,0.171l-0.147,0.563l-1.537-0.412l-1.034-4.021l-0.782,2.932
						l0.633,0.17l-0.149,0.563l-1.845-0.497l0.15-0.561l0.662,0.179l1.066-3.979l0.697,0.187l1.128,4.415l0.865-3.229l-0.644-0.173
						l0.15-0.562l1.843,0.495l-0.151,0.562L59.985,121.522z"/>
					<path fill="#A2BAA2" d="M52.572,119.188l-1.38,3.204l0.555,0.237l-0.23,0.535l-3.551-1.529l0.552-1.287l0.531,0.229
						l-0.327,0.753l1.826,0.785l0.549-1.271l-1.589-0.685l0.229-0.534l1.589,0.683l0.602-1.398l-1.826-0.784l-0.332,0.778
						l-0.531-0.229l0.565-1.312l3.554,1.528l-0.231,0.535L52.572,119.188z"/>
					<path fill="#A2BAA2" d="M46.304,116.174l-1.8,2.988l0.548,0.33l-0.299,0.498l-1.619-0.974c-0.337-0.205-0.59-0.393-0.757-0.565
						c-0.168-0.173-0.266-0.382-0.295-0.628c-0.027-0.247,0.035-0.499,0.187-0.75c0.317-0.528,0.79-0.693,1.418-0.498l0.173-1.875
						l-0.488-0.294l0.298-0.498l0.864,0.52l-0.215,2.409l0.562,0.338l0.823-1.364l-0.51-0.306l0.3-0.5l1.66,1l-0.301,0.498
						L46.304,116.174z M44.581,117.673l-0.469-0.281c-0.229-0.137-0.405-0.223-0.531-0.259c-0.123-0.037-0.251-0.03-0.372,0.021
						c-0.126,0.049-0.232,0.15-0.324,0.303c-0.079,0.131-0.108,0.261-0.092,0.393c0.013,0.132,0.066,0.24,0.152,0.325
						c0.09,0.087,0.236,0.192,0.447,0.318l0.512,0.308L44.581,117.673z"/>
				</g>
			</g>
		</g>
		<circle fill-rule="evenodd" clip-rule="evenodd" fill="#914516" cx="71.546" cy="71.585" r="47.206"/>
		<path fill-rule="evenodd" clip-rule="evenodd" fill="#A2BAA2" d="M110.929,71.585c0,21.751-17.63,39.384-39.384,39.384
			c-21.752,0-39.384-17.633-39.384-39.384s17.632-39.384,39.384-39.384C93.299,32.201,110.929,49.834,110.929,71.585z"/>
		<radialGradient id="SVGID_2_" cx="71.5449" cy="71.585" r="39.3838" gradientUnits="userSpaceOnUse">
			<stop  offset="0.3636" style="stop-color:#FFFFFF"/>
			<stop  offset="0.4375" style="stop-color:#FBFBFB"/>
			<stop  offset="0.5184" style="stop-color:#EEEEED"/>
			<stop  offset="0.6027" style="stop-color:#D9D8D7"/>
			<stop  offset="0.6893" style="stop-color:#BBBAB9"/>
			<stop  offset="0.7776" style="stop-color:#949491"/>
			<stop  offset="0.8675" style="stop-color:#656561"/>
			<stop  offset="0.9568" style="stop-color:#2F2E29"/>
			<stop  offset="1" style="stop-color:#12110B"/>
		</radialGradient>
		<path opacity="0.16" fill-rule="evenodd" clip-rule="evenodd" fill="url(#SVGID_2_)" d="M110.929,71.585
			c0,21.751-17.63,39.384-39.384,39.384c-21.752,0-39.384-17.633-39.384-39.384s17.632-39.384,39.384-39.384
			C93.299,32.201,110.929,49.834,110.929,71.585z"/>
		<g>
			<g>
				<path fill="#DE9118" d="M113.739,71.585c0,1.331-0.06,2.647-0.182,3.946l1.062,0.099c0.125-1.333,0.188-2.683,0.188-4.045
					H113.739z M113.517,67.199c0.132,1.299,0.208,2.613,0.221,3.943l1.068-0.011c-0.015-1.362-0.092-2.71-0.229-4.042
					L113.517,67.199z M111.973,59.464c0.377,1.252,0.696,2.532,0.955,3.831l1.045-0.207c-0.264-1.334-0.593-2.644-0.978-3.93
					L111.973,59.464L111.973,59.464z M109.009,52.152c0.605,1.165,1.158,2.361,1.654,3.584l0.99-0.399
					c-0.512-1.257-1.076-2.482-1.695-3.677L109.009,52.152z M104.731,45.521c0.812,1.034,1.577,2.108,2.294,3.215l0.896-0.579
					c-0.733-1.135-1.519-2.235-2.352-3.295L104.731,45.521z M99.297,39.798c0.993,0.868,1.942,1.781,2.852,2.737l0.771-0.736
					c-0.928-0.978-1.904-1.914-2.921-2.803L99.297,39.798z M92.897,35.183c1.136,0.669,2.24,1.388,3.309,2.158l0.622-0.865
					c-1.093-0.789-2.225-1.528-3.39-2.214L92.897,35.183z M85.749,31.84c1.244,0.445,2.462,0.947,3.65,1.502l0.454-0.968
					c-1.22-0.569-2.469-1.083-3.747-1.539L85.749,31.84z M78.103,29.896c1.311,0.206,2.601,0.471,3.87,0.792l0.26-1.034
					c-1.299-0.33-2.623-0.601-3.965-0.81L78.103,29.896z M70.229,29.41c0.437-0.012,0.877-0.02,1.316-0.02
					c0.884,0,1.761,0.027,2.632,0.082l0.064-1.066c-0.891-0.055-1.79-0.083-2.696-0.083c-0.45,0-0.9,0.007-1.352,0.021L70.229,29.41
					L70.229,29.41z M62.399,30.385c1.274-0.282,2.572-0.507,3.891-0.669l-0.135-1.06c-1.349,0.168-2.68,0.397-3.987,0.688
					L62.399,30.385z M54.891,32.805c1.202-0.519,2.437-0.982,3.695-1.387l-0.328-1.017c-1.289,0.417-2.556,0.892-3.789,1.424
					L54.891,32.805z M47.967,36.588c1.088-0.734,2.214-1.421,3.373-2.054l-0.514-0.937c-1.187,0.649-2.339,1.352-3.456,2.106
					L47.967,36.588z M41.865,41.594c0.936-0.927,1.914-1.81,2.933-2.646l-0.674-0.825c-1.047,0.857-2.051,1.762-3.01,2.71
					L41.865,41.594z M36.795,47.643c0.75-1.085,1.55-2.134,2.395-3.143l-0.815-0.684c-0.868,1.033-1.688,2.108-2.455,3.221
					L36.795,47.643z M32.939,54.528c0.535-1.208,1.126-2.388,1.769-3.533l-0.931-0.522c-0.66,1.175-1.265,2.383-1.813,3.624
					L32.939,54.528z M30.44,62.013c0.301-1.291,0.659-2.56,1.072-3.802L30.5,57.874c-0.424,1.273-0.791,2.573-1.096,3.896
					L30.44,62.013z M29.386,69.83c0.057-1.328,0.169-2.642,0.344-3.933l-1.056-0.143c-0.179,1.327-0.298,2.671-0.353,4.033
					L29.386,69.83z M29.795,77.711c-0.191-1.292-0.319-2.602-0.389-3.93l-1.065,0.055c0.069,1.359,0.201,2.704,0.394,4.029
					L29.795,77.711z M31.655,85.376c-0.429-1.237-0.799-2.502-1.111-3.787l-1.037,0.251c0.32,1.32,0.702,2.616,1.141,3.886
					L31.655,85.376z M34.924,92.558c-0.655-1.14-1.255-2.312-1.804-3.514l-0.972,0.442c0.562,1.23,1.178,2.434,1.849,3.603
					L34.924,92.558z M39.471,99.004c-0.854-0.999-1.663-2.04-2.424-3.117l-0.87,0.615c0.777,1.106,1.609,2.172,2.484,3.195
					L39.471,99.004z M45.14,104.498c-1.027-0.825-2.016-1.699-2.962-2.615l-0.744,0.767c0.973,0.94,1.982,1.835,3.038,2.68
					L45.14,104.498z M51.726,108.844c-1.164-0.62-2.298-1.294-3.396-2.018l-0.588,0.89c1.125,0.742,2.287,1.434,3.48,2.07
					L51.726,108.844z M59.009,111.885c-1.265-0.392-2.506-0.843-3.714-1.349l-0.412,0.985c1.24,0.519,2.513,0.979,3.808,1.384
					L59.009,111.885z M66.728,113.507c-1.317-0.149-2.619-0.36-3.898-0.628l-0.22,1.044c1.312,0.276,2.646,0.491,3.997,0.646
					L66.728,113.507z M74.617,113.669c-1.014,0.074-2.038,0.11-3.072,0.11c-0.291,0-0.586-0.003-0.876-0.009l-0.021,1.066
					c0.298,0.006,0.597,0.011,0.896,0.011c1.062,0,2.11-0.04,3.15-0.114L74.617,113.669z M82.399,112.371
					c-1.266,0.335-2.552,0.613-3.862,0.831l0.178,1.053c1.341-0.224,2.66-0.509,3.958-0.853L82.399,112.371z M89.8,109.638
					c-1.183,0.568-2.396,1.083-3.634,1.542l0.367,0.999c1.272-0.469,2.517-0.996,3.729-1.577L89.8,109.638z M96.56,105.568
					c-1.057,0.78-2.154,1.514-3.286,2.193l0.553,0.916c1.156-0.698,2.281-1.449,3.365-2.249L96.56,105.568z M102.447,100.315
					c-0.896,0.965-1.838,1.887-2.82,2.764l0.71,0.797c1.007-0.898,1.973-1.845,2.892-2.834L102.447,100.315z M107.262,94.062
					c-0.704,1.114-1.458,2.195-2.261,3.238l0.847,0.65c0.82-1.067,1.596-2.176,2.316-3.319L107.262,94.062z M110.827,87.022
					c-0.483,1.231-1.023,2.434-1.616,3.604l0.951,0.481c0.609-1.199,1.163-2.433,1.66-3.694L110.827,87.022z M113.012,79.441
					c-0.247,1.302-0.551,2.585-0.913,3.842l1.025,0.296c0.371-1.291,0.684-2.605,0.937-3.94L113.012,79.441z"/>
			</g>
		</g>
		<g>
			<g>
				<polygon fill="#DE9118" points="49.645,52.875 51.396,54.092 53.394,53.34 52.778,55.385 54.112,57.051 51.976,57.098 
					50.802,58.882 50.1,56.864 48.042,56.298 49.743,55.008 				"/>
				<polygon fill="#DE9118" points="57.769,48.383 59.526,49.602 61.525,48.848 60.905,50.894 62.24,52.562 60.104,52.606 
					58.929,54.391 58.229,52.372 56.167,51.809 57.87,50.517 				"/>
				<polygon fill="#DE9118" points="65.899,43.892 67.651,45.112 69.651,44.357 69.035,46.404 70.37,48.07 68.232,48.115 
					67.058,49.9 66.357,47.882 64.297,47.317 65.999,46.025 				"/>
			</g>
			<g>
				<polygon fill="#DE9118" points="73.688,94.049 75.443,95.268 77.439,94.516 76.824,96.56 78.157,98.228 76.021,98.272 
					74.846,100.057 74.145,98.039 72.085,97.473 73.787,96.183 				"/>
				<polygon fill="#DE9118" points="81.814,89.559 83.57,90.777 85.568,90.023 84.951,92.069 86.283,93.737 84.148,93.782 
					82.977,95.566 82.275,93.548 80.213,92.983 81.914,91.691 				"/>
				<polygon fill="#DE9118" points="89.943,85.067 91.697,86.286 93.695,85.532 93.079,87.578 94.415,89.245 92.276,89.291 
					91.103,91.074 90.403,89.058 88.342,88.493 90.043,87.201 				"/>
			</g>
		</g>
	</g>
	<g>
		
			<rect x="17.075" y="55.8" transform="matrix(0.8644 -0.5028 0.5028 0.8644 -26.2904 45.6751)" fill-rule="evenodd" clip-rule="evenodd" fill="#FCF1D1" width="108.942" height="31.571"/>
		<g>
			<g>
				<path fill="#914516" d="M37.206,94.058l-2.331-11.723l1.117-0.649l2.479,14.479l-2.425,1.41l-6.343-10.905
					c-1.423,1.556-1.469,3.247-0.446,5.002c0.473,0.815,0.756,0.823,0.856,0.956c-1.102,0.641-1.94,0.596-2.612-0.555
					c-1.233-2.123,0.526-5.86,3.191-7.409c0.225-0.132,0.44-0.236,0.658-0.341L37.206,94.058z"/>
				<path fill="#914516" d="M44.362,91.07c1.26-0.733,1.621-1.883,1.889-3.258l0.543-0.314c-0.054,1.997-0.551,4.271-2.674,5.508
					c-1.5,0.872-2.917,0.713-3.965-1.091c-1.069-1.835-2.27-6.287,1.003-8.19c1.422-0.826,2.185-0.287,2.648,0.512
					c1.066,1.836,0.138,4.277-1.712,5.503c0.113,0.234,0.227,0.466,0.339,0.658C43.064,91.483,43.597,91.516,44.362,91.07z
					 M41.777,84.496c-0.812,0.473-0.601,2.638-0.001,4.402c1.183-0.793,1.554-2.654,0.782-3.979
					C42.326,84.521,42.082,84.319,41.777,84.496z"/>
				<path fill="#914516" d="M48.709,81.342c-0.232-0.399-0.523-0.572-0.826-0.396c-1.008,0.585-0.346,4.11,0.684,5.884
					c0.633,1.086,1.165,1.119,1.93,0.672c1.263-0.732,1.62-1.882,1.89-3.255l0.544-0.315c-0.06,1.995-0.55,4.271-2.673,5.506
					c-1.503,0.872-2.918,0.715-3.968-1.09c-1.079-1.853-2.252-6.297,0.987-8.183c1.422-0.825,2.201-0.295,2.627,0.439
					c0.455,0.781,0.296,1.389-0.167,1.658c-0.176,0.101-0.405,0.148-0.671,0.132C48.988,81.969,48.867,81.612,48.709,81.342z"/>
				<path fill="#914516" d="M51.868,74.312l0.925,2.838l0.957-0.558l0.243,0.714l-0.958,0.557l1.765,5.384
					c0.072,0.234,0.151,0.404,0.235,0.548c0.26,0.448,0.551,0.47,0.997,0.211c0.623-0.362,0.845-1.305,0.619-2.242l0.67-0.389
					c0.604,3.132-0.771,4.402-1.633,4.902c-0.959,0.557-2.044,0.421-2.824-0.921c-0.177-0.303-0.332-0.683-0.475-1.111l-1.651-5.044
					l-0.528,0.305l-0.244-0.713l0.527-0.307l-0.803-2.481L51.868,74.312z"/>
				<path fill="#914516" d="M61.271,75.448c0.081-0.008,0.148-0.044,0.193-0.071c0.733-0.429,1.495-1.512,1.902-2.389l0.393,0.348
					c-0.226,1.006-1.001,2.1-2.054,2.968c1.463,3.103,0.942,5.883-1.021,7.026c-1.483,0.863-2.963,0.783-4.021-1.039
					c-1.069-1.835-2.212-6.297,1.075-8.211C59.114,73.282,60.296,73.77,61.271,75.448z M60.409,77.123
					c-0.384,0.115-0.638-0.102-0.822-0.42c-0.261-0.448-0.22-0.855-0.006-1.149c-0.423-0.652-0.731-0.815-1.147-0.573
					c-1.133,0.658-0.424,4.156,0.488,5.721c0.611,1.054,0.96,1.174,1.565,0.819C61.269,81.066,61.25,79.154,60.409,77.123z"/>
				<path fill="#914516" d="M64.071,70.592l0.369,1.109c0.28-0.804,0.587-1.668,1.356-2.113c0.716-0.418,1.444-0.051,1.798,0.557
					c0.324,0.559,0.311,1.378-0.473,1.834c-0.893,0.521-1.061-0.794-1.537-0.515c-0.481,0.278-0.628,0.685-0.812,1.284l2.249,6.812
					l-2.3,1.336l-2.949-8.969L64.071,70.592z"/>
				<path fill="#914516" d="M74.747,61.049l1.311,3.981l0.096-0.057c1.277-0.743,1.49-2.725,0.795-3.925
					c-0.527-0.908-1.594-1.38-3.111-0.498c-1.868,1.087-3.266,3.567-1.734,6.203c0.475,0.813,0.754,0.82,0.854,0.955
					c-1.053,0.612-1.94,0.596-2.564-0.475c-1.28-2.203,0.318-5.849,3.337-7.603c2.346-1.366,4.116-0.75,4.878,0.562
					c0.546,0.94,0.573,2.271-0.123,3.466c1.519-0.518,2.686,0.277,3.38,1.475c0.894,1.533,1.845,5.081-0.82,6.631
					c-0.688,0.399-1.702,0.712-2.269-0.262c-0.15-0.256-0.261-0.597-0.33-1.048c0.64,0.183,1.036,0.168,1.404-0.046
					c1.166-0.679,0.613-2.581-0.092-3.793c-0.649-1.119-1.53-1.823-2.698-1.146c-0.126,0.074-0.436,0.275-0.705,0.476l2.248,6.876
					l-2.301,1.337l-3.732-11.418L74.747,61.049z"/>
				<path fill="#914516" d="M87.966,56.692l2.01,6.097c0.073,0.235,0.149,0.404,0.231,0.55c0.263,0.447,0.609,0.563,1.056,0.305
					c0.623-0.362,0.644-1.314,0.42-2.253L92.354,61c0.602,3.132-0.63,4.319-1.493,4.82c-0.893,0.52-1.765,0.342-2.416-0.557
					c-0.069,1.021-0.394,2.191-1.525,2.85c-1.088,0.632-2.514,0.565-3.618-1.334c-1.254-2.155-1.927-6.36,0.852-7.975
					c0.909-0.53,1.498-0.401,1.767,0.062l0.065,0.11l-0.317-0.948L87.966,56.692z M85.534,65.18c0.713,1.23,1.235,0.948,1.521,0.782
					c0.465-0.27,0.855-1.139,0.51-2.176l-1.332-4.054c-0.112-0.191-0.499-0.524-1.01-0.226C83.867,60.295,84.66,63.68,85.534,65.18z
					"/>
				<path fill="#914516" d="M95.186,48.221l3.177,9.69c0.073,0.235,0.152,0.404,0.232,0.549c0.263,0.446,0.551,0.469,0.999,0.21
					c0.623-0.361,0.7-1.22,0.475-2.156l0.673-0.391c0.603,3.132-0.685,4.224-1.547,4.726c-0.863,0.501-1.717,0.355-2.363-0.464
					c-0.053,1.013-0.376,2.184-1.51,2.842c-1.086,0.632-2.512,0.565-3.618-1.335c-1.254-2.155-1.926-6.358,0.852-7.974
					c0.913-0.53,1.499-0.402,1.77,0.061l0.037,0.065l-1.354-4.128L95.186,48.221z M95.951,58.909l-1.343-4.111
					c-0.144-0.174-0.501-0.457-0.983-0.18c-1.356,0.791-0.562,4.176,0.312,5.676c0.713,1.23,1.234,0.95,1.521,0.781
					c0.449-0.26,0.844-1.087,0.541-2.086L95.951,58.909z"/>
				<path fill="#914516" d="M104.759,46.927l2.728,8.328c0.771-0.917,1.044-1.803,0.683-3.453l0.671-0.391
					c0.604,2.47-0.258,3.783-1.09,4.63l0.43,1.29c0.85,2.561-0.242,3.772-1.294,4.384c-0.976,0.567-2.087,0.528-2.689-0.509
					c-0.782-1.34,0.234-2.828,1.218-3.892l-0.301-0.959c-0.175,0.765-0.576,1.51-1.406,1.994c-1.085,0.631-2.512,0.564-3.617-1.336
					c-1.254-2.155-1.925-6.357,0.853-7.975c0.912-0.528,1.498-0.4,1.769,0.063l0.055,0.094l-0.308-0.932L104.759,46.927z
					 M105.793,60.686c0.335-0.195,0.44-0.898,0.099-1.96l-0.173-0.521c-0.638,0.777-1.147,1.629-0.773,2.269
					C105.072,60.698,105.44,60.889,105.793,60.686z M102.323,55.416c0.713,1.229,1.234,0.948,1.521,0.781
					c0.433-0.251,0.804-1.043,0.554-1.988l-1.386-4.257c-0.12-0.167-0.488-0.508-1-0.211
					C100.656,50.531,101.45,53.917,102.323,55.416z"/>
				<path fill="#914516" d="M112.141,51.417c0.605-0.353,1.141-1.198,1.392-1.943c0.72,2.015-0.113,3.227-1.389,3.971
					c-1.485,0.863-2.903,0.704-3.951-1.1c-1.068-1.837-2.269-6.288,1.004-8.191c1.42-0.827,2.186-0.288,2.649,0.512
					c1.076,1.852,0.137,4.276-1.714,5.503c0.079,0.171,0.163,0.354,0.247,0.498C110.962,51.672,111.581,51.741,112.141,51.417z
					 M109.817,44.924c-0.798,0.465-0.566,2.702-0.021,4.415c1.208-0.789,1.581-2.65,0.802-3.992
					C110.364,44.948,110.121,44.747,109.817,44.924z"/>
			</g>
		</g>
	</g>
</g>
</svg>
