<?xml version="1.0" encoding="utf-8"?>
<!-- Generator: Adobe Illustrator 15.0.0, SVG Export Plug-In . SVG Version: 6.00 Build 0)  -->
<!DOCTYPE svg PUBLIC "-//W3C//DTD SVG 1.1//EN" "http://www.w3.org/Graphics/SVG/1.1/DTD/svg11.dtd">
<svg version="1.1" id="Ebene_1" xmlns="http://www.w3.org/2000/svg" xmlns:xlink="http://www.w3.org/1999/xlink" x="0px" y="0px"
	 height="140.437px" viewBox="0 0 197.631 140.437" enable-background="new 0 0 197.631 140.437"
	 xml:space="preserve">
<g>
	<g>
		<g>
			<linearGradient id="SVGID_1_" gradientUnits="userSpaceOnUse" x1="97.5669" y1="156.7559" x2="97.5669" y2="16.3198">
				<stop  offset="0.0043" style="stop-color:#9E8C7B"/>
				<stop  offset="1" style="stop-color:#705A42"/>
			</linearGradient>
			<polygon fill="url(#SVGID_1_)" points="97.564,0 102.681,5.217 108.55,0.865 112.786,6.818 119.265,3.438 122.516,9.979 
				129.442,7.654 131.634,14.625 138.837,13.411 139.911,20.637 147.216,20.567 147.145,27.873 154.37,28.945 153.158,36.15 
				160.128,38.34 157.804,45.267 164.347,48.521 160.966,54.998 166.919,59.234 162.564,65.102 167.784,70.218 162.564,75.334 
				166.919,81.202 160.966,85.439 164.347,91.917 157.804,95.169 160.128,102.096 153.158,104.287 154.37,111.491 147.145,112.563 
				147.216,119.871 139.911,119.8 138.837,127.025 131.634,125.812 129.442,132.782 122.516,130.457 119.265,137 112.786,133.62 
				108.55,139.571 102.681,135.22 97.564,140.437 92.448,135.22 86.581,139.571 82.343,133.62 75.866,137 72.614,130.457 
				65.687,132.782 63.498,125.812 56.292,127.025 55.219,119.8 47.914,119.871 47.985,112.563 40.758,111.491 41.971,104.287 
				35.001,102.096 37.326,95.169 30.783,91.917 34.165,85.439 28.212,81.202 32.565,75.334 27.349,70.218 32.565,65.102 
				28.212,59.234 34.165,54.998 30.783,48.521 37.326,45.267 35.001,38.34 41.971,36.15 40.758,28.945 47.985,27.873 47.914,20.567 
				55.219,20.637 56.292,13.411 63.498,14.625 65.687,7.654 72.614,9.979 75.866,3.438 82.343,6.818 86.581,0.865 92.448,5.217 			
				"/>
			<linearGradient id="SVGID_2_" gradientUnits="userSpaceOnUse" x1="135.9492" y1="3.8184" x2="73.2033" y2="112.146">
				<stop  offset="0.0043" style="stop-color:#9E8C7B"/>
				<stop  offset="1" style="stop-color:#705A42"/>
			</linearGradient>
			<circle fill="url(#SVGID_2_)" cx="97.284" cy="70.57" r="56.274"/>
			<g>
				<path fill="#EEE6DC" d="M153.53,70.218h-0.635c0,15.281-6.191,29.111-16.205,39.125c-10.015,10.015-23.844,16.207-39.125,16.207
					c-15.281,0-29.109-6.192-39.125-16.207C48.426,99.329,42.234,85.499,42.233,70.218c0.001-15.281,6.192-29.109,16.206-39.125
					c10.017-10.014,23.845-16.205,39.125-16.205c15.282,0,29.111,6.191,39.125,16.205c10.014,10.017,16.205,23.845,16.205,39.125
					H153.53h0.633c0-31.257-25.34-56.596-56.598-56.597c-31.257,0.001-56.596,25.34-56.598,56.597
					c0.001,31.257,25.341,56.597,56.598,56.597c31.258,0,56.598-25.34,56.598-56.597H153.53z"/>
			</g>
			<g>
				<path fill="#EEE6DC" d="M149.819,69.267c0.005,0.315,0.008,0.632,0.008,0.951c0,0.857-0.021,1.707-0.061,2.55
					c-0.013,0.238,0.17,0.438,0.408,0.449c0.236,0.012,0.437-0.172,0.448-0.408c0.042-0.857,0.062-1.722,0.062-2.591
					c0-0.324-0.004-0.646-0.009-0.968c-0.005-0.236-0.199-0.425-0.437-0.42C150.003,68.833,149.814,69.03,149.819,69.267z
					 M149.378,63.332c0.109,0.839,0.201,1.686,0.271,2.537c0.02,0.235,0.227,0.412,0.463,0.392c0.235-0.019,0.411-0.227,0.394-0.463
					c-0.072-0.865-0.164-1.725-0.277-2.579c-0.029-0.234-0.245-0.399-0.48-0.369C149.511,62.882,149.347,63.098,149.378,63.332z
					 M148.265,57.488c0.207,0.822,0.394,1.652,0.559,2.489c0.047,0.231,0.272,0.383,0.506,0.337
					c0.231-0.045,0.383-0.272,0.336-0.505c-0.168-0.85-0.357-1.693-0.567-2.53c-0.058-0.229-0.29-0.369-0.521-0.312
					C148.348,57.025,148.208,57.257,148.265,57.488z M146.493,51.808c0.299,0.794,0.578,1.597,0.839,2.408
					c0.072,0.226,0.313,0.349,0.54,0.277c0.225-0.074,0.35-0.313,0.277-0.539c-0.266-0.825-0.551-1.642-0.854-2.448
					c-0.084-0.222-0.332-0.334-0.553-0.251C146.521,51.338,146.407,51.586,146.493,51.808z M144.085,46.378
					c0.387,0.752,0.757,1.517,1.107,2.293c0.098,0.215,0.353,0.311,0.566,0.213c0.217-0.098,0.312-0.352,0.215-0.567
					c-0.356-0.788-0.732-1.566-1.126-2.332c-0.108-0.211-0.366-0.294-0.577-0.186C144.06,45.907,143.977,46.166,144.085,46.378z
					 M141.071,41.253c0.472,0.706,0.926,1.424,1.363,2.152c0.121,0.204,0.386,0.27,0.588,0.148c0.203-0.121,0.271-0.385,0.148-0.588
					c-0.445-0.741-0.906-1.472-1.385-2.188c-0.132-0.197-0.397-0.25-0.596-0.118C140.994,40.789,140.94,41.057,141.071,41.253z
					 M137.495,36.499c0.551,0.649,1.082,1.312,1.6,1.988c0.145,0.188,0.413,0.224,0.602,0.08c0.188-0.145,0.224-0.414,0.08-0.602
					c-0.525-0.686-1.067-1.36-1.625-2.018c-0.152-0.183-0.424-0.205-0.604-0.051C137.366,36.049,137.343,36.319,137.495,36.499
					L137.495,36.499z M133.403,32.18c0.619,0.584,1.224,1.182,1.814,1.793c0.164,0.172,0.436,0.177,0.607,0.012
					c0.17-0.164,0.176-0.434,0.01-0.606c-0.6-0.622-1.213-1.231-1.844-1.825c-0.172-0.16-0.443-0.154-0.605,0.019
					C133.223,31.746,133.231,32.018,133.403,32.18z M128.847,28.35c0.682,0.511,1.352,1.036,2.006,1.578
					c0.183,0.151,0.453,0.124,0.605-0.057c0.15-0.185,0.124-0.453-0.059-0.605c-0.666-0.55-1.346-1.085-2.039-1.604
					c-0.189-0.142-0.458-0.104-0.6,0.086C128.618,27.938,128.657,28.208,128.847,28.35z M123.885,25.057
					c0.734,0.431,1.46,0.877,2.173,1.342c0.198,0.129,0.465,0.074,0.594-0.125s0.074-0.465-0.126-0.595
					c-0.724-0.472-1.46-0.927-2.21-1.364c-0.203-0.119-0.467-0.05-0.586,0.154C123.61,24.675,123.679,24.938,123.885,25.057z
					 M118.576,22.352c0.781,0.343,1.554,0.706,2.313,1.086c0.212,0.105,0.469,0.019,0.575-0.192c0.106-0.212,0.02-0.47-0.192-0.577
					c-0.772-0.386-1.557-0.753-2.35-1.104c-0.219-0.094-0.472,0.004-0.568,0.221C118.261,22.003,118.358,22.256,118.576,22.352z
					 M112.99,20.27c0.816,0.253,1.624,0.524,2.424,0.814c0.224,0.081,0.47-0.034,0.55-0.256c0.081-0.223-0.033-0.47-0.257-0.551
					c-0.812-0.295-1.634-0.571-2.464-0.827c-0.227-0.071-0.465,0.057-0.537,0.283C112.638,19.96,112.765,20.2,112.99,20.27z
					 M107.214,18.846c0.839,0.157,1.67,0.333,2.496,0.529c0.229,0.054,0.461-0.088,0.516-0.318c0.055-0.229-0.088-0.462-0.316-0.516
					c-0.84-0.2-1.685-0.379-2.538-0.538c-0.232-0.044-0.458,0.11-0.501,0.341C106.827,18.578,106.98,18.802,107.214,18.846z
					 M101.312,18.089c0.853,0.062,1.699,0.142,2.54,0.242c0.235,0.029,0.448-0.14,0.476-0.375c0.031-0.236-0.139-0.448-0.373-0.478
					c-0.855-0.102-1.716-0.185-2.581-0.245c-0.236-0.017-0.442,0.161-0.458,0.398C100.897,17.866,101.074,18.072,101.312,18.089
					L101.312,18.089z M95.361,18.003c0.731-0.03,1.466-0.046,2.204-0.046c0.116,0,0.231,0,0.349,0.002
					c0.235,0,0.429-0.191,0.432-0.428c0-0.235-0.19-0.429-0.429-0.43c-0.116-0.002-0.234-0.002-0.352-0.002
					c-0.75,0-1.496,0.016-2.239,0.046c-0.237,0.009-0.421,0.21-0.41,0.448C94.926,17.828,95.125,18.011,95.361,18.003z
					 M89.439,18.583c0.837-0.13,1.681-0.24,2.53-0.332c0.235-0.024,0.406-0.236,0.382-0.471c-0.025-0.235-0.237-0.407-0.473-0.38
					c-0.863,0.091-1.72,0.203-2.571,0.336c-0.232,0.037-0.394,0.256-0.357,0.489C88.986,18.461,89.206,18.622,89.439,18.583z
					 M83.624,19.838c0.818-0.227,1.643-0.434,2.476-0.62c0.231-0.051,0.376-0.281,0.325-0.511c-0.052-0.232-0.281-0.376-0.512-0.326
					c-0.846,0.19-1.686,0.399-2.517,0.629c-0.228,0.063-0.362,0.298-0.3,0.526C83.159,19.767,83.396,19.899,83.624,19.838z
					 M77.989,21.746c0.787-0.317,1.583-0.616,2.386-0.898c0.225-0.077,0.343-0.322,0.265-0.544
					c-0.078-0.225-0.322-0.342-0.546-0.265c-0.818,0.286-1.627,0.59-2.426,0.913c-0.22,0.088-0.326,0.338-0.236,0.558
					C77.52,21.729,77.769,21.835,77.989,21.746z M72.617,24.285c0.745-0.405,1.5-0.793,2.267-1.163
					c0.212-0.103,0.302-0.359,0.199-0.573c-0.103-0.213-0.358-0.303-0.572-0.201c-0.778,0.376-1.547,0.771-2.304,1.183
					c-0.208,0.113-0.285,0.373-0.172,0.581C72.149,24.321,72.408,24.398,72.617,24.285z M67.565,27.42
					c0.694-0.488,1.401-0.959,2.122-1.414c0.2-0.127,0.259-0.392,0.132-0.592c-0.126-0.2-0.391-0.26-0.591-0.134
					c-0.73,0.462-1.45,0.942-2.157,1.438c-0.193,0.137-0.239,0.404-0.103,0.597C67.104,27.509,67.371,27.556,67.565,27.42z
					 M62.898,31.109c0.636-0.565,1.285-1.114,1.949-1.646c0.185-0.148,0.214-0.418,0.066-0.602
					c-0.148-0.185-0.418-0.215-0.603-0.066c-0.674,0.542-1.336,1.099-1.98,1.673c-0.177,0.156-0.192,0.427-0.037,0.604
					C62.45,31.25,62.722,31.266,62.898,31.109z M58.676,35.304c0.569-0.632,1.154-1.251,1.752-1.856
					c0.167-0.168,0.165-0.44-0.003-0.607c-0.168-0.166-0.44-0.165-0.607,0.004c-0.607,0.614-1.2,1.244-1.779,1.887
					c-0.158,0.176-0.144,0.447,0.033,0.607C58.249,35.495,58.519,35.481,58.676,35.304z M54.956,39.95
					c0.494-0.693,1.004-1.374,1.53-2.042c0.147-0.187,0.115-0.457-0.071-0.603c-0.186-0.146-0.456-0.114-0.603,0.071
					c-0.534,0.68-1.053,1.373-1.556,2.078c-0.137,0.193-0.093,0.46,0.102,0.598C54.551,40.188,54.819,40.144,54.956,39.95z
					 M51.785,44.992c0.411-0.747,0.841-1.482,1.289-2.206c0.123-0.202,0.062-0.466-0.14-0.589c-0.202-0.126-0.466-0.064-0.59,0.138
					c-0.456,0.736-0.891,1.482-1.31,2.242c-0.114,0.209-0.04,0.469,0.167,0.583C51.409,45.274,51.669,45.199,51.785,44.992z
					 M49.207,50.364c0.325-0.79,0.668-1.571,1.029-2.34c0.101-0.215,0.008-0.47-0.206-0.571c-0.215-0.099-0.47-0.007-0.57,0.206
					c-0.368,0.783-0.716,1.576-1.046,2.379c-0.09,0.219,0.014,0.468,0.233,0.56C48.867,50.688,49.117,50.584,49.207,50.364z
					 M47.263,55.993c0.231-0.821,0.483-1.634,0.753-2.438c0.077-0.223-0.044-0.468-0.27-0.542c-0.225-0.077-0.468,0.045-0.542,0.269
					c-0.275,0.816-0.531,1.643-0.766,2.479c-0.064,0.228,0.068,0.464,0.296,0.53C46.962,56.354,47.199,56.219,47.263,55.993z
					 M45.977,61.802c0.137-0.843,0.293-1.678,0.47-2.507c0.05-0.231-0.099-0.459-0.33-0.509c-0.233-0.05-0.459,0.099-0.509,0.33
					c-0.178,0.843-0.338,1.692-0.478,2.548c-0.039,0.235,0.121,0.455,0.355,0.493C45.719,62.194,45.939,62.036,45.977,61.802z
					 M45.363,67.72c0.04-0.854,0.1-1.702,0.18-2.545c0.022-0.236-0.149-0.443-0.386-0.467c-0.236-0.022-0.445,0.15-0.468,0.385
					c-0.08,0.858-0.143,1.719-0.185,2.587c-0.011,0.238,0.172,0.437,0.41,0.449C45.151,68.138,45.351,67.956,45.363,67.72z
					 M45.417,73.672c-0.056-0.844-0.091-1.695-0.105-2.55c-0.003-0.236-0.2-0.426-0.437-0.421c-0.236,0.003-0.425,0.199-0.421,0.436
					c0.016,0.868,0.049,1.731,0.106,2.591c0.015,0.236,0.22,0.415,0.456,0.4C45.251,74.112,45.432,73.909,45.417,73.672z
					 M46.139,79.578c-0.15-0.835-0.281-1.675-0.393-2.522c-0.03-0.234-0.245-0.4-0.481-0.368c-0.234,0.029-0.4,0.244-0.369,0.479
					c0.113,0.861,0.246,1.714,0.398,2.562c0.042,0.235,0.265,0.39,0.499,0.345C46.026,80.033,46.181,79.811,46.139,79.578z
					 M47.531,85.36c-0.246-0.811-0.472-1.63-0.678-2.459c-0.058-0.229-0.291-0.369-0.519-0.312
					c-0.231,0.057-0.371,0.292-0.313,0.521c0.21,0.842,0.439,1.676,0.689,2.501c0.068,0.227,0.308,0.354,0.535,0.286
					C47.471,85.827,47.599,85.589,47.531,85.36z M49.574,90.943c-0.336-0.778-0.653-1.564-0.952-2.36
					c-0.085-0.222-0.331-0.334-0.554-0.25c-0.221,0.084-0.333,0.33-0.25,0.553c0.305,0.809,0.627,1.606,0.969,2.398
					c0.094,0.217,0.346,0.318,0.563,0.223C49.568,91.412,49.667,91.161,49.574,90.943z M52.24,96.253
					c-0.424-0.734-0.829-1.48-1.216-2.236c-0.108-0.211-0.367-0.295-0.578-0.188c-0.211,0.107-0.292,0.367-0.185,0.578
					c0.394,0.769,0.806,1.528,1.236,2.275c0.118,0.204,0.38,0.275,0.585,0.157C52.287,96.722,52.358,96.46,52.24,96.253z
					 M55.495,101.229c-0.505-0.682-0.992-1.379-1.464-2.086c-0.131-0.199-0.396-0.252-0.594-0.119
					c-0.197,0.131-0.251,0.396-0.12,0.594c0.479,0.719,0.976,1.428,1.488,2.121c0.142,0.19,0.411,0.23,0.601,0.09
					C55.596,101.689,55.636,101.421,55.495,101.229z M59.294,105.809c-0.578-0.624-1.144-1.261-1.692-1.909
					c-0.152-0.182-0.423-0.204-0.604-0.052c-0.181,0.153-0.205,0.423-0.051,0.604c0.558,0.661,1.131,1.307,1.719,1.94
					c0.161,0.173,0.433,0.182,0.605,0.021C59.445,106.252,59.457,105.981,59.294,105.809z M63.587,109.929
					c-0.645-0.553-1.279-1.123-1.896-1.707c-0.171-0.162-0.443-0.154-0.605,0.02c-0.163,0.171-0.156,0.442,0.017,0.605
					c0.628,0.593,1.272,1.17,1.928,1.734c0.18,0.152,0.451,0.132,0.605-0.047C63.79,110.354,63.769,110.083,63.587,109.929z
					 M68.322,113.54c-0.704-0.479-1.398-0.973-2.079-1.481c-0.189-0.142-0.458-0.104-0.601,0.085
					c-0.141,0.189-0.103,0.459,0.087,0.6c0.691,0.52,1.396,1.021,2.114,1.506c0.195,0.134,0.462,0.082,0.595-0.115
					C68.571,113.938,68.52,113.672,68.322,113.54z M73.439,116.589c-0.758-0.394-1.502-0.805-2.237-1.234
					c-0.204-0.121-0.466-0.053-0.586,0.151c-0.119,0.206-0.052,0.468,0.153,0.587c0.746,0.438,1.505,0.857,2.272,1.258
					c0.21,0.108,0.47,0.026,0.579-0.183C73.731,116.958,73.648,116.7,73.439,116.589z M78.874,119.038
					c-0.799-0.307-1.587-0.631-2.366-0.974c-0.216-0.096-0.47,0.002-0.565,0.218c-0.095,0.218,0.003,0.473,0.22,0.566
					c0.791,0.35,1.591,0.68,2.402,0.99c0.221,0.085,0.469-0.027,0.555-0.248C79.205,119.37,79.092,119.122,78.874,119.038z
					 M84.547,120.845c-0.827-0.211-1.646-0.442-2.455-0.693c-0.227-0.07-0.467,0.057-0.538,0.281
					c-0.069,0.229,0.058,0.467,0.284,0.539c0.823,0.254,1.656,0.488,2.496,0.703c0.229,0.061,0.462-0.078,0.521-0.309
					C84.914,121.138,84.776,120.903,84.547,120.845z M90.386,121.99c-0.846-0.114-1.686-0.252-2.518-0.409
					c-0.234-0.043-0.458,0.109-0.502,0.344c-0.043,0.231,0.11,0.456,0.343,0.5c0.845,0.158,1.7,0.299,2.56,0.416
					c0.233,0.032,0.45-0.131,0.482-0.367C90.783,122.24,90.62,122.021,90.386,121.99z M96.316,122.465
					c-0.855-0.021-1.706-0.061-2.549-0.122c-0.236-0.016-0.442,0.162-0.458,0.398c-0.018,0.234,0.161,0.441,0.397,0.458
					c0.857,0.061,1.721,0.104,2.59,0.123c0.236,0.007,0.432-0.181,0.438-0.419C96.74,122.667,96.553,122.471,96.316,122.465z
					 M102.265,122.271c-0.844,0.075-1.692,0.131-2.546,0.166c-0.237,0.01-0.421,0.209-0.411,0.445
					c0.01,0.237,0.209,0.422,0.445,0.411c0.868-0.036,1.73-0.091,2.588-0.167c0.235-0.021,0.41-0.229,0.389-0.465
					C102.708,122.425,102.501,122.249,102.265,122.271z M108.15,121.407c-0.829,0.17-1.665,0.322-2.51,0.451
					c-0.233,0.037-0.394,0.256-0.357,0.49s0.255,0.395,0.489,0.359c0.857-0.135,1.709-0.287,2.552-0.461
					c0.232-0.048,0.382-0.275,0.333-0.506C108.61,121.509,108.384,121.358,108.15,121.407z M113.9,119.877
					c-0.806,0.265-1.62,0.511-2.442,0.737c-0.227,0.062-0.361,0.299-0.3,0.526c0.062,0.228,0.299,0.363,0.526,0.3
					c0.838-0.23,1.666-0.48,2.484-0.749c0.225-0.074,0.346-0.316,0.273-0.542C114.368,119.925,114.126,119.802,113.9,119.877z
					 M119.433,117.698c-0.77,0.355-1.55,0.693-2.338,1.011c-0.219,0.087-0.325,0.338-0.236,0.558
					c0.088,0.221,0.338,0.326,0.557,0.238c0.803-0.323,1.594-0.665,2.377-1.027c0.215-0.1,0.309-0.354,0.209-0.568
					C119.901,117.693,119.646,117.601,119.433,117.698z M124.679,114.906c-0.727,0.439-1.463,0.865-2.209,1.271
					c-0.209,0.111-0.286,0.374-0.174,0.58c0.113,0.209,0.374,0.287,0.582,0.174c0.76-0.414,1.509-0.844,2.244-1.293
					c0.203-0.121,0.269-0.385,0.145-0.588C125.144,114.848,124.882,114.783,124.679,114.906L124.679,114.906z M129.575,111.533
					c-0.671,0.521-1.355,1.024-2.052,1.515c-0.193,0.135-0.24,0.402-0.105,0.598c0.136,0.191,0.404,0.238,0.597,0.104
					c0.711-0.497,1.404-1.009,2.086-1.539c0.188-0.145,0.222-0.414,0.076-0.602C130.032,111.421,129.764,111.388,129.575,111.533z
					 M134.062,107.626c-0.607,0.594-1.231,1.172-1.867,1.736c-0.179,0.156-0.194,0.428-0.037,0.605
					c0.156,0.178,0.428,0.193,0.605,0.035c0.646-0.572,1.279-1.16,1.898-1.764c0.17-0.166,0.174-0.438,0.008-0.605
					C134.503,107.464,134.231,107.46,134.062,107.626z M138.08,103.234c-0.538,0.659-1.093,1.305-1.66,1.937
					c-0.16,0.178-0.146,0.448,0.031,0.605c0.175,0.159,0.446,0.146,0.604-0.03c0.58-0.644,1.143-1.3,1.688-1.972
					c0.15-0.182,0.123-0.452-0.062-0.602C138.499,103.022,138.229,103.05,138.08,103.234z M141.576,98.415
					c-0.46,0.715-0.937,1.421-1.431,2.113c-0.139,0.193-0.094,0.46,0.099,0.598c0.192,0.14,0.462,0.094,0.599-0.1
					c0.502-0.703,0.986-1.42,1.456-2.148c0.127-0.199,0.069-0.466-0.13-0.594c-0.199-0.127-0.464-0.07-0.593,0.129V98.415z
					 M144.503,93.226c-0.376,0.766-0.77,1.521-1.182,2.266c-0.114,0.207-0.039,0.469,0.167,0.583
					c0.209,0.114,0.469,0.04,0.583-0.167c0.418-0.758,0.819-1.525,1.202-2.303c0.104-0.213,0.017-0.47-0.196-0.574
					C144.866,92.926,144.608,93.013,144.503,93.226z M146.819,87.735c-0.286,0.805-0.592,1.6-0.916,2.385
					c-0.09,0.221,0.015,0.471,0.234,0.562c0.218,0.091,0.469-0.015,0.561-0.233c0.328-0.799,0.639-1.607,0.93-2.427
					c0.078-0.224-0.037-0.468-0.262-0.548C147.144,87.396,146.899,87.513,146.819,87.735z M148.489,82.023
					c-0.193,0.833-0.404,1.655-0.636,2.47c-0.064,0.229,0.067,0.467,0.296,0.531s0.465-0.068,0.529-0.295
					c0.235-0.83,0.45-1.668,0.646-2.514c0.054-0.23-0.091-0.461-0.321-0.514S148.542,81.793,148.489,82.023z M149.493,76.159
					c-0.096,0.85-0.211,1.692-0.349,2.527c-0.038,0.234,0.12,0.455,0.354,0.492s0.453-0.12,0.492-0.355
					c0.139-0.848,0.258-1.705,0.354-2.567c0.027-0.235-0.143-0.447-0.377-0.475C149.733,75.755,149.519,75.924,149.493,76.159z"/>
			</g>
		</g>
		<g>
			<path fill="#EEE6DC" d="M70.056,60.393l2.278-6.978l-1.221-8.497c-2.194,0.771-3.661,2.537-3.941,5.03
				c-0.129,1.155,0.145,1.337,0.144,1.541c-1.562,0-2.358-0.566-2.176-2.198c0.337-3.013,4.828-5.89,8.612-5.89
				c0.318,0,0.609,0.021,0.901,0.044l1.062,8.112l4.254-8.045h1.497l-5.505,9.902l-2.279,6.978H70.056z"/>
			<path fill="#EEE6DC" d="M87.485,52.486c0.086,0.045,0.177,0.045,0.246,0.045c1.041,0,2.589-0.68,3.64-1.359l0.135,0.611
				c-0.965,0.929-2.537,1.607-4.221,1.881c-0.833,4.191-3.392,6.818-6.179,6.818c-2.107,0-3.513-0.996-3.224-3.58
				c0.293-2.604,2.443-8.042,7.111-8.042C86.94,48.861,87.753,50.107,87.485,52.486z M85.398,53.733
				c-0.463-0.114-0.557-0.5-0.505-0.952c0.071-0.635,0.412-1.042,0.84-1.223c0.061-0.953-0.125-1.314-0.714-1.314
				c-1.608,0-3.479,4.146-3.728,6.366c-0.167,1.495,0.09,1.835,0.95,1.835C83.351,58.445,84.734,56.406,85.398,53.733z"/>
			<path fill="#EEE6DC" d="M93.83,49.065l-2.495,7.702c-0.066,0.182-0.111,0.386-0.132,0.566c-0.059,0.522,0.046,0.996,0.568,0.996
				c0.883,0,1.569-0.859,2.037-1.993l2.356-7.271h3.261l-2.495,7.702c-0.1,0.294-0.149,0.522-0.171,0.725
				c-0.071,0.634,0.2,0.838,0.834,0.838c0.431,0,0.551-0.066,0.764-0.135c-0.297,1.631-1.554,2.333-2.777,2.333
				c-1.246,0-1.969-0.815-1.978-2.152c-1.342,1.857-2.667,2.152-3.618,2.152c-1.359,0-2.333-0.815-2.119-2.718
				c0.047-0.431,0.171-0.928,0.345-1.473l2.357-7.271H93.83z"/>
			<path fill="#EEE6DC" d="M101.714,51.513c-1.562,0-2.36-0.568-2.177-2.199c0.339-3.015,3.039-5.892,8.635-5.892
				c1.042,0,3.74,0.589,6.05,0.589c1.112,0,2.123-0.136,2.805-0.543c-0.656,0.996-1.047,1.653-2.668,6.818
				c1.098-1.109,2.117-1.312,2.842-1.312c1.451,0,2.432,0.746,2.229,2.56c-0.205,1.834-1.6,4.574-1.742,5.844
				c-0.064,0.567,0.119,0.951,0.798,0.951c0.997,0,1.497-0.815,2.127-1.993h0.952c-1.685,3.716-3.483,4.191-4.686,4.191
				c-1.971,0-2.529-1.268-2.384-2.559c0.173-1.541,1.505-4.328,1.667-5.777c0.084-0.749-0.143-1.156-0.688-1.156
				c-0.792,0-1.479,0.883-1.938,1.948c-0.605,1.972-1.332,4.396-2.213,7.409h-3.262l4.725-14.453
				c-0.922-0.069-1.921-0.25-2.947-0.386l-4.859,14.839h-3.263l4.927-15.044c-2.547,0.091-4.674,1.066-5.072,4.622
				C101.439,51.126,101.715,51.308,101.714,51.513z"/>
			<path fill="#EEE6DC" d="M124.827,58.376c0.863,0,2.014-0.566,2.81-1.199c-0.766,2.583-2.483,3.352-4.296,3.352
				c-2.106,0-3.395-1.041-3.107-3.602c0.293-2.606,2.377-8.065,7.021-8.065c2.018,0,2.376,1.042,2.247,2.175
				c-0.294,2.629-3.009,4.621-5.745,4.78c-0.049,0.226-0.1,0.476-0.122,0.68C123.476,57.923,124.035,58.376,124.827,58.376z
				 M127.301,50.061c-1.132,0-2.546,2.515-3.265,4.667c1.777-0.091,3.513-1.834,3.727-3.737
				C127.827,50.424,127.731,50.061,127.301,50.061z"/>
		</g>
	</g>
	<g>
		<g>
			<linearGradient id="SVGID_3_" gradientUnits="userSpaceOnUse" x1="2.708" y1="90.3125" x2="36.1526" y2="90.3125">
				<stop  offset="0.0043" style="stop-color:#A5C9B7"/>
				<stop  offset="1" style="stop-color:#8ABDA4"/>
			</linearGradient>
			<polygon fill="url(#SVGID_3_)" points="0.061,73.431 9.748,90.313 0,107.171 0,107.194 33.115,107.194 33.115,73.431 			"/>
			<g>
				<path fill="#FFFFFF" d="M17.254,75.934h1.856c0.205,0,0.371-0.149,0.371-0.337c0-0.187-0.167-0.337-0.371-0.337h-1.856
					c-0.206,0-0.372,0.15-0.372,0.337C16.882,75.784,17.049,75.934,17.254,75.934z M13.54,75.934h1.858
					c0.204,0,0.371-0.149,0.371-0.337c0-0.187-0.167-0.337-0.371-0.337H13.54c-0.204,0-0.372,0.15-0.372,0.337
					C13.168,75.784,13.335,75.934,13.54,75.934z M9.826,75.934h1.856c0.206,0,0.371-0.149,0.371-0.337
					c0-0.187-0.166-0.337-0.371-0.337H9.826c-0.205,0-0.372,0.15-0.372,0.337C9.454,75.784,9.622,75.934,9.826,75.934z
					 M6.112,75.934h1.856c0.206,0,0.372-0.149,0.372-0.337c0-0.187-0.166-0.337-0.372-0.337H6.112c-0.205,0-0.373,0.15-0.373,0.337
					C5.74,75.784,5.907,75.934,6.112,75.934z M2.399,75.934h1.857c0.205,0,0.37-0.149,0.37-0.337c0-0.187-0.165-0.337-0.37-0.337
					H2.399c-0.206,0-0.372,0.15-0.372,0.337C2.027,75.784,2.193,75.934,2.399,75.934z"/>
			</g>
			<g>
				<path fill="#FFFFFF" d="M28.395,105.339h1.857c0.206,0,0.37-0.152,0.37-0.34c0-0.186-0.164-0.336-0.37-0.336h-1.857
					c-0.204,0-0.372,0.15-0.372,0.336C28.023,105.187,28.19,105.339,28.395,105.339z M24.681,105.339h1.857
					c0.206,0,0.371-0.152,0.371-0.34c0-0.186-0.165-0.336-0.371-0.336h-1.857c-0.204,0-0.372,0.15-0.372,0.336
					C24.31,105.187,24.477,105.339,24.681,105.339z M20.967,105.339h1.858c0.205,0,0.37-0.152,0.37-0.34
					c0-0.186-0.165-0.336-0.37-0.336h-1.858c-0.205,0-0.371,0.15-0.371,0.336C20.597,105.187,20.762,105.339,20.967,105.339z
					 M17.254,105.339h1.856c0.205,0,0.371-0.152,0.371-0.34c0-0.186-0.167-0.336-0.371-0.336h-1.856
					c-0.206,0-0.372,0.15-0.372,0.336C16.882,105.187,17.049,105.339,17.254,105.339z M13.54,105.339h1.858
					c0.204,0,0.371-0.152,0.371-0.34c0-0.186-0.167-0.336-0.371-0.336H13.54c-0.204,0-0.372,0.15-0.372,0.336
					C13.168,105.187,13.335,105.339,13.54,105.339z M9.826,105.339h1.856c0.206,0,0.371-0.152,0.371-0.34
					c0-0.186-0.166-0.336-0.371-0.336H9.826c-0.205,0-0.372,0.15-0.372,0.336C9.454,105.187,9.622,105.339,9.826,105.339z
					 M6.112,105.339h1.856c0.206,0,0.372-0.152,0.372-0.34c0-0.186-0.166-0.336-0.372-0.336H6.112c-0.205,0-0.373,0.15-0.373,0.336
					C5.74,105.187,5.907,105.339,6.112,105.339z M2.399,105.339h1.857c0.205,0,0.37-0.152,0.37-0.34c0-0.186-0.165-0.336-0.37-0.336
					H2.399c-0.206,0-0.372,0.15-0.372,0.336C2.027,105.187,2.193,105.339,2.399,105.339z"/>
			</g>
			<linearGradient id="SVGID_4_" gradientUnits="userSpaceOnUse" x1="195.5947" y1="90.3125" x2="161.4675" y2="90.3125">
				<stop  offset="0.0043" style="stop-color:#A5C9B7"/>
				<stop  offset="1" style="stop-color:#8ABDA4"/>
			</linearGradient>
			<polygon fill="url(#SVGID_4_)" points="195.069,73.431 185.382,90.313 195.131,107.171 195.131,107.194 162.017,107.194 
				162.017,73.431 			"/>
			<g>
				<path fill="#FFFFFF" d="M191.028,105.339h1.857c0.205,0,0.372-0.152,0.372-0.34c0-0.186-0.167-0.336-0.372-0.336h-1.857
					c-0.203,0-0.369,0.15-0.369,0.336C190.659,105.187,190.825,105.339,191.028,105.339z M187.315,105.339h1.856
					c0.206,0,0.373-0.152,0.373-0.34c0-0.186-0.167-0.336-0.373-0.336h-1.856c-0.205,0-0.371,0.15-0.371,0.336
					C186.944,105.187,187.11,105.339,187.315,105.339z M183.603,105.339h1.856c0.204,0,0.372-0.152,0.372-0.34
					c0-0.186-0.168-0.336-0.372-0.336h-1.856c-0.207,0-0.372,0.15-0.372,0.336C183.23,105.187,183.396,105.339,183.603,105.339z
					 M179.888,105.339h1.857c0.205,0,0.371-0.152,0.371-0.34c0-0.186-0.166-0.336-0.371-0.336h-1.857c-0.205,0-0.37,0.15-0.37,0.336
					C179.518,105.187,179.683,105.339,179.888,105.339z M176.175,105.339h1.855c0.206,0,0.373-0.152,0.373-0.34
					c0-0.186-0.167-0.336-0.373-0.336h-1.855c-0.205,0-0.371,0.15-0.371,0.336C175.804,105.187,175.97,105.339,176.175,105.339z
					 M172.46,105.339h1.857c0.205,0,0.371-0.152,0.371-0.34c0-0.186-0.166-0.336-0.371-0.336h-1.857
					c-0.203,0-0.371,0.15-0.371,0.336C172.089,105.187,172.257,105.339,172.46,105.339z M168.747,105.339h1.855
					c0.205,0,0.373-0.152,0.373-0.34c0-0.186-0.168-0.336-0.373-0.336h-1.855c-0.206,0-0.371,0.15-0.371,0.336
					C168.376,105.187,168.541,105.339,168.747,105.339z M165.032,105.339h1.857c0.204,0,0.371-0.152,0.371-0.34
					c0-0.186-0.167-0.336-0.371-0.336h-1.857c-0.205,0-0.371,0.15-0.371,0.336C164.661,105.187,164.827,105.339,165.032,105.339z"/>
			</g>
			<g>
				<path fill="#FFFFFF" d="M190.875,75.934h1.856c0.205,0,0.371-0.149,0.371-0.337c0-0.187-0.166-0.337-0.371-0.337h-1.856
					c-0.204,0-0.37,0.15-0.37,0.337C190.505,75.784,190.671,75.934,190.875,75.934z M187.161,75.934h1.856
					c0.206,0,0.371-0.149,0.371-0.337c0-0.187-0.165-0.337-0.371-0.337h-1.856c-0.205,0-0.373,0.15-0.373,0.337
					C186.788,75.784,186.956,75.934,187.161,75.934z M183.448,75.934h1.856c0.204,0,0.37-0.149,0.37-0.337
					c0-0.187-0.166-0.337-0.37-0.337h-1.856c-0.206,0-0.373,0.15-0.373,0.337C183.075,75.784,183.242,75.934,183.448,75.934z
					 M179.733,75.934h1.857c0.205,0,0.371-0.149,0.371-0.337c0-0.187-0.166-0.337-0.371-0.337h-1.857
					c-0.205,0-0.371,0.15-0.371,0.337C179.362,75.784,179.528,75.934,179.733,75.934z M176.021,75.934h1.856
					c0.206,0,0.371-0.149,0.371-0.337c0-0.187-0.165-0.337-0.371-0.337h-1.856c-0.205,0-0.371,0.15-0.371,0.337
					C175.649,75.784,175.815,75.934,176.021,75.934z"/>
			</g>
			
				<radialGradient id="SVGID_5_" cx="83.9004" cy="84.8271" r="78.0826" gradientTransform="matrix(1.0999 0 0 1 5.3598 0)" gradientUnits="userSpaceOnUse">
				<stop  offset="0.0043" style="stop-color:#A5C9B7"/>
				<stop  offset="1" style="stop-color:#8ABDA4"/>
			</radialGradient>
			<rect x="19.188" y="67.945" fill="url(#SVGID_5_)" width="156.909" height="33.765"/>
			<polygon fill="#688575" points="33.115,107.194 19.188,101.71 33.085,101.71 			"/>
			<polygon fill="#688575" points="161.997,107.194 175.923,101.71 162.025,101.71 			"/>
			<g>
				<path fill="#FFFFFF" d="M172.925,99.514h1.857c0.205,0,0.371-0.151,0.371-0.338s-0.166-0.336-0.371-0.336h-1.857
					c-0.205,0-0.371,0.149-0.371,0.336S172.72,99.514,172.925,99.514z M169.212,99.514h1.855c0.207,0,0.371-0.151,0.371-0.338
					s-0.164-0.336-0.371-0.336h-1.855c-0.206,0-0.371,0.149-0.371,0.336S169.006,99.514,169.212,99.514z M165.497,99.514h1.857
					c0.205,0,0.371-0.151,0.371-0.338s-0.166-0.336-0.371-0.336h-1.857c-0.206,0-0.371,0.149-0.371,0.336
					S165.291,99.514,165.497,99.514z M161.784,99.514h1.856c0.204,0,0.371-0.151,0.371-0.338s-0.167-0.336-0.371-0.336h-1.856
					c-0.206,0-0.371,0.149-0.371,0.336S161.578,99.514,161.784,99.514z M158.07,99.514h1.857c0.204,0,0.37-0.151,0.37-0.338
					s-0.166-0.336-0.37-0.336h-1.857c-0.206,0-0.371,0.149-0.371,0.336S157.864,99.514,158.07,99.514z M154.356,99.514h1.856
					c0.204,0,0.372-0.151,0.372-0.338s-0.168-0.336-0.372-0.336h-1.856c-0.206,0-0.372,0.149-0.372,0.336
					S154.15,99.514,154.356,99.514z M150.642,99.514h1.857c0.205,0,0.371-0.151,0.371-0.338s-0.166-0.336-0.371-0.336h-1.857
					c-0.205,0-0.371,0.149-0.371,0.336S150.437,99.514,150.642,99.514z M146.929,99.514h1.856c0.206,0,0.371-0.151,0.371-0.338
					s-0.165-0.336-0.371-0.336h-1.856c-0.205,0-0.373,0.149-0.373,0.336S146.724,99.514,146.929,99.514z M143.215,99.514h1.857
					c0.205,0,0.37-0.151,0.37-0.338s-0.165-0.336-0.37-0.336h-1.857c-0.206,0-0.372,0.149-0.372,0.336
					S143.009,99.514,143.215,99.514z M139.501,99.514h1.857c0.203,0,0.371-0.151,0.371-0.338s-0.168-0.336-0.371-0.336h-1.857
					c-0.206,0-0.371,0.149-0.371,0.336S139.295,99.514,139.501,99.514z M135.786,99.514h1.857c0.205,0,0.371-0.151,0.371-0.338
					s-0.166-0.336-0.371-0.336h-1.857c-0.204,0-0.371,0.149-0.371,0.336S135.582,99.514,135.786,99.514z M132.073,99.514h1.857
					c0.205,0,0.371-0.151,0.371-0.338s-0.166-0.336-0.371-0.336h-1.857c-0.205,0-0.371,0.149-0.371,0.336
					S131.868,99.514,132.073,99.514z M128.359,99.514h1.856c0.205,0,0.371-0.151,0.371-0.338s-0.166-0.336-0.371-0.336h-1.856
					c-0.206,0-0.372,0.149-0.372,0.336S128.153,99.514,128.359,99.514z M124.646,99.514h1.857c0.204,0,0.371-0.151,0.371-0.338
					s-0.167-0.336-0.371-0.336h-1.857c-0.206,0-0.371,0.149-0.371,0.336S124.439,99.514,124.646,99.514z M120.932,99.514h1.856
					c0.205,0,0.371-0.151,0.371-0.338s-0.166-0.336-0.371-0.336h-1.856c-0.206,0-0.372,0.149-0.372,0.336
					S120.726,99.514,120.932,99.514z M117.218,99.514h1.857c0.205,0,0.37-0.151,0.37-0.338s-0.165-0.336-0.37-0.336h-1.857
					c-0.206,0-0.371,0.149-0.371,0.336S117.012,99.514,117.218,99.514z M113.505,99.514h1.856c0.204,0,0.371-0.151,0.371-0.338
					s-0.167-0.336-0.371-0.336h-1.856c-0.207,0-0.372,0.149-0.372,0.336S113.298,99.514,113.505,99.514z M109.791,99.514h1.856
					c0.204,0,0.371-0.151,0.371-0.338s-0.167-0.336-0.371-0.336h-1.856c-0.206,0-0.372,0.149-0.372,0.336
					S109.585,99.514,109.791,99.514z M106.076,99.514h1.857c0.204,0,0.371-0.151,0.371-0.338s-0.167-0.336-0.371-0.336h-1.857
					c-0.206,0-0.372,0.149-0.372,0.336S105.87,99.514,106.076,99.514z M102.361,99.514h1.857c0.206,0,0.371-0.151,0.371-0.338
					s-0.165-0.336-0.371-0.336h-1.857c-0.204,0-0.372,0.149-0.372,0.336S102.157,99.514,102.361,99.514z M98.648,99.514h1.856
					c0.205,0,0.371-0.151,0.371-0.338s-0.166-0.336-0.371-0.336h-1.856c-0.205,0-0.372,0.149-0.372,0.336
					S98.443,99.514,98.648,99.514z M94.935,99.514h1.857c0.206,0,0.371-0.151,0.371-0.338s-0.165-0.336-0.371-0.336h-1.857
					c-0.206,0-0.372,0.149-0.372,0.336S94.729,99.514,94.935,99.514z M91.221,99.514h1.856c0.206,0,0.371-0.151,0.371-0.338
					s-0.165-0.336-0.371-0.336h-1.856c-0.206,0-0.372,0.149-0.372,0.336S91.016,99.514,91.221,99.514z M87.508,99.514h1.856
					c0.205,0,0.37-0.151,0.37-0.338s-0.166-0.336-0.37-0.336h-1.856c-0.207,0-0.372,0.149-0.372,0.336S87.301,99.514,87.508,99.514z
					 M83.793,99.514h1.857c0.204,0,0.371-0.151,0.371-0.338s-0.167-0.336-0.371-0.336h-1.857c-0.206,0-0.371,0.149-0.371,0.336
					S83.587,99.514,83.793,99.514z M80.08,99.514h1.856c0.205,0,0.371-0.151,0.371-0.338s-0.167-0.336-0.371-0.336H80.08
					c-0.206,0-0.372,0.149-0.372,0.336S79.874,99.514,80.08,99.514z M76.365,99.514h1.857c0.206,0,0.371-0.151,0.371-0.338
					s-0.166-0.336-0.371-0.336h-1.857c-0.205,0-0.372,0.149-0.372,0.336S76.16,99.514,76.365,99.514z M72.651,99.514h1.857
					c0.206,0,0.372-0.151,0.372-0.338s-0.166-0.336-0.372-0.336h-1.857c-0.204,0-0.372,0.149-0.372,0.336
					S72.447,99.514,72.651,99.514z M68.938,99.514h1.857c0.206,0,0.371-0.151,0.371-0.338S71,98.84,70.795,98.84h-1.857
					c-0.205,0-0.372,0.149-0.372,0.336S68.733,99.514,68.938,99.514z M65.224,99.514h1.857c0.204,0,0.371-0.151,0.371-0.338
					s-0.167-0.336-0.371-0.336h-1.857c-0.206,0-0.371,0.149-0.371,0.336S65.019,99.514,65.224,99.514z M61.51,99.514h1.857
					c0.206,0,0.371-0.151,0.371-0.338s-0.166-0.336-0.371-0.336H61.51c-0.204,0-0.371,0.149-0.371,0.336S61.306,99.514,61.51,99.514
					z M57.797,99.514h1.856c0.206,0,0.371-0.151,0.371-0.338s-0.166-0.336-0.371-0.336h-1.856c-0.205,0-0.372,0.149-0.372,0.336
					S57.592,99.514,57.797,99.514z M54.083,99.514h1.857c0.205,0,0.371-0.151,0.371-0.338s-0.166-0.336-0.371-0.336h-1.857
					c-0.206,0-0.372,0.149-0.372,0.336S53.877,99.514,54.083,99.514z M50.37,99.514h1.856c0.205,0,0.371-0.151,0.371-0.338
					s-0.167-0.336-0.371-0.336H50.37c-0.205,0-0.373,0.149-0.373,0.336S50.165,99.514,50.37,99.514z M46.656,99.514h1.856
					c0.205,0,0.371-0.151,0.371-0.338s-0.167-0.336-0.371-0.336h-1.856c-0.205,0-0.372,0.149-0.372,0.336
					S46.451,99.514,46.656,99.514z M42.94,99.514h1.858c0.205,0,0.37-0.151,0.37-0.338s-0.166-0.336-0.37-0.336H42.94
					c-0.204,0-0.37,0.149-0.37,0.336S42.737,99.514,42.94,99.514z M39.227,99.514h1.856c0.206,0,0.371-0.151,0.371-0.338
					s-0.166-0.336-0.371-0.336h-1.856c-0.205,0-0.371,0.149-0.371,0.336S39.022,99.514,39.227,99.514z M35.514,99.514h1.856
					c0.205,0,0.372-0.151,0.372-0.338s-0.167-0.336-0.372-0.336h-1.856c-0.206,0-0.373,0.149-0.373,0.336
					S35.308,99.514,35.514,99.514z M31.801,99.514h1.856c0.205,0,0.371-0.151,0.371-0.338s-0.166-0.336-0.371-0.336h-1.856
					c-0.206,0-0.373,0.149-0.373,0.336S31.595,99.514,31.801,99.514z M28.086,99.514h1.857c0.204,0,0.37-0.151,0.37-0.338
					s-0.166-0.336-0.37-0.336h-1.857c-0.205,0-0.372,0.149-0.372,0.336S27.881,99.514,28.086,99.514z M24.373,99.514h1.856
					c0.205,0,0.372-0.151,0.372-0.338s-0.167-0.336-0.372-0.336h-1.856c-0.205,0-0.372,0.149-0.372,0.336
					S24.168,99.514,24.373,99.514z M20.658,99.514h1.857c0.206,0,0.371-0.151,0.371-0.338s-0.165-0.336-0.371-0.336h-1.857
					c-0.204,0-0.371,0.149-0.371,0.336S20.454,99.514,20.658,99.514z"/>
				<path fill="#FFFFFF" d="M172.925,70.391h1.857c0.205,0,0.371-0.151,0.371-0.335c0-0.187-0.166-0.338-0.371-0.338h-1.857
					c-0.205,0-0.371,0.151-0.371,0.338C172.554,70.24,172.72,70.391,172.925,70.391z M169.212,70.391h1.855
					c0.207,0,0.371-0.151,0.371-0.335c0-0.187-0.164-0.338-0.371-0.338h-1.855c-0.206,0-0.371,0.151-0.371,0.338
					C168.841,70.24,169.006,70.391,169.212,70.391z M165.497,70.391h1.857c0.205,0,0.371-0.151,0.371-0.335
					c0-0.187-0.166-0.338-0.371-0.338h-1.857c-0.206,0-0.371,0.151-0.371,0.338C165.126,70.24,165.291,70.391,165.497,70.391z
					 M161.784,70.391h1.856c0.204,0,0.371-0.151,0.371-0.335c0-0.187-0.167-0.338-0.371-0.338h-1.856
					c-0.206,0-0.371,0.151-0.371,0.338C161.413,70.24,161.578,70.391,161.784,70.391z M158.07,70.391h1.857
					c0.204,0,0.37-0.151,0.37-0.335c0-0.187-0.166-0.338-0.37-0.338h-1.857c-0.206,0-0.371,0.151-0.371,0.338
					C157.699,70.24,157.864,70.391,158.07,70.391z M154.356,70.391h1.856c0.204,0,0.372-0.151,0.372-0.335
					c0-0.187-0.168-0.338-0.372-0.338h-1.856c-0.206,0-0.372,0.151-0.372,0.338C153.984,70.24,154.15,70.391,154.356,70.391z
					 M150.642,70.391h1.857c0.205,0,0.371-0.151,0.371-0.335c0-0.187-0.166-0.338-0.371-0.338h-1.857
					c-0.205,0-0.371,0.151-0.371,0.338C150.271,70.24,150.437,70.391,150.642,70.391z M146.929,70.391h1.856
					c0.206,0,0.371-0.151,0.371-0.335c0-0.187-0.165-0.338-0.371-0.338h-1.856c-0.205,0-0.373,0.151-0.373,0.338
					C146.556,70.24,146.724,70.391,146.929,70.391z M143.215,70.391h1.857c0.205,0,0.37-0.151,0.37-0.335
					c0-0.187-0.165-0.338-0.37-0.338h-1.857c-0.206,0-0.372,0.151-0.372,0.338C142.843,70.24,143.009,70.391,143.215,70.391z
					 M139.501,70.391h1.857c0.203,0,0.371-0.151,0.371-0.335c0-0.187-0.168-0.338-0.371-0.338h-1.857
					c-0.206,0-0.371,0.151-0.371,0.338C139.13,70.24,139.295,70.391,139.501,70.391z M135.786,70.391h1.857
					c0.205,0,0.371-0.151,0.371-0.335c0-0.187-0.166-0.338-0.371-0.338h-1.857c-0.204,0-0.371,0.151-0.371,0.338
					C135.415,70.24,135.582,70.391,135.786,70.391z M132.073,70.391h1.857c0.205,0,0.371-0.151,0.371-0.335
					c0-0.187-0.166-0.338-0.371-0.338h-1.857c-0.205,0-0.371,0.151-0.371,0.338C131.702,70.24,131.868,70.391,132.073,70.391z
					 M128.359,70.391h1.856c0.205,0,0.371-0.151,0.371-0.335c0-0.187-0.166-0.338-0.371-0.338h-1.856
					c-0.206,0-0.372,0.151-0.372,0.338C127.987,70.24,128.153,70.391,128.359,70.391z M124.646,70.391h1.857
					c0.204,0,0.371-0.151,0.371-0.335c0-0.187-0.167-0.338-0.371-0.338h-1.857c-0.206,0-0.371,0.151-0.371,0.338
					C124.274,70.24,124.439,70.391,124.646,70.391z M120.932,70.391h1.856c0.205,0,0.371-0.151,0.371-0.335
					c0-0.187-0.166-0.338-0.371-0.338h-1.856c-0.206,0-0.372,0.151-0.372,0.338C120.56,70.24,120.726,70.391,120.932,70.391z
					 M117.218,70.391h1.857c0.205,0,0.37-0.151,0.37-0.335c0-0.187-0.165-0.338-0.37-0.338h-1.857c-0.206,0-0.371,0.151-0.371,0.338
					C116.847,70.24,117.012,70.391,117.218,70.391z M113.505,70.391h1.856c0.204,0,0.371-0.151,0.371-0.335
					c0-0.187-0.167-0.338-0.371-0.338h-1.856c-0.207,0-0.372,0.151-0.372,0.338C113.133,70.24,113.298,70.391,113.505,70.391z
					 M109.791,70.391h1.856c0.204,0,0.371-0.151,0.371-0.335c0-0.187-0.167-0.338-0.371-0.338h-1.856
					c-0.206,0-0.372,0.151-0.372,0.338C109.419,70.24,109.585,70.391,109.791,70.391z M106.076,70.391h1.857
					c0.204,0,0.371-0.151,0.371-0.335c0-0.187-0.167-0.338-0.371-0.338h-1.857c-0.206,0-0.372,0.151-0.372,0.338
					C105.704,70.24,105.87,70.391,106.076,70.391z M102.361,70.391h1.857c0.206,0,0.371-0.151,0.371-0.335
					c0-0.187-0.165-0.338-0.371-0.338h-1.857c-0.204,0-0.372,0.151-0.372,0.338C101.989,70.24,102.157,70.391,102.361,70.391z
					 M98.648,70.391h1.856c0.205,0,0.371-0.151,0.371-0.335c0-0.187-0.166-0.338-0.371-0.338h-1.856
					c-0.205,0-0.372,0.151-0.372,0.338C98.277,70.24,98.443,70.391,98.648,70.391z M94.935,70.391h1.857
					c0.206,0,0.371-0.151,0.371-0.335c0-0.187-0.165-0.338-0.371-0.338h-1.857c-0.206,0-0.372,0.151-0.372,0.338
					C94.563,70.24,94.729,70.391,94.935,70.391z M91.221,70.391h1.856c0.206,0,0.371-0.151,0.371-0.335
					c0-0.187-0.165-0.338-0.371-0.338h-1.856c-0.206,0-0.372,0.151-0.372,0.338C90.849,70.24,91.016,70.391,91.221,70.391z
					 M87.508,70.391h1.856c0.205,0,0.37-0.151,0.37-0.335c0-0.187-0.166-0.338-0.37-0.338h-1.856c-0.207,0-0.372,0.151-0.372,0.338
					C87.136,70.24,87.301,70.391,87.508,70.391z M83.793,70.391h1.857c0.204,0,0.371-0.151,0.371-0.335
					c0-0.187-0.167-0.338-0.371-0.338h-1.857c-0.206,0-0.371,0.151-0.371,0.338C83.423,70.24,83.587,70.391,83.793,70.391z
					 M80.08,70.391h1.856c0.205,0,0.371-0.151,0.371-0.335c0-0.187-0.167-0.338-0.371-0.338H80.08c-0.206,0-0.372,0.151-0.372,0.338
					C79.708,70.24,79.874,70.391,80.08,70.391z M76.365,70.391h1.857c0.206,0,0.371-0.151,0.371-0.335
					c0-0.187-0.166-0.338-0.371-0.338h-1.857c-0.205,0-0.372,0.151-0.372,0.338C75.994,70.24,76.16,70.391,76.365,70.391z
					 M72.651,70.391h1.857c0.206,0,0.372-0.151,0.372-0.335c0-0.187-0.166-0.338-0.372-0.338h-1.857
					c-0.204,0-0.372,0.151-0.372,0.338C72.279,70.24,72.447,70.391,72.651,70.391z M68.938,70.391h1.857
					c0.206,0,0.371-0.151,0.371-0.335c0-0.187-0.165-0.338-0.371-0.338h-1.857c-0.205,0-0.372,0.151-0.372,0.338
					C68.566,70.24,68.733,70.391,68.938,70.391z M65.224,70.391h1.857c0.204,0,0.371-0.151,0.371-0.335
					c0-0.187-0.167-0.338-0.371-0.338h-1.857c-0.206,0-0.371,0.151-0.371,0.338C64.853,70.24,65.019,70.391,65.224,70.391z
					 M61.51,70.391h1.857c0.206,0,0.371-0.151,0.371-0.335c0-0.187-0.166-0.338-0.371-0.338H61.51c-0.204,0-0.371,0.151-0.371,0.338
					C61.139,70.24,61.306,70.391,61.51,70.391z M57.797,70.391h1.856c0.206,0,0.371-0.151,0.371-0.335
					c0-0.187-0.166-0.338-0.371-0.338h-1.856c-0.205,0-0.372,0.151-0.372,0.338C57.425,70.24,57.592,70.391,57.797,70.391z
					 M54.083,70.391h1.857c0.205,0,0.371-0.151,0.371-0.335c0-0.187-0.166-0.338-0.371-0.338h-1.857
					c-0.206,0-0.372,0.151-0.372,0.338C53.711,70.24,53.877,70.391,54.083,70.391z M50.37,70.391h1.856
					c0.205,0,0.371-0.151,0.371-0.335c0-0.187-0.167-0.338-0.371-0.338H50.37c-0.205,0-0.373,0.151-0.373,0.338
					C49.997,70.24,50.165,70.391,50.37,70.391z M46.656,70.391h1.856c0.205,0,0.371-0.151,0.371-0.335
					c0-0.187-0.167-0.338-0.371-0.338h-1.856c-0.205,0-0.372,0.151-0.372,0.338C46.284,70.24,46.451,70.391,46.656,70.391z
					 M42.94,70.391h1.858c0.205,0,0.37-0.151,0.37-0.335c0-0.187-0.166-0.338-0.37-0.338H42.94c-0.204,0-0.37,0.151-0.37,0.338
					C42.57,70.24,42.737,70.391,42.94,70.391z M39.227,70.391h1.856c0.206,0,0.371-0.151,0.371-0.335
					c0-0.187-0.166-0.338-0.371-0.338h-1.856c-0.205,0-0.371,0.151-0.371,0.338C38.856,70.24,39.022,70.391,39.227,70.391z
					 M35.514,70.391h1.856c0.205,0,0.372-0.151,0.372-0.335c0-0.187-0.167-0.338-0.372-0.338h-1.856
					c-0.206,0-0.373,0.151-0.373,0.338C35.141,70.24,35.308,70.391,35.514,70.391z M31.801,70.391h1.856
					c0.205,0,0.371-0.151,0.371-0.335c0-0.187-0.166-0.338-0.371-0.338h-1.856c-0.206,0-0.373,0.151-0.373,0.338
					C31.428,70.24,31.595,70.391,31.801,70.391z M28.086,70.391h1.857c0.204,0,0.37-0.151,0.37-0.335
					c0-0.187-0.166-0.338-0.37-0.338h-1.857c-0.205,0-0.372,0.151-0.372,0.338C27.715,70.24,27.881,70.391,28.086,70.391z
					 M24.373,70.391h1.856c0.205,0,0.372-0.151,0.372-0.335c0-0.187-0.167-0.338-0.372-0.338h-1.856
					c-0.205,0-0.372,0.151-0.372,0.338C24.001,70.24,24.168,70.391,24.373,70.391z M20.658,70.391h1.857
					c0.206,0,0.371-0.151,0.371-0.335c0-0.187-0.165-0.338-0.371-0.338h-1.857c-0.204,0-0.371,0.151-0.371,0.338
					C20.287,70.24,20.454,70.391,20.658,70.391z"/>
			</g>
		</g>
		<g>
			<path fill="#709080" d="M62.013,76.336h4.148c2.623,0,3.909,1.455,3.909,4.124v8.438c0,2.67-1.286,4.125-3.909,4.125h-4.148
				V76.336z M64.636,78.721v11.917h1.477c0.834,0,1.336-0.429,1.336-1.621v-8.676c0-1.191-0.502-1.62-1.336-1.62H64.636z"/>
			<path fill="#709080" d="M74.835,83.368h3.599v2.383h-3.599v4.887h4.528v2.385h-7.15V76.336h7.15v2.385h-4.528V83.368z"/>
			<path fill="#709080" d="M84.987,76.146c2.55,0,3.861,1.525,3.861,4.195v0.525H86.37v-0.691c0-1.192-0.477-1.645-1.31-1.645
				c-0.834,0-1.312,0.452-1.312,1.645c0,3.433,5.125,4.076,5.125,8.842c0,2.67-1.335,4.196-3.909,4.196
				c-2.575,0-3.91-1.526-3.91-4.196v-1.023h2.479v1.191c0,1.191,0.524,1.62,1.358,1.62c0.836,0,1.359-0.429,1.359-1.62
				c0-3.434-5.125-4.076-5.125-8.844C81.125,77.671,82.437,76.146,84.987,76.146z"/>
			<path fill="#709080" d="M90.849,76.336h2.623v16.687h-2.623V76.336z"/>
			<path fill="#709080" d="M99.786,83.726h3.67v5.291c0,2.67-1.334,4.196-3.908,4.196s-3.909-1.526-3.909-4.196v-8.676
				c0-2.67,1.334-4.195,3.909-4.195s3.908,1.525,3.908,4.195v1.621h-2.479v-1.787c0-1.192-0.523-1.645-1.357-1.645
				c-0.834,0-1.359,0.452-1.359,1.645v9.01c0,1.191,0.525,1.62,1.359,1.62c0.834,0,1.357-0.429,1.357-1.62V86.11h-1.191V83.726z"/>
			<path fill="#709080" d="M107.96,80.937v12.086h-2.359V76.336h3.289l2.693,9.989v-9.989h2.336v16.687h-2.693L107.96,80.937z"/>
			<path fill="#709080" d="M118.898,83.368h3.601v2.383h-3.601v4.887h4.53v2.385h-7.152V76.336h7.152v2.385h-4.53V83.368z"/>
			<path fill="#709080" d="M131.007,93.022c-0.146-0.43-0.24-0.691-0.24-2.051v-2.621c0-1.55-0.524-2.121-1.717-2.121h-0.905v6.793
				h-2.62V76.336h3.955c2.718,0,3.886,1.265,3.886,3.839v1.311c0,1.717-0.549,2.836-1.716,3.385
				c1.311,0.548,1.738,1.812,1.738,3.552v2.573c0,0.812,0.024,1.406,0.286,2.027H131.007z M128.145,78.721v5.124h1.024
				c0.978,0,1.574-0.428,1.574-1.762v-1.646c0-1.193-0.404-1.716-1.336-1.716H128.145z"/>
		</g>
	</g>
</g>
</svg>
