<?xml version="1.0" encoding="utf-8"?>
<!-- Generator: Adobe Illustrator 15.0.0, SVG Export Plug-In . SVG Version: 6.00 Build 0)  -->
<!DOCTYPE svg PUBLIC "-//W3C//DTD SVG 1.1//EN" "http://www.w3.org/Graphics/SVG/1.1/DTD/svg11.dtd">
<svg version="1.1" id="Ebene_1" xmlns="http://www.w3.org/2000/svg" xmlns:xlink="http://www.w3.org/1999/xlink" x="0px" y="0px"
	 height="116.868px" viewBox="0 0 200.029 116.868" enable-background="new 0 0 200.029 116.868"
	 xml:space="preserve">
<g>
	<ellipse fill="#494443" stroke="#AEAEB0" stroke-width="0.7" cx="100.256" cy="58.434" rx="85.48" ry="58.084"/>
	<polygon fill="#F6F6F7" points="28.635,43.225 29.449,44.886 31.285,45.155 29.958,46.445 30.27,48.271 28.635,47.408 
		26.995,48.271 27.306,46.445 25.98,45.155 27.814,44.886 	"/>
	<polygon fill="#F6F6F7" points="171.884,65.292 172.702,66.953 174.538,67.218 173.211,68.509 173.523,70.336 171.884,69.474 
		170.247,70.336 170.562,68.509 169.235,67.218 171.067,66.953 	"/>
	<path fill="#747273" d="M154.597,77.181l-50.913-19.414l52.373,17.606c0.578-0.761,1.105-1.542,1.608-2.333l-53.936-15.34
		l55.111,13.319c0.451-0.843,0.869-1.695,1.232-2.566L103.765,57.63l57.117,8.631c0.291-0.902,0.514-1.821,0.701-2.746
		l-57.784-5.961l58.149,3.66c0.102-0.919,0.172-1.846,0.172-2.783c0-0.014-0.004-0.029-0.004-0.042l-58.293-0.913l58.176-1.413
		c-0.092-0.942-0.24-1.877-0.434-2.801l-57.721,4.136l57.152-6.396c-0.275-0.9-0.592-1.795-0.963-2.675l-56.178,8.99l55.184-11.105
		c-0.434-0.832-0.905-1.654-1.42-2.461l-53.758,13.485l52.439-15.405c-0.552-0.746-1.136-1.482-1.757-2.204l-50.686,17.527
		l49.132-19.218c-0.633-0.654-1.305-1.292-1.996-1.919l-47.145,21.058l45.452-22.52c-0.682-0.564-1.387-1.114-2.12-1.651
		l-43.351,24.09l41.591-25.337c-0.705-0.477-1.43-0.942-2.175-1.398l-39.44,26.658l37.666-27.711
		c-0.709-0.401-1.434-0.794-2.172-1.175L103.78,56.841l33.756-29.691c-0.706-0.337-1.424-0.661-2.15-0.981l-31.642,30.6
		L133.65,25.44c-0.688-0.281-1.388-0.556-2.099-0.82l-27.85,32.08l26.168-32.691c-0.673-0.235-1.359-0.453-2.051-0.671
		l-24.166,33.297l22.525-33.797c-0.658-0.19-1.318-0.384-1.987-0.562l-20.593,34.299l18.99-34.7c-0.639-0.155-1.29-0.31-1.941-0.452
		l-17.105,35.096l15.552-35.428c-0.633-0.129-1.269-0.246-1.901-0.36l-13.718,35.738l12.19-36.012
		c-0.614-0.101-1.244-0.185-1.869-0.272l-10.388,36.238l8.892-36.442c-0.608-0.076-1.226-0.145-1.841-0.208l-7.12,36.612
		l5.637-36.758c-0.606-0.055-1.215-0.104-1.827-0.146l-3.886,36.873l2.411-36.964c-0.612-0.032-1.214-0.065-1.827-0.087
		l-0.66,37.023l-0.817-37.061c-0.611-0.015-1.224-0.026-1.838-0.029l2.574,37.071L99.043,19.25c-0.624,0.007-1.245,0.01-1.856,0.031
		l5.839,37.011l-7.351-36.943c-0.63,0.029-1.263,0.054-1.886,0.096l9.159,36.845L92.244,19.568
		c-0.645,0.055-1.291,0.108-1.929,0.173l12.551,36.551L88.728,19.919c-0.666,0.082-1.323,0.166-1.984,0.26l16.041,36.12
		l-17.682-35.88c-0.69,0.11-1.369,0.232-2.048,0.358l19.65,35.537L81.356,21.102c-0.715,0.145-1.427,0.296-2.129,0.456l23.397,34.78
		L77.467,21.988c-0.745,0.188-1.481,0.382-2.211,0.587l27.292,33.792L73.415,23.103c-0.772,0.237-1.536,0.487-2.29,0.743
		l31.351,32.558l-33.25-31.881c-0.805,0.297-1.593,0.603-2.372,0.921l35.551,31.003L64.889,26.276
		c-0.83,0.367-1.639,0.746-2.432,1.137l39.885,29.082L60.442,28.436c-0.839,0.448-1.66,0.911-2.459,1.388l44.295,26.724
		l-46.31-25.475c-0.833,0.544-1.641,1.104-2.426,1.677l48.681,23.857L51.586,34.25c-0.806,0.649-1.581,1.31-2.32,1.989
		l52.906,20.431L47.446,38.01c-0.73,0.757-1.412,1.536-2.063,2.324L102.13,56.74L43.82,42.38c-0.608,0.86-1.19,1.735-1.702,2.631
		l59.972,11.799l-61.147-9.514c-0.442,0.95-0.836,1.91-1.169,2.889l62.283,6.697l-62.986-4.237
		c-0.236,1.003-0.396,2.021-0.509,3.047l63.474,1.269l-63.631,1.271c-0.003,0.069-0.009,0.132-0.009,0.2
		c0,1.155,0.094,2.294,0.248,3.427l63.364-4.814l-62.91,7.315c0.239,1,0.558,1.982,0.909,2.957l61.99-10.191L40.992,69.676
		c0.437,0.927,0.93,1.84,1.469,2.737l59.533-15.207L43.872,74.553c0.594,0.831,1.217,1.651,1.896,2.448l56.226-19.716L47.479,78.884
		c0.696,0.726,1.444,1.429,2.217,2.12l52.306-23.638L51.589,82.619c0.766,0.617,1.557,1.219,2.377,1.807l48.054-26.977L55.96,85.783
		c0.797,0.518,1.608,1.023,2.447,1.513l43.638-29.77L60.43,88.419c0.803,0.43,1.624,0.847,2.459,1.249l39.183-32.069L64.897,90.59
		c0.794,0.35,1.603,0.692,2.426,1.02l34.785-33.936L69.28,92.361c0.781,0.285,1.568,0.562,2.365,0.825l30.509-35.441L73.544,93.8
		c0.757,0.228,1.524,0.443,2.299,0.656l26.355-36.648L77.691,94.93c0.733,0.182,1.472,0.357,2.223,0.522l22.34-37.581L81.689,95.834
		c0.715,0.143,1.436,0.267,2.16,0.395l18.466-38.303l-16.74,38.587c0.696,0.106,1.387,0.215,2.09,0.306l14.713-38.843L89.349,97.012
		c0.675,0.076,1.357,0.152,2.039,0.213l11.061-39.204l-9.417,39.337c0.66,0.049,1.324,0.092,1.994,0.125l7.493-39.423l-5.882,39.501
		c0.651,0.023,1.312,0.034,1.969,0.045l3.988-39.513l-2.404,39.538c0.024,0,0.045,0.002,0.067,0.002c0.63,0,1.256-0.018,1.88-0.029
		l0.536-39.484l1.042,39.451c0.65-0.022,1.293-0.061,1.938-0.094l-2.904-39.34l4.479,39.242c0.648-0.047,1.297-0.098,1.941-0.158
		l-6.336-39.069l7.917,38.909c0.654-0.072,1.308-0.139,1.956-0.221l-9.795-38.687l11.389,38.45c0.663-0.094,1.32-0.195,1.978-0.306
		l-13.284-38.146l14.9,37.854c0.676-0.125,1.343-0.262,2.012-0.404l-16.834-37.459l18.491,37.104c0.685-0.159,1.36-0.334,2.041-0.51
		l-20.45-36.609l22.135,36.154c0.702-0.198,1.404-0.397,2.096-0.612l-24.151-35.565l25.875,35.006
		c0.72-0.241,1.429-0.495,2.135-0.753l-27.935-34.284l29.697,33.613c0.739-0.29,1.469-0.592,2.184-0.902l-31.805-32.746
		l33.602,31.937c0.747-0.349,1.48-0.712,2.207-1.085L103.45,57.994l37.547,29.924c0.758-0.42,1.494-0.848,2.218-1.292
		l-39.698-28.682l41.5,27.532c0.748-0.496,1.472-1.006,2.181-1.525L103.581,57.89l45.37,24.704c0.722-0.583,1.417-1.175,2.087-1.782
		L103.632,57.83l49.051,21.405C153.349,78.562,153.997,77.88,154.597,77.181z"/>
	<path fill="none" stroke="#AEAEB0" stroke-width="0.7" d="M162.12,58.434c0,21.649-27.695,39.203-61.865,39.203
		c-34.165,0-61.862-17.554-61.862-39.203c0-21.65,27.697-39.201,61.862-39.201C134.425,19.233,162.12,36.784,162.12,58.434z"/>
	<g>
		<defs>
			
				<rect id="SVGID_1_" x="1.602" y="38.368" transform="matrix(0.9472 -0.3205 0.3205 0.9472 -13.8162 35.1998)" width="196.825" height="42.4"/>
		</defs>
		<clipPath id="SVGID_2_">
			<use xlink:href="#SVGID_1_"  overflow="visible"/>
		</clipPath>
		<ellipse clip-path="url(#SVGID_2_)" fill="#494443" cx="100.256" cy="58.434" rx="84.664" ry="57.529"/>
	</g>
	<line fill="none" stroke="#AEAEB0" stroke-width="0.7" x1="15.944" y1="66.319" x2="159.946" y2="16.75"/>
	<line fill="none" stroke="#AEAEB0" stroke-width="0.7" x1="42.57" y1="101.523" x2="185.496" y2="52.597"/>
	<g>
		<path fill="#F6F6F7" d="M43.584,78.06l2.242-0.757l0.151,1.703l-2.238,0.757l0.445,4.926l-1.739,0.588l-1.072-11.932l4.585-1.55
			l0.155,1.705l-2.853,0.96L43.584,78.06z"/>
		<path fill="#F6F6F7" d="M53.083,81.686c-0.125-0.274-0.206-0.439-0.291-1.41l-0.17-1.877c-0.1-1.106-0.484-1.399-1.272-1.134
			l-0.6,0.203l0.436,4.855l-1.732,0.588l-1.075-11.931l2.617-0.885c1.799-0.605,2.653,0.035,2.817,1.878l0.084,0.937
			c0.109,1.228-0.179,2.153-0.915,2.804c0.903,0.099,1.266,0.907,1.378,2.15l0.166,1.843c0.052,0.575,0.106,0.998,0.321,1.383
			L53.083,81.686z M50.266,72.098l0.333,3.665l0.678-0.227c0.643-0.221,1.012-0.66,0.924-1.613l-0.106-1.177
			c-0.075-0.853-0.378-1.137-0.993-0.93L50.266,72.098z"/>
		<path fill="#F6F6F7" d="M58.486,72.75l2.383-0.802l0.155,1.701l-2.384,0.806l0.315,3.494l2.995-1.014l0.158,1.706l-4.734,1.596
			L56.296,68.31l4.737-1.6l0.151,1.706l-2.996,1.011L58.486,72.75z"/>
		<path fill="#F6F6F7" d="M65.87,70.259l2.383-0.802l0.154,1.701l-2.38,0.803l0.312,3.494l2.999-1.01l0.154,1.702l-4.731,1.598
			l-1.075-11.928l4.728-1.599l0.158,1.704l-2.999,1.013L65.87,70.259z"/>
		<path fill="#F6F6F7" d="M78.587,70.815l0.446-10.178l1.593-0.537l-0.627,12.503l-2.583,0.873l-2.781-11.354l1.751-0.59
			L78.587,70.815z"/>
		<path fill="#F6F6F7" d="M85.202,63.736l2.381-0.802l0.154,1.704l-2.38,0.803l0.312,3.495l2.996-1.015l0.157,1.708l-4.73,1.594
			l-1.078-11.927l4.73-1.599l0.158,1.706l-2.999,1.012L85.202,63.736z"/>
		<path fill="#F6F6F7" d="M96.103,62.588l0.146,1.582c0.173,1.908-0.612,3.298-2.317,3.872c-1.702,0.576-2.687-0.218-2.859-2.125
			l-0.557-6.202c-0.17-1.909,0.611-3.3,2.314-3.872c1.705-0.578,2.689,0.217,2.859,2.127l0.103,1.156l-1.638,0.554l-0.115-1.278
			c-0.079-0.854-0.454-1.059-1.006-0.871c-0.554,0.184-0.869,0.628-0.793,1.478l0.581,6.441c0.076,0.853,0.451,1.045,1.006,0.855
			c0.551-0.184,0.869-0.607,0.793-1.46l-0.154-1.705L96.103,62.588z"/>
		<path fill="#F6F6F7" d="M97.562,54.383l5.364-1.809l0.148,1.705l-1.812,0.614l0.924,10.227l-1.736,0.583l-0.92-10.227
			l-1.814,0.611L97.562,54.383z"/>
		<path fill="#F6F6F7" d="M105.38,54.698c-0.173-1.905,0.657-3.312,2.362-3.889c1.702-0.573,2.729,0.203,2.904,2.115l0.561,6.199
			c0.17,1.909-0.663,3.312-2.366,3.889c-1.701,0.575-2.731-0.203-2.904-2.112L105.38,54.698z M107.685,60.435
			c0.076,0.854,0.451,1.06,1.006,0.872c0.551-0.186,0.869-0.627,0.791-1.479l-0.58-6.439c-0.078-0.854-0.453-1.058-1.008-0.874
			c-0.549,0.186-0.866,0.627-0.791,1.479L107.685,60.435z"/>
		<path fill="#F6F6F7" d="M117.792,59.853c-0.121-0.275-0.201-0.441-0.291-1.413l-0.17-1.872c-0.098-1.112-0.479-1.403-1.272-1.137
			l-0.596,0.203l0.436,4.858l-1.732,0.584l-1.075-11.933l2.617-0.879c1.795-0.61,2.652,0.034,2.816,1.875l0.088,0.938
			c0.109,1.225-0.182,2.15-0.918,2.803c0.9,0.1,1.266,0.904,1.379,2.149l0.163,1.842c0.055,0.578,0.112,1,0.324,1.384
			L117.792,59.853z M114.978,50.266l0.33,3.665l0.679-0.231c0.646-0.217,1.012-0.657,0.927-1.609l-0.105-1.178
			c-0.079-0.854-0.379-1.136-0.994-0.931L114.978,50.266z"/>
		<path fill="#F6F6F7" d="M130.467,46.112l0.042,0.423c0.112,1.229-0.166,2.127-0.902,2.78c0.967,0.08,1.408,0.859,1.521,2.121
			l0.09,0.969c0.164,1.842-0.643,3.134-2.381,3.72l-2.729,0.923l-1.075-11.932l2.62-0.884
			C129.449,43.626,130.304,44.269,130.467,46.112z M126.923,46.233l0.285,3.155l0.676-0.228c0.647-0.22,1.015-0.659,0.93-1.611
			l-0.058-0.668c-0.082-0.852-0.382-1.136-0.997-0.929L126.923,46.233z M127.358,51.093l0.331,3.663l0.996-0.337
			c0.585-0.196,0.873-0.593,0.791-1.479l-0.091-1.039c-0.101-1.107-0.464-1.338-1.251-1.071L127.358,51.093z"/>
		<path fill="#F6F6F7" d="M139.71,52.458l-1.753,0.589l-0.494-2.06l-2.126,0.716l-0.105,2.265l-1.594,0.537l0.688-12.524
			l2.541-0.855L139.71,52.458z M135.407,50.009l1.672-0.563l-1.379-5.75L135.407,50.009z"/>
		<path fill="#F6F6F7" d="M141.019,39.722l2.741-0.924c1.739-0.587,2.684,0.167,2.856,2.074l0.542,6.033
			c0.176,1.908-0.585,3.237-2.319,3.819l-2.744,0.926L141.019,39.722z M142.906,40.843l0.772,8.518l0.975-0.33
			c0.551-0.185,0.857-0.602,0.779-1.454l-0.559-6.205c-0.078-0.85-0.439-1.048-0.99-0.86L142.906,40.843z"/>
		<path fill="#F6F6F7" d="M152.112,41.425l2.433-0.821l0.339,3.782c0.17,1.909-0.614,3.297-2.316,3.873
			c-1.705,0.573-2.686-0.22-2.855-2.126l-0.563-6.203c-0.17-1.908,0.614-3.299,2.317-3.873c1.701-0.575,2.686,0.217,2.861,2.126
			l0.1,1.16l-1.639,0.552l-0.115-1.277c-0.078-0.853-0.453-1.059-1.004-0.871c-0.555,0.184-0.869,0.627-0.791,1.48l0.574,6.438
			c0.082,0.854,0.455,1.043,1.006,0.855c0.551-0.185,0.869-0.609,0.797-1.461l-0.199-2.199l-0.791,0.266L152.112,41.425z"/>
		<path fill="#F6F6F7" d="M158.952,38.854l2.383-0.805l0.158,1.702l-2.383,0.806l0.311,3.492l2.998-1.012l0.152,1.704l-4.728,1.598
			l-1.075-11.927l4.729-1.603l0.156,1.708l-2.998,1.01L158.952,38.854z"/>
	</g>
	<g>
		<path fill="#F6F6F7" d="M42.24,31.257l-4.213-2.273l0.797-0.799l2.798,1.627l-1.632-2.794l0.727-0.729l2.287,4.202l1.608,1.606
			l-0.76,0.765L42.24,31.257z"/>
		<path fill="#F6F6F7" d="M43.636,25.907c-0.685-0.854-0.624-1.706,0.203-2.368c0.827-0.66,1.668-0.529,2.353,0.327l2.229,2.787
			c0.685,0.856,0.625,1.708-0.202,2.368c-0.827,0.66-1.672,0.533-2.357-0.325L43.636,25.907z M46.747,28.076
			c0.309,0.384,0.59,0.394,0.86,0.179c0.27-0.212,0.321-0.494,0.016-0.875l-2.311-2.896c-0.31-0.382-0.594-0.394-0.86-0.179
			s-0.318,0.494-0.015,0.876L46.747,28.076z"/>
		<path fill="#F6F6F7" d="M48.509,20.265l2.844,4.461c0.267,0.411,0.542,0.444,0.833,0.261c0.287-0.186,0.375-0.45,0.111-0.862
			l-2.844-4.461l0.86-0.548l2.805,4.401c0.59,0.927,0.466,1.751-0.428,2.321c-0.893,0.568-1.693,0.333-2.284-0.592l-2.807-4.403
			L48.509,20.265z"/>
		<path fill="#F6F6F7" d="M55.769,16.166l3.038-1.371l0.402,0.894l-1.026,0.463l2.419,5.362l-0.981,0.442l-2.423-5.36l-1.026,0.466
			L55.769,16.166z"/>
		<path fill="#F6F6F7" d="M64.598,19.889l-1.014,0.366l-2.333-6.454l1.012-0.366l1,2.765l1.154-0.414l-1-2.767l1.033-0.374
			l2.332,6.453l-1.032,0.375l-1-2.768l-1.154,0.417L64.598,19.889z"/>
		<path fill="#F6F6F7" d="M69.038,14.26l1.424-0.404l0.269,0.945l-1.426,0.402l0.548,1.936l1.793-0.507l0.27,0.942l-2.834,0.803
			l-1.869-6.608l2.833-0.799l0.266,0.941l-1.792,0.508L69.038,14.26z"/>
		<path fill="#F6F6F7" d="M76.089,9.577l1.681-0.31c1.06-0.194,1.687,0.297,1.883,1.379l0.63,3.411
			c0.203,1.078-0.212,1.763-1.272,1.959l-1.678,0.309L76.089,9.577z M77.328,10.345l0.89,4.819l0.597-0.109
			c0.337-0.062,0.506-0.272,0.418-0.756l-0.645-3.507c-0.087-0.483-0.324-0.619-0.66-0.556L77.328,10.345z"/>
		<path fill="#F6F6F7" d="M83.473,11.295l1.469-0.193l0.127,0.97l-1.465,0.193l0.263,1.99l1.845-0.243l0.127,0.971l-2.911,0.385
			l-0.903-6.796l2.914-0.386l0.13,0.973l-1.847,0.242L83.473,11.295z"/>
		<path fill="#F6F6F7" d="M89.006,7.701c1.045-0.093,1.639,0.485,1.732,1.577l0.019,0.214l-1.015,0.091l-0.024-0.285
			c-0.042-0.488-0.254-0.654-0.597-0.626c-0.342,0.032-0.518,0.234-0.476,0.722c0.125,1.403,2.242,1.484,2.415,3.437
			c0.097,1.09-0.394,1.763-1.448,1.856c-1.055,0.091-1.654-0.485-1.751-1.576l-0.036-0.421l1.012-0.089l0.048,0.489
			c0.04,0.486,0.27,0.643,0.612,0.613c0.339-0.031,0.539-0.226,0.497-0.712c-0.124-1.404-2.244-1.485-2.414-3.436
			C87.483,8.462,87.965,7.792,89.006,7.701z"/>
		<path fill="#F6F6F7" d="M93.201,7.477l1.075-0.057l0.36,6.845l-1.075,0.057L93.201,7.477z"/>
		<path fill="#F6F6F7" d="M98.653,10.294l1.512-0.03l0.045,2.177c0.021,1.097-0.518,1.736-1.575,1.757
			c-1.06,0.021-1.62-0.595-1.642-1.692l-0.072-3.568c-0.024-1.098,0.515-1.736,1.571-1.758c1.06-0.021,1.624,0.595,1.642,1.693
			l0.015,0.666l-1.021,0.022l-0.015-0.737c-0.009-0.489-0.227-0.671-0.572-0.665c-0.343,0.007-0.555,0.197-0.542,0.688l0.072,3.708
			c0.009,0.488,0.23,0.661,0.576,0.653c0.339-0.006,0.554-0.188,0.542-0.679l-0.027-1.262l-0.488,0.008L98.653,10.294z"/>
		<path fill="#F6F6F7" d="M103.684,9.137l-0.118,4.974l-0.973-0.025l0.164-6.863l1.352,0.03l1.012,4.137l0.1-4.11l0.96,0.022
			l-0.161,6.866l-1.107-0.025L103.684,9.137z"/>
		<path fill="#F6F6F7" d="M109.851,10.4l1.475,0.099l-0.063,0.979l-1.476-0.1l-0.136,2.002l1.856,0.125l-0.066,0.977l-2.93-0.198
			l0.459-6.838l2.934,0.198l-0.066,0.977l-1.856-0.125L109.851,10.4z"/>
		<path fill="#F6F6F7" d="M116.014,14.935c-0.036-0.183-0.063-0.295-0.003-0.851l0.121-1.071c0.072-0.633-0.121-0.893-0.605-0.946
			l-0.373-0.04l-0.309,2.777l-1.069-0.118l0.757-6.825l1.621,0.181c1.111,0.122,1.531,0.69,1.414,1.745l-0.061,0.536
			c-0.078,0.701-0.354,1.137-0.854,1.308c0.508,0.283,0.627,0.82,0.547,1.531l-0.117,1.052c-0.037,0.333-0.055,0.578,0.023,0.843
			L116.014,14.935z M115.496,8.954l-0.23,2.098l0.418,0.046c0.399,0.045,0.66-0.104,0.724-0.65l0.076-0.672
			c0.055-0.488-0.088-0.721-0.47-0.764L115.496,8.954z"/>
	</g>
	<g>
		<path fill="#F6F6F7" d="M91.344,107.851l-1.139-4.65l1.127,0.055l0.672,3.165l0.972-3.083l1.03,0.048l-1.584,4.52l-0.112,2.271
			l-1.078-0.053L91.344,107.851z"/>
		<path fill="#F6F6F7" d="M95.237,105.063c0.012-1.097,0.6-1.718,1.66-1.702c1.06,0.016,1.629,0.651,1.614,1.749l-0.052,3.572
			c-0.015,1.097-0.603,1.717-1.663,1.702c-1.057-0.015-1.626-0.652-1.611-1.75L95.237,105.063z M96.263,108.719
			c-0.006,0.489,0.206,0.678,0.548,0.685c0.346,0.003,0.563-0.179,0.569-0.67l0.052-3.707c0.009-0.489-0.206-0.68-0.549-0.685
			c-0.342-0.004-0.563,0.179-0.569,0.67L96.263,108.719z"/>
		<path fill="#F6F6F7" d="M101.294,103.446l0.109,5.291c0.012,0.488,0.229,0.66,0.572,0.653c0.345-0.008,0.557-0.188,0.545-0.677
			l-0.112-5.291l1.021-0.022l0.109,5.222c0.024,1.099-0.515,1.735-1.568,1.757c-1.058,0.024-1.621-0.59-1.645-1.69l-0.109-5.219
			L101.294,103.446z"/>
		<path fill="#F6F6F7" d="M107.458,103.207l3.322-0.259l0.075,0.977l-1.124,0.088l0.458,5.862l-1.075,0.083l-0.457-5.861
			l-1.124,0.087L107.458,103.207z"/>
		<path fill="#F6F6F7" d="M114.163,109.484l-1.068,0.129l-0.822-6.804l1.07-0.131l0.352,2.918l1.217-0.146l-0.352-2.919l1.091-0.129
			l0.814,6.805l-1.087,0.13l-0.349-2.915l-1.218,0.147L114.163,109.484z"/>
		<path fill="#F6F6F7" d="M118.967,104.812l1.46-0.241l0.163,0.968l-1.463,0.243l0.33,1.98l1.836-0.303l0.16,0.965l-2.901,0.482
			l-1.121-6.772l2.902-0.479l0.16,0.967l-1.836,0.304L118.967,104.812z"/>
		<path fill="#F6F6F7" d="M124.494,100.814l1.657-0.401c1.047-0.253,1.701,0.201,1.959,1.27l0.821,3.37
			c0.257,1.067-0.115,1.774-1.167,2.028l-1.656,0.4L124.494,100.814z M125.772,101.512l1.154,4.761l0.59-0.14
			c0.334-0.082,0.494-0.302,0.375-0.779l-0.838-3.465c-0.115-0.479-0.357-0.602-0.691-0.52L125.772,101.512z"/>
		<path fill="#F6F6F7" d="M131.196,102.035l1.418-0.425l0.281,0.938l-1.418,0.428l0.58,1.926l1.783-0.537l0.284,0.938l-2.819,0.849
			l-1.978-6.576l2.817-0.847l0.283,0.939l-1.786,0.538L131.196,102.035z"/>
		<path fill="#F6F6F7" d="M135.052,97.642c0.984-0.36,1.709,0.047,2.081,1.079l0.073,0.203l-0.957,0.347l-0.1-0.268
			c-0.168-0.459-0.412-0.567-0.736-0.452c-0.321,0.119-0.442,0.361-0.275,0.82c0.48,1.329,2.553,0.857,3.222,2.702
			c0.376,1.033,0.073,1.809-0.921,2.171c-0.999,0.359-1.729-0.042-2.102-1.075l-0.145-0.396l0.957-0.347l0.168,0.461
			c0.168,0.462,0.432,0.555,0.755,0.436c0.321-0.116,0.464-0.354,0.297-0.816c-0.484-1.327-2.554-0.856-3.223-2.701
			C133.771,98.772,134.064,98,135.052,97.642z"/>
		<path fill="#F6F6F7" d="M138.054,96.577l0.993-0.415l2.647,6.33l-0.996,0.416L138.054,96.577z"/>
		<path fill="#F6F6F7" d="M143.463,97.494l1.362-0.653l0.943,1.963c0.472,0.99,0.248,1.794-0.707,2.25
			c-0.953,0.459-1.72,0.129-2.195-0.86l-1.541-3.22c-0.477-0.988-0.252-1.792,0.705-2.25c0.954-0.455,1.721-0.128,2.195,0.861
			l0.289,0.602l-0.922,0.442l-0.317-0.665c-0.212-0.442-0.487-0.517-0.794-0.368c-0.312,0.147-0.427,0.409-0.215,0.852l1.603,3.341
			c0.212,0.443,0.481,0.509,0.79,0.36c0.312-0.148,0.43-0.4,0.219-0.841l-0.549-1.142l-0.439,0.21L143.463,97.494z"/>
		<path fill="#F6F6F7" d="M146.755,94.507l2.454,4.32l-0.842,0.481l-3.39-5.968l1.175-0.667l2.993,3.022l-2.03-3.569l0.834-0.476
			l3.392,5.965l-0.963,0.549L146.755,94.507z"/>
		<path fill="#F6F6F7" d="M151.907,92.542l1.232-0.824l0.543,0.814l-1.23,0.824l1.117,1.672l1.551-1.035l0.546,0.814l-2.448,1.636
			l-3.814-5.708l2.447-1.638l0.545,0.818l-1.555,1.036L151.907,92.542z"/>
		<path fill="#F6F6F7" d="M159.132,92.207c-0.152-0.104-0.249-0.164-0.592-0.606l-0.666-0.848c-0.391-0.503-0.702-0.555-1.091-0.254
			l-0.293,0.229l1.714,2.2l-0.848,0.664l-4.217-5.408l1.281-1c0.882-0.687,1.578-0.572,2.229,0.263l0.33,0.423
			c0.434,0.557,0.542,1.061,0.303,1.531c0.561-0.154,1.021,0.148,1.46,0.713l0.652,0.834c0.205,0.262,0.359,0.45,0.605,0.583
			L159.132,92.207z M154.591,88.293l1.296,1.662l0.334-0.26c0.314-0.248,0.399-0.538,0.061-0.969l-0.412-0.533
			c-0.304-0.389-0.566-0.455-0.87-0.219L154.591,88.293z"/>
	</g>
</g>
</svg>
