<?xml version="1.0" encoding="utf-8"?>
<!-- Generator: Adobe Illustrator 15.0.0, SVG Export Plug-In . SVG Version: 6.00 Build 0)  -->
<!DOCTYPE svg PUBLIC "-//W3C//DTD SVG 1.1//EN" "http://www.w3.org/Graphics/SVG/1.1/DTD/svg11.dtd">
<svg version="1.1" id="Ebene_1" xmlns="http://www.w3.org/2000/svg" xmlns:xlink="http://www.w3.org/1999/xlink" x="0px" y="0px"
	 width="138.155px" height="164px" viewBox="0 0 138.155 164" enable-background="new 0 0 138.155 164" xml:space="preserve">
<g>
	<g>
		<g>
			
				<linearGradient id="SVGID_1_" gradientUnits="userSpaceOnUse" x1="265.876" y1="55.6567" x2="297.7773" y2="55.6567" gradientTransform="matrix(0.3001 0.9539 -0.9539 0.3001 53.5187 -141.6333)">
				<stop  offset="0" style="stop-color:#934A48"/>
				<stop  offset="0.3697" style="stop-color:#DA8B8C"/>
			</linearGradient>
			<polygon fill="url(#SVGID_1_)" points="86.974,150.162 105.289,154.183 95.732,123.807 64.703,133.569 74.278,164 74.3,163.993 
							"/>
			<g>
				
					<linearGradient id="SVGID_2_" gradientUnits="userSpaceOnUse" x1="-206.6685" y1="70.0015" x2="-237.5083" y2="70.0015" gradientTransform="matrix(-0.3001 -0.9539 -0.9539 0.3001 71.6641 -85.2606)">
					<stop  offset="0" style="stop-color:#FAF1D9"/>
					<stop  offset="1" style="stop-color:#E5DBC3"/>
				</linearGradient>
				<polygon fill="url(#SVGID_2_)" points="75.732,162.443 66.477,133.025 67.346,132.751 76.44,161.654 				"/>
				
					<linearGradient id="SVGID_3_" gradientUnits="userSpaceOnUse" x1="-206.6548" y1="42.1133" x2="-237.4019" y2="42.1133" gradientTransform="matrix(-0.3001 -0.9539 -0.9539 0.3001 71.6641 -85.2606)">
					<stop  offset="0" style="stop-color:#FAF1D9"/>
					<stop  offset="1" style="stop-color:#E5DBC3"/>
				</linearGradient>
				<polygon fill="url(#SVGID_3_)" points="103.171,153.699 102.146,153.474 93.076,124.643 93.946,124.371 				"/>
			</g>
		</g>
		<g>
			
				<linearGradient id="SVGID_4_" gradientUnits="userSpaceOnUse" x1="232.8818" y1="160.5288" x2="264.7842" y2="160.5288" gradientTransform="matrix(-0.3001 0.9539 0.9539 0.3001 -25.3019 -141.6333)">
				<stop  offset="0" style="stop-color:#934A48"/>
				<stop  offset="0.3697" style="stop-color:#DA8B8C"/>
			</linearGradient>
			<polygon fill="url(#SVGID_4_)" points="51.182,150.162 32.867,154.183 42.426,123.807 73.453,133.569 63.878,164 63.855,163.993 
							"/>
			<g>
				
					<linearGradient id="SVGID_5_" gradientUnits="userSpaceOnUse" x1="-173.6753" y1="174.8735" x2="-204.5151" y2="174.8735" gradientTransform="matrix(0.3001 -0.9539 0.9539 0.3001 -43.4483 -85.2606)">
					<stop  offset="0" style="stop-color:#FAF1D9"/>
					<stop  offset="1" style="stop-color:#E5DBC3"/>
				</linearGradient>
				<polygon fill="url(#SVGID_5_)" points="62.425,162.443 71.681,133.025 70.81,132.751 61.718,161.654 				"/>
				
					<linearGradient id="SVGID_6_" gradientUnits="userSpaceOnUse" x1="-173.6626" y1="146.9858" x2="-204.4092" y2="146.9858" gradientTransform="matrix(0.3001 -0.9539 0.9539 0.3001 -43.4483 -85.2606)">
					<stop  offset="0" style="stop-color:#FAF1D9"/>
					<stop  offset="1" style="stop-color:#E5DBC3"/>
				</linearGradient>
				<polygon fill="url(#SVGID_6_)" points="34.984,153.699 36.011,153.474 45.08,124.643 44.211,124.371 				"/>
			</g>
		</g>
		<g>
			<linearGradient id="SVGID_7_" gradientUnits="userSpaceOnUse" x1="69.0776" y1="0.3501" x2="69.0776" y2="142.2943">
				<stop  offset="0" style="stop-color:#FAF1D9"/>
				<stop  offset="1" style="stop-color:#E5DBC3"/>
			</linearGradient>
			<polygon fill="url(#SVGID_7_)" points="69.077,1.591 73.413,0 77.519,2.124 82.021,1.089 85.828,3.707 90.424,3.245 93.87,6.321 
				98.487,6.438 101.522,9.922 106.091,10.619 108.665,14.455 113.108,15.716 115.181,19.846 119.431,21.655 120.972,26.011 
				124.96,28.34 125.941,32.853 129.609,35.663 130.017,40.266 133.303,43.512 133.131,48.129 135.983,51.761 135.232,56.321 
				137.607,60.284 136.292,64.712 138.155,68.94 136.292,73.17 137.607,77.6 135.232,81.561 135.983,86.119 133.131,89.753 
				133.303,94.369 130.017,97.618 129.609,102.22 125.941,105.029 124.96,109.543 120.972,111.871 119.431,116.226 115.181,118.037 
				113.108,122.166 108.665,123.427 106.091,127.263 101.522,127.961 98.487,131.443 93.87,131.56 90.424,134.636 85.828,134.174 
				82.021,136.792 77.519,135.759 73.413,137.88 69.077,136.291 64.74,137.88 60.636,135.759 56.134,136.792 52.326,134.174 
				47.73,134.636 44.284,131.56 39.666,131.443 36.632,127.961 32.063,127.263 29.489,123.427 25.045,122.166 22.974,118.037 
				18.724,116.226 17.183,111.871 13.192,109.543 12.211,105.029 8.545,102.22 8.139,97.618 4.852,94.369 5.023,89.753 
				2.171,86.119 2.92,81.561 0.544,77.6 1.862,73.17 0,68.94 1.862,64.712 0.544,60.284 2.92,56.321 2.171,51.761 5.023,48.129 
				4.852,43.512 8.139,40.266 8.545,35.663 12.211,32.853 13.192,28.34 17.183,26.011 18.724,21.655 22.974,19.846 25.045,15.716 
				29.489,14.455 32.063,10.619 36.632,9.922 39.666,6.438 44.284,6.321 47.73,3.245 52.326,3.707 56.134,1.089 60.636,2.124 
				64.74,0 			"/>
			<linearGradient id="SVGID_8_" gradientUnits="userSpaceOnUse" x1="69.0757" y1="-1.0322" x2="69.0757" y2="237.2841">
				<stop  offset="0" style="stop-color:#DA8B8C"/>
				<stop  offset="1" style="stop-color:#AA6968"/>
			</linearGradient>
			<circle fill="url(#SVGID_8_)" cx="69.076" cy="68.94" r="53.938"/>
			
				<circle fill="none" stroke="#FFFFFF" stroke-width="0.5" stroke-linecap="round" stroke-dasharray="2,3" cx="69.077" cy="68.94" r="48.319"/>
		</g>
	</g>
	<g>
		<g>
			<g>
				<path fill="#934A48" d="M45.212,64.632l1.242-5.797l-1.807-7.055c-1.751,0.639-2.804,2.106-2.804,4.176
					c0,0.959,0.243,1.112,0.263,1.28c-1.297,0-2.013-0.472-2.013-1.825c0-2.503,3.463-4.891,6.604-4.891
					c0.264,0,0.509,0.017,0.752,0.036l1.639,6.736l2.785-6.68h1.241l-3.65,8.223l-1.242,5.797H45.212z"/>
				<path fill="#934A48" d="M58.955,58.064c0.075,0.038,0.151,0.038,0.207,0.038c0.867,0,2.09-0.565,2.897-1.129l0.169,0.509
					c-0.714,0.771-1.956,1.337-3.33,1.561c-0.301,3.481-2.183,5.666-4.497,5.666c-1.751,0-3.011-0.829-3.011-2.975
					c0-2.164,1.28-6.679,5.156-6.679C58.165,55.054,58.955,56.087,58.955,58.064z M57.336,59.099
					c-0.394-0.093-0.508-0.412-0.508-0.791c0-0.525,0.246-0.865,0.584-1.016c-0.038-0.789-0.226-1.09-0.716-1.09
					c-1.334,0-2.503,3.443-2.503,5.288c0,1.242,0.245,1.523,0.961,1.523C56.075,63.013,57.036,61.32,57.336,59.099z"/>
				<path fill="#934A48" d="M63.909,55.222l-1.354,6.399c-0.038,0.15-0.058,0.32-0.058,0.471c0,0.431,0.133,0.827,0.565,0.827
					c0.733,0,1.223-0.715,1.507-1.655l1.277-6.042h2.711l-1.355,6.399c-0.056,0.244-0.076,0.432-0.076,0.603
					c0,0.525,0.246,0.695,0.773,0.695c0.354,0,0.451-0.056,0.618-0.112c-0.091,1.354-1.069,1.937-2.086,1.937
					c-1.036,0-1.714-0.677-1.846-1.787c-0.94,1.543-2.013,1.787-2.804,1.787c-1.129,0-2.015-0.677-2.015-2.256
					c0-0.359,0.058-0.772,0.152-1.223l1.279-6.042H63.909z"/>
				<path fill="#934A48" d="M74.772,57.255c-1.298,0-2.014-0.472-2.014-1.826c0-2.502,1.976-4.893,6.624-4.893
					c0.866,0,3.161,0.491,5.08,0.491c0.924,0,1.751-0.114,2.278-0.452c-0.451,0.827-0.715,1.373-1.582,5.664
					c0.811-0.922,1.638-1.091,2.242-1.091c1.203,0,2.086,0.621,2.086,2.127c0,1.523-0.902,3.8-0.902,4.854
					c0,0.471,0.188,0.791,0.753,0.791c0.828,0,1.166-0.678,1.581-1.655h0.791c-1.055,3.086-2.504,3.479-3.502,3.479
					c-1.637,0-2.219-1.052-2.219-2.126c0-1.279,0.846-3.593,0.846-4.798c0-0.621-0.226-0.96-0.677-0.96
					c-0.659,0-1.148,0.734-1.432,1.619c-0.319,1.636-0.695,3.65-1.146,6.153h-2.71l2.578-12.006
					c-0.772-0.056-1.619-0.207-2.483-0.319l-2.654,12.326h-2.71l2.69-12.497c-2.107,0.075-3.782,0.886-3.782,3.841
					C74.509,56.936,74.753,57.085,74.772,57.255z"/>
				<path fill="#934A48" d="M94.617,62.957c0.715,0,1.618-0.47,2.22-0.997c-0.394,2.144-1.749,2.783-3.256,2.783
					c-1.75,0-2.916-0.865-2.916-2.991c0-2.164,1.223-6.699,5.08-6.699c1.675,0,2.07,0.866,2.07,1.806
					c0,2.182-2.07,3.839-4.328,3.971c-0.019,0.188-0.038,0.396-0.038,0.564C93.449,62.58,93.958,62.957,94.617,62.957z
					 M95.896,56.051c-0.939,0-1.882,2.088-2.276,3.875c1.469-0.074,2.748-1.523,2.748-3.105
					C96.367,56.351,96.253,56.051,95.896,56.051z"/>
				<path fill="#934A48" d="M43.367,71.115l-2.26,10.557c0.357,0.265,0.718,0.376,1.072,0.376c2.24,0,3.614-4.478,3.614-8.279
					c0-2.561-1.11-3.557-2.747-3.557c-2.805,0-4.93,1.711-4.93,4.571c0,0.96,0.246,1.112,0.263,1.28
					c-1.241,0-2.013-0.471-2.013-1.751c0-2.578,3.18-4.967,7-4.967c3.649,0,5.024,2.541,5.024,5.42c0,4.328-2.427,8.938-5.212,8.938
					c-0.716,0-1.486-0.3-2.298-0.996l-0.149,0.753h-2.709l2.558-11.969L43.367,71.115z"/>
				<path fill="#934A48" d="M52.633,81.992c1.485,0,2.389-0.828,3.33-1.902h0.639c-1.072,1.732-2.673,3.481-5.174,3.481
					c-1.77,0-2.936-0.864-2.936-2.991c0-2.166,1.222-6.7,5.081-6.7c1.675,0,2.07,0.865,2.07,1.807c0,2.164-2.07,3.839-4.33,3.971
					c-0.018,0.264-0.037,0.527-0.037,0.751C51.276,81.691,51.728,81.992,52.633,81.992z M53.723,74.877
					c-0.958,0-1.881,2.014-2.259,3.877c1.45-0.094,2.729-1.543,2.729-3.106C54.192,75.179,54.081,74.877,53.723,74.877z"/>
				<path fill="#934A48" d="M63.947,80.09c-0.98,1.13-2.015,1.846-2.882,2.354c-0.789,0.828-1.993,1.128-2.954,1.128
					c-1.918,0-2.747-1.26-2.747-2.408c0-0.866,0.489-1.505,0.996-1.75c1.055-1.863,1.731-3.726,2.316-5.57l2.784-0.377
					c0.226,4.875,0.415,5.608,0.415,6.851c0,0.263-0.02,0.487-0.075,0.714c0.507-0.301,0.996-0.639,1.355-0.942H63.947z
					 M56.87,81.013c-0.19,0-0.414-0.056-0.51-0.244c0,0.884,0.319,1.316,1.15,1.316c0.827,0,1.635-0.432,1.635-1.749
					c0-0.979-0.168-1.561-0.355-4.46c-0.377,1.224-0.904,2.352-1.525,3.557c0.246,0.112,0.434,0.338,0.434,0.657
					C57.698,80.542,57.359,81.013,56.87,81.013z"/>
				<path fill="#934A48" d="M67.147,74.049l-1.354,6.4c-0.058,0.244-0.076,0.432-0.076,0.602c0,0.526,0.244,0.696,0.771,0.696
					c0.732,0,1.411-0.715,1.692-1.657h0.791c-1.072,3.068-2.935,3.481-3.951,3.481c-1.129,0-2.014-0.677-2.014-2.257
					c0-0.357,0.056-0.773,0.15-1.224l1.28-6.041H67.147z M66.302,70.042c0.828,0,1.505,0.677,1.505,1.505
					c0,0.827-0.677,1.487-1.505,1.487c-0.829,0-1.488-0.66-1.488-1.487C64.813,70.719,65.473,70.042,66.302,70.042z"/>
				<path fill="#934A48" d="M77.218,74.049l-1.862,8.733c1.147-0.415,1.844-1.054,2.371-2.692h0.79
					c-0.733,2.485-2.164,3.2-3.331,3.52l-0.281,1.355c-0.565,2.69-2.146,3.198-3.388,3.198c-1.149,0-2.108-0.603-2.108-1.824
					c0-1.582,1.657-2.372,3.069-2.804l0.223-0.998c-0.543,0.583-1.277,1.034-2.258,1.034c-1.278,0-2.502-0.789-2.502-3.03
					c0-2.54,1.562-6.584,4.836-6.584c1.072,0,1.524,0.413,1.524,0.958v0.114l0.208-0.98H77.218z M71.083,86.697
					c0.396,0,0.847-0.566,1.091-1.676l0.113-0.545c-0.96,0.357-1.845,0.846-1.845,1.6C70.442,86.339,70.67,86.697,71.083,86.697z
					 M70.727,80.278c0,1.45,0.601,1.469,0.94,1.469c0.507,0,1.241-0.507,1.505-1.469l0.961-4.458
					c-0.021-0.208-0.17-0.696-0.772-0.696C71.763,75.124,70.727,78.511,70.727,80.278z"/>
				<path fill="#934A48" d="M82.473,75.688c-0.678,0-1.185,0.791-1.467,1.731l-1.28,6.042h-2.708l1.993-9.411h2.709l-0.206,0.98
					c0.792-0.904,1.618-1.056,2.202-1.056c1.205,0,2.087,0.622,2.087,2.127c0,1.525-0.902,3.801-0.902,4.855
					c0,0.471,0.188,0.79,0.753,0.79c0.829,0,1.166-0.679,1.58-1.657h0.791c-1.053,3.087-2.502,3.481-3.501,3.481
					c-1.635,0-2.218-1.053-2.218-2.125c0-1.28,0.844-3.594,0.844-4.798C83.149,76.027,82.924,75.688,82.473,75.688z"/>
				<path fill="#934A48" d="M91.134,81.992c1.486,0,2.39-0.828,3.33-1.902h0.639c-1.071,1.732-2.671,3.481-5.173,3.481
					c-1.77,0-2.936-0.864-2.936-2.991c0-2.166,1.222-6.7,5.08-6.7c1.675,0,2.07,0.865,2.07,1.807c0,2.164-2.07,3.839-4.328,3.971
					c-0.019,0.264-0.038,0.527-0.038,0.751C89.778,81.691,90.229,81.992,91.134,81.992z M92.224,74.877
					c-0.958,0-1.881,2.014-2.257,3.877c1.449-0.094,2.729-1.543,2.729-3.106C92.695,75.179,92.583,74.877,92.224,74.877z"/>
				<path fill="#934A48" d="M98.457,74.049l-0.243,1.168c0.658-0.565,1.373-1.168,2.276-1.168c0.846,0,1.298,0.697,1.298,1.412
					c0,0.659-0.432,1.375-1.354,1.375c-1.052,0-0.526-1.243-1.092-1.243c-0.563,0-0.902,0.283-1.372,0.716l-1.508,7.151h-2.708
					l1.995-9.411H98.457z"/>
			</g>
			<g>
				<linearGradient id="SVGID_9_" gradientUnits="userSpaceOnUse" x1="40.0938" y1="57.022" x2="53.1152" y2="57.022">
					<stop  offset="0" style="stop-color:#FAF1D9"/>
					<stop  offset="1" style="stop-color:#E5DBC3"/>
				</linearGradient>
				<path fill="url(#SVGID_9_)" d="M45.212,64.079l1.242-5.796l-1.807-7.057c-1.751,0.641-2.804,2.108-2.804,4.178
					c0,0.96,0.243,1.11,0.263,1.279c-1.297,0-2.013-0.471-2.013-1.826c0-2.503,3.463-4.893,6.604-4.893
					c0.264,0,0.509,0.02,0.752,0.04l1.639,6.736l2.785-6.68h1.241l-3.65,8.223l-1.242,5.796H45.212z"/>
				<linearGradient id="SVGID_10_" gradientUnits="userSpaceOnUse" x1="51.3906" y1="59.3276" x2="62.2285" y2="59.3276">
					<stop  offset="0" style="stop-color:#FAF1D9"/>
					<stop  offset="1" style="stop-color:#E5DBC3"/>
				</linearGradient>
				<path fill="url(#SVGID_10_)" d="M58.955,57.511c0.075,0.039,0.151,0.039,0.207,0.039c0.867,0,2.09-0.566,2.897-1.13l0.169,0.508
					c-0.714,0.772-1.956,1.337-3.33,1.563c-0.301,3.481-2.183,5.664-4.497,5.664c-1.751,0-3.011-0.827-3.011-2.973
					c0-2.165,1.28-6.681,5.156-6.681C58.165,54.501,58.955,55.537,58.955,57.511z M57.336,58.547
					c-0.394-0.094-0.508-0.413-0.508-0.791c0-0.525,0.246-0.864,0.584-1.016c-0.038-0.791-0.226-1.092-0.716-1.092
					c-1.334,0-2.503,3.445-2.503,5.289c0,1.243,0.245,1.523,0.961,1.523C56.075,62.46,57.036,60.769,57.336,58.547z"/>
				<linearGradient id="SVGID_11_" gradientUnits="userSpaceOnUse" x1="59.7676" y1="59.4312" x2="68.5576" y2="59.4312">
					<stop  offset="0" style="stop-color:#FAF1D9"/>
					<stop  offset="1" style="stop-color:#E5DBC3"/>
				</linearGradient>
				<path fill="url(#SVGID_11_)" d="M63.909,54.67l-1.354,6.399c-0.038,0.151-0.058,0.319-0.058,0.471
					c0,0.433,0.133,0.828,0.565,0.828c0.733,0,1.223-0.715,1.507-1.656l1.277-6.042h2.711l-1.355,6.399
					c-0.056,0.245-0.076,0.433-0.076,0.603c0,0.525,0.246,0.696,0.773,0.696c0.354,0,0.451-0.056,0.618-0.114
					c-0.091,1.354-1.069,1.938-2.086,1.938c-1.036,0-1.714-0.677-1.846-1.788c-0.94,1.543-2.013,1.788-2.804,1.788
					c-1.129,0-2.015-0.677-2.015-2.259c0-0.356,0.058-0.771,0.152-1.222l1.279-6.042H63.909z"/>
				<linearGradient id="SVGID_12_" gradientUnits="userSpaceOnUse" x1="72.7588" y1="57.0884" x2="91.71" y2="57.0884">
					<stop  offset="0" style="stop-color:#FAF1D9"/>
					<stop  offset="1" style="stop-color:#E5DBC3"/>
				</linearGradient>
				<path fill="url(#SVGID_12_)" d="M74.772,56.704c-1.298,0-2.014-0.471-2.014-1.826c0-2.503,1.976-4.894,6.624-4.894
					c0.866,0,3.161,0.491,5.08,0.491c0.924,0,1.751-0.115,2.278-0.453c-0.451,0.829-0.715,1.374-1.582,5.666
					c0.811-0.924,1.638-1.092,2.242-1.092c1.203,0,2.086,0.621,2.086,2.125c0,1.524-0.902,3.801-0.902,4.856
					c0,0.471,0.188,0.791,0.753,0.791c0.828,0,1.166-0.679,1.581-1.656h0.791c-1.055,3.086-2.504,3.481-3.502,3.481
					c-1.637,0-2.219-1.054-2.219-2.127c0-1.279,0.846-3.593,0.846-4.798c0-0.621-0.226-0.96-0.677-0.96
					c-0.659,0-1.148,0.734-1.432,1.619c-0.319,1.637-0.695,3.651-1.146,6.153h-2.71l2.578-12.004
					c-0.772-0.057-1.619-0.207-2.483-0.321l-2.654,12.326h-2.71l2.69-12.496c-2.107,0.076-3.782,0.886-3.782,3.841
					C74.509,56.383,74.753,56.533,74.772,56.704z"/>
				<linearGradient id="SVGID_13_" gradientUnits="userSpaceOnUse" x1="90.665" y1="59.3467" x2="97.8154" y2="59.3467">
					<stop  offset="0" style="stop-color:#FAF1D9"/>
					<stop  offset="1" style="stop-color:#E5DBC3"/>
				</linearGradient>
				<path fill="url(#SVGID_13_)" d="M94.617,62.404c0.715,0,1.618-0.471,2.22-0.997c-0.394,2.144-1.749,2.785-3.256,2.785
					c-1.75,0-2.916-0.864-2.916-2.992c0-2.165,1.223-6.7,5.08-6.7c1.675,0,2.07,0.866,2.07,1.806c0,2.184-2.07,3.839-4.328,3.971
					c-0.019,0.188-0.038,0.396-0.038,0.565C93.449,62.028,93.958,62.404,94.617,62.404z M95.896,55.499
					c-0.939,0-1.882,2.088-2.276,3.876c1.469-0.075,2.748-1.524,2.748-3.106C96.367,55.8,96.253,55.499,95.896,55.499z"/>
				<linearGradient id="SVGID_14_" gradientUnits="userSpaceOnUse" x1="36.3672" y1="75.9731" x2="48.3916" y2="75.9731">
					<stop  offset="0" style="stop-color:#FAF1D9"/>
					<stop  offset="1" style="stop-color:#E5DBC3"/>
				</linearGradient>
				<path fill="url(#SVGID_14_)" d="M43.367,70.563l-2.26,10.557c0.357,0.264,0.718,0.376,1.072,0.376
					c2.24,0,3.614-4.479,3.614-8.279c0-2.561-1.11-3.557-2.747-3.557c-2.805,0-4.93,1.712-4.93,4.573c0,0.96,0.246,1.11,0.263,1.279
					c-1.241,0-2.013-0.471-2.013-1.75c0-2.579,3.18-4.969,7-4.969c3.649,0,5.024,2.542,5.024,5.42c0,4.329-2.427,8.939-5.212,8.939
					c-0.716,0-1.486-0.302-2.298-0.997l-0.149,0.751h-2.709l2.558-11.969L43.367,70.563z"/>
				<linearGradient id="SVGID_15_" gradientUnits="userSpaceOnUse" x1="48.4922" y1="78.1753" x2="56.6016" y2="78.1753">
					<stop  offset="0" style="stop-color:#FAF1D9"/>
					<stop  offset="1" style="stop-color:#E5DBC3"/>
				</linearGradient>
				<path fill="url(#SVGID_15_)" d="M52.633,81.439c1.485,0,2.389-0.827,3.33-1.9h0.639c-1.072,1.731-2.673,3.482-5.174,3.482
					c-1.77,0-2.936-0.865-2.936-2.993c0-2.164,1.222-6.699,5.081-6.699c1.675,0,2.07,0.865,2.07,1.806
					c0,2.164-2.07,3.839-4.33,3.971c-0.018,0.264-0.037,0.527-0.037,0.753C51.276,81.139,51.728,81.439,52.633,81.439z
					 M53.723,74.327c-0.958,0-1.881,2.013-2.259,3.877c1.45-0.094,2.729-1.543,2.729-3.106
					C54.192,74.628,54.081,74.327,53.723,74.327z"/>
				<linearGradient id="SVGID_16_" gradientUnits="userSpaceOnUse" x1="55.3643" y1="77.9683" x2="63.9473" y2="77.9683">
					<stop  offset="0" style="stop-color:#FAF1D9"/>
					<stop  offset="1" style="stop-color:#E5DBC3"/>
				</linearGradient>
				<path fill="url(#SVGID_16_)" d="M63.947,79.539c-0.98,1.13-2.015,1.845-2.882,2.352c-0.789,0.829-1.993,1.13-2.954,1.13
					c-1.918,0-2.747-1.262-2.747-2.408c0-0.866,0.489-1.507,0.996-1.751c1.055-1.862,1.731-3.727,2.316-5.571l2.784-0.376
					c0.226,4.874,0.415,5.608,0.415,6.85c0,0.263-0.02,0.489-0.075,0.716c0.507-0.303,0.996-0.641,1.355-0.942H63.947z
					 M56.87,80.461c-0.19,0-0.414-0.056-0.51-0.245c0,0.884,0.319,1.317,1.15,1.317c0.827,0,1.635-0.433,1.635-1.749
					c0-0.979-0.168-1.563-0.355-4.46c-0.377,1.222-0.904,2.35-1.525,3.556c0.246,0.113,0.434,0.338,0.434,0.659
					C57.698,79.991,57.359,80.461,56.87,80.461z"/>
				<linearGradient id="SVGID_17_" gradientUnits="userSpaceOnUse" x1="63.0078" y1="76.2554" x2="68.9727" y2="76.2554">
					<stop  offset="0" style="stop-color:#FAF1D9"/>
					<stop  offset="1" style="stop-color:#E5DBC3"/>
				</linearGradient>
				<path fill="url(#SVGID_17_)" d="M67.147,73.499l-1.354,6.398c-0.058,0.246-0.076,0.433-0.076,0.601
					c0,0.527,0.244,0.699,0.771,0.699c0.732,0,1.411-0.715,1.692-1.657h0.791c-1.072,3.068-2.935,3.482-3.951,3.482
					c-1.129,0-2.014-0.677-2.014-2.26c0-0.356,0.056-0.771,0.15-1.222l1.28-6.041H67.147z M66.302,69.49
					c0.828,0,1.505,0.679,1.505,1.505c0,0.828-0.677,1.487-1.505,1.487c-0.829,0-1.488-0.659-1.488-1.487
					C64.813,70.168,65.473,69.49,66.302,69.49z"/>
				<linearGradient id="SVGID_18_" gradientUnits="userSpaceOnUse" x1="67.9404" y1="80.5083" x2="78.5166" y2="80.5083">
					<stop  offset="0" style="stop-color:#FAF1D9"/>
					<stop  offset="1" style="stop-color:#E5DBC3"/>
				</linearGradient>
				<path fill="url(#SVGID_18_)" d="M77.218,73.499l-1.862,8.732c1.147-0.414,1.844-1.054,2.371-2.691h0.79
					c-0.733,2.483-2.164,3.201-3.331,3.519l-0.281,1.355c-0.565,2.691-2.146,3.199-3.388,3.199c-1.149,0-2.108-0.604-2.108-1.826
					c0-1.58,1.657-2.37,3.069-2.804l0.223-0.998c-0.543,0.583-1.277,1.036-2.258,1.036c-1.278,0-2.502-0.791-2.502-3.03
					c0-2.54,1.562-6.586,4.836-6.586c1.072,0,1.524,0.414,1.524,0.96v0.112l0.208-0.979H77.218z M71.083,86.144
					c0.396,0,0.847-0.565,1.091-1.674l0.113-0.547c-0.96,0.358-1.845,0.847-1.845,1.6C70.442,85.787,70.67,86.144,71.083,86.144z
					 M70.727,79.727c0,1.449,0.601,1.469,0.94,1.469c0.507,0,1.241-0.509,1.505-1.469l0.961-4.46
					c-0.021-0.206-0.17-0.695-0.772-0.695C71.763,74.572,70.727,77.958,70.727,79.727z"/>
				<linearGradient id="SVGID_19_" gradientUnits="userSpaceOnUse" x1="77.0176" y1="78.2222" x2="88.0244" y2="78.2222">
					<stop  offset="0" style="stop-color:#FAF1D9"/>
					<stop  offset="1" style="stop-color:#E5DBC3"/>
				</linearGradient>
				<path fill="url(#SVGID_19_)" d="M82.473,75.135c-0.678,0-1.185,0.791-1.467,1.733l-1.28,6.04h-2.708l1.993-9.409h2.709
					l-0.206,0.979c0.792-0.903,1.618-1.054,2.202-1.054c1.205,0,2.087,0.623,2.087,2.126c0,1.524-0.902,3.801-0.902,4.856
					c0,0.471,0.188,0.791,0.753,0.791c0.829,0,1.166-0.679,1.58-1.657h0.791c-1.053,3.085-2.502,3.482-3.501,3.482
					c-1.635,0-2.218-1.054-2.218-2.128c0-1.279,0.844-3.594,0.844-4.797C83.149,75.475,82.924,75.135,82.473,75.135z"/>
				<linearGradient id="SVGID_20_" gradientUnits="userSpaceOnUse" x1="86.9941" y1="78.1753" x2="95.1025" y2="78.1753">
					<stop  offset="0" style="stop-color:#FAF1D9"/>
					<stop  offset="1" style="stop-color:#E5DBC3"/>
				</linearGradient>
				<path fill="url(#SVGID_20_)" d="M91.134,81.439c1.486,0,2.39-0.827,3.33-1.9h0.639c-1.071,1.731-2.671,3.482-5.173,3.482
					c-1.77,0-2.936-0.865-2.936-2.993c0-2.164,1.222-6.699,5.08-6.699c1.675,0,2.07,0.865,2.07,1.806
					c0,2.164-2.07,3.839-4.328,3.971c-0.019,0.264-0.038,0.527-0.038,0.753C89.778,81.139,90.229,81.439,91.134,81.439z
					 M92.224,74.327c-0.958,0-1.881,2.013-2.257,3.877c1.449-0.094,2.729-1.543,2.729-3.106
					C92.695,74.628,92.583,74.327,92.224,74.327z"/>
				<linearGradient id="SVGID_21_" gradientUnits="userSpaceOnUse" x1="93.7539" y1="78.2031" x2="101.7881" y2="78.2031">
					<stop  offset="0" style="stop-color:#FAF1D9"/>
					<stop  offset="1" style="stop-color:#E5DBC3"/>
				</linearGradient>
				<path fill="url(#SVGID_21_)" d="M98.457,73.499l-0.243,1.166c0.658-0.563,1.373-1.166,2.276-1.166
					c0.846,0,1.298,0.695,1.298,1.411c0,0.659-0.432,1.374-1.354,1.374c-1.052,0-0.526-1.242-1.092-1.242
					c-0.563,0-0.902,0.283-1.372,0.715l-1.508,7.151h-2.708l1.995-9.409H98.457z"/>
			</g>
		</g>
		<g>
			<g>
				<polygon fill="#934A48" points="75.988,43.656 75.501,42.665 75.01,43.656 73.919,43.813 74.707,44.586 74.521,45.675 
					75.501,45.161 76.479,45.675 76.292,44.586 77.082,43.813 				"/>
				<polygon fill="#934A48" points="69.567,43.656 69.078,42.665 68.589,43.656 67.496,43.813 68.285,44.586 68.1,45.675 
					69.078,45.161 70.057,45.675 69.869,44.586 70.661,43.813 				"/>
				<polygon fill="#934A48" points="63.146,43.656 62.656,42.665 62.167,43.656 61.074,43.813 61.864,44.586 61.678,45.675 
					62.656,45.161 63.635,45.675 63.447,44.586 64.239,43.813 				"/>
				<rect x="79.347" y="43.944" fill="#934A48" width="14.451" height="0.507"/>
				<rect x="44.358" y="43.944" fill="#934A48" width="14.45" height="0.507"/>
			</g>
			<g>
				<polygon fill="#FFFFFF" points="75.988,43.38 75.501,42.389 75.01,43.38 73.919,43.538 74.707,44.311 74.521,45.399 
					75.501,44.884 76.479,45.399 76.292,44.311 77.082,43.538 				"/>
				<polygon fill="#FFFFFF" points="69.567,43.38 69.078,42.389 68.589,43.38 67.496,43.538 68.285,44.311 68.1,45.399 
					69.078,44.884 70.057,45.399 69.869,44.311 70.661,43.538 				"/>
				<polygon fill="#FFFFFF" points="63.146,43.38 62.656,42.389 62.167,43.38 61.074,43.538 61.864,44.311 61.678,45.399 
					62.656,44.884 63.635,45.399 63.447,44.311 64.239,43.538 				"/>
				<rect x="79.347" y="43.668" fill="#FFFFFF" width="14.451" height="0.507"/>
				<rect x="44.358" y="43.668" fill="#FFFFFF" width="14.45" height="0.507"/>
			</g>
		</g>
		<g>
			<g>
				<polygon fill="#934A48" points="75.988,93.721 75.501,92.731 75.01,93.721 73.919,93.88 74.707,94.652 74.521,95.742 
					75.501,95.228 76.479,95.742 76.292,94.652 77.082,93.88 				"/>
				<polygon fill="#934A48" points="69.567,93.721 69.078,92.731 68.589,93.721 67.496,93.88 68.285,94.652 68.1,95.742 
					69.078,95.228 70.057,95.742 69.869,94.652 70.661,93.88 				"/>
				<polygon fill="#934A48" points="63.146,93.721 62.656,92.731 62.167,93.721 61.074,93.88 61.864,94.652 61.678,95.742 
					62.656,95.228 63.635,95.742 63.447,94.652 64.239,93.88 				"/>
				<rect x="79.347" y="94.01" fill="#934A48" width="14.451" height="0.507"/>
				<rect x="44.358" y="94.01" fill="#934A48" width="14.45" height="0.507"/>
			</g>
			<g>
				<polygon fill="#FFFFFF" points="75.988,93.446 75.501,92.456 75.01,93.446 73.919,93.605 74.707,94.376 74.521,95.466 
					75.501,94.953 76.479,95.466 76.292,94.376 77.082,93.605 				"/>
				<polygon fill="#FFFFFF" points="69.567,93.446 69.078,92.456 68.589,93.446 67.496,93.605 68.285,94.376 68.1,95.466 
					69.078,94.953 70.057,95.466 69.869,94.376 70.661,93.605 				"/>
				<polygon fill="#FFFFFF" points="63.146,93.446 62.656,92.456 62.167,93.446 61.074,93.605 61.864,94.376 61.678,95.466 
					62.656,94.953 63.635,95.466 63.447,94.376 64.239,93.605 				"/>
				<rect x="79.347" y="93.735" fill="#FFFFFF" width="14.451" height="0.507"/>
				<rect x="44.358" y="93.735" fill="#FFFFFF" width="14.45" height="0.507"/>
			</g>
		</g>
		<g>
			<g>
				<path fill="#934A48" d="M56.729,35.123h1.007v0.71h-1.007v2.049h-0.781v-4.966h2.065v0.71h-1.284V35.123z"/>
				<path fill="#934A48" d="M61.586,37.882c-0.044-0.128-0.071-0.205-0.071-0.611v-0.778c0-0.462-0.158-0.633-0.511-0.633h-0.27
					v2.022h-0.781v-4.966h1.177c0.809,0,1.156,0.377,1.156,1.144v0.389c0,0.51-0.163,0.845-0.51,1.007
					c0.391,0.163,0.52,0.541,0.52,1.057v0.768c0,0.239,0.004,0.418,0.085,0.602H61.586z M60.734,33.626v1.525h0.304
					c0.291,0,0.471-0.127,0.471-0.525v-0.489c0-0.354-0.121-0.511-0.399-0.511H60.734z"/>
				<path fill="#934A48" d="M65.152,35.011h1.071v0.709h-1.071v1.454h1.346v0.709h-2.126v-4.966h2.126v0.71h-1.346V35.011z"/>
				<path fill="#934A48" d="M69.326,35.011h1.072v0.709h-1.072v1.454h1.347v0.709h-2.125v-4.966h2.125v0.71h-1.347V35.011z"/>
				<path fill="#934A48" d="M75.054,34.06v0.177c0,0.51-0.152,0.836-0.501,1c0.417,0.164,0.582,0.539,0.582,1.064v0.404
					c0,0.767-0.403,1.177-1.187,1.177h-1.225v-4.966h1.176C74.709,32.917,75.054,33.293,75.054,34.06z M73.502,33.626v1.313h0.304
					c0.291,0,0.471-0.129,0.471-0.526v-0.276c0-0.354-0.121-0.511-0.399-0.511H73.502z M73.502,35.648v1.525h0.446
					c0.264,0,0.405-0.122,0.405-0.489v-0.433c0-0.46-0.148-0.603-0.504-0.603H73.502z"/>
				<path fill="#934A48" d="M77.17,32.917h0.779v4.966H77.17V32.917z"/>
				<path fill="#934A48" d="M80.86,35.011h1.072v0.709H80.86v1.454h1.347v0.709H80.08v-4.966h2.127v0.71H80.86V35.011z"/>
			</g>
			<g>
				<path fill="#FFFFFF" d="M56.729,34.977h1.007v0.709h-1.007v2.051h-0.781v-4.966h2.065v0.71h-1.284V34.977z"/>
				<path fill="#FFFFFF" d="M61.586,37.737c-0.044-0.127-0.071-0.205-0.071-0.61v-0.78c0-0.461-0.158-0.632-0.511-0.632h-0.27v2.022
					h-0.781v-4.966h1.177c0.809,0,1.156,0.377,1.156,1.142v0.391c0,0.511-0.163,0.844-0.51,1.007c0.391,0.164,0.52,0.539,0.52,1.057
					v0.767c0,0.241,0.004,0.418,0.085,0.603H61.586z M60.734,33.481v1.525h0.304c0.291,0,0.471-0.129,0.471-0.525v-0.489
					c0-0.356-0.121-0.511-0.399-0.511H60.734z"/>
				<path fill="#FFFFFF" d="M65.152,34.864h1.071v0.708h-1.071v1.456h1.346v0.709h-2.126v-4.966h2.126v0.71h-1.346V34.864z"/>
				<path fill="#FFFFFF" d="M69.326,34.864h1.072v0.708h-1.072v1.456h1.347v0.709h-2.125v-4.966h2.125v0.71h-1.347V34.864z"/>
				<path fill="#FFFFFF" d="M75.054,33.913v0.178c0,0.512-0.152,0.837-0.501,1c0.417,0.164,0.582,0.539,0.582,1.063v0.404
					c0,0.768-0.403,1.178-1.187,1.178h-1.225v-4.966h1.176C74.709,32.771,75.054,33.148,75.054,33.913z M73.502,33.481v1.312h0.304
					c0.291,0,0.471-0.129,0.471-0.523v-0.277c0-0.356-0.121-0.511-0.399-0.511H73.502z M73.502,35.503v1.525h0.446
					c0.264,0,0.405-0.121,0.405-0.489v-0.433c0-0.462-0.148-0.603-0.504-0.603H73.502z"/>
				<path fill="#FFFFFF" d="M77.17,32.771h0.779v4.966H77.17V32.771z"/>
				<path fill="#FFFFFF" d="M80.86,34.864h1.072v0.708H80.86v1.456h1.347v0.709H80.08v-4.966h2.127v0.71H80.86V34.864z"/>
			</g>
		</g>
		<g>
			<g>
				<path fill="#934A48" d="M58.463,104.513l0.597-4.053h0.717l-0.768,4.967h-1.164l-0.765-4.967h0.788L58.463,104.513z"/>
				<path fill="#934A48" d="M62.483,102.554h1.07v0.709h-1.07v1.455h1.346v0.709h-2.126v-4.967h2.126v0.712h-1.346V102.554z"/>
				<path fill="#934A48" d="M68.143,103.576v0.66c0,0.795-0.396,1.248-1.163,1.248c-0.766,0-1.165-0.453-1.165-1.248v-2.584
					c0-0.793,0.399-1.248,1.165-1.248c0.767,0,1.163,0.455,1.163,1.248v0.483h-0.737v-0.531c0-0.354-0.156-0.489-0.404-0.489
					s-0.406,0.135-0.406,0.489v2.681c0,0.355,0.158,0.484,0.406,0.484s0.404-0.129,0.404-0.484v-0.709H68.143z"/>
				<path fill="#934A48" d="M69.955,100.46h2.413v0.712h-0.816v4.255h-0.78v-4.255h-0.816V100.46z"/>
				<path fill="#934A48" d="M74.211,101.652c0-0.793,0.418-1.248,1.184-1.248c0.767,0,1.186,0.455,1.186,1.248v2.584
					c0,0.795-0.419,1.248-1.186,1.248c-0.766,0-1.184-0.453-1.184-1.248V101.652z M74.99,104.285c0,0.355,0.156,0.49,0.404,0.49
					c0.249,0,0.404-0.135,0.404-0.49v-2.681c0-0.354-0.155-0.489-0.404-0.489c-0.248,0-0.404,0.135-0.404,0.489V104.285z"/>
				<path fill="#934A48" d="M80.28,105.427c-0.042-0.127-0.071-0.206-0.071-0.609v-0.781c0-0.461-0.155-0.631-0.511-0.631h-0.27
					v2.021h-0.78v-4.967h1.178c0.809,0,1.155,0.377,1.155,1.144v0.391c0,0.51-0.162,0.843-0.511,1.007
					c0.393,0.164,0.521,0.539,0.521,1.057v0.767c0,0.241,0.006,0.418,0.084,0.603H80.28z M79.429,101.172v1.524h0.305
					c0.291,0,0.47-0.129,0.47-0.525v-0.489c0-0.355-0.121-0.51-0.398-0.51H79.429z"/>
			</g>
			<g>
				<path fill="#FFFFFF" d="M58.463,104.244l0.597-4.051h0.717l-0.768,4.967h-1.164l-0.765-4.967h0.788L58.463,104.244z"/>
				<path fill="#FFFFFF" d="M62.483,102.285h1.07v0.709h-1.07v1.455h1.346v0.711h-2.126v-4.967h2.126v0.709h-1.346V102.285z"/>
				<path fill="#FFFFFF" d="M68.143,103.307v0.661c0,0.793-0.396,1.247-1.163,1.247c-0.766,0-1.165-0.454-1.165-1.247v-2.584
					c0-0.795,0.399-1.248,1.165-1.248c0.767,0,1.163,0.453,1.163,1.248v0.482h-0.737v-0.532c0-0.354-0.156-0.489-0.404-0.489
					s-0.406,0.136-0.406,0.489v2.681c0,0.357,0.158,0.484,0.406,0.484s0.404-0.127,0.404-0.484v-0.708H68.143z"/>
				<path fill="#FFFFFF" d="M69.955,100.193h2.413v0.709h-0.816v4.258h-0.78v-4.258h-0.816V100.193z"/>
				<path fill="#FFFFFF" d="M74.211,101.384c0-0.795,0.418-1.248,1.184-1.248c0.767,0,1.186,0.453,1.186,1.248v2.584
					c0,0.793-0.419,1.247-1.186,1.247c-0.766,0-1.184-0.454-1.184-1.247V101.384z M74.99,104.015c0,0.357,0.156,0.492,0.404,0.492
					c0.249,0,0.404-0.135,0.404-0.492v-2.681c0-0.354-0.155-0.489-0.404-0.489c-0.248,0-0.404,0.136-0.404,0.489V104.015z"/>
				<path fill="#FFFFFF" d="M80.28,105.16c-0.042-0.129-0.071-0.207-0.071-0.611v-0.781c0-0.46-0.155-0.629-0.511-0.629h-0.27v2.021
					h-0.78v-4.967h1.178c0.809,0,1.155,0.377,1.155,1.142v0.391c0,0.51-0.162,0.845-0.511,1.007
					c0.393,0.163,0.521,0.539,0.521,1.059v0.764c0,0.243,0.006,0.419,0.084,0.605H80.28z M79.429,100.902v1.525h0.305
					c0.291,0,0.47-0.129,0.47-0.525v-0.489c0-0.355-0.121-0.511-0.398-0.511H79.429z"/>
			</g>
		</g>
	</g>
</g>
</svg>
