<?xml version="1.0" encoding="utf-8"?>
<!-- Generator: Adobe Illustrator 15.0.0, SVG Export Plug-In . SVG Version: 6.00 Build 0)  -->
<!DOCTYPE svg PUBLIC "-//W3C//DTD SVG 1.1//EN" "http://www.w3.org/Graphics/SVG/1.1/DTD/svg11.dtd">
<svg version="1.1" id="Ebene_1" xmlns="http://www.w3.org/2000/svg" xmlns:xlink="http://www.w3.org/1999/xlink" x="0px" y="0px"
	 height="154.929px" viewBox="0 0 219.316 154.929" enable-background="new 0 0 219.316 154.929"
	 xml:space="preserve">
<g>
	<g>
		<path fill-rule="evenodd" clip-rule="evenodd" fill="#504739" d="M63.548,71.144c-17.688-4.155-34.478-10.641-50.025-19.12
			l2.737,19.098L0,77.379c16.967,9.229,35.221,16.383,54.429,21.125L63.548,71.144L63.548,71.144z M155.766,71.144
			c17.688-4.155,34.476-10.641,50.024-19.12l-2.736,19.098l16.262,6.257c-16.969,9.229-35.227,16.383-54.429,21.125L155.766,71.144z
			"/>
		<path fill-rule="evenodd" clip-rule="evenodd" fill="#DDD6CC" d="M60.578,72.789c-15.311-3.795-30.131-9.378-44.138-16.615
			l2.354,16.435L5.537,77.709C20.6,85.477,36.503,91.536,52.923,95.754L60.578,72.789L60.578,72.789z M158.736,72.789l7.656,22.965
			c16.418-4.218,32.322-10.277,47.383-18.043l-13.255-5.103l2.354-16.437C188.863,63.411,174.046,68.994,158.736,72.789z"/>
		<path fill="#AEA38D" d="M59.839,73.194c-7.465-1.874-14.815-4.172-22.011-6.882c-7.046-2.652-13.947-5.699-20.666-9.123
			l2.198,15.34l0.063,0.448l-0.427,0.164L6.939,77.783c7.151,3.638,14.497,6.893,22,9.748c7.73,2.944,15.615,5.462,23.609,7.534
			L59.839,73.194L59.839,73.194z M38.232,65.239c7.346,2.765,14.856,5.102,22.482,6.996l0.602,0.148l-0.196,0.586l-7.655,22.964
			l-0.168,0.508l-0.518-0.133c-8.237-2.116-16.334-4.689-24.248-7.705C20.6,85.586,12.834,82.117,5.273,78.219l-1.135-0.586
			l1.193-0.457l12.83-4.938l-2.289-15.985l-0.158-1.102l0.988,0.512C23.688,59.272,30.879,62.47,38.232,65.239L38.232,65.239z
			 M159.473,73.194l7.294,21.872c7.994-2.072,15.879-4.591,23.611-7.534c7.5-2.855,14.846-6.11,21.997-9.748l-12.06-4.642
			l-0.426-0.164l0.062-0.448l2.199-15.341c-6.721,3.424-13.62,6.472-20.667,9.125C174.291,69.022,166.94,71.32,159.473,73.194
			L159.473,73.194z M165.849,95.933l-7.654-22.964l-0.199-0.586l0.605-0.148c7.627-1.894,15.136-4.229,22.481-6.996
			c7.351-2.768,14.54-5.967,21.53-9.575l0.986-0.512l-0.158,1.102l-2.287,15.985l12.826,4.938l1.194,0.457l-1.134,0.586
			c-7.561,3.898-15.326,7.367-23.258,10.384c-7.913,3.016-16.012,5.589-24.249,7.705l-0.518,0.133L165.849,95.933z"/>
	</g>
	<g>
		<path fill="#2C261E" d="M31.542,79.283l22.888,19.22l3.648-10.949l0.01-0.012C49.005,85.34,40.141,82.581,31.542,79.283z"/>
		<polygon fill="#2C261E" points="187.773,79.283 187.773,79.283 187.773,79.283 		"/>
		<path fill="#2C261E" d="M161.234,87.541l0.003,0.013l3.65,10.949l22.883-19.218C179.173,82.581,170.311,85.338,161.234,87.541z"/>
	</g>
	<g>
		<g>
			<path fill="#504739" d="M58.171,29.085h-4.738v98.189l56.224,27.654l56.224-27.654V24.346h-9.9l-0.536-0.753
				C144.872,8.777,127.878-0.004,109.657,0c-18.22-0.004-35.214,8.778-45.785,23.595l-0.539,0.751h-9.9v4.739H58.171v4.739h10.038
				l3.375-4.721C80.402,16.758,94.49,9.48,109.657,9.478c15.168,0.003,29.254,7.28,38.073,19.624l3.375,4.723h5.299v87.552
				l-46.747,22.991L62.91,121.376V29.085H58.171v4.739V29.085z"/>
		</g>
		<g>
			<path fill="#D9D9DA" d="M58.171,29.085h-2.154v96.581l53.64,26.382l53.639-26.382V26.931h-8.645l-1.311-1.836
				c-10.096-14.141-26.297-22.512-43.684-22.51c-17.386-0.002-33.588,8.37-43.682,22.51l-1.311,1.836h-8.646v2.154H58.171v2.154
				h8.708l2.601-3.639c9.298-13.02,24.177-20.707,40.177-20.708c16.002,0.001,30.879,7.688,40.177,20.707l2.601,3.641h6.554v91.745
				l-49.332,24.263l-49.332-24.263V29.085H58.171v2.154V29.085z"/>
		</g>
		<path fill-rule="evenodd" clip-rule="evenodd" fill="#0F7B99" d="M58.171,29.085v95.239l51.486,25.324l51.486-25.324V29.085
			h-7.601l-1.955-2.738c-9.696-13.58-25.234-21.609-41.93-21.609c-16.693,0-32.234,8.03-41.929,21.609l-1.957,2.738H58.171z"/>
		<radialGradient id="SVGID_1_" cx="109.6572" cy="77.0327" r="62.7456" gradientUnits="userSpaceOnUse">
			<stop  offset="0" style="stop-color:#FFFFFF"/>
			<stop  offset="1" style="stop-color:#12110B"/>
		</radialGradient>
		<path opacity="0.14" fill-rule="evenodd" clip-rule="evenodd" fill="url(#SVGID_1_)" d="M161.143,97.663L111.11,78.588
			l50.033,16.819v-2.686l-49.98-14.215l49.98,12.08v-2.564l-49.933-9.6l49.933,7.547v-2.491l-49.896-5.146l49.896,3.141v-2.451
			l-49.865-0.78l49.865-1.211v-2.454l-49.843,3.57l49.843-5.577v-2.493l-49.829,7.972l49.829-10.027v-2.565l-49.821,12.498
			l49.821-14.636v-2.692l-49.825,17.23l49.825-19.489v-2.865l-49.835,22.26l49.835-24.692V49.96l-49.856,27.706l49.856-30.372
			v-3.435l-49.882,33.715l49.882-36.699v-3.882l-49.917,40.492l49.917-43.909v-4.49h-0.005l-49.954,48.311l46.118-48.311h-3.76
			l-0.242-0.338l-42.167,48.568l40.618-50.74l-0.163-0.228c-0.587-0.824-1.199-1.625-1.829-2.406l-38.683,53.297l36.908-55.374
			c-0.749-0.835-1.518-1.648-2.313-2.428l-34.658,57.728l32.623-59.609c-0.852-0.749-1.719-1.474-2.615-2.163l-30.078,61.708
			l27.806-63.353c-0.943-0.646-1.904-1.269-2.887-1.85L110.863,77.04l22.519-66.515c-1.021-0.531-2.061-1.024-3.117-1.485
			l-19.482,67.946l16.839-69.02c-1.083-0.402-2.186-0.759-3.297-1.089l-13.626,70.062l10.857-70.805
			c-1.127-0.267-2.269-0.49-3.418-0.68l-7.527,71.448l4.678-71.843c-1.155-0.126-2.317-0.208-3.485-0.256l-1.284,72.064
			l-1.595-72.106c-1.173,0.017-2.338,0.078-3.497,0.171l4.995,71.916l-7.855-71.603c-1.156,0.16-2.302,0.361-3.439,0.599
			l11.201,70.986L96.336,6.506c-1.125,0.301-2.233,0.638-3.329,1.014l17.227,69.308L90.329,8.519
			c-1.072,0.433-2.127,0.903-3.166,1.407l22.973,66.902L84.644,11.239c-1.001,0.558-1.985,1.146-2.95,1.771l28.345,63.827
			L79.374,14.608c-0.918,0.667-1.815,1.365-2.69,2.095l33.261,60.154L74.596,18.55c-0.819,0.765-1.619,1.556-2.393,2.376
			l37.647,55.958L70.372,22.982c-0.714,0.844-1.404,1.712-2.069,2.608l41.456,51.332L66.712,27.77l-0.94,1.316h-2.199l46.1,47.877
			L59.737,29.085h-1.565v3.088l51.42,44.839l-51.42-41.344v3.967l51.343,37.435L58.171,42.689v3.515l51.269,30.93L58.171,48.931
			v3.18l51.201,25.094L58.171,54.599v2.933l51.14,19.75l-51.14-17.438v2.75l51.09,14.77L58.171,64.78v2.625l51.043,10.043
			l-51.043-7.941v2.543l51.005,5.483l-51.005-3.431v2.505l50.975,1.018l-50.975,1.019v2.953l50.945-3.87L58.171,83.65v2.545
			l50.933-8.375L58.171,88.298v2.63l50.925-13.01L58.171,93.117v2.758L109.1,78.016L58.171,98.191v2.937l50.939-23.019
			l-50.939,25.514v3.193l50.958-28.609l-50.958,31.348v3.528l50.986-34.785l-50.986,37.854v3.995l51.023-41.758l-51.023,45.275v0.66
			l2.703,1.33l48.363-47.178L63.408,126.9l3.002,1.477l42.878-49.819L68.82,129.562l2.879,1.416l37.646-52.344l-35.319,53.488
			l2.807,1.381l32.576-54.795L79.119,134.63l2.776,1.364l27.585-57.219l-25.307,58.339l2.791,1.371l22.593-59.649L89.27,139.621
			l2.844,1.399l17.524-62.13l-15.153,63.295l2.943,1.448l12.295-64.7l-9.817,65.918l3.103,1.526l6.805-67.403l-4.175,68.696
			l3.317,1.634l0.948-70.299l1.841,69.614l3.27-1.606l-5.017-67.984l7.61,66.708l3.062-1.506l-10.575-65.188l13.019,63.985
			l2.912-1.433l-15.834-62.547l18.18,61.393l2.813-1.384l-20.899-60.013l23.182,58.891l2.767-1.361l-25.851-57.543l28.111,56.432
			l2.755-1.354L110.48,79.016l33.042,53.976l2.794-1.372l-35.742-52.635l38.057,51.494l2.867-1.411l-40.833-50.116l43.235,48.937
			l2.995-1.474l-46.142-47.506l48.67,46.263l1.72-0.847v-1.978l-50.31-43.489l50.31,40.094v-3.861l-50.232-36.293l50.232,33.323
			v-3.423l-50.159-29.965l50.159,27.311v-3.098l-50.094-24.283l50.094,21.858V97.663z"/>
	</g>
	<g>
		<g>
			<rect x="72.546" y="33.404" fill="#504739" width="74.223" height="0.944"/>
			<rect x="72.546" y="121.205" fill="#504739" width="74.223" height="0.943"/>
			<path fill="#504739" d="M92.125,54.356l-0.185-12.71c-0.27-0.02-0.539-0.041-0.828-0.041c-3.451,0-7.252,2.625-7.252,5.374
				c0,1.488,0.784,2.005,2.211,2.005c-0.022-0.186-0.29-0.352-0.29-1.405c0-2.273,0.991-3.885,3.245-4.588v14.116h3.142
				l5.744-15.397h-1.446L92.125,54.356z"/>
			<path fill="#504739" d="M104.037,48.57c0-1.033-0.434-1.984-2.273-1.984c-4.236,0-5.58,4.979-5.58,7.357
				c0,2.335,1.282,3.286,3.224,3.286c2.117,0,3.641-1.142,4.769-2.533c0.256,1.786,1.454,2.533,3.17,2.533
				c2.161,0,3.704-1.191,4.839-2.624c0,0.043-0.018,0.102-0.018,0.143c0,1.736,0.971,2.48,2.211,2.48
				c0.857,0,2.26-0.282,3.398-1.931c0.452,1.336,1.609,1.89,3.094,1.89c2.543,0,4.61-2.397,4.939-6.221
				c0.619-0.102,1.201-0.28,1.742-0.497l-1.407,6.636h2.978l1.652-7.854c0.517-0.476,0.889-0.786,1.509-0.786
				s0.04,1.364,1.198,1.364c1.014,0,1.488-0.785,1.488-1.508c0-0.786-0.494-1.55-1.426-1.55c-0.992,0-1.776,0.661-2.5,1.281
				l0.27-1.281h-2.978l-0.584,2.756c-0.579,0.241-1.166,0.405-1.653,0.405c-0.062,0-0.145,0-0.227-0.042
				c0-2.169-0.867-3.306-2.645-3.306c-4.258,0-5.664,4.96-5.664,7.336c0,0.046,0.009,0.083,0.012,0.129
				c-0.377,0.695-0.959,1.173-1.584,1.173c-0.579,0-0.849-0.187-0.849-0.765c0-0.186,0.022-0.393,0.083-0.661l1.322-6.201h1.24
				l0.167-0.826h-1.241l0.703-3.266l-3.059,0.414l-0.621,2.852h-0.682l-0.165,0.826h0.683l-1.24,5.808h-0.006
				c-1.033,1.178-2.026,2.088-3.658,2.088c-0.991,0-1.488-0.331-1.488-1.736c0-2.294,1.343-6.075,2.646-6.075
				c0.392,0,0.579,0.33,0.579,0.847c0,0.35-0.083,0.764-0.249,1.219c0.249,0.165,0.497,0.248,0.724,0.248
				c0.599,0,1.095-0.497,1.095-1.51c0-0.949-0.455-1.9-2.294-1.9c-4.048,0-5.457,4.614-5.552,7.091
				c-0.945,1.036-1.902,1.816-3.4,1.816c-0.991,0-1.488-0.331-1.488-1.736c0-0.248,0.021-0.537,0.042-0.827
				C101.763,52.786,104.037,50.946,104.037,48.57z M101.929,47.682c0.393,0,0.517,0.33,0.517,0.847c0,1.715-1.407,3.306-2.997,3.41
				C99.862,49.892,100.875,47.682,101.929,47.682z M123.392,47.847c0.539,0,0.746,0.33,0.785,1.198
				c-0.371,0.165-0.641,0.537-0.641,1.116c0,0.413,0.125,0.765,0.559,0.869c-0.331,2.438-1.385,4.298-2.397,4.298
				c-0.784,0-1.054-0.311-1.054-1.674C120.644,51.628,121.925,47.847,123.392,47.847z"/>
			<path fill="#504739" d="M85.234,103.263c-0.02-0.185-0.289-0.351-0.289-1.404c0-3.41,2.748-5.021,5.166-5.021
				c1.964,0,2.728,1.054,2.728,2.231c0,1.55-1.323,3.348-2.976,3.348h-0.125l0.971-4.588l-3.058,0.413l-2.812,13.145h2.977
				l1.695-7.915c0.372-0.043,0.786-0.062,0.951-0.062c1.507,0,1.963,1.178,1.963,2.624c0,1.572-0.539,3.721-2.046,3.721
				c-0.477,0-0.868-0.207-1.385-0.743c-0.187,0.476-0.27,0.867-0.27,1.197c0,1.262,1.158,1.531,2.047,1.531
				c3.451,0,4.526-3.969,4.526-5.953c0-1.551-0.683-2.977-2.438-3.327c1.343-0.765,2.066-2.066,2.066-3.287
				c0-1.695-1.365-3.286-4.402-3.286c-3.906,0-7.502,2.626-7.502,5.477C83.023,102.747,83.87,103.263,85.234,103.263z"/>
			<path fill="#504739" d="M135.81,102.851c0-1.033-0.434-1.984-2.274-1.984c-4.237,0-5.579,4.98-5.579,7.357
				c0,0.065,0.012,0.12,0.014,0.184c-0.549,1.271-1.262,1.847-2.335,2.234l2.047-9.589h-2.976l-0.229,1.074v-0.124
				c0-0.601-0.494-1.055-1.674-1.055c-3.596,0-5.312,4.444-5.312,7.234c0,0.057,0.01,0.101,0.011,0.154
				c-0.327,0.693-0.797,1.168-1.422,1.168c-0.578,0-0.848-0.187-0.848-0.765c0-0.185,0.021-0.394,0.082-0.66l2.379-11.162
				l-3.061,0.414l-1.012,4.754v-0.083c0-0.601-0.495-1.055-1.674-1.055c-3.595,0-5.312,4.444-5.312,7.234
				c0,0.062,0.01,0.112,0.011,0.171c-0.326,0.726-0.797,1.275-1.421,1.275c-0.579,0-0.847-0.311-0.847-0.889
				c0-0.185,0.02-0.394,0.083-0.66l1.488-7.027h-2.975l-0.229,1.095v-0.145c0-0.601-0.495-1.055-1.673-1.055
				c-3.596,0-5.312,4.444-5.312,7.234c0,2.459,1.345,3.325,2.75,3.325c1.467,0,2.438-0.948,3.079-1.898
				c0.124,1.238,0.867,1.898,2.025,1.898c0.852,0,2.138-0.275,3.223-1.9c0.421,1.372,1.462,1.9,2.549,1.9
				c1.468,0,2.439-0.948,3.058-1.898c0.167,1.156,0.911,1.776,2.026,1.776c0.852,0,2.134-0.205,3.219-1.792
				c0.418,1.381,1.463,1.914,2.553,1.914c1.074,0,1.881-0.493,2.479-1.136l-0.247,1.097c-1.551,0.476-3.369,1.342-3.369,3.079
				c0,1.343,1.055,2.005,2.314,2.005c1.363,0,3.101-0.559,3.719-3.515l0.312-1.487c0.887-0.242,1.91-0.712,2.725-1.875
				c0.44,1.284,1.525,1.832,2.984,1.832c1.653,0,3.141-0.702,3.574-3.057c-0.662,0.579-1.652,1.095-2.438,1.095
				c-0.724,0-1.281-0.412-1.281-1.714c0-0.188,0.021-0.416,0.041-0.621C133.536,107.065,135.81,105.248,135.81,102.851z
				 M133.701,101.961c0.394,0,0.518,0.331,0.518,0.848c0,1.736-1.405,3.327-3.018,3.41
				C131.634,104.255,132.667,101.961,133.701,101.961z M101.568,107.687c-0.248,1.199-1.117,1.818-1.715,1.818
				c-0.372,0-1.034-0.02-1.034-1.612c0-1.942,1.136-5.662,2.894-5.662c0.661,0,0.848,0.537,0.848,0.784L101.568,107.687z
				 M112.423,107.687v0.103c-0.269,1.137-1.115,1.716-1.694,1.716c-0.373,0-1.034-0.02-1.034-1.612c0-1.942,1.136-5.662,2.893-5.662
				c0.621,0,0.806,0.476,0.849,0.722L112.423,107.687z M122.144,113.102c-0.27,1.219-0.766,1.838-1.2,1.838
				c-0.454,0-0.702-0.392-0.702-0.682c0-0.826,0.971-1.364,2.025-1.756L122.144,113.102z M123.239,107.893
				c-0.289,1.055-1.095,1.612-1.653,1.612c-0.373,0-1.034-0.02-1.034-1.612c0-1.942,1.136-5.662,2.894-5.662
				c0.661,0,0.828,0.537,0.848,0.765L123.239,107.893z"/>
			<polygon fill="#504739" points="109.504,28.287 111.217,27.387 112.933,28.287 112.607,26.379 113.991,25.027 112.076,24.749 
				111.217,23.012 110.362,24.749 108.444,25.027 109.831,26.379 			"/>
			<polygon fill="#504739" points="98.381,28.287 100.096,27.387 101.811,28.287 101.483,26.379 102.869,25.027 100.952,24.749 
				100.096,23.012 99.239,24.749 97.322,25.027 98.707,26.379 			"/>
			<polygon fill="#504739" points="120.625,28.287 122.339,27.387 124.055,28.287 123.728,26.379 125.113,25.027 123.197,24.749 
				122.339,23.012 121.484,24.749 119.568,25.027 120.953,26.379 			"/>
			<polygon fill="#504739" points="112.076,129.002 111.217,127.266 110.362,129.002 108.444,129.28 109.831,130.632 
				109.504,132.54 111.217,131.641 112.933,132.54 112.607,130.632 113.991,129.28 			"/>
			<polygon fill="#504739" points="100.952,129.002 100.096,127.266 99.239,129.002 97.322,129.28 98.707,130.632 98.381,132.54 
				100.096,131.641 101.811,132.54 101.483,130.632 102.869,129.28 			"/>
			<polygon fill="#504739" points="123.197,129.002 122.339,127.266 121.484,129.002 119.568,129.28 120.953,130.632 
				120.625,132.54 122.339,131.641 124.055,132.54 123.728,130.632 125.113,129.28 			"/>
		</g>
		<g>
			<rect x="72.546" y="32.758" fill="#DDD6CC" width="74.223" height="0.944"/>
			<rect x="72.546" y="120.558" fill="#DDD6CC" width="74.223" height="0.945"/>
			<path fill="#DDD6CC" d="M92.125,53.71L91.94,41c-0.27-0.02-0.539-0.042-0.828-0.042c-3.451,0-7.252,2.625-7.252,5.374
				c0,1.488,0.784,2.005,2.211,2.005c-0.022-0.187-0.29-0.352-0.29-1.405c0-2.274,0.991-3.886,3.245-4.588v14.116h3.142
				l5.744-15.397h-1.446L92.125,53.71z"/>
			<path fill="#DDD6CC" d="M104.037,47.924c0-1.034-0.434-1.984-2.273-1.984c-4.236,0-5.58,4.98-5.58,7.357
				c0,2.336,1.282,3.286,3.224,3.286c2.117,0,3.641-1.142,4.769-2.533c0.256,1.787,1.454,2.533,3.17,2.533
				c2.161,0,3.704-1.192,4.839-2.623c0,0.043-0.018,0.101-0.018,0.143c0,1.735,0.971,2.48,2.211,2.48
				c0.857,0,2.26-0.283,3.398-1.931c0.452,1.336,1.609,1.889,3.094,1.889c2.543,0,4.61-2.397,4.939-6.22
				c0.619-0.102,1.201-0.28,1.742-0.498l-1.407,6.636h2.978l1.652-7.854c0.517-0.475,0.889-0.785,1.509-0.785
				s0.04,1.364,1.198,1.364c1.014,0,1.488-0.785,1.488-1.509c0-0.785-0.494-1.55-1.426-1.55c-0.992,0-1.776,0.662-2.5,1.282
				l0.27-1.282h-2.978l-0.584,2.757c-0.579,0.242-1.166,0.405-1.653,0.405c-0.062,0-0.145,0-0.227-0.041
				c0-2.17-0.867-3.307-2.645-3.307c-4.258,0-5.664,4.959-5.664,7.335c0,0.047,0.009,0.083,0.012,0.129
				c-0.377,0.695-0.959,1.174-1.584,1.174c-0.579,0-0.849-0.186-0.849-0.765c0-0.186,0.022-0.393,0.083-0.662l1.322-6.2h1.24
				l0.167-0.827h-1.241l0.703-3.265l-3.059,0.413l-0.621,2.852h-0.682l-0.165,0.827h0.683l-1.24,5.807h-0.006
				c-1.033,1.178-2.026,2.088-3.658,2.088c-0.991,0-1.488-0.331-1.488-1.736c0-2.295,1.343-6.076,2.646-6.076
				c0.392,0,0.579,0.33,0.579,0.848c0,0.35-0.083,0.763-0.249,1.219c0.249,0.165,0.497,0.247,0.724,0.247
				c0.599,0,1.095-0.495,1.095-1.508c0-0.951-0.455-1.901-2.294-1.901c-4.048,0-5.457,4.614-5.552,7.091
				c-0.945,1.036-1.902,1.816-3.4,1.816c-0.991,0-1.488-0.331-1.488-1.736c0-0.248,0.021-0.537,0.042-0.828
				C101.763,52.139,104.037,50.299,104.037,47.924z M101.929,47.035c0.393,0,0.517,0.33,0.517,0.848
				c0,1.714-1.407,3.307-2.997,3.409C99.862,49.247,100.875,47.035,101.929,47.035z M123.392,47.2c0.539,0,0.746,0.331,0.785,1.2
				c-0.371,0.165-0.641,0.537-0.641,1.115c0,0.413,0.125,0.765,0.559,0.869c-0.331,2.438-1.385,4.298-2.397,4.298
				c-0.784,0-1.054-0.311-1.054-1.675C120.644,50.981,121.925,47.2,123.392,47.2z"/>
			<path fill="#DDD6CC" d="M85.234,102.617c-0.02-0.187-0.289-0.352-0.289-1.405c0-3.41,2.748-5.022,5.166-5.022
				c1.964,0,2.728,1.055,2.728,2.232c0,1.55-1.323,3.349-2.976,3.349h-0.125l0.971-4.589l-3.058,0.413l-2.812,13.144h2.977
				l1.695-7.914c0.372-0.042,0.786-0.062,0.951-0.062c1.507,0,1.963,1.178,1.963,2.625c0,1.57-0.539,3.72-2.046,3.72
				c-0.477,0-0.868-0.206-1.385-0.745c-0.187,0.476-0.27,0.869-0.27,1.199c0,1.26,1.158,1.529,2.047,1.529
				c3.451,0,4.526-3.967,4.526-5.951c0-1.551-0.683-2.976-2.438-3.327c1.343-0.765,2.066-2.066,2.066-3.286
				c0-1.695-1.365-3.286-4.402-3.286c-3.906,0-7.502,2.625-7.502,5.477C83.023,102.101,83.87,102.617,85.234,102.617z"/>
			<path fill="#DDD6CC" d="M135.81,102.204c0-1.033-0.434-1.984-2.274-1.984c-4.237,0-5.579,4.98-5.579,7.357
				c0,0.066,0.012,0.12,0.014,0.184c-0.549,1.273-1.262,1.847-2.335,2.234l2.047-9.589h-2.976l-0.229,1.075v-0.125
				c0-0.6-0.494-1.054-1.674-1.054c-3.596,0-5.312,4.443-5.312,7.233c0,0.056,0.01,0.102,0.011,0.156
				c-0.327,0.69-0.797,1.166-1.422,1.166c-0.578,0-0.848-0.185-0.848-0.764c0-0.188,0.021-0.394,0.082-0.663l2.379-11.159
				l-3.061,0.414l-1.012,4.752v-0.082c0-0.6-0.495-1.054-1.674-1.054c-3.595,0-5.312,4.443-5.312,7.233
				c0,0.062,0.01,0.112,0.011,0.171c-0.326,0.728-0.797,1.275-1.421,1.275c-0.579,0-0.847-0.309-0.847-0.888
				c0-0.188,0.02-0.394,0.083-0.663l1.488-7.025h-2.975l-0.229,1.096v-0.146c0-0.6-0.495-1.054-1.673-1.054
				c-3.596,0-5.312,4.443-5.312,7.233c0,2.459,1.345,3.327,2.75,3.327c1.467,0,2.438-0.951,3.079-1.9
				c0.124,1.239,0.867,1.9,2.025,1.9c0.852,0,2.138-0.276,3.223-1.902c0.421,1.372,1.462,1.902,2.549,1.902
				c1.468,0,2.439-0.951,3.058-1.9c0.167,1.156,0.911,1.775,2.026,1.775c0.852,0,2.134-0.202,3.219-1.791
				c0.418,1.383,1.463,1.916,2.553,1.916c1.074,0,1.881-0.497,2.479-1.136l-0.247,1.093c-1.551,0.476-3.369,1.346-3.369,3.08
				c0,1.345,1.055,2.006,2.314,2.006c1.363,0,3.101-0.558,3.719-3.514l0.312-1.489c0.887-0.243,1.91-0.711,2.725-1.873
				c0.44,1.281,1.525,1.833,2.984,1.833c1.653,0,3.141-0.703,3.574-3.059c-0.662,0.578-1.652,1.096-2.438,1.096
				c-0.724,0-1.281-0.413-1.281-1.716c0-0.187,0.021-0.413,0.041-0.62C133.536,106.419,135.81,104.602,135.81,102.204z
				 M133.701,101.316c0.394,0,0.518,0.33,0.518,0.847c0,1.735-1.405,3.327-3.018,3.41
				C131.634,103.609,132.667,101.316,133.701,101.316z M101.568,107.04c-0.248,1.199-1.117,1.818-1.715,1.818
				c-0.372,0-1.034-0.021-1.034-1.611c0-1.943,1.136-5.663,2.894-5.663c0.661,0,0.848,0.536,0.848,0.785L101.568,107.04z
				 M112.423,107.04v0.103c-0.269,1.138-1.115,1.716-1.694,1.716c-0.373,0-1.034-0.021-1.034-1.611c0-1.943,1.136-5.663,2.893-5.663
				c0.621,0,0.806,0.476,0.849,0.723L112.423,107.04z M122.144,112.455c-0.27,1.219-0.766,1.84-1.2,1.84
				c-0.454,0-0.702-0.395-0.702-0.684c0-0.825,0.971-1.364,2.025-1.756L122.144,112.455z M123.239,107.247
				c-0.289,1.054-1.095,1.611-1.653,1.611c-0.373,0-1.034-0.021-1.034-1.611c0-1.943,1.136-5.663,2.894-5.663
				c0.661,0,0.828,0.536,0.848,0.765L123.239,107.247z"/>
			<polygon fill="#DDD6CC" points="109.504,27.642 111.217,26.741 112.933,27.642 112.607,25.733 113.991,24.381 112.076,24.103 
				111.217,22.366 110.362,24.103 108.444,24.381 109.831,25.733 			"/>
			<polygon fill="#DDD6CC" points="98.381,27.642 100.096,26.741 101.811,27.642 101.483,25.733 102.869,24.381 100.952,24.103 
				100.096,22.366 99.239,24.103 97.322,24.381 98.707,25.733 			"/>
			<polygon fill="#DDD6CC" points="120.625,27.642 122.339,26.741 124.055,27.642 123.728,25.733 125.113,24.381 123.197,24.103 
				122.339,22.366 121.484,24.103 119.568,24.381 120.953,25.733 			"/>
			<polygon fill="#DDD6CC" points="112.076,128.355 111.217,126.619 110.362,128.355 108.444,128.634 109.831,129.986 
				109.504,131.895 111.217,130.994 112.933,131.895 112.607,129.986 113.991,128.634 			"/>
			<polygon fill="#DDD6CC" points="100.952,128.355 100.096,126.619 99.239,128.355 97.322,128.634 98.707,129.986 98.381,131.895 
				100.096,130.994 101.811,131.895 101.483,129.986 102.869,128.634 			"/>
			<polygon fill="#DDD6CC" points="123.197,128.355 122.339,126.619 121.484,128.355 119.568,128.634 120.953,129.986 
				120.625,131.895 122.339,130.994 124.055,131.895 123.728,129.986 125.113,128.634 			"/>
		</g>
	</g>
	<g>
		<g>
			<path fill-rule="evenodd" clip-rule="evenodd" fill="#504739" d="M109.657,64.966c-22.639,0-44.345-3.976-64.475-11.256
				L31.542,79.283c24.257,9.301,50.59,14.413,78.116,14.413c27.524-0.002,53.856-5.112,78.116-14.411l-13.639-25.576
				C154.003,60.99,132.296,64.968,109.657,64.966z"/>
			<path fill-rule="evenodd" clip-rule="evenodd" fill="#DDD6CC" d="M46.278,56.54L34.801,78.055
				c23.977,8.863,49.278,13.343,74.856,13.343c25.579,0,50.879-4.479,74.854-13.343L173.037,56.54
				c-20.377,7.128-41.777,10.725-63.379,10.725C88.057,67.265,66.657,63.671,46.278,56.54z"/>
			<path fill="#AEA38D" d="M46.551,57.243l-10.934,20.5c11.743,4.3,23.801,7.549,36.05,9.729c12.506,2.231,25.212,3.351,37.99,3.351
				v0.002c12.77,0,25.478-1.121,37.99-3.353c12.249-2.181,24.308-5.43,36.048-9.728l-10.932-20.501
				c-10.055,3.489-20.357,6.123-30.809,7.887c-10.65,1.804-21.451,2.71-32.297,2.71v-0.002c-10.854,0-21.658-0.904-32.302-2.708
				C66.909,63.363,56.606,60.731,46.551,57.243L46.551,57.243z M34.296,77.785l11.477-21.515l0.231-0.434l0.462,0.161
				C56.605,59.544,67,62.215,77.544,64c10.59,1.792,21.329,2.691,32.113,2.691l0,0c10.793,0,21.53-0.899,32.11-2.691
				c10.547-1.783,20.941-4.456,31.082-8.002l0.463-0.161l0.229,0.434l11.476,21.515l0.31,0.581l-0.618,0.228
				c-12,4.435-24.334,7.776-36.863,10.009c-12.565,2.239-25.338,3.367-38.188,3.368l0,0c-12.839,0-25.613-1.126-38.185-3.368
				c-12.533-2.232-24.866-5.574-36.867-10.009l-0.619-0.229L34.296,77.785z"/>
		</g>
		<g>
			<g>
				<path fill="#AEA38D" d="M56.805,75.65l-0.615-8.387l1.935,0.422l0.239,5.678l2.589-5.059l1.767,0.386l-4.062,7.364l-0.854,3.904
					l-1.85-0.404L56.805,75.65z"/>
				<path fill="#AEA38D" d="M64.049,71.893c0.349-1.9,1.547-2.802,3.38-2.468c1.831,0.336,2.633,1.604,2.285,3.504l-1.129,6.174
					c-0.347,1.898-1.547,2.801-3.378,2.465c-1.833-0.334-2.634-1.603-2.287-3.502L64.049,71.893z M64.766,78.525
					c-0.156,0.849,0.158,1.239,0.751,1.348c0.595,0.109,1.027-0.145,1.181-0.994l1.173-6.41c0.156-0.849-0.16-1.239-0.753-1.347
					c-0.593-0.109-1.025,0.146-1.18,0.994L64.766,78.525z"/>
				<path fill="#AEA38D" d="M74.776,70.817l-1.377,9.202c-0.127,0.851,0.2,1.213,0.798,1.303c0.596,0.09,1.017-0.16,1.145-1.014
					l1.377-9.2l1.772,0.265l-1.36,9.082c-0.284,1.909-1.401,2.856-3.242,2.58c-1.84-0.275-2.63-1.509-2.347-3.416l1.36-9.083
					L74.776,70.817z"/>
				<path fill="#AEA38D" d="M80.77,71.673l5.819,0.68l-0.201,1.712l-1.967-0.23l-1.2,10.27l-1.882-0.219l1.199-10.271l-1.968-0.229
					L80.77,71.673z"/>
				<path fill="#AEA38D" d="M89.874,84.775l-1.888-0.155L88.98,72.6l1.888,0.157l-0.425,5.151l2.146,0.178l0.425-5.151l1.923,0.158
					l-0.993,12.019l-1.923-0.158l0.426-5.15l-2.146-0.179L89.874,84.775z"/>
				<path fill="#AEA38D" d="M99.483,78.445l2.6,0.126L102,80.294l-2.601-0.128l-0.173,3.531l3.273,0.16l-0.085,1.723l-5.167-0.253
					l0.589-12.056l5.168,0.252l-0.084,1.722l-3.272-0.159L99.483,78.445z"/>
				<path fill="#AEA38D" d="M105.756,73.624l2.997,0.042c1.894,0.026,2.809,1.089,2.784,3.018l-0.084,6.097
					c-0.026,1.929-0.971,2.967-2.866,2.94l-2.997-0.041L105.756,73.624z M107.628,75.373l-0.12,8.61l1.068,0.016
					c0.603,0.009,0.968-0.297,0.979-1.158l0.087-6.269c0.012-0.861-0.347-1.177-0.949-1.186L107.628,75.373z"/>
				<path fill="#AEA38D" d="M116.296,78.707l2.6-0.062l0.042,1.723l-2.601,0.062l0.086,3.531l3.273-0.08l0.043,1.723l-5.169,0.127
					l-0.294-12.056l5.168-0.127l0.041,1.723l-3.271,0.08L116.296,78.707z"/>
				<path fill="#AEA38D" d="M124.722,73.137c1.841-0.111,2.854,0.931,2.971,2.857l0.024,0.377l-1.788,0.109l-0.031-0.498
					c-0.053-0.859-0.417-1.165-1.019-1.129c-0.602,0.037-0.925,0.385-0.872,1.244c0.15,2.477,3.876,2.715,4.087,6.154
					c0.118,1.926-0.778,3.086-2.636,3.199s-2.888-0.929-3.006-2.855l-0.045-0.738l1.789-0.109l0.053,0.859
					c0.052,0.861,0.448,1.146,1.051,1.109c0.602-0.036,0.961-0.369,0.909-1.229c-0.151-2.477-3.878-2.715-4.087-6.154
					C122.003,74.408,122.882,73.25,124.722,73.137z"/>
				<path fill="#AEA38D" d="M130.145,72.874l1.888-0.176l1.121,11.999l-1.885,0.177L130.145,72.874z"/>
				<path fill="#AEA38D" d="M138.427,77.329l2.633-0.341l0.491,3.795c0.247,1.914-0.568,3.131-2.415,3.37
					c-1.846,0.239-2.945-0.731-3.191-2.646l-0.803-6.222c-0.248-1.913,0.566-3.131,2.413-3.369c1.846-0.239,2.944,0.73,3.192,2.645
					l0.148,1.163l-1.775,0.229l-0.168-1.281c-0.109-0.854-0.527-1.131-1.125-1.053c-0.6,0.077-0.934,0.451-0.821,1.305l0.834,6.461
					c0.11,0.854,0.526,1.112,1.124,1.035s0.936-0.433,0.825-1.287l-0.286-2.205l-0.855,0.11L138.427,77.329z"/>
				<path fill="#AEA38D" d="M145.339,74.273l1.52,8.598l-1.68,0.297l-2.099-11.871l2.341-0.415l3.172,6.768l-1.254-7.106L149,70.25
					l2.099,11.873l-1.917,0.338L145.339,74.273z"/>
				<path fill="#AEA38D" d="M154.752,74.209l2.538-0.576l0.381,1.681l-2.536,0.575l0.78,3.443l3.192-0.725l0.382,1.681l-5.041,1.145
					l-2.669-11.761l5.041-1.145l0.38,1.681l-3.191,0.724L154.752,74.209z"/>
				<path fill="#AEA38D" d="M166.445,78.424c-0.184-0.271-0.301-0.436-0.565-1.381l-0.513-1.824
					c-0.302-1.08-0.779-1.375-1.609-1.143l-0.629,0.176l1.326,4.73l-1.826,0.512l-3.258-11.614l2.755-0.773
					c1.892-0.53,2.952,0.121,3.453,1.913l0.257,0.912c0.335,1.195,0.172,2.082-0.535,2.691c1.02,0.126,1.565,0.921,1.905,2.133
					l0.503,1.791c0.159,0.564,0.291,0.975,0.594,1.355L166.445,78.424z M161.663,69.027l1,3.567l0.713-0.2
					c0.681-0.19,1.012-0.605,0.751-1.534l-0.322-1.146c-0.231-0.829-0.615-1.115-1.263-0.934L161.663,69.027z"/>
			</g>
			<g>
				<path fill="#FFFFFF" d="M56.805,74.9l-0.615-8.388l1.935,0.423l0.239,5.677l2.589-5.059l1.767,0.386l-4.062,7.364l-0.854,3.904
					l-1.85-0.405L56.805,74.9z"/>
				<path fill="#FFFFFF" d="M64.049,71.142c0.349-1.899,1.547-2.801,3.38-2.466c1.831,0.336,2.633,1.604,2.285,3.503l-1.129,6.173
					c-0.347,1.899-1.547,2.803-3.378,2.467c-1.833-0.335-2.634-1.604-2.287-3.503L64.049,71.142z M64.766,77.775
					c-0.156,0.848,0.158,1.238,0.751,1.348c0.595,0.108,1.027-0.146,1.181-0.994l1.173-6.411c0.156-0.849-0.16-1.238-0.753-1.347
					c-0.593-0.108-1.025,0.146-1.18,0.994L64.766,77.775z"/>
				<path fill="#FFFFFF" d="M74.776,70.067l-1.377,9.2c-0.127,0.852,0.2,1.215,0.798,1.305c0.596,0.089,1.017-0.161,1.145-1.014
					l1.377-9.201l1.772,0.266l-1.36,9.082c-0.284,1.908-1.401,2.855-3.242,2.58c-1.84-0.275-2.63-1.509-2.347-3.417l1.36-9.082
					L74.776,70.067z"/>
				<path fill="#FFFFFF" d="M80.77,70.922l5.819,0.681l-0.201,1.711l-1.967-0.229l-1.2,10.27l-1.882-0.219l1.199-10.271
					l-1.968-0.229L80.77,70.922z"/>
				<path fill="#FFFFFF" d="M89.874,84.024l-1.888-0.155L88.98,71.85l1.888,0.157l-0.425,5.149l2.146,0.179l0.425-5.151l1.923,0.159
					l-0.993,12.019l-1.923-0.158l0.426-5.151l-2.146-0.179L89.874,84.024z"/>
				<path fill="#FFFFFF" d="M99.483,77.693l2.6,0.128L102,79.544l-2.601-0.128l-0.173,3.531l3.273,0.16l-0.085,1.722l-5.167-0.253
					l0.589-12.055l5.168,0.252l-0.084,1.723l-3.272-0.16L99.483,77.693z"/>
				<path fill="#FFFFFF" d="M105.756,72.874l2.997,0.042c1.894,0.025,2.809,1.089,2.784,3.018l-0.084,6.096
					c-0.026,1.931-0.971,2.968-2.866,2.941l-2.997-0.041L105.756,72.874z M107.628,74.622l-0.12,8.61l1.068,0.016
					c0.603,0.009,0.968-0.297,0.979-1.158l0.087-6.269c0.012-0.86-0.347-1.177-0.949-1.185L107.628,74.622z"/>
				<path fill="#FFFFFF" d="M116.296,77.957l2.6-0.062l0.042,1.722l-2.601,0.063l0.086,3.53l3.273-0.079l0.043,1.722l-5.169,0.126
					l-0.294-12.055l5.168-0.126l0.041,1.722l-3.271,0.08L116.296,77.957z"/>
				<path fill="#FFFFFF" d="M124.722,72.387c1.841-0.112,2.854,0.931,2.971,2.856l0.024,0.378l-1.788,0.109l-0.031-0.498
					c-0.053-0.86-0.417-1.166-1.019-1.129c-0.602,0.037-0.925,0.384-0.872,1.245c0.15,2.477,3.876,2.714,4.087,6.154
					c0.118,1.926-0.778,3.085-2.636,3.198s-2.888-0.928-3.006-2.854l-0.045-0.74l1.789-0.108l0.053,0.859
					c0.052,0.859,0.448,1.146,1.051,1.109c0.602-0.037,0.961-0.371,0.909-1.229c-0.151-2.477-3.878-2.715-4.087-6.153
					C122.003,73.658,122.882,72.5,124.722,72.387z"/>
				<path fill="#FFFFFF" d="M130.145,72.123l1.888-0.175l1.121,12l-1.885,0.176L130.145,72.123z"/>
				<path fill="#FFFFFF" d="M138.427,76.578l2.633-0.34l0.491,3.794c0.247,1.915-0.568,3.132-2.415,3.37
					c-1.846,0.239-2.945-0.732-3.191-2.646l-0.803-6.222c-0.248-1.914,0.566-3.131,2.413-3.37c1.846-0.239,2.944,0.731,3.192,2.646
					l0.148,1.164l-1.775,0.229l-0.168-1.282c-0.109-0.854-0.527-1.131-1.125-1.054c-0.6,0.079-0.934,0.451-0.821,1.306l0.834,6.461
					c0.11,0.854,0.526,1.113,1.124,1.036c0.598-0.078,0.936-0.434,0.825-1.288l-0.286-2.205l-0.855,0.11L138.427,76.578z"/>
				<path fill="#FFFFFF" d="M145.339,73.522l1.52,8.599l-1.68,0.297l-2.099-11.871l2.341-0.415l3.172,6.767l-1.254-7.105L149,69.5
					l2.099,11.872l-1.917,0.339L145.339,73.522z"/>
				<path fill="#FFFFFF" d="M154.752,73.458l2.538-0.576l0.381,1.68l-2.536,0.576l0.78,3.444l3.192-0.726l0.382,1.682l-5.041,1.144
					l-2.669-11.761l5.041-1.145l0.38,1.681l-3.191,0.724L154.752,73.458z"/>
				<path fill="#FFFFFF" d="M166.445,77.674c-0.184-0.271-0.301-0.436-0.565-1.382l-0.513-1.824
					c-0.302-1.079-0.779-1.375-1.609-1.142l-0.629,0.176l1.326,4.729l-1.826,0.513l-3.258-11.614l2.755-0.773
					c1.892-0.53,2.952,0.121,3.453,1.913l0.257,0.913c0.335,1.195,0.172,2.081-0.535,2.691c1.02,0.126,1.565,0.922,1.905,2.133
					l0.503,1.792c0.159,0.564,0.291,0.975,0.594,1.354L166.445,77.674z M161.663,68.276l1,3.567l0.713-0.201
					c0.681-0.191,1.012-0.606,0.751-1.534l-0.322-1.146c-0.231-0.829-0.615-1.115-1.263-0.934L161.663,68.276z"/>
			</g>
		</g>
	</g>
</g>
</svg>
