<?xml version="1.0" encoding="utf-8"?>
<!-- Generator: Adobe Illustrator 15.0.0, SVG Export Plug-In . SVG Version: 6.00 Build 0)  -->
<!DOCTYPE svg PUBLIC "-//W3C//DTD SVG 1.1//EN" "http://www.w3.org/Graphics/SVG/1.1/DTD/svg11.dtd">
<svg version="1.1" id="Ebene_1" xmlns="http://www.w3.org/2000/svg" xmlns:xlink="http://www.w3.org/1999/xlink" x="0px" y="0px"
	 width="183.283px" height="178.043px" viewBox="0 0 183.283 178.043" enable-background="new 0 0 183.283 178.043"
	 xml:space="preserve">
<g>
	<g>
		<path fill="#4C7F7F" d="M142.288,154.088h3.721v-2.492h6.362V26.462h-6.362v-6.018h-10.311v3.508l2.423,2.663l0.067-0.054
			l5.875-4.745l-7.602-1.365l-0.279,1.377l0.299-1.375l-0.02-0.003l-0.279,1.377l0.299-1.375c-0.043-0.007-2.144-0.416-5.299-1.8
			c-3.154-1.386-7.363-3.741-11.677-7.658l-2.49-2.256l-2.591,2.181l2.48,2.615l2.488-2.609c-4.035-3.421-8.418-6.151-13.086-8.031
			C101.64,1.015,96.679-0.003,91.582,0c-5.108-0.003-10.071,1.02-14.74,2.9c-4.672,1.882-9.057,4.619-13.093,8.044l2.493,2.609
			l2.435-2.652l-0.035-0.03l-2.573-2.1l-2.449,2.225c-4.453,4.042-8.794,6.423-11.983,7.788c-1.591,0.684-2.896,1.11-3.771,1.363
			c-0.438,0.125-0.771,0.207-0.979,0.254l-0.213,0.046l-0.033,0.007l0.295,1.375l-0.278-1.377l-0.017,0.003l0.295,1.375
			l-0.278-1.377l-7.769,1.396l6.162,4.808l2.375-2.702v-3.508H37.171v6.018h-6.382v125.134h6.382v6.003h10.057v-3.511l-2.234-2.804
			l-0.003,0.004l-6.747,4.766l8.282,1.484l0.278-1.381l-0.3,1.379l0.021,0.002l0.278-1.381l-0.3,1.379
			c0.049,0.008,2.147,0.416,5.302,1.801c3.161,1.388,7.366,3.74,11.681,7.659l2.423,2.196l2.638-2.108l-2.402-2.677l-2.499,2.602
			c4.053,3.456,8.449,6.212,13.137,8.107c4.684,1.901,9.669,2.929,14.797,2.927c5.655,0.002,11.133-1.255,16.237-3.543
			c5.109-2.288,9.85-5.6,14.159-9.723l-2.648-2.463l2.397,2.687c3.988-3.166,7.735-5.048,10.443-6.134
			c1.355-0.542,2.449-0.884,3.18-1.084c0.363-0.102,0.637-0.168,0.806-0.204l0.173-0.038l0.023-0.005l-0.331-1.555l0.316,1.557
			l0.015-0.002l-0.331-1.555l0.316,1.557l8.276-1.487l-6.75-4.767l-2.232,2.804v3.511h10.377v-3.511H142.288v-3.505h-17.822
			l8.934,6.315l2.238-2.805l-0.696-3.446c-0.422,0.079-8.726,1.627-18.009,8.985l-0.133,0.104l-0.125,0.118
			c-3.791,3.628-7.85,6.427-12.051,8.309c-4.207,1.882-8.551,2.861-13.042,2.863c-4.08-0.002-8.023-0.806-11.861-2.357
			c-3.834-1.55-7.551-3.856-11.079-6.861l-2.417-2.062l-2.559,2.045l2.403,2.679l2.583-2.529c-5.146-4.673-10.23-7.48-14.061-9.122
			c-3.842-1.642-6.437-2.129-6.671-2.172l-0.7,3.446l2.238,2.805l0.003-0.003l8.935-6.312H44.615v-6.004H38.23V33.479h6.384v-6.016
			h13.148l-8.034-6.268l-2.37,2.704l0.694,3.445c0.233-0.042,2.83-0.527,6.666-2.171c3.834-1.643,8.921-4.452,14.067-9.124
			l-2.583-2.526l-2.438,2.65l0.038,0.03l2.482,2.031l2.446-2.076c3.512-2.982,7.219-5.268,11.039-6.806
			c3.819-1.539,7.753-2.334,11.812-2.335c4.051,0.001,7.982,0.796,11.799,2.332c3.816,1.535,7.521,3.819,11.033,6.797l2.482,2.102
			l2.507-2.108l-2.483-2.617l-2.584,2.526c5.148,4.672,10.231,7.48,14.066,9.122c3.836,1.646,6.433,2.131,6.668,2.173l0.697-3.445
			l-2.423-2.664l-0.067,0.053l-7.641,6.174h12.927v6.016h6.362V144.58h-6.362v9.509H142.288v-3.505V154.088z"/>
		<g>
			<path fill="#CADBDB" d="M142.288,154.088h1.549v-4.54h6.363V28.509h-6.363v-6.018h-8.139v1.462l1.014,1.11l0.066-0.055
				l2.449-1.978l-3.168-0.568l-0.079,0.393l0.079-0.392v-0.001l-0.079,0.393l0.079-0.392c-0.093-0.016-8.903-1.676-18.062-9.992
				l-1.039-0.941l-1.085,0.917l1.028,1.089l1.039-1.086c-7.76-6.584-16.764-10.405-26.361-10.404
				c-9.607-0.001-18.613,3.825-26.376,10.422l1.039,1.085l1.013-1.105l-0.037-0.031l-1.068-0.874l-1.021,0.928
				c-4.658,4.225-9.214,6.73-12.59,8.176c-1.687,0.723-3.081,1.182-4.041,1.457c-0.479,0.137-0.848,0.228-1.091,0.285
				c-0.126,0.028-0.214,0.049-0.271,0.06l-0.061,0.012l-0.014,0.001l0.083,0.396l-0.08-0.397l-0.003,0.001l0.083,0.396l-0.08-0.397
				l-3.167,0.568l2.514,2.033l1.015-1.11v-1.462h-8.083v6.018h-6.385v121.04h6.385v6.004h7.885v-1.464l-0.932-1.167l-0.006,0.004
				l-2.808,1.985l3.45,0.618l0.082-0.389l-0.085,0.389h0.003l0.082-0.389l-0.085,0.389c0.097,0.017,8.908,1.674,18.066,9.992
				l1.006,0.916l1.147-0.916l-1.003-1.113l-1.042,1.084c7.787,6.648,16.821,10.507,26.475,10.504
				c10.65,0.003,20.546-4.695,28.856-12.654l-1.105-1.026l0.998,1.119c4.18-3.312,8.12-5.296,10.999-6.447
				c1.434-0.578,2.607-0.946,3.411-1.167c0.403-0.112,0.708-0.187,0.912-0.231l0.224-0.049l0.053-0.009l0.006-0.002l-0.104-0.487
				l0.1,0.487h0.004l-0.104-0.487l0.1,0.487l3.444-0.618l-2.808-1.989l-0.934,1.167v1.464h8.205v-1.464H142.288v-1.46h-11.307
				l3.727,2.636l0.93-1.17l-0.29-1.436c-0.176,0.032-8.117,1.484-17.015,8.537l-0.059,0.043l-0.05,0.05
				c-7.903,7.554-16.993,11.782-26.645,11.784c-8.75-0.002-17.025-3.472-24.391-9.75l-1.007-0.855l-1.113,0.886l1,1.118l1.077-1.056
				c-9.898-8.979-19.441-10.724-19.635-10.757l-0.291,1.436l0.934,1.17l0.004-0.003l3.723-2.633h-9.435v-6.002h-6.384V31.432h6.384
				v-6.016h9.168l-3.25-2.627l-1.006,1.11l0.288,1.436c0.188-0.037,9.737-1.778,19.634-10.757l-1.077-1.054l-1.017,1.104l0.039,0.03
				l1.036,0.848l1.015-0.867c7.345-6.222,15.589-9.666,24.303-9.668c8.707,0.003,16.949,3.439,24.287,9.655l1.031,0.877l1.057-0.886
				l-1.033-1.092l-1.078,1.054c9.9,8.978,19.447,10.721,19.635,10.757l0.291-1.436l-1.009-1.11l-0.068,0.055l-3.187,2.573h9.23
				v6.016h6.366v115.195h-6.366v7.462H142.288v-1.46V154.088z"/>
		</g>
		<g>
			<g>
				
					<radialGradient id="SVGID_1_" cx="91.5796" cy="108.3394" r="75.8" gradientTransform="matrix(1 0 0 0.9424 0 -13.0775)" gradientUnits="userSpaceOnUse">
					<stop  offset="0.3939" style="stop-color:#A7D0D1"/>
					<stop  offset="1" style="stop-color:#6AA9A7"/>
				</radialGradient>
				<path fill="url(#SVGID_1_)" d="M142.288,154.088v-6h6.363V29.971h-6.363v-6.018h-6.59l0.07-0.055c0,0-9.245-1.661-18.848-10.375
					c-0.006,0.005-0.01,0.01-0.016,0.013c-7.549-6.399-16.17-10.029-25.323-10.029c-9.164,0-17.788,3.635-25.343,10.046
					c-0.017-0.009-0.025-0.021-0.035-0.03c-9.601,8.715-18.849,10.375-18.849,10.375l0.071,0.055H40.89v6.018h-6.381v118.117h6.381
					v6h6.338l-0.008,0.006c0,0,9.247,1.66,18.849,10.377c0.026-0.021,0.047-0.042,0.074-0.063
					c7.58,6.46,16.235,10.129,25.439,10.129c10.152,0,19.639-4.468,27.745-12.222c8.627-6.839,16.311-8.221,16.311-8.221
					l-0.006-0.006H142.288z"/>
			</g>
			<g opacity="0.36">
				
					<radialGradient id="SVGID_2_" cx="91.5796" cy="108.3423" r="75.7789" gradientTransform="matrix(1 0 0 0.9424 0 -13.0775)" gradientUnits="userSpaceOnUse">
					<stop  offset="0" style="stop-color:#FFFFFF"/>
					<stop  offset="1" style="stop-color:#000000"/>
				</radialGradient>
				<path fill="url(#SVGID_2_)" d="M148.651,107.223L92.545,87.067l56.106,17.773v-2.801L92.587,87.012l56.063,12.771v-2.676
					l-56.03-10.151l56.03,7.98v-2.597l-56.006-5.444l56.006,3.324v-2.562l-55.983-0.825l55.983-1.282v-2.56l-55.964,3.778
					l55.964-5.9v-2.601l-55.957,8.434l55.957-10.609v-2.681L92.7,86.637l55.951-15.489v-2.809L92.696,86.573l55.955-20.627v-2.995
					L92.69,86.506l55.961-26.128v-3.25L92.674,86.444l55.977-32.137v-3.595L92.654,86.38l55.997-38.824v-4.061L92.633,86.319
					l56.018-46.437v-4.706L92.6,86.26l56.051-55.332v-0.957h-4.275l-51.81,56.231l49.722-58.534v-3.716h-1.859L92.524,86.151
					l43.988-62.198h-0.814l0.07-0.055c0,0-1.179-0.219-3.105-0.875l-40.188,63.08l37.288-64.207c-1.016-0.44-2.13-0.979-3.317-1.616
					L92.427,86.056l31.357-67.322c-1.018-0.64-2.069-1.356-3.142-2.153L92.369,86.016l25.688-71.506
					c-0.377-0.326-0.757-0.642-1.137-0.987c-0.006,0.005-0.01,0.01-0.016,0.013c-0.672-0.571-1.359-1.114-2.053-1.642L92.312,85.98
					L112.01,9.889c-1.188-0.773-2.393-1.484-3.622-2.125L92.251,85.948l12.962-79.668c-1.303-0.538-2.627-1.002-3.969-1.391
					l-9.057,81.034l5.658-81.835c-1.376-0.251-2.765-0.423-4.168-0.509L92.121,85.9L90.188,3.542
					c-1.407,0.056-2.797,0.201-4.173,0.424l6.036,81.919l-9.45-81.184c-1.346,0.357-2.679,0.794-3.989,1.307l13.372,79.867
					L75.423,7.433c-1.237,0.617-2.458,1.305-3.652,2.057l20.145,76.383L68.899,11.445c-0.899,0.667-1.789,1.367-2.661,2.108
					c-0.017-0.009-0.025-0.021-0.035-0.03c-0.185,0.166-0.364,0.312-0.551,0.474l26.192,71.877L63.078,16.122
					c-1.068,0.819-2.109,1.554-3.129,2.216l31.826,67.543L57.296,19.942c-1.172,0.658-2.278,1.205-3.301,1.668l37.714,64.283
					L51.113,22.792c-2.27,0.823-3.688,1.092-3.745,1.102l0.018,0.03l0.04,0.029h-0.02l44.236,61.959L43.486,23.953H40.89v2.841
					l50.685,59.143L39.56,29.971h-5.052v0.208l57.005,55.785L34.508,34.461v4.744l56.945,46.793L34.508,42.85v4.1l56.89,39.087
					L34.508,50.14v3.629l56.835,32.313L34.508,56.62v3.283l56.789,26.227L34.508,62.502v3.027l56.744,20.652L34.508,67.947v2.84
					l56.708,15.449L34.508,73.074v2.711l56.676,10.507l-56.676-8.308v2.627l56.646,5.74l-56.646-3.593v2.591l56.625,1.065
					L34.508,87.48v3.056l56.607-4.054l-56.607,6.202v2.633l56.593-8.77L34.508,97.521v2.715l56.589-13.622l-56.589,15.917v2.848
					l56.593-18.7l-56.593,21.13v3.037l56.599-24.103l-56.599,26.717v3.3l56.616-29.95l-56.616,32.817v3.657L91.14,86.872
					l-56.631,39.622v4.135l56.66-43.696l-56.66,47.379v4.794l56.689-52.114L34.508,143.44v4.648h0.981l55.747-61.041l-51.391,61.041
					h1.044v5.031l50.388-66.021l-46.936,66.99h2.886l-0.008,0.006c0,0,0.589,0.104,1.618,0.4l42.484-67.344l-39.333,68.432
					c1.064,0.419,2.27,0.952,3.575,1.613l35.809-70.001l-32.952,71.588c1.083,0.651,2.205,1.39,3.359,2.221l29.65-73.769
					l-26.887,75.912c0.506,0.425,1.015,0.857,1.525,1.324c0.026-0.021,0.047-0.042,0.074-0.063c0.597,0.511,1.204,0.997,1.817,1.473
					l23.524-78.608l-20.513,80.765c1.26,0.829,2.538,1.583,3.842,2.263l16.736-82.997l-13.364,84.563
					c1.387,0.563,2.793,1.031,4.217,1.419l9.211-85.955l-5.591,86.748c1.454,0.235,2.923,0.379,4.41,0.429l1.249-87.155
					l2.445,87.078c1.479-0.108,2.942-0.312,4.39-0.608l-6.767-86.454l10.353,85.526c1.41-0.445,2.797-0.965,4.165-1.58
					L91.818,87.375l17.756,82.26c1.282-0.721,2.536-1.52,3.766-2.385L91.888,87.379l24.393,77.641
					c1.039-0.853,2.054-1.755,3.046-2.705c0.083-0.066,0.165-0.125,0.25-0.188L91.954,87.375l30.381,72.74
					c1.171-0.787,2.302-1.477,3.38-2.079L92.024,87.37l36.576,69.19c1.374-0.639,2.595-1.123,3.627-1.487L92.095,87.356
					l43.373,66.771c0.1-0.02,0.169-0.032,0.169-0.032l-0.006-0.006h4.632l-48.1-66.751l50.125,63.912v-3.161h2.483L92.227,87.313
					l56.424,60.186v-5.53l-56.36-54.685l56.36,50.486v-4.653L92.348,87.25l56.303,42.284v-4.028L92.406,87.21l56.245,35.164v-3.57
					L92.457,87.167L148.651,116v-3.23L92.505,87.118l56.146,23.091V107.223z"/>
			</g>
		</g>
		<g>
			<g>
				<polygon fill="#E8F2F2" points="71.332,141.71 72.461,143.864 74.981,144.21 73.155,145.887 73.588,148.255 71.332,147.136 
					69.077,148.255 69.505,145.887 67.679,144.21 70.202,143.864 				"/>
				<polygon fill="#E8F2F2" points="91.188,148.724 92.316,150.881 94.837,151.228 93.013,152.901 93.445,155.273 91.188,154.154 
					88.932,155.273 89.363,152.901 87.538,151.228 90.06,150.881 				"/>
				<polygon fill="#E8F2F2" points="111.043,141.71 112.171,143.864 114.692,144.21 112.871,145.887 113.299,148.255 
					111.043,147.136 108.787,148.255 109.217,145.887 107.393,144.21 109.915,143.864 				"/>
			</g>
			<g>
				<polygon fill="#E8F2F2" points="71.332,30.324 72.461,32.479 74.981,32.823 73.155,34.5 73.588,36.869 71.332,35.751 
					69.077,36.869 69.505,34.5 67.679,32.823 70.202,32.479 				"/>
				<polygon fill="#E8F2F2" points="92.112,22.772 93.239,24.925 95.762,25.27 93.935,26.948 94.368,29.315 92.112,28.199 
					89.855,29.315 90.282,26.948 88.459,25.27 90.983,24.925 				"/>
				<polygon fill="#E8F2F2" points="111.043,30.324 112.171,32.479 114.692,32.823 112.871,34.5 113.299,36.869 111.043,35.751 
					108.787,36.869 109.217,34.5 107.393,32.823 109.915,32.479 				"/>
			</g>
		</g>
		<g>
			<ellipse fill="#494443" cx="90.643" cy="89.022" rx="39.293" ry="47.747"/>
			<g>
				<path fill="#E1DFDF" d="M68.112,65.849l0.683-1.109l0.765,0.554l-0.685,1.11l2.206,1.6l-0.533,0.861l-5.34-3.877l1.402-2.274
					l0.763,0.554L66.5,64.681L68.112,65.849z"/>
				<path fill="#E1DFDF" d="M73.429,64.619c-0.162-0.069-0.262-0.11-0.667-0.468l-0.78-0.695c-0.463-0.411-0.751-0.404-1.031-0.041
					l-0.209,0.277l2.023,1.801l-0.607,0.798l-4.969-4.424l0.918-1.203c0.628-0.83,1.278-0.85,2.044-0.168l0.386,0.347
					c0.512,0.455,0.72,0.919,0.61,1.42c0.466-0.254,0.943-0.05,1.459,0.412l0.772,0.683c0.242,0.213,0.421,0.365,0.669,0.449
					L73.429,64.619z M68.504,61.702l1.525,1.357l0.239-0.312c0.227-0.297,0.236-0.592-0.161-0.947l-0.488-0.437
					c-0.354-0.316-0.608-0.332-0.825-0.048L68.504,61.702z"/>
				<path fill="#E1DFDF" d="M72.374,59.928l0.944-0.995l0.639,0.713l-0.939,0.993l1.319,1.459l1.18-1.25l0.639,0.711l-1.863,1.976
					l-4.493-4.982l1.863-1.975l0.642,0.711l-1.178,1.252L72.374,59.928z"/>
				<path fill="#E1DFDF" d="M74.934,57.458l1.034-0.875l0.566,0.787L75.5,58.243l1.157,1.61l1.306-1.099l0.562,0.787l-2.055,1.735
					l-3.953-5.499l2.057-1.735l0.567,0.784l-1.304,1.1L74.934,57.458z"/>
				<path fill="#E1DFDF" d="M80.68,56.679l-1.764-5.412l0.781-0.438l2.121,6.656l-1.265,0.71l-3.787-5.72l0.857-0.481L80.68,56.679z
					"/>
				<path fill="#E1DFDF" d="M82.553,52.794l1.239-0.472l0.304,0.94l-1.24,0.47l0.621,1.926l1.56-0.591l0.303,0.938l-2.46,0.936
					l-2.122-6.576l2.46-0.936l0.305,0.938l-1.56,0.593L82.553,52.794z"/>
				<path fill="#E1DFDF" d="M87.944,52.784l0.164,0.908c0.197,1.093-0.167,1.819-1.087,2.015c-0.921,0.195-1.511-0.33-1.707-1.424
					l-0.643-3.554c-0.198-1.092,0.17-1.819,1.089-2.014c0.918-0.195,1.508,0.329,1.706,1.422l0.121,0.665l-0.889,0.188l-0.132-0.733
					c-0.088-0.488-0.309-0.634-0.606-0.57c-0.298,0.062-0.454,0.289-0.365,0.776l0.668,3.691c0.086,0.488,0.306,0.623,0.603,0.561
					c0.301-0.062,0.454-0.278,0.369-0.767l-0.179-0.976L87.944,52.784z"/>
				<path fill="#E1DFDF" d="M88.223,48.354l2.95-0.146l0.039,0.994l-0.996,0.051l0.25,5.968l-0.953,0.047l-0.251-5.97l-0.999,0.05
					L88.223,48.354z"/>
				<path fill="#E1DFDF" d="M92.075,49.911c0.106-1.11,0.679-1.688,1.612-1.582c0.93,0.101,1.378,0.793,1.274,1.902l-0.345,3.607
					c-0.106,1.11-0.677,1.686-1.608,1.583c-0.933-0.104-1.382-0.795-1.275-1.906L92.075,49.911z M92.674,53.692
					c-0.044,0.495,0.128,0.705,0.428,0.738c0.3,0.034,0.512-0.132,0.559-0.628l0.359-3.744c0.047-0.496-0.124-0.707-0.429-0.74
					c-0.305-0.035-0.509,0.133-0.556,0.629L92.674,53.692z"/>
				<path fill="#E1DFDF" d="M96.773,56.142c-0.006-0.188-0.015-0.304,0.118-0.853l0.258-1.058c0.152-0.625,0.023-0.908-0.395-1.031
					l-0.318-0.091l-0.668,2.741l-0.924-0.267l1.641-6.733l1.396,0.403c0.955,0.275,1.243,0.903,0.99,1.942l-0.132,0.53
					c-0.17,0.693-0.473,1.089-0.936,1.191c0.405,0.355,0.435,0.909,0.262,1.61l-0.253,1.039c-0.079,0.327-0.13,0.569-0.099,0.848
					L96.773,56.142z M97.172,50.078l-0.501,2.068l0.358,0.105c0.346,0.099,0.598-0.014,0.728-0.553l0.164-0.664
					c0.114-0.48,0.025-0.733-0.3-0.828L97.172,50.078z"/>
				<path fill="#E1DFDF" d="M103.942,53.636l-0.105,0.222c-0.297,0.64-0.657,0.955-1.135,0.951c0.362,0.454,0.322,1.022,0.017,1.681
					l-0.236,0.507c-0.451,0.958-1.136,1.232-1.987,0.765l-1.344-0.734l2.906-6.218l1.288,0.706
					C104.229,51.998,104.391,52.677,103.942,53.636z M101.311,54.696l-0.891,1.91l0.49,0.268c0.285,0.156,0.514,0.089,0.727-0.371
					l0.253-0.542c0.271-0.577,0.189-0.845-0.198-1.057L101.311,54.696z M102.495,52.164l-0.767,1.645l0.332,0.181
					c0.319,0.175,0.589,0.12,0.822-0.375l0.158-0.348c0.208-0.443,0.169-0.71-0.135-0.877L102.495,52.164z"/>
				<path fill="#E1DFDF" d="M104.657,60.606l-0.795-0.597l0.535-1.138l-0.967-0.726l-0.803,0.934l-0.721-0.542l4.471-5.113
					l1.15,0.865L104.657,60.606z M104.028,57.446l0.758,0.569l1.479-3.175L104.028,57.446z"/>
				<path fill="#E1DFDF" d="M109.161,55.626l1.117,1.099c0.711,0.695,0.682,1.487-0.012,2.314l-2.183,2.614
					c-0.693,0.827-1.415,0.937-2.122,0.242l-1.121-1.099L109.161,55.626z M109.25,57.06l-3.088,3.691l0.399,0.392
					c0.228,0.22,0.473,0.22,0.781-0.148l2.249-2.689c0.311-0.369,0.285-0.635,0.057-0.856L109.25,57.06z"/>
				<path fill="#E1DFDF" d="M110.962,61.902l0.882,1.09l-1.539,1.453c-0.773,0.733-1.541,0.755-2.158-0.008
					c-0.616-0.765-0.492-1.58,0.285-2.313l2.521-2.38c0.775-0.733,1.54-0.756,2.156,0.007c0.617,0.765,0.496,1.581-0.281,2.312
					l-0.473,0.445l-0.594-0.735l0.521-0.491c0.349-0.328,0.352-0.607,0.153-0.855c-0.201-0.249-0.456-0.279-0.804,0.048
					l-2.622,2.473c-0.345,0.328-0.345,0.601-0.144,0.849c0.196,0.247,0.452,0.286,0.796-0.042l0.895-0.845l-0.285-0.353
					L110.962,61.902z"/>
				<path fill="#E1DFDF" d="M113.008,64.461l0.76,1.158l-0.75,0.577l-0.758-1.158l-1.537,1.18l0.953,1.459l-0.752,0.577
					l-1.504-2.301l5.25-4.036l1.505,2.302l-0.751,0.577l-0.951-1.458L113.008,64.461z"/>
			</g>
			<g>
				<path fill="#E1DFDF" d="M113.27,111.861l-0.688,1.109l-0.76-0.554l0.688-1.11l-2.208-1.6l0.53-0.86l5.343,3.877l-1.405,2.274
					l-0.766-0.555l0.877-1.414L113.27,111.861z"/>
				<path fill="#E1DFDF" d="M107.952,113.089c0.161,0.07,0.264,0.111,0.666,0.47l0.781,0.696c0.461,0.41,0.756,0.402,1.031,0.039
					l0.21-0.275l-2.026-1.802l0.61-0.798l4.97,4.423l-0.918,1.205c-0.629,0.826-1.274,0.849-2.044,0.166l-0.391-0.347
					c-0.512-0.456-0.718-0.92-0.61-1.42c-0.469,0.253-0.943,0.049-1.461-0.412l-0.767-0.683c-0.242-0.214-0.424-0.365-0.671-0.449
					L107.952,113.089z M112.877,116.009l-1.527-1.359l-0.236,0.312c-0.227,0.297-0.24,0.594,0.159,0.947l0.489,0.435
					c0.354,0.317,0.607,0.333,0.82,0.05L112.877,116.009z"/>
				<path fill="#E1DFDF" d="M109.002,117.781l-0.936,0.995l-0.642-0.713l0.936-0.993l-1.315-1.459l-1.18,1.251l-0.643-0.712
					l1.862-1.976l4.498,4.984l-1.866,1.975l-0.643-0.712l1.182-1.251L109.002,117.781z"/>
				<path fill="#E1DFDF" d="M106.444,120.251l-1.035,0.874l-0.562-0.787l1.035-0.871l-1.156-1.612l-1.301,1.099l-0.566-0.785
					l2.057-1.735l3.949,5.499l-2.055,1.736l-0.565-0.785l1.303-1.1L106.444,120.251z"/>
				<path fill="#E1DFDF" d="M100.702,121.03l1.761,5.412l-0.776,0.437l-2.122-6.654l1.261-0.71l3.789,5.72l-0.854,0.481
					L100.702,121.03z"/>
				<path fill="#E1DFDF" d="M98.827,124.916l-1.238,0.47l-0.301-0.938l1.234-0.471l-0.616-1.926l-1.56,0.593l-0.303-0.94
					l2.459-0.937l2.119,6.577l-2.458,0.937l-0.304-0.941l1.557-0.591L98.827,124.916z"/>
				<path fill="#E1DFDF" d="M93.438,124.926l-0.163-0.908c-0.198-1.095,0.167-1.819,1.087-2.017c0.92-0.193,1.508,0.331,1.705,1.425
					l0.643,3.554c0.198,1.094-0.166,1.819-1.089,2.016c-0.918,0.194-1.51-0.33-1.707-1.424l-0.118-0.663l0.885-0.188l0.135,0.731
					c0.086,0.489,0.307,0.635,0.604,0.571c0.301-0.064,0.455-0.288,0.363-0.776l-0.662-3.691c-0.088-0.487-0.308-0.624-0.606-0.561
					c-0.297,0.063-0.452,0.277-0.366,0.767l0.179,0.975L93.438,124.926z"/>
				<path fill="#E1DFDF" d="M93.16,129.356l-2.95,0.146l-0.042-0.993l0.998-0.05l-0.253-5.969l0.957-0.049l0.252,5.969l0.997-0.048
					L93.16,129.356z"/>
				<path fill="#E1DFDF" d="M89.302,127.799c-0.105,1.108-0.674,1.687-1.606,1.584c-0.934-0.104-1.381-0.796-1.275-1.905
					l0.344-3.606c0.105-1.11,0.674-1.688,1.607-1.583c0.934,0.104,1.381,0.795,1.274,1.905L89.302,127.799z M88.705,124.018
					c0.048-0.495-0.124-0.704-0.424-0.739c-0.304-0.035-0.512,0.135-0.56,0.629l-0.358,3.746c-0.048,0.495,0.125,0.703,0.427,0.737
					c0.302,0.034,0.509-0.133,0.561-0.628L88.705,124.018z"/>
				<path fill="#E1DFDF" d="M84.603,121.569c0.015,0.188,0.021,0.303-0.114,0.852l-0.258,1.059
					c-0.151,0.625-0.025,0.907,0.396,1.031l0.318,0.091l0.669-2.741l0.924,0.267l-1.648,6.733l-1.39-0.401
					c-0.957-0.277-1.241-0.906-0.99-1.943l0.129-0.53c0.168-0.692,0.472-1.089,0.94-1.193c-0.41-0.354-0.436-0.905-0.263-1.608
					l0.253-1.039c0.08-0.327,0.131-0.569,0.098-0.848L84.603,121.569z M84.206,127.632l0.504-2.068l-0.36-0.106
					c-0.342-0.1-0.594,0.014-0.726,0.552l-0.164,0.666c-0.115,0.479-0.025,0.733,0.301,0.827L84.206,127.632z"/>
				<path fill="#E1DFDF" d="M77.44,124.074l0.102-0.223c0.302-0.639,0.662-0.954,1.137-0.951c-0.364-0.456-0.323-1.022-0.015-1.68
					l0.236-0.508c0.448-0.957,1.131-1.229,1.984-0.764l1.345,0.734l-2.905,6.217l-1.288-0.706
					C77.153,125.712,76.992,125.033,77.44,124.074z M80.067,123.014l0.892-1.91l-0.486-0.268c-0.288-0.157-0.515-0.09-0.729,0.371
					l-0.256,0.54c-0.268,0.577-0.188,0.845,0.202,1.058L80.067,123.014z M78.888,125.545l0.767-1.644l-0.336-0.183
					c-0.315-0.174-0.584-0.119-0.818,0.376l-0.164,0.349c-0.203,0.441-0.167,0.711,0.138,0.876L78.888,125.545z"/>
				<path fill="#E1DFDF" d="M76.723,117.103l0.794,0.597l-0.53,1.139l0.965,0.726l0.798-0.935l0.724,0.541l-4.468,5.115
					l-1.151-0.866L76.723,117.103z M77.35,120.264l-0.754-0.569l-1.479,3.174L77.35,120.264z"/>
				<path fill="#E1DFDF" d="M72.222,122.083l-1.124-1.098c-0.705-0.695-0.677-1.487,0.014-2.315l2.185-2.613
					c0.691-0.827,1.418-0.937,2.124-0.241l1.121,1.099L72.222,122.083z M72.128,120.648l3.086-3.689l-0.398-0.393
					c-0.224-0.222-0.474-0.222-0.78,0.148l-2.248,2.688c-0.309,0.369-0.284,0.636-0.058,0.856L72.128,120.648z"/>
				<path fill="#E1DFDF" d="M70.416,115.807l-0.88-1.09l1.538-1.453c0.775-0.731,1.541-0.755,2.157,0.009
					c0.621,0.764,0.497,1.58-0.281,2.313l-2.52,2.381c-0.779,0.732-1.542,0.756-2.158-0.009c-0.616-0.765-0.495-1.58,0.28-2.313
					l0.472-0.443l0.595,0.735l-0.518,0.489c-0.346,0.328-0.354,0.608-0.154,0.855c0.201,0.249,0.46,0.28,0.805-0.047l2.62-2.473
					c0.345-0.328,0.345-0.601,0.145-0.85c-0.203-0.248-0.451-0.285-0.799,0.041l-0.892,0.847l0.284,0.353L70.416,115.807z"/>
				<path fill="#E1DFDF" d="M68.369,113.248l-0.757-1.157l0.751-0.577l0.757,1.158l1.54-1.182l-0.955-1.458l0.749-0.576l1.505,2.302
					l-5.247,4.035l-1.504-2.302l0.747-0.577l0.956,1.458L68.369,113.248z"/>
			</g>
			<g>
				<path fill="#B5C4C2" d="M128.073,89.022h-0.307c0,12.456-4.158,23.733-10.875,31.896c-6.717,8.163-15.998,13.212-26.247,13.212
					c-10.255,0-19.533-5.049-26.253-13.212c-6.716-8.162-10.869-19.439-10.869-31.896c0-12.459,4.152-23.733,10.869-31.898
					c6.72-8.164,15.998-13.213,26.253-13.213c10.249,0,19.53,5.049,26.247,13.213c6.717,8.165,10.875,19.439,10.875,31.898H128.073
					h0.311c0-25.33-16.896-45.865-37.739-45.865c-20.846,0-37.746,20.535-37.746,45.865s16.9,45.861,37.746,45.861
					c20.842,0,37.739-20.531,37.739-45.861H128.073z"/>
			</g>
		</g>
	</g>
	<g>
		<g>
			<linearGradient id="SVGID_3_" gradientUnits="userSpaceOnUse" x1="152.2935" y1="89.022" x2="183.2827" y2="89.022">
				<stop  offset="0" style="stop-color:#AF3927"/>
				<stop  offset="0.3697" style="stop-color:#E14B35"/>
			</linearGradient>
			<polygon fill="url(#SVGID_3_)" points="174.159,89.022 183.228,73.222 152.293,73.222 152.293,104.822 183.283,104.822 
				183.283,104.796 			"/>
			<g>
				<linearGradient id="SVGID_4_" gradientUnits="userSpaceOnUse" x1="152.3032" y1="102.5669" x2="182.2671" y2="102.5669">
					<stop  offset="0.0043" style="stop-color:#C2841D"/>
					<stop  offset="0.0287" style="stop-color:#CC9438"/>
					<stop  offset="0.0662" style="stop-color:#D9A95A"/>
					<stop  offset="0.1077" style="stop-color:#E4BB78"/>
					<stop  offset="0.1533" style="stop-color:#EDC990"/>
					<stop  offset="0.2049" style="stop-color:#F4D4A2"/>
					<stop  offset="0.2657" style="stop-color:#F8DCAF"/>
					<stop  offset="0.3448" style="stop-color:#FBE1B7"/>
					<stop  offset="0.5091" style="stop-color:#FCE2B9"/>
				</linearGradient>
				<polygon fill="url(#SVGID_4_)" points="181.739,102.124 152.303,102.124 152.303,103.01 182.267,103.01 				"/>
				<linearGradient id="SVGID_5_" gradientUnits="userSpaceOnUse" x1="152.2935" y1="75.4741" x2="182.1606" y2="75.4741">
					<stop  offset="0.0043" style="stop-color:#C2841D"/>
					<stop  offset="0.0287" style="stop-color:#CC9438"/>
					<stop  offset="0.0662" style="stop-color:#D9A95A"/>
					<stop  offset="0.1077" style="stop-color:#E4BB78"/>
					<stop  offset="0.1533" style="stop-color:#EDC990"/>
					<stop  offset="0.2049" style="stop-color:#F4D4A2"/>
					<stop  offset="0.2657" style="stop-color:#F8DCAF"/>
					<stop  offset="0.3448" style="stop-color:#FBE1B7"/>
					<stop  offset="0.5091" style="stop-color:#FCE2B9"/>
				</linearGradient>
				<polygon fill="url(#SVGID_5_)" points="182.161,75.03 152.293,75.03 152.293,75.918 181.657,75.918 				"/>
			</g>
		</g>
		<g>
			
				<linearGradient id="SVGID_6_" gradientUnits="userSpaceOnUse" x1="72.7192" y1="89.0186" x2="103.7075" y2="89.0186" gradientTransform="matrix(-1 0 0 1 103.708 0)">
				<stop  offset="0" style="stop-color:#AF3927"/>
				<stop  offset="0.3697" style="stop-color:#E14B35"/>
			</linearGradient>
			<polygon fill="url(#SVGID_6_)" points="9.121,89.019 0.055,73.219 30.989,73.219 30.989,104.818 0,104.818 0,104.795 			"/>
			<g>
				<linearGradient id="SVGID_7_" gradientUnits="userSpaceOnUse" x1="30.9766" y1="102.5747" x2="1.0166" y2="102.5747">
					<stop  offset="0.0043" style="stop-color:#C2841D"/>
					<stop  offset="0.0287" style="stop-color:#CC9438"/>
					<stop  offset="0.0662" style="stop-color:#D9A95A"/>
					<stop  offset="0.1077" style="stop-color:#E4BB78"/>
					<stop  offset="0.1533" style="stop-color:#EDC990"/>
					<stop  offset="0.2049" style="stop-color:#F4D4A2"/>
					<stop  offset="0.2657" style="stop-color:#F8DCAF"/>
					<stop  offset="0.3448" style="stop-color:#FBE1B7"/>
					<stop  offset="0.5091" style="stop-color:#FCE2B9"/>
				</linearGradient>
				<polygon fill="url(#SVGID_7_)" points="1.017,103.018 30.977,103.018 30.977,102.131 1.542,102.131 				"/>
				<linearGradient id="SVGID_8_" gradientUnits="userSpaceOnUse" x1="30.9888" y1="75.4814" x2="1.1221" y2="75.4814">
					<stop  offset="0.0043" style="stop-color:#C2841D"/>
					<stop  offset="0.0287" style="stop-color:#CC9438"/>
					<stop  offset="0.0662" style="stop-color:#D9A95A"/>
					<stop  offset="0.1077" style="stop-color:#E4BB78"/>
					<stop  offset="0.1533" style="stop-color:#EDC990"/>
					<stop  offset="0.2049" style="stop-color:#F4D4A2"/>
					<stop  offset="0.2657" style="stop-color:#F8DCAF"/>
					<stop  offset="0.3448" style="stop-color:#FBE1B7"/>
					<stop  offset="0.5091" style="stop-color:#FCE2B9"/>
				</linearGradient>
				<polygon fill="url(#SVGID_8_)" points="1.122,75.039 1.627,75.925 30.989,75.925 30.989,75.039 				"/>
			</g>
		</g>
		<g>
			<linearGradient id="SVGID_9_" gradientUnits="userSpaceOnUse" x1="30.7749" y1="89.022" x2="152.5493" y2="89.022">
				<stop  offset="0.0043" style="stop-color:#C23922"/>
				<stop  offset="0.0442" style="stop-color:#CA3E27"/>
				<stop  offset="0.1369" style="stop-color:#D7452F"/>
				<stop  offset="0.2578" style="stop-color:#DF4A34"/>
				<stop  offset="0.5091" style="stop-color:#E14B35"/>
				<stop  offset="0.7824" style="stop-color:#DF4A34"/>
				<stop  offset="0.8858" style="stop-color:#D84630"/>
				<stop  offset="0.9602" style="stop-color:#CC3F28"/>
				<stop  offset="1" style="stop-color:#C23922"/>
			</linearGradient>
			<rect x="30.775" y="73.222" fill="url(#SVGID_9_)" width="121.774" height="31.6"/>
			<g>
				<linearGradient id="SVGID_10_" gradientUnits="userSpaceOnUse" x1="30.7749" y1="102.5669" x2="152.5493" y2="102.5669">
					<stop  offset="0.0043" style="stop-color:#C2841D"/>
					<stop  offset="0.0287" style="stop-color:#CC9438"/>
					<stop  offset="0.0662" style="stop-color:#D9A95A"/>
					<stop  offset="0.1077" style="stop-color:#E4BB78"/>
					<stop  offset="0.1533" style="stop-color:#EDC990"/>
					<stop  offset="0.2049" style="stop-color:#F4D4A2"/>
					<stop  offset="0.2657" style="stop-color:#F8DCAF"/>
					<stop  offset="0.3448" style="stop-color:#FBE1B7"/>
					<stop  offset="0.5091" style="stop-color:#FCE2B9"/>
					<stop  offset="0.7036" style="stop-color:#FBE1B7"/>
					<stop  offset="0.7772" style="stop-color:#F9DDB0"/>
					<stop  offset="0.8303" style="stop-color:#F4D5A4"/>
					<stop  offset="0.8736" style="stop-color:#EECB93"/>
					<stop  offset="0.9109" style="stop-color:#E6BE7D"/>
					<stop  offset="0.944" style="stop-color:#DBAD61"/>
					<stop  offset="0.9734" style="stop-color:#D09A41"/>
					<stop  offset="1" style="stop-color:#C2841D"/>
				</linearGradient>
				<rect x="30.775" y="102.124" fill="url(#SVGID_10_)" width="121.774" height="0.887"/>
				<linearGradient id="SVGID_11_" gradientUnits="userSpaceOnUse" x1="30.7749" y1="75.4741" x2="152.5493" y2="75.4741">
					<stop  offset="0.0043" style="stop-color:#C2841D"/>
					<stop  offset="0.0287" style="stop-color:#CC9438"/>
					<stop  offset="0.0662" style="stop-color:#D9A95A"/>
					<stop  offset="0.1077" style="stop-color:#E4BB78"/>
					<stop  offset="0.1533" style="stop-color:#EDC990"/>
					<stop  offset="0.2049" style="stop-color:#F4D4A2"/>
					<stop  offset="0.2657" style="stop-color:#F8DCAF"/>
					<stop  offset="0.3448" style="stop-color:#FBE1B7"/>
					<stop  offset="0.5091" style="stop-color:#FCE2B9"/>
					<stop  offset="0.7036" style="stop-color:#FBE1B7"/>
					<stop  offset="0.7772" style="stop-color:#F9DDB0"/>
					<stop  offset="0.8303" style="stop-color:#F4D5A4"/>
					<stop  offset="0.8736" style="stop-color:#EECB93"/>
					<stop  offset="0.9109" style="stop-color:#E6BE7D"/>
					<stop  offset="0.944" style="stop-color:#DBAD61"/>
					<stop  offset="0.9734" style="stop-color:#D09A41"/>
					<stop  offset="1" style="stop-color:#C2841D"/>
				</linearGradient>
				<rect x="30.775" y="75.03" fill="url(#SVGID_11_)" width="121.774" height="0.888"/>
			</g>
		</g>
		<g>
			<path fill="#EDEDEE" d="M48.467,85.697l-1.714,8.222c1.056-0.39,1.694-0.991,2.178-2.532h0.727
				c-0.675,2.337-1.99,3.011-3.057,3.312l-0.262,1.277c-0.519,2.532-1.969,3.011-3.106,3.011c-1.053,0-1.934-0.565-1.934-1.72
				c0-1.486,1.517-2.23,2.817-2.639l0.205-0.958c-0.724,0.833-1.488,0.993-2.073,0.993c-1.034,0-1.846-0.638-1.846-2.127
				c0-0.336,0.053-0.727,0.137-1.15l1.175-5.69H44.2l-1.244,6.026c-0.034,0.142-0.052,0.3-0.052,0.442
				c0,0.408,0.121,0.78,0.521,0.78c0.639,0,1.085-0.621,1.345-1.453l1.208-5.795H48.467z M42.833,97.607
				c0.365,0,0.78-0.532,1.004-1.577l0.106-0.516c-0.883,0.337-1.695,0.799-1.695,1.508C42.248,97.268,42.456,97.607,42.833,97.607z"
				/>
			<path fill="#EDEDEE" d="M55.628,88.374c0.071,0.035,0.139,0.035,0.19,0.035c0.791,0,1.917-0.533,2.661-1.063l0.153,0.478
				c-0.654,0.727-1.796,1.26-3.055,1.471c-0.276,3.28-2.006,5.336-4.129,5.336c-1.604,0-2.761-0.779-2.761-2.801
				c0-2.037,1.174-6.29,4.729-6.29C54.9,85.539,55.628,86.512,55.628,88.374z M54.144,89.348c-0.362-0.088-0.466-0.391-0.466-0.744
				c0-0.498,0.226-0.816,0.533-0.957c-0.033-0.744-0.209-1.027-0.651-1.027c-1.231,0-2.299,3.24-2.299,4.978
				c0,1.171,0.225,1.437,0.879,1.437C52.987,93.034,53.868,91.439,54.144,89.348z"/>
			<path fill="#EDEDEE" d="M64.433,85.697l-1.242,6.026c-0.055,0.229-0.07,0.407-0.07,0.566c0,0.495,0.223,0.656,0.706,0.656
				c0.674,0,1.141-0.675,1.399-1.559h0.726c-0.984,2.888-2.54,3.277-3.471,3.277c-0.984,0-1.606-0.586-1.709-1.684
				c-0.863,1.452-1.831,1.684-2.553,1.684c-1.039,0-1.851-0.638-1.851-2.127c0-0.336,0.051-0.727,0.138-1.15l1.177-5.69h2.487
				l-1.245,6.026c-0.035,0.176-0.052,0.337-0.052,0.496c0,0.407,0.14,0.727,0.519,0.727c0.675,0,1.123-0.675,1.381-1.559l1.172-5.69
				H64.433z"/>
			<path fill="#EDEDEE" d="M69.469,82.896l-0.584,2.801h1.036l-0.138,0.708h-1.037l-1.103,5.318
				c-0.055,0.229-0.071,0.407-0.071,0.566c0,0.495,0.223,0.656,0.706,0.656c0.674,0,1.298-0.675,1.557-1.559h0.725
				c-0.984,2.888-2.694,3.277-3.627,3.277c-1.036,0-1.847-0.638-1.847-2.127c0-0.336,0.051-0.727,0.138-1.15l1.036-4.982h-0.569
				l0.137-0.708h0.572l0.518-2.446L69.469,82.896z"/>
			<path fill="#EDEDEE" d="M74.164,87.241c-0.674,0-1.208,1.08-1.31,1.559l-1.192,5.759h-2.487l2.502-12.052l2.558-0.355L73.3,86.62
				c0.73-0.852,1.488-0.993,2.024-0.993c1.102,0,1.914,0.583,1.914,2c0,1.436-0.827,3.582-0.827,4.574
				c0,0.441,0.173,0.744,0.691,0.744c0.76,0,1.069-0.639,1.45-1.559h0.726c-0.968,2.905-2.294,3.277-3.212,3.277
				c-1.502,0-2.036-0.993-2.036-2.003c0-1.206,0.775-3.385,0.775-4.521C74.806,87.557,74.6,87.241,74.164,87.241z"/>
			<path fill="#EDEDEE" d="M82.125,93.176c1.361,0,2.191-0.781,3.052-1.789h0.592c-0.989,1.629-2.455,3.277-4.752,3.277
				c-1.624,0-2.694-0.814-2.694-2.818c0-2.039,1.124-6.308,4.661-6.308c1.539,0,1.902,0.813,1.902,1.702
				c0,2.036-1.902,3.613-3.971,3.737c-0.021,0.248-0.033,0.495-0.033,0.708C80.881,92.893,81.293,93.176,82.125,93.176z
				 M83.125,86.477c-0.883,0-1.729,1.896-2.075,3.649c1.33-0.088,2.505-1.452,2.505-2.925C83.556,86.76,83.451,86.477,83.125,86.477
				z"/>
			<path fill="#EDEDEE" d="M94.19,82.151l-1.986,9.572c-0.052,0.229-0.068,0.407-0.068,0.566c0,0.495,0.221,0.656,0.708,0.656
				c0.674,0,1.141-0.675,1.4-1.559h0.722c-0.981,2.888-2.536,3.171-3.468,3.171c-0.933,0-1.555-0.531-1.693-1.524
				c-0.519,0.816-1.33,1.631-2.556,1.631c-1.172,0-2.296-0.745-2.296-2.854c0-2.394,1.433-6.202,4.44-6.202
				c0.981,0,1.396,0.389,1.396,0.903v0.07l0.848-4.076L94.19,82.151z M89.786,91.387l0.845-4.059
				c-0.03-0.215-0.188-0.621-0.706-0.621c-1.466,0-2.418,3.188-2.418,4.854c0,1.367,0.552,1.385,0.861,1.385
				c0.488,0,1.193-0.496,1.417-1.473V91.387z"/>
			<path fill="#EDEDEE" d="M97.812,93.176c1.366,0,2.192-0.781,3.06-1.789h0.587c-0.987,1.629-2.453,3.277-4.753,3.277
				c-1.619,0-2.688-0.814-2.688-2.818c0-2.039,1.117-6.308,4.658-6.308c1.538,0,1.901,0.813,1.901,1.702
				c0,2.036-1.901,3.613-3.977,3.737c-0.012,0.248-0.027,0.495-0.027,0.708C96.573,92.893,96.985,93.176,97.812,93.176z
				 M98.816,86.477c-0.883,0-1.728,1.896-2.073,3.649c1.33-0.088,2.505-1.452,2.505-2.925C99.248,86.76,99.141,86.477,98.816,86.477
				z"/>
			<path fill="#EDEDEE" d="M108.188,91.387c-0.896,1.062-1.846,1.735-2.641,2.213c-0.727,0.78-1.832,1.064-2.711,1.064
				c-1.762,0-2.521-1.188-2.521-2.27c0-0.814,0.447-1.417,0.914-1.648c0.969-1.755,1.588-3.506,2.125-5.246l2.554-0.353
				c0.21,4.589,0.38,5.281,0.38,6.45c0,0.249-0.017,0.463-0.068,0.674c0.467-0.283,0.915-0.603,1.242-0.884H108.188z
				 M101.695,92.254c-0.173,0-0.379-0.053-0.466-0.231c0,0.835,0.293,1.241,1.051,1.241c0.764,0,1.505-0.406,1.505-1.648
				c0-0.922-0.151-1.471-0.329-4.199c-0.344,1.151-0.828,2.215-1.398,3.35c0.223,0.106,0.397,0.318,0.397,0.621
				C102.455,91.811,102.146,92.254,101.695,92.254z"/>
			<path fill="#EDEDEE" d="M111.12,85.697l-1.24,6.026c-0.051,0.229-0.07,0.407-0.07,0.566c0,0.495,0.224,0.656,0.71,0.656
				c0.671,0,1.295-0.675,1.552-1.559h0.728c-0.984,2.888-2.696,3.277-3.632,3.277c-1.033,0-1.848-0.638-1.848-2.127
				c0-0.336,0.055-0.727,0.143-1.15l1.172-5.69H111.12z M110.343,81.922c0.761,0,1.383,0.638,1.383,1.417
				c0,0.781-0.622,1.4-1.383,1.4c-0.763,0-1.364-0.619-1.364-1.4C108.979,82.56,109.581,81.922,110.343,81.922z"/>
			<path fill="#EDEDEE" d="M120.358,85.697l-1.709,8.222c1.052-0.39,1.69-0.991,2.175-2.532h0.725
				c-0.673,2.337-1.985,3.011-3.056,3.312l-0.26,1.277c-0.516,2.532-1.969,3.011-3.105,3.011c-1.055,0-1.934-0.565-1.934-1.72
				c0-1.486,1.518-2.23,2.812-2.639l0.209-0.939c-0.503,0.549-1.173,0.975-2.071,0.975c-1.176,0-2.299-0.745-2.299-2.854
				c0-2.394,1.436-6.202,4.437-6.202c0.984,0,1.399,0.389,1.399,0.903v0.107l0.188-0.922H120.358z M114.727,97.607
				c0.363,0,0.78-0.532,1.004-1.577l0.102-0.516c-0.878,0.337-1.689,0.799-1.689,1.508
				C114.143,97.268,114.348,97.607,114.727,97.607z M114.399,91.561c0,1.367,0.556,1.385,0.865,1.385
				c0.467,0,1.138-0.479,1.38-1.385l0.884-4.199c-0.02-0.195-0.156-0.654-0.711-0.654C115.351,86.708,114.399,89.896,114.399,91.561
				z"/>
			<path fill="#EDEDEE" d="M125.173,87.241c-0.622,0-1.092,0.742-1.348,1.627l-1.173,5.69h-2.488l1.83-8.861h2.485l-0.188,0.922
				c0.728-0.852,1.484-0.993,2.021-0.993c1.106,0,1.917,0.583,1.917,2c0,1.436-0.83,3.582-0.83,4.574
				c0,0.441,0.176,0.744,0.691,0.744c0.76,0,1.069-0.639,1.45-1.559h0.728c-0.971,2.905-2.297,3.277-3.211,3.277
				c-1.505,0-2.038-0.993-2.038-2.003c0-1.206,0.775-3.385,0.775-4.521C125.794,87.557,125.586,87.241,125.173,87.241z"/>
			<path fill="#EDEDEE" d="M133.112,93.176c1.366,0,2.193-0.781,3.057-1.789h0.586c-0.986,1.629-2.452,3.277-4.748,3.277
				c-1.623,0-2.692-0.814-2.692-2.818c0-2.039,1.12-6.308,4.658-6.308c1.538,0,1.901,0.813,1.901,1.702
				c0,2.036-1.901,3.613-3.972,3.737c-0.017,0.248-0.032,0.495-0.032,0.708C131.87,92.893,132.286,93.176,133.112,93.176z
				 M134.113,86.477c-0.878,0-1.726,1.896-2.069,3.649c1.329-0.088,2.501-1.452,2.501-2.925
				C134.544,86.76,134.442,86.477,134.113,86.477z"/>
			<path fill="#EDEDEE" d="M139.824,85.697l-0.221,1.098c0.603-0.532,1.26-1.098,2.089-1.098c0.779,0,1.191,0.655,1.191,1.329
				c0,0.621-0.396,1.295-1.241,1.295c-0.968,0-0.482-1.172-1.004-1.172c-0.518,0-0.826,0.268-1.266,0.674l-1.376,6.735h-2.486
				l1.826-8.861H139.824z"/>
		</g>
	</g>
</g>
</svg>
