<?xml version="1.0" encoding="utf-8"?>
<!-- Generator: Adobe Illustrator 15.0.0, SVG Export Plug-In . SVG Version: 6.00 Build 0)  -->
<!DOCTYPE svg PUBLIC "-//W3C//DTD SVG 1.1//EN" "http://www.w3.org/Graphics/SVG/1.1/DTD/svg11.dtd">
<svg version="1.1" id="Ebene_1" xmlns="http://www.w3.org/2000/svg" xmlns:xlink="http://www.w3.org/1999/xlink" x="0px" y="0px"
	 height="182px" viewBox="0 0 207.826 182" enable-background="new 0 0 207.826 182" xml:space="preserve">
<g>
	<g>
		<g>
			<linearGradient id="SVGID_1_" gradientUnits="userSpaceOnUse" x1="149.4316" y1="-14.7778" x2="147.2034" y2="-9.5786">
				<stop  offset="0.004" style="stop-color:#DDD6CC"/>
				<stop  offset="1" style="stop-color:#C6BDAD"/>
			</linearGradient>
			<polygon fill="url(#SVGID_1_)" points="136.022,35.859 154.352,40.729 159.463,59.29 159.455,59.294 172.905,72.602 
				167.868,91.312 168.033,91.362 172.872,109.861 159.271,123.384 159.261,123.382 154.505,141.787 135.94,146.898 
				135.942,146.894 122.634,160.345 104.091,155.35 103.871,155.473 85.544,160.354 71.85,146.706 71.852,146.697 53.448,141.944 
				48.339,123.38 48.341,123.382 35.032,109.975 39.883,91.528 39.765,91.307 34.921,73.081 48.359,59.245 48.539,59.29 
				53.294,40.888 71.813,35.945 71.855,35.781 85.615,22.495 103.872,27.368 103.924,27.201 122.437,22.392 136.024,35.853 			"/>
		</g>
		<g>
			<linearGradient id="SVGID_2_" gradientUnits="userSpaceOnUse" x1="149.4316" y1="-14.7778" x2="147.2034" y2="-9.5786">
				<stop  offset="0.004" style="stop-color:#DDD6CC"/>
				<stop  offset="1" style="stop-color:#C6BDAD"/>
			</linearGradient>
			<polygon fill="url(#SVGID_2_)" points="136.022,35.859 154.352,40.729 159.463,59.29 159.455,59.294 172.905,72.602 
				167.868,91.312 168.033,91.362 172.872,109.861 159.271,123.384 159.261,123.382 154.505,141.787 135.94,146.898 
				135.942,146.894 122.634,160.345 104.091,155.35 103.871,155.473 85.544,160.354 71.85,146.706 71.852,146.697 53.448,141.944 
				48.339,123.38 48.341,123.382 35.032,109.975 39.883,91.528 39.765,91.307 34.921,73.081 48.359,59.245 48.539,59.29 
				53.294,40.888 71.813,35.945 71.855,35.781 85.615,22.495 103.872,27.368 103.924,27.201 122.437,22.392 136.024,35.853 			"/>
		</g>
		<g>
			<g>
				<g opacity="0.16">
					<image overflow="visible" width="181" height="182" xlink:href="AE31A450.png"  transform="matrix(1 0 0 1 13.5166 0)">
					</image>
				</g>
				<linearGradient id="SVGID_3_" gradientUnits="userSpaceOnUse" x1="40.0693" y1="173.5371" x2="173.7136" y2="1.4655">
					<stop  offset="0.004" style="stop-color:#DDD6CC"/>
					<stop  offset="1" style="stop-color:#C6BDAD"/>
				</linearGradient>
				<path fill-rule="evenodd" clip-rule="evenodd" fill="url(#SVGID_3_)" d="M158.429,91.119c0,30.014-24.332,54.346-54.348,54.346
					c-30.016,0-54.346-24.332-54.346-54.346c0-30.018,24.33-54.348,54.346-54.348C134.097,36.771,158.429,61.102,158.429,91.119z"/>
				<path fill-rule="evenodd" clip-rule="evenodd" fill="#83444C" d="M104.081,40.206c0.285,0,0.567,0.01,0.852,0.012
					c0.273,0.109,0.732,0.377,0.714,0.924c-0.02,0.752-1.077,0.842,0.009,1.641c-0.479-0.014-0.959-0.022-1.439-0.025
					c-0.158-0.179-0.453-0.625,0.119-0.912c0.683-0.344,0.241-1.33-0.884-1.629C103.662,40.212,103.869,40.206,104.081,40.206
					L104.081,40.206z M105.009,40.218c1.115,0.335,1.528,1.336,0.838,1.657c-0.583,0.271-0.299,0.726-0.148,0.909
					c0.482,0.018,0.963,0.039,1.438,0.069c-1.058-0.832-0.001-0.891,0.043-1.642c0.035-0.551-0.424-0.83-0.692-0.945
					C105.993,40.243,105.504,40.228,105.009,40.218L105.009,40.218z M106.56,40.271c0.496,0.022,0.986,0.051,1.475,0.088
					c0.268,0.123,0.727,0.415,0.675,0.971c-0.069,0.749-1.124,0.776-0.096,1.64c-0.474-0.046-0.952-0.082-1.433-0.112
					c-0.146-0.189-0.412-0.649,0.177-0.902C108.06,41.651,107.673,40.633,106.56,40.271L106.56,40.271z M108.109,40.366
					c1.109,0.395,1.467,1.432,0.753,1.709c-0.594,0.234-0.344,0.702-0.206,0.896c0.479,0.045,0.956,0.094,1.429,0.154
					c-0.994-0.888,0.058-0.888,0.15-1.629c0.066-0.555-0.381-0.861-0.642-0.99C109.103,40.453,108.606,40.404,108.109,40.366
					L108.109,40.366z M109.666,40.514c0.493,0.054,0.985,0.115,1.474,0.183c0.256,0.137,0.698,0.46,0.613,1.01
					c-0.113,0.743-1.164,0.706-0.203,1.623c-0.471-0.074-0.943-0.141-1.42-0.2c-0.135-0.2-0.363-0.669,0.234-0.884
					C111.088,41.99,110.761,40.942,109.666,40.514L109.666,40.514z M111.212,40.706c1.082,0.463,1.379,1.521,0.648,1.757
					c-0.6,0.193-0.391,0.666-0.262,0.875c0.473,0.072,0.945,0.158,1.414,0.244c-0.934-0.945,0.115-0.877,0.252-1.616
					c0.104-0.551-0.335-0.887-0.588-1.03C112.191,40.851,111.702,40.778,111.212,40.706L111.212,40.706z M112.743,40.943
					c0.491,0.087,0.979,0.174,1.461,0.271c0.246,0.152,0.686,0.503,0.563,1.059c-0.157,0.729-1.204,0.633-0.302,1.604
					c-0.465-0.103-0.934-0.197-1.406-0.287c-0.123-0.209-0.316-0.689,0.291-0.866C114.089,42.51,113.821,41.438,112.743,40.943
					L112.743,40.943z M114.267,41.228c1.072,0.523,1.312,1.61,0.564,1.802c-0.613,0.157-0.434,0.645-0.316,0.858
					c0.467,0.102,0.931,0.21,1.393,0.327c-0.867-0.998,0.174-0.867,0.354-1.595c0.141-0.553-0.296-0.918-0.535-1.072
					C115.243,41.433,114.757,41.327,114.267,41.228L114.267,41.228z M115.79,41.564c0.486,0.114,0.972,0.237,1.453,0.367
					c0.236,0.161,0.656,0.537,0.498,1.087c-0.201,0.72-1.234,0.559-0.404,1.577c-0.459-0.131-0.92-0.256-1.384-0.367
					c-0.108-0.223-0.265-0.709,0.347-0.845C117.054,43.214,116.846,42.12,115.79,41.564L115.79,41.564z M117.308,41.946
					c1.039,0.591,1.209,1.688,0.451,1.834c-0.616,0.118-0.474,0.606-0.372,0.829c0.46,0.131,0.919,0.27,1.373,0.416
					c-0.802-1.045,0.226-0.852,0.45-1.566c0.175-0.542-0.232-0.933-0.465-1.103C118.269,42.214,117.788,42.075,117.308,41.946
					L117.308,41.946z M118.807,42.373c0.476,0.143,0.948,0.296,1.421,0.453c0.224,0.173,0.631,0.578,0.438,1.121
					c-0.244,0.709-1.27,0.483-0.498,1.553c-0.449-0.159-0.903-0.311-1.357-0.457c-0.097-0.227-0.226-0.721,0.394-0.82
					C119.966,44.098,119.827,42.994,118.807,42.373L118.807,42.373z M120.286,42.845c1.01,0.651,1.117,1.765,0.35,1.863
					c-0.624,0.081-0.51,0.577-0.422,0.808c0.451,0.159,0.9,0.325,1.345,0.499c-0.737-1.095,0.277-0.839,0.546-1.538
					c0.21-0.539-0.187-0.957-0.403-1.136C121.231,43.167,120.763,43.002,120.286,42.845L120.286,42.845z M121.762,43.365
					c0.471,0.173,0.938,0.356,1.401,0.544c0.215,0.188,0.586,0.62,0.363,1.144c-0.288,0.689-1.295,0.402-0.594,1.515
					c-0.439-0.186-0.883-0.361-1.328-0.536c-0.08-0.23-0.178-0.731,0.445-0.795C122.823,45.164,122.749,44.048,121.762,43.365
					L121.762,43.365z M123.226,43.935c0.958,0.712,0.995,1.823,0.225,1.877c-0.626,0.04-0.543,0.543-0.469,0.777
					c0.439,0.188,0.875,0.384,1.309,0.583c-0.67-1.14,0.33-0.82,0.639-1.502c0.241-0.519-0.117-0.956-0.327-1.15
					C124.147,44.316,123.687,44.125,123.226,43.935L123.226,43.935z M124.664,44.543c0.456,0.203,0.908,0.411,1.356,0.626
					c0.202,0.203,0.551,0.653,0.293,1.165c-0.33,0.669-1.32,0.319-0.683,1.48c-0.428-0.212-0.86-0.421-1.294-0.621
					c-0.066-0.234-0.137-0.744,0.492-0.768C125.603,46.396,125.599,45.285,124.664,44.543L124.664,44.543z M126.077,45.195
					c0.918,0.769,0.888,1.883,0.114,1.888c-0.632,0.005-0.577,0.517-0.517,0.754c0.428,0.217,0.854,0.434,1.275,0.661
					c-0.602-1.184,0.375-0.802,0.729-1.465c0.268-0.5-0.059-0.956-0.254-1.166C126.978,45.636,126.53,45.41,126.077,45.195
					L126.077,45.195z M127.483,45.896c0.445,0.232,0.887,0.471,1.322,0.714c0.191,0.217,0.494,0.684,0.215,1.168
					c-0.373,0.65-1.34,0.242-0.773,1.441c-0.413-0.242-0.833-0.474-1.252-0.699c-0.055-0.239-0.096-0.754,0.535-0.737
					C128.302,47.803,128.37,46.693,127.483,45.896L127.483,45.896z M128.868,46.646c0.85,0.82,0.748,1.92-0.02,1.876
					c-0.631-0.034-0.605,0.483-0.56,0.724c0.415,0.239,0.827,0.487,1.233,0.74c-0.535-1.224,0.422-0.781,0.812-1.421
					c0.295-0.476,0.012-0.945-0.17-1.174C129.736,47.139,129.304,46.888,128.868,46.646L128.868,46.646z M130.223,47.427
					c0.427,0.256,0.848,0.516,1.265,0.785c0.178,0.227,0.454,0.71,0.141,1.178c-0.41,0.629-1.355,0.158-0.854,1.397
					c-0.4-0.264-0.805-0.526-1.212-0.776c-0.037-0.237-0.052-0.764,0.581-0.709C130.909,49.368,131.048,48.274,130.223,47.427
					L130.223,47.427z M131.549,48.247c0.8,0.874,0.63,1.963-0.136,1.874c-0.633-0.075-0.633,0.452-0.602,0.69
					c0.4,0.268,0.795,0.534,1.186,0.813c-0.46-1.255,0.468-0.757,0.899-1.371c0.321-0.452,0.071-0.937-0.098-1.173
					C132.386,48.8,131.969,48.517,131.549,48.247L131.549,48.247z M132.86,49.125c0.41,0.28,0.814,0.567,1.217,0.86
					c0.162,0.246,0.391,0.73,0.058,1.173c-0.448,0.6-1.364,0.071-0.937,1.345c-0.384-0.291-0.771-0.575-1.162-0.854
					c-0.025-0.241-0.007-0.764,0.622-0.67C133.415,51.091,133.619,50.019,132.86,49.125L132.86,49.125z M134.138,50.028
					c0.4,0.293,0.795,0.594,1.187,0.897c0.153,0.247,0.37,0.741,0.022,1.171c-0.469,0.59-1.366,0.029-0.977,1.324
					c-0.375-0.304-0.752-0.6-1.137-0.891c-0.018-0.239,0.013-0.77,0.643-0.657C134.628,52.01,134.866,50.946,134.138,50.028
					L134.138,50.028z M135.384,50.97c0.701,0.939,0.43,1.997-0.316,1.836c-0.629-0.133-0.676,0.403-0.664,0.64
					c0.375,0.303,0.744,0.609,1.107,0.92c-0.35-1.304,0.531-0.715,1.019-1.289c0.36-0.419,0.159-0.92,0.015-1.173
					C136.162,51.585,135.775,51.276,135.384,50.97L135.384,50.97z M136.601,51.952c0.672,0.96,0.369,2.005-0.373,1.822
					c-0.625-0.151-0.687,0.381-0.684,0.618c0.363,0.312,0.725,0.628,1.08,0.952c-0.309-1.311,0.552-0.7,1.057-1.256
					c0.37-0.405,0.191-0.904,0.053-1.165C137.36,52.594,136.983,52.27,136.601,51.952L136.601,51.952z M137.792,52.976
					c0.371,0.327,0.736,0.662,1.098,0.999c0.13,0.265,0.291,0.77-0.09,1.161c-0.52,0.544-1.365-0.099-1.094,1.229
					c-0.346-0.333-0.695-0.666-1.05-0.99c0.005-0.239,0.083-0.767,0.7-0.593C138.092,54.98,138.424,53.952,137.792,52.976
					L137.792,52.976z M138.948,54.027c0.357,0.338,0.715,0.68,1.062,1.029c0.123,0.266,0.271,0.779-0.122,1.161
					c-0.537,0.525-1.362-0.14-1.133,1.195c-0.334-0.346-0.675-0.686-1.019-1.019c0.011-0.237,0.102-0.77,0.719-0.578
					C139.185,56.042,139.548,55.023,138.948,54.027L138.948,54.027z M140.062,55.105c0.578,1.019,0.181,2.031-0.539,1.78
					c-0.608-0.209-0.721,0.32-0.737,0.557c0.333,0.346,0.663,0.693,0.986,1.049c-0.185-1.337,0.616-0.648,1.17-1.157
					c0.404-0.37,0.272-0.882,0.158-1.157C140.761,55.813,140.416,55.459,140.062,55.105L140.062,55.105z M141.154,56.234
					c0.54,1.031,0.113,2.026-0.599,1.756c-0.6-0.226-0.726,0.292-0.753,0.528c0.323,0.354,0.642,0.715,0.955,1.079
					c-0.146-1.341,0.635-0.627,1.202-1.118c0.414-0.355,0.301-0.872,0.195-1.148C141.828,56.96,141.493,56.595,141.154,56.234
					L141.154,56.234z M142.208,57.392c0.327,0.366,0.649,0.738,0.963,1.117c0.1,0.279,0.201,0.803-0.229,1.148
					c-0.58,0.474-1.34-0.264-1.235,1.081c-0.302-0.372-0.61-0.742-0.921-1.108c0.034-0.235,0.176-0.752,0.77-0.506
					C142.258,59.415,142.716,58.438,142.208,57.392L142.208,57.392z M143.22,58.567c0.316,0.377,0.629,0.76,0.932,1.148
					c0.09,0.28,0.182,0.813-0.262,1.146c-0.596,0.456-1.332-0.303-1.27,1.045c-0.291-0.385-0.586-0.762-0.887-1.136
					c0.041-0.233,0.199-0.746,0.787-0.481C143.215,60.604,143.701,59.632,143.22,58.567L143.22,58.567z M144.198,59.778
					c0.453,1.081-0.064,2.039-0.752,1.705c-0.573-0.282-0.751,0.221-0.799,0.454c0.288,0.384,0.572,0.766,0.852,1.155
					c-0.018-1.334,0.689-0.559,1.299-0.995c0.453-0.317,0.38-0.854,0.301-1.133C144.804,60.565,144.503,60.167,144.198,59.778
					L144.198,59.778z M145.142,61.026c0.417,1.093-0.128,2.034-0.804,1.677c-0.563-0.297-0.756,0.195-0.812,0.428
					c0.276,0.391,0.548,0.787,0.813,1.188c0.023-1.34,0.708-0.539,1.33-0.957c0.465-0.307,0.404-0.846,0.331-1.13
					C145.721,61.826,145.435,61.423,145.142,61.026L145.142,61.026z M146.042,62.295c0.28,0.405,0.555,0.814,0.824,1.227
					c0.064,0.285,0.112,0.833-0.363,1.128c-0.635,0.401-1.297-0.423-1.359,0.917c-0.254-0.408-0.514-0.812-0.779-1.212
					c0.064-0.229,0.271-0.718,0.826-0.403C145.855,64.33,146.432,63.404,146.042,62.295L146.042,62.295z M146.903,63.578
					c0.27,0.417,0.531,0.84,0.787,1.264c0.057,0.282,0.093,0.839-0.398,1.121c-0.646,0.378-1.279-0.459-1.385,0.869
					c-0.238-0.415-0.488-0.823-0.742-1.229c0.073-0.229,0.296-0.706,0.838-0.377C146.659,65.627,147.268,64.705,146.903,63.578
					L146.903,63.578z M147.728,64.902c0.33,1.141-0.305,2.042-0.951,1.622c-0.528-0.344-0.766,0.117-0.846,0.345
					c0.241,0.415,0.475,0.833,0.703,1.249c0.147-1.313,0.755-0.459,1.411-0.817c0.497-0.269,0.479-0.823,0.434-1.108
					C148.231,65.757,147.983,65.33,147.728,64.902L147.728,64.902z M148.51,66.252c0.296,1.15-0.366,2.034-0.997,1.594
					c-0.519-0.362-0.77,0.091-0.855,0.319c0.226,0.42,0.445,0.847,0.661,1.274c0.188-1.313,0.771-0.442,1.437-0.779
					c0.51-0.252,0.503-0.814,0.463-1.101C148.988,67.119,148.752,66.684,148.51,66.252L148.51,66.252z M149.249,67.62
					c0.229,0.437,0.453,0.877,0.67,1.324c0.032,0.283,0.025,0.857-0.497,1.097c-0.677,0.316-1.231-0.571-1.46,0.731
					c-0.2-0.434-0.409-0.863-0.623-1.293c0.096-0.225,0.361-0.666,0.867-0.291C148.825,69.648,149.515,68.782,149.249,67.62
					L149.249,67.62z M149.946,69.001c0.219,0.449,0.426,0.902,0.632,1.362c0.022,0.282,0.001,0.854-0.53,1.078
					c-0.686,0.297-1.214-0.605-1.48,0.682c-0.188-0.439-0.383-0.875-0.584-1.307c0.104-0.222,0.38-0.656,0.875-0.267
					C149.467,71.033,150.185,70.179,149.946,69.001L149.946,69.001z M150.604,70.418c0.201,1.188-0.544,2.014-1.135,1.514
					c-0.48-0.401-0.771,0.02-0.88,0.239c0.187,0.437,0.366,0.879,0.541,1.322c0.307-1.276,0.807-0.358,1.5-0.634
					c0.537-0.207,0.578-0.776,0.562-1.061C151.002,71.336,150.808,70.875,150.604,70.418L150.604,70.418z M151.218,71.854
					c0.164,1.192-0.607,1.998-1.184,1.482c-0.466-0.417-0.77-0.011-0.887,0.205c0.174,0.444,0.341,0.896,0.502,1.347
					c0.344-1.274,0.818-0.34,1.52-0.591c0.542-0.194,0.6-0.761,0.595-1.045C151.587,72.783,151.405,72.319,151.218,71.854
					L151.218,71.854z M151.784,73.31c0.178,0.464,0.343,0.932,0.504,1.403c0,0.284-0.072,0.858-0.629,1.036
					c-0.707,0.232-1.15-0.717-1.534,0.545c-0.147-0.457-0.299-0.907-0.46-1.358c0.123-0.214,0.439-0.615,0.892-0.181
					C151.12,75.288,151.915,74.505,151.784,73.31L151.784,73.31z M152.308,74.768c0.16,0.477,0.314,0.956,0.461,1.438
					c-0.012,0.282-0.102,0.853-0.656,1.009c-0.717,0.212-1.131-0.748-1.553,0.5c-0.134-0.463-0.273-0.92-0.421-1.375
					c0.13-0.209,0.458-0.6,0.899-0.15C151.583,76.739,152.407,75.974,152.308,74.768L152.308,74.768z M152.786,76.267
					c0.057,1.203-0.785,1.937-1.312,1.365c-0.425-0.457-0.765-0.078-0.902,0.126c0.133,0.459,0.258,0.923,0.375,1.386
					c0.463-1.233,0.846-0.26,1.568-0.448c0.557-0.142,0.667-0.701,0.688-0.983C153.071,77.225,152.931,76.749,152.786,76.267
					L152.786,76.267z M153.218,77.773c0.132,0.483,0.256,0.964,0.373,1.452c-0.029,0.283-0.158,0.839-0.717,0.96
					c-0.729,0.166-1.084-0.817-1.586,0.405c-0.102-0.467-0.211-0.933-0.33-1.398c0.144-0.198,0.494-0.569,0.907-0.097
					C152.375,79.677,153.235,78.973,153.218,77.773L153.218,77.773z M153.604,79.289c-0.02,1.197-0.902,1.875-1.395,1.275
					c-0.398-0.484-0.762-0.121-0.91,0.076c0.105,0.464,0.2,0.936,0.291,1.408c0.536-1.215,0.86-0.215,1.593-0.36
					c0.565-0.106,0.712-0.661,0.749-0.942C153.831,80.258,153.721,79.771,153.604,79.289L153.604,79.289z M153.946,80.807
					c0.099,0.49,0.193,0.984,0.279,1.48c-0.048,0.282-0.21,0.821-0.774,0.912c-0.739,0.121-1.032-0.887-1.606,0.309
					c-0.076-0.474-0.159-0.942-0.246-1.414c0.154-0.191,0.527-0.546,0.914-0.045C152.983,82.661,153.891,82.007,153.946,80.807
					L153.946,80.807z M154.237,82.356c-0.097,1.188-1.018,1.806-1.469,1.179c-0.371-0.511-0.76-0.166-0.916,0.02
					c0.076,0.472,0.143,0.945,0.204,1.423c0.61-1.182,0.872-0.163,1.614-0.261c0.56-0.069,0.741-0.597,0.8-0.878
					C154.4,83.342,154.322,82.847,154.237,82.356L154.237,82.356z M154.48,83.909c0.069,0.492,0.134,0.987,0.189,1.482
					c-0.069,0.281-0.269,0.797-0.826,0.848c-0.745,0.077-0.976-0.949-1.625,0.219c-0.046-0.479-0.097-0.957-0.157-1.432
					c0.163-0.181,0.561-0.516,0.916,0.007C153.409,85.671,154.343,85.089,154.48,83.909L154.48,83.909z M154.677,85.462
					c-0.177,1.172-1.125,1.723-1.537,1.074c-0.338-0.536-0.75-0.209-0.916-0.033c0.045,0.477,0.082,0.956,0.113,1.437
					c0.688-1.154,0.885-0.118,1.633-0.17c0.561-0.033,0.775-0.542,0.852-0.823C154.78,86.451,154.731,85.958,154.677,85.462
					L154.677,85.462z M154.827,87.015c0.038,0.494,0.074,0.989,0.099,1.488c-0.085,0.278-0.314,0.779-0.878,0.8
					c-0.748,0.029-0.914-1.016-1.638,0.121c-0.017-0.482-0.039-0.961-0.07-1.438c0.171-0.168,0.594-0.494,0.919,0.058
					C153.648,88.705,154.614,88.182,154.827,87.015L154.827,87.015z M154.929,88.575c-0.248,1.157-1.229,1.651-1.598,0.979
					c-0.309-0.563-0.742-0.251-0.92-0.086c0.018,0.478,0.027,0.954,0.029,1.438c0.758-1.108,0.892-0.065,1.641-0.071
					c0.554,0,0.803-0.484,0.896-0.76C154.968,89.572,154.952,89.075,154.929,88.575L154.929,88.575z M154.979,90.15
					c0.006,0.32,0.013,0.644,0.013,0.969c0,0.173-0.005,0.346-0.007,0.518c-0.105,0.276-0.365,0.747-0.919,0.732
					c-0.75-0.018-0.853-1.067-1.64,0.017c0.011-0.421,0.016-0.844,0.016-1.267v-0.17c0.18-0.16,0.623-0.451,0.912,0.114
					C153.702,91.746,154.692,91.292,154.979,90.15L154.979,90.15z M154.983,91.713c-0.322,1.13-1.324,1.554-1.65,0.863
					c-0.272-0.575-0.721-0.3-0.906-0.144c-0.016,0.479-0.035,0.961-0.063,1.439c0.823-1.062,0.893-0.011,1.642,0.029
					c0.554,0.035,0.828-0.433,0.943-0.704C154.965,92.706,154.978,92.21,154.983,91.713L154.983,91.713z M154.942,93.271
					c-0.021,0.495-0.048,0.989-0.082,1.479c-0.12,0.266-0.407,0.73-0.965,0.682c-0.747-0.064-0.785-1.117-1.64-0.082
					c0.043-0.479,0.077-0.957,0.104-1.436c0.191-0.148,0.648-0.412,0.905,0.171C153.569,94.788,154.585,94.393,154.942,93.271
					L154.942,93.271z M154.854,94.821c-0.385,1.117-1.418,1.483-1.703,0.771c-0.24-0.594-0.704-0.34-0.896-0.197
					c-0.045,0.477-0.092,0.955-0.148,1.427c0.883-1.004,0.891,0.049,1.634,0.134c0.562,0.069,0.866-0.4,0.991-0.66
					C154.78,95.808,154.823,95.313,154.854,94.821L154.854,94.821z M154.725,96.362c-0.052,0.498-0.112,0.993-0.178,1.487
					c-0.135,0.259-0.452,0.715-1.011,0.627c-0.738-0.106-0.714-1.157-1.625-0.188c0.072-0.47,0.135-0.945,0.189-1.418
					c0.2-0.137,0.672-0.372,0.889,0.224C153.255,97.819,154.306,97.479,154.725,96.362L154.725,96.362z M154.536,97.919
					c-0.453,1.097-1.512,1.404-1.752,0.675c-0.198-0.602-0.672-0.391-0.88-0.26c-0.07,0.475-0.146,0.946-0.229,1.414
					c0.934-0.936,0.878,0.114,1.613,0.242c0.557,0.104,0.889-0.346,1.029-0.596C154.396,98.905,154.472,98.412,154.536,97.919
					L154.536,97.919z M154.306,99.463c-0.08,0.489-0.168,0.977-0.262,1.462c-0.147,0.247-0.494,0.692-1.051,0.571
					c-0.731-0.154-0.643-1.197-1.606-0.288c0.099-0.468,0.193-0.938,0.277-1.411c0.21-0.121,0.688-0.317,0.868,0.286
					C152.751,100.82,153.817,100.548,154.306,99.463L154.306,99.463z M154.028,100.991c-0.517,1.077-1.598,1.319-1.795,0.574
					c-0.16-0.612-0.643-0.429-0.857-0.311c-0.1,0.468-0.207,0.935-0.321,1.398c0.991-0.879,0.871,0.16,1.596,0.339
					c0.56,0.14,0.921-0.305,1.071-0.546C153.833,101.964,153.935,101.479,154.028,100.991L154.028,100.991z M153.712,102.505
					c-0.113,0.487-0.231,0.974-0.357,1.457c-0.156,0.232-0.533,0.671-1.09,0.514c-0.721-0.197-0.57-1.232-1.585-0.391
					c0.129-0.459,0.249-0.921,0.364-1.384c0.217-0.112,0.707-0.277,0.847,0.337C152.065,103.792,153.159,103.577,153.712,102.505
					L153.712,102.505z M153.338,104.022c-0.583,1.052-1.685,1.234-1.834,0.475c-0.123-0.615-0.614-0.468-0.835-0.363
					c-0.129,0.461-0.262,0.918-0.401,1.37c1.032-0.804,0.853,0.226,1.564,0.444c0.548,0.17,0.937-0.246,1.102-0.479
					C153.077,104.991,153.212,104.507,153.338,104.022L153.338,104.022z M152.915,105.53c-0.141,0.481-0.289,0.957-0.443,1.43
					c-0.173,0.226-0.574,0.633-1.117,0.447c-0.707-0.245-0.49-1.269-1.556-0.491c0.157-0.45,0.308-0.902,0.45-1.36
					c0.229-0.096,0.718-0.226,0.82,0.39C151.199,106.711,152.3,106.562,152.915,105.53L152.915,105.53z M152.452,107.018
					c-0.645,1.018-1.755,1.129-1.859,0.363c-0.084-0.621-0.581-0.503-0.811-0.415c-0.158,0.453-0.322,0.9-0.49,1.349
					c1.087-0.749,0.842,0.27,1.54,0.534c0.541,0.204,0.956-0.195,1.133-0.413C152.136,107.965,152.298,107.492,152.452,107.018
					L152.452,107.018z M151.946,108.488c-0.17,0.473-0.348,0.943-0.533,1.405c-0.186,0.216-0.612,0.604-1.146,0.381
					c-0.69-0.287-0.415-1.294-1.522-0.583c0.182-0.441,0.358-0.887,0.529-1.332c0.23-0.082,0.733-0.186,0.797,0.441
					C150.153,109.57,151.27,109.488,151.946,108.488L151.946,108.488z M151.39,109.95c-0.705,0.978-1.822,1.025-1.88,0.252
					c-0.048-0.624-0.55-0.541-0.786-0.463c-0.182,0.44-0.371,0.879-0.569,1.312c1.13-0.674,0.822,0.324,1.504,0.63
					c0.522,0.236,0.959-0.134,1.151-0.343C151.011,110.882,151.204,110.418,151.39,109.95L151.39,109.95z M150.784,111.399
					c-0.2,0.461-0.406,0.917-0.618,1.368c-0.201,0.204-0.646,0.552-1.161,0.302c-0.67-0.328-0.332-1.319-1.487-0.67
					c0.21-0.432,0.417-0.863,0.614-1.301c0.236-0.068,0.741-0.138,0.77,0.489C148.936,112.36,150.048,112.349,150.784,111.399
					L150.784,111.399z M150.136,112.827c-0.763,0.923-1.871,0.898-1.883,0.127c-0.008-0.633-0.521-0.575-0.758-0.512
					c-0.211,0.43-0.432,0.855-0.654,1.277c1.18-0.611,0.81,0.369,1.47,0.718c0.507,0.267,0.964-0.069,1.168-0.267
					C149.707,113.726,149.926,113.279,150.136,112.827L150.136,112.827z M149.452,114.227c-0.229,0.447-0.464,0.893-0.705,1.332
					c-0.213,0.188-0.676,0.506-1.172,0.224c-0.65-0.369-0.251-1.338-1.448-0.76c0.236-0.415,0.466-0.836,0.692-1.259
					c0.236-0.054,0.756-0.099,0.742,0.532C147.548,115.067,148.66,115.127,149.452,114.227L149.452,114.227z M148.715,115.617
					c-0.821,0.865-1.923,0.772-1.882,0.002c0.029-0.632-0.492-0.6-0.73-0.556c-0.237,0.416-0.48,0.831-0.729,1.237
					c1.216-0.543,0.784,0.416,1.425,0.805c0.48,0.295,0.949,0,1.172-0.184C148.224,116.491,148.472,116.055,148.715,115.617
					L148.715,115.617z M147.932,116.984c-0.253,0.428-0.513,0.853-0.778,1.272c-0.229,0.179-0.705,0.454-1.172,0.148
					c-0.631-0.411-0.166-1.356-1.406-0.845c0.263-0.402,0.521-0.809,0.771-1.221c0.24-0.039,0.764-0.055,0.713,0.578
					C145.999,117.684,147.089,117.814,147.932,116.984L147.932,116.984z M147.118,118.315c-0.87,0.805-1.953,0.643-1.869-0.122
					c0.069-0.633-0.463-0.631-0.699-0.598c-0.265,0.401-0.533,0.8-0.809,1.194c1.26-0.476,0.768,0.457,1.382,0.886
					c0.464,0.322,0.951,0.057,1.185-0.113C146.583,119.151,146.851,118.735,147.118,118.315L147.118,118.315z M146.267,119.621
					c-0.283,0.415-0.572,0.825-0.865,1.231c-0.242,0.164-0.728,0.4-1.174,0.068c-0.601-0.447-0.08-1.364-1.352-0.93
					c0.289-0.384,0.566-0.771,0.841-1.165c0.237-0.027,0.772-0.016,0.681,0.618C144.29,120.204,145.373,120.401,146.267,119.621
					L146.267,119.621z M145.359,120.913c-0.915,0.738-1.979,0.51-1.847-0.245c0.105-0.63-0.422-0.657-0.661-0.641
					c-0.29,0.386-0.583,0.765-0.884,1.144c1.289-0.4,0.739,0.502,1.328,0.969c0.434,0.341,0.924,0.122,1.172-0.033
					C144.77,121.712,145.065,121.315,145.359,120.913L145.359,120.913z M144.418,122.168c-0.935,0.708-1.985,0.444-1.831-0.308
					c0.129-0.627-0.406-0.668-0.646-0.656c-0.299,0.374-0.604,0.744-0.914,1.111c1.303-0.357,0.727,0.527,1.301,1.012
					c0.423,0.357,0.918,0.153,1.172,0.003C143.812,122.948,144.118,122.563,144.418,122.168L144.418,122.168z M143.455,123.388
					c-0.317,0.383-0.637,0.766-0.964,1.139c-0.258,0.14-0.76,0.327-1.171-0.044c-0.56-0.501,0.044-1.364-1.267-1.046
					c0.319-0.357,0.635-0.721,0.947-1.088c0.236-0.004,0.771,0.055,0.624,0.682C141.448,123.775,142.497,124.069,143.455,123.388
					L143.455,123.388z M142.437,124.584c-0.324,0.375-0.655,0.742-0.992,1.105c-0.262,0.133-0.768,0.302-1.165-0.077
					c-0.544-0.52,0.087-1.367-1.231-1.089c0.331-0.349,0.657-0.698,0.978-1.054c0.237,0,0.771,0.075,0.604,0.696
					C140.429,124.902,141.462,125.23,142.437,124.584L142.437,124.584z M141.389,125.747c-0.993,0.613-2.013,0.255-1.791-0.476
					c0.187-0.613-0.345-0.706-0.583-0.715c-0.33,0.346-0.668,0.688-1.012,1.023c1.33-0.237,0.674,0.592,1.201,1.126
					c0.387,0.388,0.893,0.237,1.16,0.116C140.71,126.469,141.052,126.111,141.389,125.747L141.389,125.747z M140.315,126.873
					c-1.016,0.583-2.025,0.195-1.781-0.529c0.205-0.606-0.326-0.715-0.561-0.731c-0.344,0.337-0.693,0.666-1.046,0.994
					c1.339-0.198,0.657,0.606,1.168,1.159c0.378,0.407,0.896,0.264,1.165,0.148C139.616,127.571,139.969,127.225,140.315,126.873
					L140.315,126.873z M139.206,127.964c-0.359,0.347-0.726,0.682-1.096,1.015c-0.272,0.106-0.793,0.23-1.154-0.188
					c-0.492-0.566,0.209-1.352-1.129-1.194c0.363-0.313,0.717-0.637,1.07-0.962c0.234,0.023,0.763,0.148,0.539,0.75
					C137.173,128.1,138.174,128.524,139.206,127.964L139.206,127.964z M138.052,129.028c-0.367,0.331-0.744,0.656-1.119,0.976
					c-0.279,0.099-0.8,0.204-1.147-0.223c-0.474-0.58,0.253-1.343-1.091-1.227c0.373-0.308,0.739-0.615,1.102-0.93
					c0.236,0.033,0.754,0.172,0.514,0.766C136.021,129.097,137.004,129.548,138.052,129.028L138.052,129.028z M136.873,130.054
					c-1.062,0.484-2.03,0.006-1.722-0.693c0.26-0.585-0.254-0.742-0.49-0.78c-0.371,0.305-0.75,0.6-1.131,0.896
					c1.348-0.076,0.596,0.666,1.054,1.26c0.337,0.44,0.866,0.346,1.144,0.258C136.116,130.682,136.497,130.371,136.873,130.054
					L136.873,130.054z M135.671,131.036c-1.078,0.463-2.039-0.049-1.709-0.74c0.277-0.577-0.231-0.749-0.465-0.793
					c-0.381,0.291-0.768,0.575-1.152,0.855c1.343-0.029,0.572,0.686,1.012,1.295c0.324,0.457,0.865,0.369,1.145,0.286
					C134.896,131.644,135.284,131.342,135.671,131.036L135.671,131.036z M134.438,131.984c-0.397,0.298-0.801,0.588-1.209,0.871
					c-0.283,0.074-0.82,0.14-1.131-0.324c-0.42-0.62,0.37-1.308-0.963-1.323c0.396-0.268,0.785-0.543,1.172-0.823
					c0.232,0.055,0.732,0.241,0.441,0.812C132.394,131.874,133.343,132.416,134.438,131.984L134.438,131.984z M133.167,132.897
					c-0.404,0.283-0.814,0.561-1.227,0.833c-0.286,0.064-0.83,0.112-1.127-0.357c-0.398-0.635,0.414-1.302-0.924-1.355
					c0.404-0.255,0.809-0.517,1.207-0.783c0.234,0.063,0.717,0.267,0.41,0.821C131.132,132.722,132.06,133.295,133.167,132.897
					L133.167,132.897z M131.878,133.771c-1.121,0.365-2.037-0.236-1.641-0.893c0.326-0.547-0.157-0.765-0.387-0.835
					c-0.406,0.255-0.813,0.503-1.227,0.747c1.334,0.096,0.502,0.737,0.883,1.383c0.285,0.487,0.84,0.445,1.123,0.388
					C131.05,134.303,131.466,134.04,131.878,133.771L131.878,133.771z M130.571,134.598c-1.139,0.341-2.045-0.291-1.629-0.939
					c0.342-0.533-0.129-0.765-0.359-0.843c-0.41,0.24-0.825,0.479-1.243,0.709c1.32,0.137,0.474,0.751,0.833,1.408
					c0.272,0.497,0.831,0.474,1.114,0.421C129.718,135.11,130.146,134.857,130.571,134.598L130.571,134.598z M129.225,135.387
					c-0.431,0.247-0.867,0.488-1.305,0.719c-0.286,0.043-0.845,0.05-1.102-0.457c-0.339-0.664,0.524-1.252-0.784-1.43
					c0.425-0.215,0.846-0.441,1.264-0.67c0.228,0.085,0.685,0.334,0.329,0.852C127.189,135.037,128.076,135.694,129.225,135.387
					L129.225,135.387z M127.858,136.139c-0.438,0.232-0.881,0.457-1.325,0.677c-0.284,0.034-0.849,0.027-1.092-0.488
					c-0.318-0.679,0.563-1.239-0.743-1.454c0.432-0.203,0.863-0.416,1.289-0.632c0.227,0.093,0.672,0.356,0.301,0.862
					C125.832,135.725,126.698,136.411,127.858,136.139L127.858,136.139z M126.472,136.848c-1.17,0.238-2.019-0.477-1.543-1.084
					c0.387-0.494-0.051-0.77-0.273-0.869c-0.434,0.204-0.867,0.398-1.305,0.59c1.295,0.258,0.396,0.791,0.695,1.475
					c0.23,0.533,0.801,0.549,1.083,0.524C125.581,137.277,126.028,137.062,126.472,136.848L126.472,136.848z M125.075,137.508
					c-1.187,0.215-2.021-0.527-1.525-1.127c0.4-0.479-0.024-0.77-0.246-0.876c-0.437,0.188-0.876,0.37-1.319,0.551
					c1.28,0.298,0.368,0.803,0.646,1.496c0.213,0.537,0.791,0.572,1.071,0.554C124.161,137.913,124.62,137.714,125.075,137.508
					L125.075,137.508z M123.642,138.132c-0.463,0.19-0.928,0.375-1.396,0.554c-0.285,0.008-0.853-0.047-1.047-0.586
					c-0.258-0.701,0.668-1.18-0.599-1.517c0.447-0.163,0.894-0.335,1.336-0.509c0.219,0.115,0.628,0.416,0.216,0.884
					C121.639,137.541,122.45,138.308,123.642,138.132L123.642,138.132z M122.187,138.709c-0.467,0.177-0.938,0.348-1.408,0.511
					c-0.284,0-0.852-0.07-1.031-0.619c-0.232-0.708,0.707-1.158-0.555-1.532c0.455-0.148,0.908-0.307,1.356-0.468
					c0.214,0.122,0.616,0.436,0.188,0.892C120.207,138.056,120.991,138.847,122.187,138.709L122.187,138.709z M120.72,139.243
					c-1.2,0.101-1.96-0.715-1.412-1.263c0.443-0.442,0.047-0.77-0.163-0.896c-0.454,0.148-0.911,0.29-1.37,0.424
					c1.253,0.415,0.297,0.836,0.509,1.55c0.164,0.559,0.737,0.646,1.017,0.654C119.777,139.562,120.251,139.407,120.72,139.243
					L120.72,139.243z M119.246,139.728c-1.209,0.072-1.95-0.771-1.384-1.304c0.457-0.427,0.071-0.765-0.133-0.901
					c-0.461,0.137-0.92,0.264-1.382,0.385c1.237,0.453,0.27,0.842,0.458,1.565c0.146,0.557,0.707,0.663,0.99,0.683
					C118.28,140.019,118.766,139.88,119.246,139.728L119.246,139.728z M117.735,140.169c-0.48,0.136-0.967,0.263-1.453,0.383
					c-0.285-0.027-0.837-0.153-0.965-0.713c-0.165-0.727,0.812-1.086-0.41-1.575c0.467-0.108,0.93-0.223,1.391-0.344
					c0.203,0.142,0.575,0.49,0.106,0.905C115.825,139.341,116.534,140.196,117.735,140.169L117.735,140.169z M116.217,140.567
					c-1.198-0.015-1.876-0.895-1.281-1.385c0.481-0.402,0.117-0.764-0.081-0.908c-0.464,0.105-0.932,0.202-1.404,0.295
					c1.215,0.528,0.223,0.859,0.368,1.592c0.108,0.562,0.653,0.705,0.938,0.739C115.247,140.799,115.733,140.686,116.217,140.567
					L116.217,140.567z M114.69,140.917c-0.484,0.104-0.973,0.197-1.463,0.289c-0.282-0.046-0.826-0.203-0.92-0.768
					c-0.121-0.739,0.883-1.04-0.321-1.606c0.474-0.077,0.945-0.163,1.415-0.254c0.193,0.153,0.552,0.527,0.056,0.913
					C112.847,139.968,113.496,140.866,114.69,140.917L114.69,140.917z M113.163,141.218c-1.196-0.085-1.818-1.005-1.193-1.463
					c0.508-0.373,0.156-0.759-0.029-0.914c-0.471,0.075-0.945,0.148-1.422,0.211c1.188,0.604,0.174,0.873,0.275,1.615
					c0.074,0.562,0.604,0.738,0.887,0.794C112.178,141.388,112.671,141.307,113.163,141.218L113.163,141.218z M111.61,141.472
					c-0.494,0.076-0.99,0.137-1.488,0.197c-0.283-0.066-0.797-0.264-0.854-0.819c-0.075-0.747,0.943-0.983-0.221-1.622
					c0.477-0.05,0.951-0.105,1.422-0.17c0.184,0.162,0.525,0.559,0.004,0.918C109.837,140.41,110.427,141.345,111.61,141.472
					L111.61,141.472z M110.049,141.679c-1.169-0.17-1.724-1.115-1.078-1.529c0.531-0.344,0.205-0.751,0.028-0.916
					c-0.476,0.047-0.955,0.086-1.436,0.12c1.152,0.681,0.124,0.884,0.179,1.632c0.037,0.556,0.54,0.769,0.823,0.844
					C109.061,141.784,109.556,141.735,110.049,141.679L110.049,141.679z M108.491,141.835c-0.494,0.044-0.99,0.078-1.488,0.108
					c-0.279-0.087-0.771-0.313-0.793-0.869c-0.033-0.752,1.008-0.924-0.129-1.639c0.479-0.021,0.959-0.044,1.437-0.081
					c0.171,0.174,0.494,0.594-0.052,0.922C106.807,140.669,107.33,141.628,108.491,141.835L108.491,141.835z M106.934,141.948
					c-1.153-0.243-1.648-1.219-0.977-1.59c0.556-0.313,0.242-0.746,0.077-0.92c-0.479,0.02-0.958,0.031-1.438,0.035
					c1.116,0.753,0.074,0.891,0.081,1.641c0.006,0.558,0.494,0.802,0.769,0.896C105.944,141.996,106.44,141.975,106.934,141.948
					L106.934,141.948z M105.376,142.011c-0.432,0.013-0.861,0.018-1.295,0.018l-0.196-0.002c-0.275-0.104-0.754-0.36-0.74-0.918
					c0.015-0.75,1.06-0.854-0.029-1.639c0.319,0.004,0.643,0.013,0.965,0.013c0.158,0,0.312-0.003,0.471-0.009
					c0.158,0.178,0.458,0.621-0.109,0.915C103.762,140.745,104.226,141.734,105.376,142.011L105.376,142.011z M103.808,142.026
					c-1.133-0.314-1.565-1.318-0.876-1.649c0.575-0.274,0.292-0.726,0.138-0.909c-0.479-0.01-0.957-0.025-1.432-0.048
					c1.058,0.813,0.012,0.89-0.027,1.639c-0.028,0.55,0.438,0.822,0.711,0.938C102.812,142.011,103.31,142.023,103.808,142.026
					L103.808,142.026z M102.241,141.99c-0.494-0.017-0.988-0.04-1.479-0.073c-0.266-0.117-0.726-0.407-0.682-0.958
					c0.062-0.747,1.112-0.792,0.075-1.64c0.477,0.039,0.955,0.072,1.436,0.1c0.148,0.191,0.412,0.645-0.168,0.902
					C100.724,140.63,101.121,141.639,102.241,141.99L102.241,141.99z M100.688,141.913c-1.113-0.383-1.483-1.41-0.774-1.697
					c0.588-0.24,0.338-0.703,0.195-0.9c-0.48-0.038-0.956-0.083-1.43-0.138c1.007,0.878-0.042,0.887-0.128,1.634
					c-0.062,0.556,0.395,0.857,0.658,0.984C99.701,141.842,100.194,141.881,100.688,141.913L100.688,141.913z M99.142,141.787
					c-0.493-0.046-0.983-0.099-1.473-0.159c-0.256-0.131-0.718-0.448-0.638-1.009c0.106-0.743,1.153-0.722,0.178-1.628
					c0.472,0.066,0.948,0.127,1.423,0.182c0.137,0.198,0.374,0.67-0.223,0.891C97.691,140.331,98.032,141.376,99.142,141.787
					L99.142,141.787z M97.604,141.618c-1.108-0.445-1.422-1.506-0.691-1.754c0.599-0.199,0.382-0.675,0.25-0.88
					c-0.473-0.068-0.945-0.142-1.416-0.221c0.943,0.931-0.102,0.88-0.23,1.614c-0.099,0.56,0.354,0.891,0.608,1.027
					C96.613,141.484,97.107,141.558,97.604,141.618L97.604,141.618z M96.051,141.396c-0.488-0.08-0.979-0.163-1.466-0.257
					c-0.248-0.146-0.69-0.492-0.575-1.045c0.152-0.733,1.191-0.649,0.289-1.605c0.463,0.094,0.933,0.182,1.403,0.265
					c0.123,0.21,0.319,0.688-0.282,0.87C94.684,139.849,94.963,140.915,96.051,141.396L96.051,141.396z M94.516,141.127
					c-1.075-0.515-1.324-1.591-0.58-1.79c0.605-0.164,0.427-0.644,0.309-0.86c-0.468-0.097-0.934-0.2-1.397-0.312
					c0.875,0.984-0.161,0.868-0.336,1.596c-0.132,0.557,0.305,0.913,0.548,1.066C93.543,140.933,94.027,141.032,94.516,141.127
					L94.516,141.127z M92.995,140.812c-0.485-0.106-0.969-0.221-1.451-0.342c-0.235-0.158-0.67-0.529-0.517-1.084
					c0.196-0.725,1.227-0.577,0.381-1.587c0.459,0.124,0.923,0.242,1.389,0.353c0.11,0.221,0.275,0.704-0.333,0.853
					C91.712,139.179,91.93,140.268,92.995,140.812L92.995,140.812z M91.488,140.455c-1.06-0.574-1.248-1.675-0.49-1.833
					c0.614-0.124,0.465-0.615,0.36-0.839c-0.46-0.124-0.92-0.254-1.375-0.394c0.812,1.033-0.216,0.857-0.434,1.57
					c-0.168,0.553,0.258,0.939,0.489,1.104C90.52,140.2,91.002,140.331,91.488,140.455L91.488,140.455z M89.979,140.045
					c-0.482-0.137-0.961-0.286-1.436-0.438c-0.225-0.172-0.636-0.57-0.452-1.112c0.239-0.709,1.257-0.503,0.482-1.558
					c0.452,0.155,0.905,0.297,1.362,0.437c0.096,0.228,0.228,0.718-0.386,0.827C88.785,138.331,88.94,139.437,89.979,140.045
					L89.979,140.045z M88.481,139.587c-1.017-0.641-1.136-1.746-0.372-1.855c0.617-0.088,0.503-0.578,0.412-0.809
					c-0.452-0.156-0.902-0.319-1.348-0.486c0.749,1.083-0.267,0.842-0.528,1.544c-0.201,0.536,0.196,0.948,0.416,1.126
					C87.531,139.273,88.004,139.436,88.481,139.587L88.481,139.587z M86.999,139.085c-0.467-0.166-0.935-0.338-1.399-0.518
					c-0.212-0.188-0.603-0.61-0.384-1.143c0.283-0.693,1.291-0.423,0.575-1.528c0.441,0.178,0.886,0.356,1.335,0.523
					c0.083,0.233,0.182,0.733-0.439,0.798C85.92,137.305,86.003,138.416,86.999,139.085L86.999,139.085z M85.546,138.546
					c-0.985-0.702-1.038-1.819-0.263-1.88c0.624-0.053,0.535-0.555,0.461-0.787c-0.443-0.182-0.883-0.371-1.319-0.564
					c0.682,1.127-0.318,0.824-0.622,1.508c-0.234,0.527,0.144,0.967,0.352,1.155C84.614,138.174,85.078,138.363,85.546,138.546
					L85.546,138.546z M84.096,137.951c-0.462-0.198-0.919-0.403-1.376-0.613c-0.203-0.199-0.555-0.645-0.31-1.16
					c0.324-0.67,1.314-0.34,0.67-1.486c0.429,0.209,0.861,0.409,1.298,0.602c0.07,0.236,0.141,0.742-0.484,0.775
					C83.122,136.105,83.138,137.223,84.096,137.951L84.096,137.951z M82.66,137.308c-0.926-0.757-0.906-1.868-0.135-1.88
					c0.627-0.014,0.569-0.521,0.509-0.758c-0.434-0.209-0.859-0.428-1.285-0.651c0.617,1.175-0.364,0.812-0.709,1.477
					c-0.262,0.502,0.073,0.956,0.271,1.162C81.757,136.884,82.206,137.096,82.66,137.308L82.66,137.308z M81.248,136.627
					c-0.444-0.224-0.885-0.45-1.322-0.686c-0.192-0.216-0.516-0.678-0.236-1.175c0.366-0.654,1.337-0.259,0.755-1.454
					c0.416,0.233,0.837,0.464,1.263,0.688c0.054,0.236,0.099,0.752-0.531,0.746C80.406,134.733,80.352,135.838,81.248,136.627
					L81.248,136.627z M79.869,135.912c-0.877-0.818-0.792-1.924-0.02-1.891c0.63,0.027,0.599-0.494,0.552-0.733
					c-0.418-0.234-0.832-0.475-1.242-0.721c0.546,1.212-0.41,0.788-0.796,1.43c-0.292,0.485,0.008,0.954,0.195,1.175
					C78.992,135.423,79.428,135.672,79.869,135.912L79.869,135.912z M78.497,135.134c-0.433-0.253-0.86-0.512-1.286-0.776
					c-0.18-0.229-0.453-0.699-0.15-1.169c0.404-0.63,1.348-0.176,0.839-1.407c0.402,0.259,0.808,0.516,1.22,0.763
					c0.041,0.238,0.055,0.76-0.575,0.715C77.779,133.2,77.656,134.296,78.497,135.134L78.497,135.134z M77.149,134.321
					c-0.806-0.863-0.646-1.947,0.115-1.867c0.629,0.064,0.628-0.46,0.596-0.697c-0.404-0.262-0.805-0.527-1.198-0.802
					c0.479,1.253-0.454,0.765-0.881,1.386c-0.315,0.457-0.054,0.938,0.116,1.175C76.31,133.79,76.729,134.061,77.149,134.321
					L77.149,134.321z M75.839,133.477c-0.413-0.279-0.823-0.558-1.227-0.844c-0.163-0.241-0.412-0.731-0.081-1.181
					c0.443-0.605,1.363-0.09,0.92-1.361c0.388,0.284,0.78,0.566,1.173,0.838c0.027,0.237,0.018,0.77-0.614,0.686
					C75.25,131.507,75.059,132.588,75.839,133.477L75.839,133.477z M74.551,132.588c-0.751-0.912-0.528-1.983,0.23-1.856
					c0.627,0.107,0.656-0.425,0.636-0.666c-0.385-0.281-0.768-0.572-1.146-0.869c0.4,1.283-0.5,0.74-0.963,1.33
					c-0.341,0.434-0.118,0.926,0.04,1.173C73.745,132.001,74.145,132.297,74.551,132.588L74.551,132.588z M73.287,131.653
					c-0.713-0.931-0.457-1.989,0.292-1.837c0.624,0.122,0.67-0.404,0.658-0.644c-0.378-0.3-0.749-0.603-1.118-0.91
					c0.36,1.296-0.524,0.725-1.005,1.301c-0.352,0.423-0.147,0.919,0.001,1.168C72.5,131.048,72.892,131.353,73.287,131.653
					L73.287,131.653z M72.053,130.687c-0.382-0.314-0.762-0.628-1.137-0.949c-0.142-0.256-0.333-0.759,0.033-1.171
					c0.499-0.562,1.366,0.037,1.043-1.272c0.356,0.315,0.722,0.633,1.09,0.939c0.005,0.238-0.051,0.771-0.676,0.627
					C71.663,128.689,71.373,129.734,72.053,130.687L72.053,130.687z M70.858,129.688c-0.375-0.322-0.745-0.651-1.111-0.984
					c-0.134-0.264-0.311-0.77,0.069-1.172c0.516-0.549,1.365,0.078,1.079-1.238c0.35,0.33,0.704,0.65,1.062,0.969
					c-0.001,0.238-0.072,0.775-0.694,0.611C70.526,127.676,70.204,128.715,70.858,129.688L70.858,129.688z M69.688,128.647
					c-0.62-0.99-0.267-2.017,0.464-1.799c0.613,0.183,0.705-0.35,0.712-0.587c-0.346-0.329-0.691-0.66-1.028-1
					c0.239,1.323-0.59,0.671-1.12,1.203c-0.389,0.385-0.234,0.891-0.109,1.16C68.961,127.971,69.321,128.313,69.688,128.647
					L69.688,128.647z M68.551,127.571c-0.588-1.009-0.203-2.021,0.521-1.782c0.604,0.202,0.714-0.32,0.73-0.559
					c-0.338-0.344-0.671-0.688-1.001-1.04c0.204,1.335-0.606,0.657-1.153,1.172c-0.401,0.376-0.259,0.89-0.141,1.159
					C67.849,126.878,68.198,127.229,68.551,127.571L68.551,127.571z M67.451,126.465c-0.343-0.354-0.68-0.711-1.011-1.075
					c-0.109-0.272-0.241-0.794,0.175-1.16c0.564-0.5,1.352,0.203,1.19-1.139c0.317,0.36,0.642,0.718,0.969,1.066
					c-0.024,0.239-0.146,0.763-0.75,0.543C67.308,124.438,66.892,125.44,67.451,126.465L67.451,126.465z M66.388,125.332
					c-0.335-0.363-0.662-0.739-0.983-1.116c-0.102-0.277-0.212-0.803,0.211-1.152c0.579-0.479,1.341,0.246,1.224-1.096
					c0.307,0.371,0.618,0.732,0.935,1.092c-0.03,0.235-0.169,0.758-0.766,0.519C66.302,123.294,65.856,124.287,66.388,125.332
					L66.388,125.332z M65.354,124.153c-0.495-1.057-0.021-2.031,0.678-1.727c0.586,0.256,0.741-0.255,0.78-0.49
					c-0.305-0.373-0.606-0.748-0.901-1.123c0.077,1.341-0.663,0.594-1.256,1.057c-0.437,0.336-0.339,0.864-0.248,1.144
					C64.717,123.396,65.032,123.778,65.354,124.153L65.354,124.153z M64.359,122.954c-0.462-1.078,0.043-2.035,0.731-1.711
					c0.578,0.275,0.749-0.232,0.796-0.468c-0.296-0.38-0.584-0.762-0.866-1.149c0.036,1.345-0.682,0.575-1.289,1.021
					c-0.45,0.326-0.365,0.86-0.282,1.141C63.747,122.18,64.051,122.568,64.359,122.954L64.359,122.954z M63.402,121.728
					c-0.294-0.393-0.588-0.793-0.873-1.195c-0.076-0.279-0.147-0.823,0.314-1.14c0.619-0.423,1.314,0.363,1.32-0.974
					c0.271,0.396,0.548,0.786,0.83,1.171c-0.055,0.236-0.24,0.735-0.809,0.445C63.504,119.687,62.967,120.637,63.402,121.728
					L63.402,121.728z M62.486,120.471c-0.286-0.405-0.565-0.814-0.838-1.227c-0.067-0.285-0.124-0.829,0.349-1.129
					c0.63-0.404,1.298,0.402,1.348-0.928c0.259,0.402,0.524,0.803,0.793,1.194c-0.061,0.232-0.263,0.724-0.822,0.417
					C62.646,118.426,62.082,119.362,62.486,120.471L62.486,120.471z M61.605,119.181c-0.371-1.118,0.222-2.036,0.881-1.647
					c0.546,0.324,0.764-0.152,0.833-0.385c-0.257-0.404-0.508-0.812-0.755-1.224c-0.088,1.329-0.734,0.503-1.375,0.888
					c-0.483,0.287-0.443,0.836-0.383,1.121C61.066,118.354,61.333,118.771,61.605,119.181L61.605,119.181z M60.767,117.873
					c-0.342-1.133,0.28-2.038,0.928-1.626c0.538,0.339,0.768-0.132,0.846-0.363c-0.247-0.41-0.484-0.822-0.717-1.243
					c-0.131,1.324-0.75,0.479-1.402,0.845c-0.5,0.274-0.469,0.833-0.417,1.114C60.252,117.031,60.505,117.455,60.767,117.873
					L60.767,117.873z M59.969,116.543c-0.248-0.428-0.49-0.862-0.725-1.298c-0.042-0.283-0.059-0.847,0.45-1.113
					c0.663-0.342,1.253,0.521,1.425-0.792c0.223,0.424,0.448,0.843,0.68,1.261c-0.083,0.228-0.331,0.689-0.854,0.334
					C60.31,114.503,59.654,115.394,59.969,116.543L59.969,116.543z M59.211,115.183c-0.234-0.439-0.463-0.881-0.685-1.326
					c-0.035-0.285-0.033-0.848,0.481-1.095c0.673-0.323,1.237,0.552,1.451-0.746c0.206,0.432,0.42,0.857,0.638,1.28
					c-0.09,0.227-0.353,0.672-0.861,0.304C59.611,113.147,58.931,114.02,59.211,115.183L59.211,115.183z M58.495,113.794
					c-0.246-1.17,0.461-2.021,1.071-1.549c0.497,0.384,0.771-0.051,0.87-0.277c-0.206-0.429-0.403-0.865-0.597-1.301
					c-0.253,1.294-0.789,0.399-1.472,0.699c-0.523,0.233-0.543,0.801-0.519,1.084C58.059,112.904,58.273,113.347,58.495,113.794
					L58.495,113.794z M57.823,112.394c-0.215-1.182,0.519-2.015,1.116-1.523c0.484,0.396,0.773-0.027,0.876-0.25
					c-0.19-0.438-0.376-0.879-0.556-1.319c-0.294,1.286-0.801,0.375-1.492,0.654c-0.539,0.218-0.567,0.795-0.551,1.078
					C57.412,111.491,57.614,111.944,57.823,112.394L57.823,112.394z M57.193,110.981c-0.195-0.463-0.384-0.93-0.565-1.397
					c-0.009-0.283,0.041-0.859,0.583-1.059c0.698-0.258,1.179,0.664,1.511-0.605c0.165,0.447,0.338,0.891,0.517,1.332
					c-0.114,0.219-0.413,0.636-0.886,0.224C57.771,108.965,57.007,109.785,57.193,110.981L57.193,110.981z M56.606,109.525
					c-0.179-0.467-0.354-0.936-0.521-1.409c0-0.284,0.067-0.854,0.614-1.033c0.707-0.238,1.156,0.698,1.527-0.562
					c0.152,0.454,0.311,0.904,0.476,1.351c-0.122,0.215-0.435,0.617-0.891,0.193C57.248,107.536,56.459,108.328,56.606,109.525
					L56.606,109.525z M56.063,108.056c-0.107-1.196,0.704-1.962,1.251-1.417c0.443,0.439,0.769,0.043,0.896-0.167
					c-0.151-0.452-0.294-0.909-0.433-1.367c-0.409,1.253-0.832,0.301-1.547,0.517c-0.551,0.163-0.637,0.732-0.644,1.018
					C55.737,107.111,55.896,107.584,56.063,108.056L56.063,108.056z M55.564,106.578c-0.069-1.202,0.764-1.944,1.298-1.384
					c0.43,0.454,0.767,0.069,0.9-0.138c-0.136-0.457-0.267-0.919-0.392-1.38c-0.447,1.242-0.84,0.276-1.563,0.469
					c-0.558,0.148-0.659,0.719-0.675,1C55.269,105.627,55.415,106.103,55.564,106.578L55.564,106.578z M55.115,105.091
					c-0.137-0.483-0.268-0.968-0.39-1.457c0.024-0.281,0.145-0.843,0.706-0.975c0.729-0.17,1.092,0.808,1.576-0.42
					c0.109,0.465,0.229,0.928,0.351,1.389c-0.14,0.203-0.49,0.581-0.908,0.114C55.935,103.161,55.077,103.882,55.115,105.091
					L55.115,105.091z M54.711,103.573c0.001-1.205,0.876-1.891,1.375-1.299c0.403,0.479,0.763,0.111,0.908-0.085
					c-0.109-0.463-0.212-0.93-0.307-1.399c-0.521,1.209-0.854,0.224-1.587,0.37c-0.56,0.114-0.701,0.663-0.734,0.944
					C54.472,102.595,54.587,103.086,54.711,103.573L54.711,103.573z M54.352,102.043c-0.107-0.489-0.207-0.977-0.299-1.468
					c0.043-0.284,0.201-0.823,0.763-0.921c0.737-0.126,1.04,0.873,1.601-0.326c0.082,0.471,0.167,0.943,0.262,1.412
					c-0.153,0.192-0.523,0.548-0.912,0.057C55.289,100.19,54.396,100.845,54.352,102.043L54.352,102.043z M54.041,100.508
					c0.081-1.193,0.992-1.82,1.451-1.199c0.377,0.51,0.76,0.157,0.917-0.03c-0.08-0.472-0.151-0.947-0.218-1.423
					c-0.6,1.192-0.873,0.179-1.612,0.285c-0.565,0.078-0.737,0.615-0.792,0.896C53.863,99.528,53.948,100.021,54.041,100.508
					L54.041,100.508z M53.775,98.972c-0.075-0.495-0.146-0.989-0.209-1.487c0.063-0.28,0.255-0.808,0.819-0.868
					c0.744-0.08,0.984,0.939,1.621-0.232c0.053,0.475,0.111,0.95,0.176,1.425c-0.16,0.184-0.556,0.525-0.917,0.008
					C54.824,97.183,53.891,97.783,53.775,98.972L53.775,98.972z M53.56,97.413c0.156-1.178,1.103-1.744,1.522-1.1
					c0.345,0.533,0.752,0.2,0.916,0.024c-0.05-0.476-0.095-0.954-0.132-1.433c-0.671,1.154-0.881,0.127-1.626,0.186
					c-0.56,0.041-0.767,0.551-0.841,0.832C53.445,96.421,53.5,96.918,53.56,97.413L53.56,97.413z M53.393,95.847
					c-0.046-0.492-0.085-0.99-0.116-1.486c0.083-0.279,0.308-0.775,0.864-0.802c0.748-0.034,0.926,1,1.632-0.136
					c0.024,0.482,0.052,0.96,0.089,1.438c-0.172,0.171-0.588,0.491-0.917-0.049C54.549,94.154,53.591,94.685,53.393,95.847
					L53.393,95.847z M53.272,94.285c0.236-1.153,1.207-1.651,1.583-0.985c0.315,0.555,0.742,0.244,0.918,0.076
					c-0.02-0.478-0.036-0.959-0.043-1.438c-0.744,1.117-0.89,0.078-1.64,0.089c-0.554,0.011-0.793,0.495-0.889,0.771
					C53.217,93.294,53.243,93.791,53.272,94.285L53.272,94.285z M53.2,92.723c-0.017-0.492-0.026-0.985-0.027-1.481
					c0.1-0.272,0.357-0.755,0.913-0.749c0.748,0.012,0.863,1.057,1.641-0.039c-0.003,0.221-0.007,0.441-0.007,0.666
					c0,0.258,0.004,0.516,0.007,0.774c-0.177,0.159-0.618,0.462-0.915-0.104C54.457,91.113,53.472,91.58,53.2,92.723L53.2,92.723z
					 M53.17,91.17c0.307-1.141,1.308-1.58,1.644-0.893c0.282,0.576,0.728,0.284,0.913,0.131c0.008-0.482,0.022-0.961,0.042-1.436
					c-0.812,1.069-0.893,0.021-1.642-0.013c-0.557-0.024-0.826,0.451-0.935,0.722c-0.014,0.476-0.022,0.957-0.022,1.438V91.17
					L53.17,91.17z M53.195,89.605c0.015-0.497,0.038-0.994,0.066-1.487c0.117-0.27,0.401-0.73,0.956-0.688
					c0.748,0.056,0.798,1.103,1.638,0.063c-0.037,0.476-0.064,0.955-0.085,1.436c-0.188,0.146-0.644,0.418-0.906-0.164
					C54.55,88.069,53.538,88.476,53.195,89.605L53.195,89.605z M53.267,88.045c0.374-1.118,1.399-1.493,1.691-0.785
					c0.244,0.586,0.705,0.331,0.9,0.188c0.036-0.478,0.078-0.955,0.129-1.429c-0.871,1.009-0.889-0.039-1.631-0.115
					c-0.556-0.062-0.855,0.395-0.979,0.66C53.333,87.055,53.297,87.548,53.267,88.045L53.267,88.045z M53.382,86.491
					c0.044-0.494,0.096-0.986,0.156-1.475c0.131-0.26,0.443-0.715,1-0.637c0.741,0.104,0.727,1.147,1.628,0.164
					c-0.066,0.476-0.124,0.95-0.174,1.429c-0.2,0.138-0.668,0.374-0.892-0.218C54.83,85.038,53.792,85.384,53.382,86.491
					L53.382,86.491z M53.544,84.946c0.44-1.102,1.494-1.417,1.744-0.693c0.206,0.6,0.68,0.378,0.883,0.246
					c0.066-0.473,0.138-0.948,0.217-1.418c-0.929,0.951-0.885-0.094-1.622-0.215c-0.562-0.099-0.889,0.36-1.024,0.611
					C53.668,83.966,53.604,84.453,53.544,84.946L53.544,84.946z M53.752,83.414c0.072-0.494,0.158-0.984,0.245-1.473
					c0.143-0.248,0.484-0.701,1.046-0.589c0.731,0.147,0.657,1.188,1.608,0.274c-0.093,0.467-0.178,0.936-0.256,1.406
					c-0.209,0.125-0.689,0.331-0.877-0.273C55.294,82.023,54.221,82.312,53.752,83.414L53.752,83.414z M54.012,81.875
					c0.505-1.086,1.583-1.343,1.789-0.6c0.167,0.605,0.646,0.422,0.861,0.302c0.093-0.47,0.193-0.935,0.301-1.397
					c-0.976,0.879-0.871-0.154-1.597-0.324c-0.557-0.13-0.914,0.311-1.063,0.555C54.199,80.895,54.103,81.383,54.012,81.875
					L54.012,81.875z M54.317,80.344c0.104-0.488,0.218-0.973,0.337-1.453c0.157-0.237,0.526-0.674,1.081-0.525
					c0.721,0.19,0.583,1.224,1.587,0.372c-0.121,0.461-0.24,0.925-0.347,1.393c-0.22,0.109-0.702,0.276-0.849-0.329
					C55.942,79.05,54.854,79.272,54.317,80.344L54.317,80.344z M54.67,78.832c0.567-1.062,1.666-1.257,1.826-0.498
					c0.128,0.611,0.617,0.458,0.84,0.353c0.122-0.461,0.253-0.918,0.387-1.379c-1.029,0.821-0.86-0.205-1.574-0.42
					c-0.555-0.165-0.938,0.264-1.101,0.5C54.914,77.862,54.789,78.347,54.67,78.832L54.67,78.832z M55.065,77.327
					c0.135-0.483,0.275-0.961,0.425-1.436c0.167-0.229,0.567-0.648,1.117-0.467c0.708,0.236,0.508,1.256,1.562,0.473
					c-0.15,0.45-0.293,0.904-0.431,1.363c-0.224,0.097-0.719,0.234-0.828-0.379C56.772,76.118,55.663,76.278,55.065,77.327
					L55.065,77.327z M55.509,75.833c0.631-1.032,1.747-1.159,1.859-0.394c0.091,0.617,0.583,0.498,0.813,0.405
					c0.15-0.451,0.306-0.902,0.47-1.347c-1.071,0.746-0.841-0.264-1.541-0.521c-0.541-0.197-0.95,0.204-1.126,0.428
					C55.82,74.876,55.662,75.353,55.509,75.833L55.509,75.833z M56.004,74.344c0.167-0.472,0.337-0.942,0.516-1.411
					c0.182-0.216,0.604-0.603,1.139-0.388c0.691,0.277,0.43,1.283,1.53,0.562c-0.18,0.444-0.353,0.89-0.519,1.341
					c-0.231,0.083-0.727,0.183-0.8-0.433C57.782,73.246,56.669,73.338,56.004,74.344L56.004,74.344z M56.543,72.877
					c0.692-0.985,1.81-1.042,1.875-0.271c0.054,0.622,0.556,0.529,0.791,0.453c0.179-0.441,0.363-0.885,0.557-1.32
					c-1.126,0.688-0.832-0.309-1.514-0.61c-0.531-0.231-0.965,0.15-1.154,0.358C56.905,71.947,56.721,72.41,56.543,72.877
					L56.543,72.877z M57.12,71.431c0.194-0.46,0.395-0.922,0.601-1.376c0.196-0.203,0.641-0.571,1.166-0.321
					c0.674,0.318,0.347,1.309,1.492,0.654c-0.204,0.432-0.403,0.866-0.595,1.306c-0.235,0.066-0.743,0.145-0.777-0.479
					C58.964,70.439,57.843,70.463,57.12,71.431L57.12,71.431z M57.749,69.997c0.752-0.939,1.871-0.93,1.89-0.157
					c0.014,0.627,0.522,0.566,0.762,0.502c0.206-0.433,0.416-0.86,0.635-1.284c-1.163,0.62-0.809-0.359-1.472-0.703
					c-0.508-0.262-0.96,0.082-1.165,0.28C58.175,69.085,57.958,69.538,57.749,69.997L57.749,69.997z M58.427,68.577
					c0.221-0.449,0.449-0.896,0.684-1.335c0.211-0.193,0.673-0.517,1.171-0.241c0.652,0.362,0.267,1.331,1.455,0.742
					c-0.231,0.422-0.457,0.841-0.677,1.269c-0.241,0.056-0.75,0.104-0.748-0.526C60.317,67.716,59.208,67.667,58.427,68.577
					L58.427,68.577z M59.142,67.186c0.808-0.88,1.913-0.801,1.886-0.03c-0.022,0.631,0.495,0.594,0.733,0.547
					c0.235-0.418,0.473-0.835,0.718-1.246c-1.211,0.555-0.795-0.405-1.435-0.787c-0.494-0.291-0.966,0.021-1.18,0.208
					C59.616,66.308,59.375,66.744,59.142,67.186L59.142,67.186z M59.895,65.82c0.25-0.437,0.508-0.866,0.768-1.293
					c0.226-0.182,0.703-0.47,1.182-0.167c0.629,0.399,0.183,1.348,1.407,0.832c-0.254,0.4-0.506,0.81-0.75,1.222
					c-0.24,0.042-0.763,0.063-0.718-0.566C61.835,65.075,60.73,64.96,59.895,65.82L59.895,65.82z M60.703,64.469
					c0.857-0.825,1.949-0.672,1.875,0.092c-0.063,0.632,0.462,0.622,0.703,0.591c0.257-0.406,0.521-0.806,0.79-1.201
					c-1.245,0.483-0.768-0.45-1.386-0.873c-0.464-0.315-0.944-0.05-1.176,0.125C61.232,63.621,60.962,64.04,60.703,64.469
					L60.703,64.469z M61.545,63.143c0.276-0.414,0.554-0.826,0.84-1.233c0.239-0.167,0.726-0.415,1.179-0.088
					c0.604,0.44,0.097,1.36,1.362,0.913c-0.283,0.391-0.559,0.777-0.829,1.178c-0.24,0.027-0.769,0.018-0.685-0.611
					C63.511,62.537,62.431,62.353,61.545,63.143L61.545,63.143z M62.426,61.847c0.908-0.757,1.979-0.536,1.859,0.218
					c-0.103,0.633,0.43,0.654,0.669,0.633c0.281-0.387,0.57-0.771,0.864-1.15c-1.281,0.411-0.746-0.497-1.336-0.954
					c-0.445-0.342-0.938-0.105-1.183,0.052C63,61.041,62.712,61.443,62.426,61.847L62.426,61.847z M63.344,60.584
					c0.931-0.729,1.995-0.476,1.851,0.275c-0.123,0.627,0.412,0.663,0.65,0.651c0.294-0.379,0.591-0.756,0.896-1.124
					c-1.289,0.368-0.726-0.519-1.305-0.993c-0.425-0.353-0.921-0.143-1.172,0.007C63.951,59.79,63.644,60.187,63.344,60.584
					L63.344,60.584z M64.31,59.341c0.309-0.386,0.625-0.768,0.945-1.146c0.256-0.143,0.756-0.336,1.171,0.027
					c0.564,0.496-0.027,1.365,1.28,1.033c-0.316,0.359-0.632,0.727-0.936,1.096c-0.242,0.006-0.77-0.05-0.629-0.67
					C66.307,58.937,65.258,58.651,64.31,59.341L64.31,59.341z M65.304,58.136c0.321-0.378,0.647-0.75,0.979-1.117
					c0.26-0.136,0.768-0.312,1.17,0.061c0.549,0.517-0.07,1.369,1.25,1.072c-0.329,0.352-0.65,0.709-0.967,1.068
					c-0.241,0-0.775-0.067-0.613-0.689C67.313,57.794,66.274,57.474,65.304,58.136L65.304,58.136z M66.331,56.964
					c0.991-0.633,2.021-0.284,1.81,0.449c-0.18,0.618,0.356,0.699,0.591,0.705c0.329-0.348,0.659-0.693,0.997-1.035
					c-1.325,0.254-0.681-0.579-1.213-1.109c-0.392-0.391-0.902-0.226-1.168-0.097C67.001,56.234,66.664,56.598,66.331,56.964
					L66.331,56.964z M67.4,55.819c1.008-0.6,2.025-0.218,1.791,0.508c-0.198,0.609,0.33,0.71,0.567,0.724
					c0.336-0.338,0.679-0.674,1.027-1.004c-1.33,0.209-0.662-0.602-1.178-1.147c-0.377-0.397-0.887-0.255-1.157-0.138
					C68.096,55.111,67.746,55.462,67.4,55.819L67.4,55.819z M68.506,54.707c0.353-0.344,0.711-0.684,1.076-1.02
					c0.27-0.109,0.789-0.24,1.156,0.172c0.499,0.561-0.198,1.352,1.142,1.182c-0.359,0.32-0.712,0.643-1.061,0.976
					c-0.235-0.024-0.763-0.14-0.544-0.744C70.528,54.557,69.53,54.145,68.506,54.707L68.506,54.707z M69.635,53.638
					c0.362-0.332,0.727-0.665,1.1-0.986c0.273-0.1,0.802-0.224,1.161,0.203c0.479,0.579-0.238,1.345,1.104,1.214
					c-0.367,0.312-0.729,0.625-1.088,0.942c-0.234-0.03-0.757-0.161-0.521-0.758C71.666,53.544,70.677,53.1,69.635,53.638
					L69.635,53.638z M70.788,52.605c1.064-0.515,2.047-0.042,1.749,0.66c-0.255,0.592,0.262,0.74,0.498,0.775
					c0.365-0.309,0.736-0.607,1.11-0.904c-1.337,0.084-0.598-0.661-1.061-1.252c-0.344-0.436-0.874-0.336-1.151-0.24
					C71.547,51.961,71.165,52.277,70.788,52.605L70.788,52.605z M71.993,51.599c1.076-0.477,2.04,0.026,1.72,0.72
					c-0.27,0.577,0.233,0.743,0.47,0.791c0.374-0.301,0.756-0.588,1.143-0.874c-1.341,0.044-0.578-0.679-1.023-1.283
					c-0.331-0.444-0.864-0.36-1.143-0.272C72.765,50.979,72.375,51.285,71.993,51.599L71.993,51.599z M73.219,50.632
					c0.392-0.3,0.789-0.594,1.189-0.879c0.281-0.082,0.823-0.154,1.14,0.307c0.424,0.616-0.357,1.313,0.984,1.311
					c-0.396,0.272-0.784,0.553-1.169,0.836c-0.235-0.052-0.733-0.23-0.447-0.801C75.258,50.722,74.307,50.188,73.219,50.632
					L73.219,50.632z M74.464,49.71c0.403-0.291,0.808-0.572,1.216-0.849c0.282-0.068,0.834-0.132,1.141,0.341
					c0.405,0.629-0.396,1.302,0.938,1.342c-0.401,0.261-0.798,0.526-1.19,0.799c-0.232-0.058-0.727-0.254-0.42-0.814
					C76.514,49.856,75.572,49.292,74.464,49.71L74.464,49.71z M75.74,48.824c1.125-0.389,2.052,0.202,1.666,0.864
					c-0.32,0.55,0.16,0.763,0.393,0.83c0.399-0.26,0.803-0.514,1.21-0.762c-1.323-0.082-0.503-0.73-0.891-1.369
					c-0.289-0.483-0.842-0.439-1.126-0.378C76.571,48.278,76.153,48.548,75.74,48.824L75.74,48.824z M77.052,47.974
					c1.136-0.353,2.042,0.268,1.638,0.916c-0.335,0.538,0.129,0.764,0.36,0.841c0.408-0.248,0.822-0.488,1.242-0.726
					c-1.322-0.121-0.484-0.743-0.85-1.395c-0.277-0.492-0.834-0.462-1.119-0.409C77.898,47.454,77.473,47.708,77.052,47.974
					L77.052,47.974z M78.385,47.166c0.426-0.251,0.855-0.495,1.287-0.732c0.285-0.045,0.851-0.065,1.117,0.441
					c0.345,0.664-0.513,1.261,0.803,1.425c-0.423,0.217-0.841,0.447-1.259,0.684c-0.228-0.084-0.689-0.324-0.337-0.85
					C80.421,47.493,79.532,46.846,78.385,47.166L78.385,47.166z M79.729,46.401c0.435-0.238,0.876-0.472,1.322-0.694
					c0.28-0.037,0.853-0.043,1.105,0.475c0.324,0.673-0.547,1.242,0.758,1.445c-0.432,0.209-0.855,0.427-1.278,0.646
					c-0.227-0.088-0.679-0.345-0.308-0.856C81.774,46.785,80.893,46.105,79.729,46.401L79.729,46.401z M81.111,45.676
					c1.172-0.258,2.033,0.445,1.566,1.062c-0.381,0.499,0.055,0.767,0.28,0.866c0.428-0.207,0.861-0.41,1.295-0.606
					c-1.293-0.243-0.404-0.784-0.707-1.469c-0.236-0.521-0.804-0.536-1.089-0.509C82.004,45.234,81.557,45.449,81.111,45.676
					L81.111,45.676z M82.512,44.994c1.18-0.227,2.022,0.506,1.537,1.109c-0.396,0.484,0.03,0.766,0.25,0.872
					c0.436-0.195,0.875-0.383,1.318-0.566c-1.288-0.282-0.381-0.796-0.664-1.487c-0.22-0.535-0.796-0.562-1.08-0.541
					C83.417,44.58,82.962,44.783,82.512,44.994L82.512,44.994z M83.932,44.355c0.456-0.197,0.913-0.391,1.375-0.572
					c0.28-0.016,0.864,0.026,1.073,0.573c0.261,0.698-0.66,1.187,0.617,1.506c-0.445,0.17-0.89,0.347-1.33,0.528
					c-0.22-0.111-0.64-0.407-0.228-0.881C85.943,44.922,85.125,44.162,83.932,44.355L83.932,44.355z M85.362,43.762
					c0.465-0.185,0.936-0.361,1.408-0.534c0.282-0.002,0.862,0.06,1.052,0.609c0.237,0.704-0.695,1.161,0.569,1.521
					c-0.452,0.154-0.9,0.322-1.345,0.488c-0.216-0.121-0.625-0.425-0.2-0.887C87.37,44.387,86.564,43.594,85.362,43.762
					L85.362,43.762z M86.83,43.208c1.205-0.123,1.981,0.688,1.44,1.245c-0.437,0.445-0.041,0.765,0.168,0.888
					c0.452-0.15,0.906-0.298,1.362-0.44c-1.252-0.398-0.304-0.826-0.522-1.541c-0.169-0.553-0.744-0.633-1.024-0.64
					C87.775,42.878,87.299,43.038,86.83,43.208L86.83,43.208z M88.312,42.702c1.207-0.083,1.954,0.748,1.398,1.287
					c-0.453,0.432-0.066,0.763,0.143,0.897c0.457-0.143,0.916-0.274,1.376-0.4c-1.244-0.438-0.281-0.838-0.477-1.558
					c-0.156-0.557-0.725-0.656-1.007-0.672C89.266,42.399,88.788,42.548,88.312,42.702L88.312,42.702z M89.801,42.238
					c0.479-0.136,0.96-0.272,1.444-0.396c0.283,0.019,0.853,0.134,0.99,0.7c0.175,0.724-0.802,1.096,0.434,1.571
					c-0.468,0.115-0.932,0.233-1.391,0.357c-0.204-0.137-0.584-0.481-0.118-0.902C91.734,43.049,91.011,42.193,89.801,42.238
					L89.801,42.238z M91.301,41.825c1.214-0.014,1.915,0.867,1.325,1.37c-0.48,0.407-0.106,0.764,0.091,0.906
					c0.464-0.112,0.93-0.219,1.399-0.317c-1.219-0.512-0.232-0.852-0.384-1.585c-0.121-0.562-0.679-0.698-0.96-0.729
					C92.277,41.585,91.788,41.7,91.301,41.825L91.301,41.825z M92.833,41.458c0.491-0.113,0.981-0.213,1.475-0.311
					c0.285,0.043,0.83,0.197,0.93,0.758c0.129,0.736-0.869,1.048,0.333,1.597c-0.47,0.083-0.94,0.176-1.406,0.272
					c-0.194-0.148-0.554-0.515-0.062-0.909C94.703,42.384,94.038,41.487,92.833,41.458L92.833,41.458z M94.374,41.136
					c1.196,0.071,1.827,0.984,1.212,1.446c-0.505,0.381-0.154,0.756,0.035,0.914c0.473-0.086,0.945-0.161,1.419-0.23
					c-1.192-0.586-0.182-0.866-0.289-1.606c-0.083-0.562-0.616-0.734-0.897-0.787C95.355,40.954,94.865,41.041,94.374,41.136
					L94.374,41.136z M95.917,40.864c0.492-0.082,0.985-0.157,1.48-0.223c0.283,0.063,0.809,0.252,0.875,0.812
					c0.083,0.745-0.939,0.995,0.245,1.622c-0.477,0.053-0.954,0.113-1.428,0.184c-0.181-0.158-0.528-0.549-0.011-0.915
					C97.705,41.902,97.107,40.972,95.917,40.864L95.917,40.864z M97.463,40.636c1.184,0.146,1.755,1.094,1.114,1.517
					c-0.533,0.354-0.192,0.756-0.014,0.916c0.474-0.052,0.953-0.1,1.432-0.14c-1.167-0.663-0.137-0.881-0.2-1.628
					c-0.048-0.562-0.565-0.77-0.847-0.837C98.452,40.514,97.955,40.569,97.463,40.636L97.463,40.636z M99.021,40.458
					c0.497-0.049,0.995-0.089,1.496-0.125c0.279,0.08,0.78,0.303,0.811,0.861c0.038,0.749-0.999,0.932,0.148,1.632
					c-0.481,0.024-0.958,0.059-1.436,0.097c-0.17-0.166-0.5-0.583,0.043-0.914C100.736,41.604,100.198,40.642,99.021,40.458
					L99.021,40.458z M100.588,40.327c1.162,0.227,1.666,1.199,1,1.582c-0.55,0.314-0.237,0.741-0.069,0.912
					c0.437-0.022,0.875-0.041,1.317-0.05c-1.131-0.735-0.087-0.888-0.102-1.641c-0.015-0.542-0.484-0.782-0.766-0.876
					C101.507,40.272,101.046,40.298,100.588,40.327L100.588,40.327z M102.05,40.251c1.133,0.27,1.595,1.246,0.925,1.604
					c-0.564,0.303-0.254,0.74-0.094,0.917c0.4-0.012,0.797-0.017,1.2-0.017h0.09c-1.106-0.765-0.057-0.886-0.059-1.638
					c0.002-0.548-0.462-0.798-0.74-0.901C102.931,40.223,102.489,40.233,102.05,40.251z"/>
			</g>
			<g>
				<g>
					<g>
						<path fill="#EEEBE7" d="M95.875,66.627l-0.399,1.849h-3.647l-2.022,9.393h-3.602l3.602-16.688
							c-1.925,0.075-3.249,1.174-3.249,5.173c0,1.272,0.325,1.476,0.346,1.696c-1.718,0-2.67-0.625-2.67-2.423
							c0-3.322,2.348-6.493,8.52-6.493c0.998,0,2.571,0.299,4.145,0.299c0.776,0,1.55-0.076,2.249-0.299
							c-0.349,1.048-0.425,2.573-2.374,2.997c-1.148,0-2.347-0.224-3.496-0.475l-1.052,4.971H95.875z"/>
						<path fill="#EEEBE7" d="M100.767,65.378l-0.323,1.551c0.872-0.751,1.823-1.551,3.021-1.551c1.125,0,1.725,0.924,1.725,1.874
							c0,0.874-0.573,1.822-1.8,1.822c-1.4,0-0.698-1.649-1.448-1.649s-1.204,0.378-1.823,0.951l-2,9.492h-3.597l2.646-12.49
							H100.767z"/>
						<path fill="#EEEBE7" d="M110.032,75.92c1.972,0,3.17-1.1,4.421-2.521h0.851c-1.424,2.297-3.55,4.62-6.871,4.62
							c-2.346,0-3.898-1.148-3.898-3.972c0-2.871,1.623-8.893,6.746-8.893c2.225,0,2.748,1.147,2.748,2.396
							c0,2.872-2.748,5.099-5.746,5.271c-0.025,0.351-0.05,0.7-0.05,1C108.232,75.52,108.835,75.92,110.032,75.92z M111.48,66.478
							c-1.274,0-2.497,2.672-2.999,5.146c1.924-0.126,3.625-2.05,3.625-4.122C112.106,66.878,111.956,66.478,111.48,66.478z"/>
						<path fill="#EEEBE7" d="M119.344,75.646c0.951,0,2.15-0.624,2.948-1.323c-0.524,2.847-2.322,3.696-4.322,3.696
							c-2.324,0-3.871-1.148-3.871-3.972c0-2.871,1.623-8.893,6.745-8.893c2.224,0,2.749,1.147,2.749,2.396
							c0,2.897-2.749,5.099-5.744,5.271c-0.029,0.252-0.053,0.524-0.053,0.748C117.796,75.149,118.474,75.646,119.344,75.646z
							 M121.044,66.478c-1.25,0-2.497,2.774-3.024,5.146c1.95-0.1,3.648-2.022,3.648-4.122
							C121.668,66.878,121.521,66.478,121.044,66.478z"/>
					</g>
					<g>
						<linearGradient id="SVGID_4_" gradientUnits="userSpaceOnUse" x1="84.2339" y1="67.9863" x2="99.1475" y2="67.9863">
							<stop  offset="0.0043" style="stop-color:#752D32"/>
							<stop  offset="0.0665" style="stop-color:#7A2D34"/>
							<stop  offset="0.4261" style="stop-color:#942F3C"/>
							<stop  offset="0.7484" style="stop-color:#A43040"/>
							<stop  offset="1" style="stop-color:#AA3042"/>
						</linearGradient>
						<path fill="url(#SVGID_4_)" d="M95.875,66.111l-0.399,1.847h-3.647l-2.022,9.396h-3.602l3.602-16.689
							c-1.925,0.076-3.249,1.176-3.249,5.171c0,1.274,0.325,1.477,0.346,1.698c-1.718,0-2.67-0.625-2.67-2.423
							c0-3.322,2.348-6.493,8.52-6.493c0.998,0,2.571,0.299,4.145,0.299c0.776,0,1.55-0.074,2.249-0.299
							c-0.349,1.047-0.425,2.571-2.374,2.995c-1.148,0-2.347-0.224-3.496-0.476l-1.052,4.974H95.875z"/>
						<linearGradient id="SVGID_5_" gradientUnits="userSpaceOnUse" x1="94.522" y1="71.1084" x2="105.1895" y2="71.1084">
							<stop  offset="0.0043" style="stop-color:#752D32"/>
							<stop  offset="0.0665" style="stop-color:#7A2D34"/>
							<stop  offset="0.4261" style="stop-color:#942F3C"/>
							<stop  offset="0.7484" style="stop-color:#A43040"/>
							<stop  offset="1" style="stop-color:#AA3042"/>
						</linearGradient>
						<path fill="url(#SVGID_5_)" d="M100.767,64.862l-0.323,1.549c0.872-0.75,1.823-1.549,3.021-1.549
							c1.125,0,1.725,0.922,1.725,1.873c0,0.875-0.573,1.825-1.8,1.825c-1.4,0-0.698-1.651-1.448-1.651s-1.204,0.377-1.823,0.949
							l-2,9.496h-3.597l2.646-12.492H100.767z"/>
						<linearGradient id="SVGID_6_" gradientUnits="userSpaceOnUse" x1="104.5342" y1="71.0698" x2="115.3037" y2="71.0698">
							<stop  offset="0.0043" style="stop-color:#752D32"/>
							<stop  offset="0.0665" style="stop-color:#7A2D34"/>
							<stop  offset="0.4261" style="stop-color:#942F3C"/>
							<stop  offset="0.7484" style="stop-color:#A43040"/>
							<stop  offset="1" style="stop-color:#AA3042"/>
						</linearGradient>
						<path fill="url(#SVGID_6_)" d="M110.032,75.403c1.972,0,3.17-1.1,4.421-2.522h0.851c-1.424,2.3-3.55,4.622-6.871,4.622
							c-2.346,0-3.898-1.148-3.898-3.972c0-2.874,1.623-8.895,6.746-8.895c2.225,0,2.748,1.147,2.748,2.397
							c0,2.873-2.748,5.099-5.746,5.271c-0.025,0.352-0.05,0.699-0.05,1.002C108.232,75.005,108.835,75.403,110.032,75.403z
							 M111.48,65.96c-1.274,0-2.497,2.674-2.999,5.146c1.924-0.123,3.625-2.049,3.625-4.122
							C112.106,66.359,111.956,65.96,111.48,65.96z"/>
						<linearGradient id="SVGID_7_" gradientUnits="userSpaceOnUse" x1="114.0986" y1="71.0698" x2="123.5928" y2="71.0698">
							<stop  offset="0.0043" style="stop-color:#752D32"/>
							<stop  offset="0.0665" style="stop-color:#7A2D34"/>
							<stop  offset="0.4261" style="stop-color:#942F3C"/>
							<stop  offset="0.7484" style="stop-color:#A43040"/>
							<stop  offset="1" style="stop-color:#AA3042"/>
						</linearGradient>
						<path fill="url(#SVGID_7_)" d="M119.344,75.129c0.951,0,2.15-0.624,2.948-1.323c-0.524,2.848-2.322,3.697-4.322,3.697
							c-2.324,0-3.871-1.148-3.871-3.972c0-2.874,1.623-8.895,6.745-8.895c2.224,0,2.749,1.147,2.749,2.397
							c0,2.897-2.749,5.099-5.744,5.271c-0.029,0.252-0.053,0.527-0.053,0.748C117.796,74.63,118.474,75.129,119.344,75.129z
							 M121.044,65.96c-1.25,0-2.497,2.773-3.024,5.146c1.95-0.098,3.648-2.023,3.648-4.122
							C121.668,66.359,121.521,65.96,121.044,65.96z"/>
					</g>
				</g>
				<g>
					<g>
						<path fill="#EEEBE7" d="M65.964,96.683l2.997-11.749h1.837L67.033,99.34h-2.98l-0.16-14.406h2.017L65.964,96.683z"/>
						<path fill="#EEEBE7" d="M72.959,91.004h2.742l-0.257,2.057h-2.742l-0.528,4.223h3.451l-0.26,2.057h-5.45l1.807-14.406h5.449
							l-0.259,2.058h-3.45L72.959,91.004z"/>
						<path fill="#EEEBE7" d="M83.067,93.969l-0.238,1.914c-0.29,2.303-1.473,3.621-3.432,3.621c-1.963,0-2.816-1.318-2.526-3.621
							l0.937-7.489c0.287-2.306,1.47-3.625,3.431-3.625c1.961,0,2.814,1.319,2.527,3.625l-0.176,1.396H81.7l0.195-1.541
							c0.128-1.03-0.222-1.421-0.858-1.421c-0.635,0-1.086,0.391-1.213,1.421l-0.974,7.778c-0.129,1.029,0.225,1.399,0.862,1.399
							c0.635,0,1.079-0.37,1.209-1.399l0.257-2.058H83.067z"/>
						<path fill="#EEEBE7" d="M84.832,84.934h6.174l-0.256,2.058H88.66L87.115,99.34h-2l1.549-12.349h-2.09L84.832,84.934z"/>
						<path fill="#EEEBE7" d="M91.28,88.394c0.287-2.306,1.527-3.625,3.487-3.625c1.962,0,2.87,1.319,2.579,3.625l-0.936,7.489
							c-0.29,2.303-1.524,3.621-3.487,3.621s-2.869-1.318-2.58-3.621L91.28,88.394z M92.321,96.026
							c-0.126,1.029,0.223,1.42,0.862,1.42c0.633,0,1.083-0.391,1.212-1.42l0.971-7.778c0.128-1.03-0.222-1.421-0.859-1.421
							c-0.635,0-1.086,0.391-1.213,1.421L92.321,96.026z"/>
						<path fill="#EEEBE7" d="M101.445,99.34c-0.066-0.373-0.109-0.598,0.038-1.77l0.281-2.265c0.169-1.337-0.167-1.831-1.077-1.831
							h-0.69l-0.734,5.865h-1.997l1.802-14.406h3.016c2.072,0,2.827,1.091,2.547,3.314l-0.143,1.13
							c-0.185,1.482-0.726,2.45-1.672,2.926c0.938,0.471,1.128,1.562,0.941,3.064l-0.278,2.223c-0.087,0.7-0.132,1.215,0,1.749
							H101.445z M100.809,86.991l-0.556,4.425h0.783c0.745,0,1.245-0.369,1.388-1.52l0.18-1.424
							c0.126-1.027-0.125-1.481-0.834-1.481H100.809z"/>
						<path fill="#EEEBE7" d="M114.745,88.248l-0.066,0.514c-0.186,1.482-0.703,2.428-1.654,2.902
							c1.013,0.472,1.295,1.563,1.105,3.087l-0.148,1.172c-0.276,2.224-1.462,3.417-3.46,3.417h-3.144l1.804-14.406h3.015
							C114.268,84.934,115.021,86.024,114.745,88.248z M110.923,86.991l-0.479,3.808h0.784c0.743,0,1.244-0.372,1.388-1.521
							l0.102-0.805c0.126-1.027-0.126-1.481-0.833-1.481H110.923z M110.188,92.858l-0.553,4.425h1.143
							c0.67,0,1.08-0.352,1.212-1.421l0.158-1.256c0.167-1.338-0.163-1.748-1.069-1.748H110.188z"/>
						<path fill="#EEEBE7" d="M121.22,99.34h-2.018l-0.019-2.614h-2.452l-0.672,2.614h-1.836l3.837-14.406h2.925L121.22,99.34z
							 M117.229,94.769h1.928l-0.053-7.283L117.229,94.769z"/>
						<path fill="#EEEBE7" d="M123.946,84.934h3.158c1.998,0,2.822,1.255,2.533,3.56l-0.909,7.285
							c-0.289,2.304-1.427,3.562-3.427,3.562h-3.158L123.946,84.934z M125.686,86.991l-1.288,10.292h1.125
							c0.639,0,1.065-0.373,1.191-1.4l0.939-7.489c0.131-1.033-0.204-1.402-0.842-1.402H125.686z"/>
						<path fill="#EEEBE7" d="M133.552,91.316h2.797l-0.57,4.566c-0.289,2.303-1.472,3.621-3.434,3.621
							c-1.96,0-2.814-1.318-2.525-3.621l0.938-7.489c0.288-2.306,1.472-3.625,3.43-3.625c1.968,0,2.813,1.319,2.529,3.625
							l-0.178,1.396h-1.887l0.194-1.541c0.128-1.03-0.225-1.421-0.86-1.421c-0.637,0-1.082,0.391-1.21,1.421l-0.976,7.778
							c-0.129,1.029,0.225,1.399,0.861,1.399c0.635,0,1.08-0.37,1.211-1.399l0.332-2.653h-0.908L133.552,91.316z"/>
						<path fill="#EEEBE7" d="M139.673,91.004h2.746l-0.258,2.057h-2.746l-0.527,4.223h3.451l-0.256,2.057h-5.449l1.802-14.406
							h5.449l-0.257,2.058h-3.453L139.673,91.004z"/>
					</g>
					<g>
						<path fill="#A3897C" d="M66.014,96.288l2.996-11.749h1.838l-3.766,14.404h-2.977l-0.164-14.404h2.021L66.014,96.288z"/>
						<path fill="#A3897C" d="M73.008,90.608h2.742l-0.257,2.059H72.75l-0.527,4.218h3.451l-0.26,2.059h-5.449l1.805-14.404h5.45
							l-0.26,2.058h-3.448L73.008,90.608z"/>
						<path fill="#A3897C" d="M83.115,93.573l-0.237,1.914c-0.291,2.303-1.473,3.621-3.433,3.621c-1.96,0-2.812-1.318-2.526-3.621
							l0.94-7.492c0.283-2.303,1.466-3.621,3.428-3.621c1.964,0,2.815,1.318,2.525,3.621l-0.171,1.399h-1.89l0.191-1.545
							c0.128-1.024-0.221-1.419-0.857-1.419c-0.637,0-1.085,0.395-1.213,1.419l-0.971,7.782c-0.134,1.027,0.221,1.396,0.857,1.396
							s1.083-0.369,1.21-1.396l0.258-2.059H83.115z"/>
						<path fill="#A3897C" d="M84.881,84.539h6.174l-0.256,2.058h-2.087l-1.546,12.347h-1.998l1.546-12.347h-2.09L84.881,84.539z"/>
						<path fill="#A3897C" d="M91.332,87.995c0.286-2.303,1.522-3.621,3.483-3.621c1.963,0,2.869,1.318,2.58,3.621l-0.937,7.492
							c-0.289,2.303-1.524,3.621-3.486,3.621c-1.964,0-2.867-1.318-2.581-3.621L91.332,87.995z M92.37,95.632
							c-0.126,1.027,0.225,1.419,0.862,1.419c0.633,0,1.083-0.392,1.212-1.419l0.971-7.782c0.13-1.024-0.221-1.419-0.855-1.419
							c-0.639,0-1.088,0.395-1.215,1.419L92.37,95.632z"/>
						<path fill="#A3897C" d="M101.494,98.943c-0.065-0.37-0.109-0.596,0.04-1.77l0.282-2.263c0.168-1.338-0.17-1.832-1.077-1.832
							h-0.692l-0.731,5.864h-2l1.805-14.404h3.013c2.07,0,2.825,1.089,2.546,3.311l-0.142,1.132
							c-0.186,1.483-0.723,2.452-1.674,2.924c0.94,0.474,1.13,1.564,0.943,3.066l-0.278,2.224c-0.088,0.699-0.134,1.215,0,1.748
							H101.494z M100.857,86.597l-0.555,4.425h0.783c0.744,0,1.245-0.371,1.391-1.524l0.176-1.422
							c0.129-1.026-0.125-1.479-0.834-1.479H100.857z"/>
						<path fill="#A3897C" d="M114.792,87.85l-0.063,0.517c-0.185,1.481-0.704,2.428-1.655,2.9c1.016,0.474,1.294,1.564,1.105,3.088
							l-0.149,1.172c-0.275,2.223-1.462,3.417-3.46,3.417h-3.143l1.804-14.404h3.015C114.316,84.539,115.071,85.628,114.792,87.85z
							 M110.97,86.597l-0.473,3.808h0.778c0.749,0,1.247-0.373,1.39-1.521l0.1-0.808c0.131-1.026-0.121-1.479-0.83-1.479H110.97z
							 M110.236,92.461l-0.551,4.424h1.142c0.672,0,1.08-0.351,1.216-1.42l0.153-1.253c0.168-1.339-0.161-1.751-1.068-1.751H110.236
							z"/>
						<path fill="#A3897C" d="M121.267,98.943h-2.015l-0.02-2.614h-2.453l-0.67,2.614h-1.834l3.836-14.404h2.927L121.267,98.943z
							 M117.28,94.376h1.925l-0.048-7.287L117.28,94.376z"/>
						<path fill="#A3897C" d="M123.995,84.539h3.157c1.998,0,2.823,1.253,2.537,3.56l-0.911,7.285
							c-0.291,2.304-1.429,3.56-3.426,3.56h-3.162L123.995,84.539z M125.735,86.597l-1.291,10.288h1.128
							c0.636,0,1.063-0.368,1.194-1.397l0.936-7.492c0.131-1.027-0.205-1.398-0.842-1.398H125.735z"/>
						<path fill="#A3897C" d="M133.601,90.916h2.801l-0.574,4.571c-0.287,2.303-1.471,3.621-3.434,3.621
							c-1.959,0-2.812-1.318-2.523-3.621l0.937-7.492c0.288-2.303,1.472-3.621,3.433-3.621s2.812,1.318,2.526,3.621l-0.177,1.399
							h-1.887l0.192-1.545c0.127-1.024-0.222-1.419-0.858-1.419c-0.636,0-1.084,0.395-1.211,1.419l-0.976,7.782
							c-0.131,1.027,0.226,1.396,0.86,1.396c0.633,0,1.084-0.369,1.211-1.396l0.332-2.657h-0.91L133.601,90.916z"/>
						<path fill="#A3897C" d="M139.726,90.608h2.74l-0.256,2.059h-2.745l-0.529,4.218h3.454l-0.26,2.059h-5.449l1.805-14.404h5.449
							l-0.258,2.058h-3.451L139.726,90.608z"/>
					</g>
				</g>
				<g>
					<g>
						<g>
							<polygon fill="#EEEBE7" points="75.207,67.571 76.202,69.582 78.423,69.904 76.814,71.473 77.194,73.684 75.207,72.639 
								73.22,73.684 73.6,71.473 71.993,69.904 74.214,69.582 							"/>
						</g>
						<polygon fill="#EEEBE7" points="132.956,67.571 133.948,69.582 136.171,69.904 134.563,71.473 134.942,73.684 132.956,72.639 
							130.969,73.684 131.349,71.473 129.74,69.904 131.964,69.582 						"/>
					</g>
					<g>
						<g>
							<linearGradient id="SVGID_8_" gradientUnits="userSpaceOnUse" x1="77.0166" y1="65.7383" x2="76.9157" y2="65.9738">
								<stop  offset="0.0043" style="stop-color:#752D32"/>
								<stop  offset="0.0665" style="stop-color:#7A2D34"/>
								<stop  offset="0.4261" style="stop-color:#942F3C"/>
								<stop  offset="0.7484" style="stop-color:#A43040"/>
								<stop  offset="1" style="stop-color:#AA3042"/>
							</linearGradient>
							<polygon fill="url(#SVGID_8_)" points="75.207,67.17 76.202,69.183 78.423,69.503 76.814,71.071 77.194,73.283 
								75.207,72.238 73.22,73.283 73.6,71.071 71.993,69.503 74.214,69.183 							"/>
						</g>
						<linearGradient id="SVGID_9_" gradientUnits="userSpaceOnUse" x1="134.7646" y1="65.7383" x2="134.6637" y2="65.9738">
							<stop  offset="0.0043" style="stop-color:#752D32"/>
							<stop  offset="0.0665" style="stop-color:#7A2D34"/>
							<stop  offset="0.4261" style="stop-color:#942F3C"/>
							<stop  offset="0.7484" style="stop-color:#A43040"/>
							<stop  offset="1" style="stop-color:#AA3042"/>
						</linearGradient>
						<polygon fill="url(#SVGID_9_)" points="132.956,67.17 133.948,69.183 136.171,69.503 134.563,71.071 134.942,73.283 
							132.956,72.238 130.969,73.283 131.349,71.071 129.74,69.503 131.964,69.183 						"/>
					</g>
				</g>
			</g>
		</g>
	</g>
	<g>
		<g>
			<linearGradient id="SVGID_10_" gradientUnits="userSpaceOnUse" x1="34.5244" y1="129.8115" x2="5.7871" y2="129.8115">
				<stop  offset="0.0043" style="stop-color:#752D32"/>
				<stop  offset="0.0665" style="stop-color:#7A2D34"/>
				<stop  offset="0.4261" style="stop-color:#942F3C"/>
				<stop  offset="0.7484" style="stop-color:#A43040"/>
				<stop  offset="1" style="stop-color:#AA3042"/>
			</linearGradient>
			<polygon fill="url(#SVGID_10_)" points="0.055,116.676 8.677,129.812 0,142.926 0,142.947 29.473,142.947 29.473,116.676 			"/>
			<polygon fill="#762830" points="29.487,142.947 17.095,138.68 29.464,138.68 			"/>
			<linearGradient id="SVGID_11_" gradientUnits="userSpaceOnUse" x1="48.3882" y1="125.5039" x2="15.6931" y2="125.5039">
				<stop  offset="0.0043" style="stop-color:#752D32"/>
				<stop  offset="0.0665" style="stop-color:#7A2D34"/>
				<stop  offset="0.4261" style="stop-color:#942F3C"/>
				<stop  offset="0.7484" style="stop-color:#A43040"/>
				<stop  offset="1" style="stop-color:#AA3042"/>
			</linearGradient>
			<polyline fill="url(#SVGID_11_)" points="17.1,138.622 17.1,138.639 46.571,138.639 46.571,112.369 17.153,112.369 17.1,138.639 
							"/>
			<polygon fill="#762830" points="46.586,138.639 34.193,134.372 46.561,134.372 			"/>
			<linearGradient id="SVGID_12_" gradientUnits="userSpaceOnUse" x1="177.1299" y1="129.8115" x2="209.3141" y2="129.8115">
				<stop  offset="0.0043" style="stop-color:#752D32"/>
				<stop  offset="0.0665" style="stop-color:#7A2D34"/>
				<stop  offset="0.4261" style="stop-color:#942F3C"/>
				<stop  offset="0.7484" style="stop-color:#A43040"/>
				<stop  offset="1" style="stop-color:#AA3042"/>
			</linearGradient>
			<polygon fill="url(#SVGID_12_)" points="207.771,116.676 199.15,129.812 207.826,142.926 207.826,142.947 178.354,142.947 
				178.354,116.676 			"/>
			<polygon fill="#762830" points="178.341,142.947 190.731,138.68 178.362,138.68 			"/>
			<linearGradient id="SVGID_13_" gradientUnits="userSpaceOnUse" x1="159.7988" y1="125.5039" x2="191.4885" y2="125.5039">
				<stop  offset="0.0043" style="stop-color:#752D32"/>
				<stop  offset="0.0665" style="stop-color:#7A2D34"/>
				<stop  offset="0.4261" style="stop-color:#942F3C"/>
				<stop  offset="0.7484" style="stop-color:#A43040"/>
				<stop  offset="1" style="stop-color:#AA3042"/>
			</linearGradient>
			<polyline fill="url(#SVGID_13_)" points="190.728,138.622 190.728,138.639 161.256,138.639 161.256,112.369 190.673,112.369 
				190.728,138.639 			"/>
			<polygon fill="#762830" points="161.241,138.639 173.634,134.372 161.266,134.372 			"/>
			<linearGradient id="SVGID_14_" gradientUnits="userSpaceOnUse" x1="103.9673" y1="177.1963" x2="103.9673" y2="94.9437">
				<stop  offset="0.0043" style="stop-color:#752D32"/>
				<stop  offset="0.0665" style="stop-color:#7A2D34"/>
				<stop  offset="0.4261" style="stop-color:#942F3C"/>
				<stop  offset="0.7484" style="stop-color:#A43040"/>
				<stop  offset="1" style="stop-color:#AA3042"/>
			</linearGradient>
			<rect x="34.146" y="108.101" fill="url(#SVGID_14_)" width="139.643" height="26.271"/>
		</g>
		<g>
			<path fill="#FFFFFF" d="M45.281,123.605v-2.528L43,117.857h-0.936V116.9h3.15v0.957H44.25l1.692,2.369l1.546-2.369h-0.96V116.9
				h3.051v0.957h-1.013l-2.128,3.22v2.528h1.048v0.957H44.25v-0.957H45.281z"/>
			<path fill="#FFFFFF" d="M50.31,120.695c0-1.111,0.363-2.045,1.091-2.793s1.674-1.123,2.844-1.123
				c1.178,0,2.138,0.375,2.881,1.123c0.741,0.748,1.112,1.688,1.112,2.815c0,1.15-0.377,2.098-1.131,2.846
				c-0.756,0.746-1.716,1.12-2.88,1.12c-0.741,0-1.424-0.176-2.046-0.53c-0.623-0.355-1.09-0.849-1.402-1.481
				C50.466,122.036,50.31,121.38,50.31,120.695z M51.571,120.701c0,0.84,0.247,1.547,0.738,2.114
				c0.492,0.572,1.139,0.855,1.938,0.855c0.794,0,1.447-0.291,1.957-0.872c0.511-0.583,0.767-1.278,0.767-2.085
				c0-0.818-0.261-1.506-0.779-2.07c-0.522-0.564-1.174-0.846-1.96-0.846c-0.783,0-1.422,0.276-1.918,0.831
				C51.819,119.184,51.571,119.876,51.571,120.701z"/>
			<path fill="#FFFFFF" d="M62.176,117.857v3.835c0,0.596,0.03,1.008,0.091,1.233c0.061,0.229,0.212,0.423,0.455,0.583
				c0.242,0.157,0.553,0.239,0.935,0.239c0.456,0,0.806-0.069,1.049-0.206c0.242-0.138,0.401-0.324,0.479-0.557
				c0.081-0.234,0.12-0.646,0.12-1.236v-3.892h-0.887V116.9h2.998v0.957h-0.959v4.007c0,0.539-0.023,0.931-0.068,1.177
				c-0.046,0.243-0.171,0.498-0.373,0.765c-0.202,0.265-0.487,0.479-0.853,0.639c-0.368,0.161-0.815,0.239-1.34,0.239
				c-0.579,0-1.062-0.074-1.447-0.224c-0.388-0.148-0.676-0.346-0.871-0.595c-0.194-0.251-0.325-0.517-0.389-0.802
				c-0.064-0.281-0.097-0.72-0.097-1.314v-3.892h-0.948V116.9h3.014v0.957H62.176z"/>
			<path fill="#FFFFFF" d="M74.846,123.605v-5.748h-1.581v1.958h-0.947V116.9h6.209v2.915h-0.948v-1.958h-1.575v5.748h0.998v0.957
				h-3.135v-0.957H74.846z"/>
			<path fill="#FFFFFF" d="M80.957,123.605v-5.748h-0.872V116.9h2.932v0.957h-0.904v2.192h3.333v-2.192h-0.898V116.9h2.932v0.957
				h-0.876v5.748h0.876v0.957h-2.932v-0.957h0.898v-2.595h-3.333v2.595h0.904v0.957h-2.932v-0.957H80.957z"/>
			<path fill="#FFFFFF" d="M90.199,123.605v-5.748h-0.991V116.9h6.37v2.308h-0.948v-1.351h-3.271v2.283h2.847v0.958h-2.847v2.507
				h3.271v-1.396h0.948v2.353h-6.37v-0.957H90.199z"/>
			<path fill="#FFFFFF" d="M102.215,123.605v-5.748h-1.042V116.9h2.964c0.819,0,1.451,0.043,1.892,0.127
				c0.443,0.083,0.873,0.275,1.287,0.572c0.414,0.298,0.749,0.705,0.994,1.227c0.248,0.518,0.373,1.111,0.373,1.774
				c0,0.758-0.119,1.414-0.358,1.974c-0.237,0.56-0.552,0.974-0.938,1.251c-0.389,0.274-0.85,0.468-1.384,0.574
				c-0.534,0.108-1.216,0.163-2.041,0.163h-2.789v-0.957H102.215z M103.371,123.605h0.607c0.674,0,1.209-0.042,1.605-0.127
				c0.395-0.085,0.729-0.228,1.001-0.433c0.272-0.203,0.492-0.512,0.659-0.924c0.17-0.41,0.255-0.896,0.255-1.454
				c0-0.665-0.138-1.229-0.416-1.69c-0.276-0.464-0.632-0.767-1.062-0.909c-0.432-0.139-1.096-0.211-1.992-0.211h-0.656V123.605z"/>
			<path fill="#FFFFFF" d="M111.685,123.605v-5.748h-0.992V116.9h6.367v2.308h-0.945v-1.351h-3.273v2.283h2.85v0.958h-2.85v2.507
				h3.273v-1.396h0.945v2.353h-6.367v-0.957H111.685z"/>
			<path fill="#FFFFFF" d="M118.956,124.562v-2.781h0.959v0.677c0.459,0.832,1.059,1.254,1.801,1.254
				c0.379,0,0.698-0.118,0.959-0.349c0.261-0.233,0.391-0.536,0.391-0.91c0-0.363-0.105-0.626-0.319-0.786
				c-0.214-0.156-0.616-0.318-1.206-0.475c-0.688-0.185-1.195-0.357-1.526-0.521c-0.33-0.164-0.595-0.396-0.792-0.699
				c-0.195-0.305-0.293-0.661-0.293-1.077c0-0.645,0.214-1.158,0.641-1.541c0.428-0.383,0.966-0.574,1.612-0.574
				c0.612,0,1.183,0.197,1.708,0.596v-0.514h0.937v2.325h-0.937v-0.536c-0.393-0.59-0.936-0.887-1.625-0.887
				c-0.419,0-0.74,0.099-0.965,0.291s-0.336,0.424-0.336,0.691c0,0.205,0.057,0.387,0.17,0.541c0.114,0.157,0.26,0.271,0.438,0.345
				c0.174,0.076,0.521,0.176,1.04,0.309c0.676,0.176,1.167,0.34,1.472,0.493c0.305,0.152,0.566,0.405,0.787,0.763
				c0.22,0.355,0.332,0.766,0.332,1.229c0,0.654-0.23,1.195-0.693,1.622c-0.461,0.425-1.031,0.637-1.711,0.637
				c-0.698,0-1.324-0.251-1.883-0.756v0.635H118.956z"/>
			<path fill="#FFFFFF" d="M126.866,123.605v-5.748h-0.826V116.9h2.81v0.957h-0.827v5.748h0.827v0.957h-2.81v-0.957H126.866z"/>
			<path fill="#FFFFFF" d="M136.061,120.868h2.788c0.003,0.097,0.006,0.188,0.006,0.264c0,1.074-0.354,1.937-1.059,2.585
				c-0.705,0.645-1.636,0.967-2.793,0.967c-1.385,0-2.417-0.392-3.096-1.181c-0.681-0.787-1.021-1.721-1.021-2.796
				c0-1.127,0.35-2.063,1.043-2.81c0.693-0.745,1.637-1.118,2.826-1.118c1.07,0,1.965,0.324,2.688,0.975V116.9h0.976v2.52h-0.976
				c-0.185-0.424-0.509-0.799-0.978-1.128c-0.469-0.33-1.004-0.494-1.606-0.494c-0.837,0-1.497,0.281-1.982,0.85
				c-0.485,0.563-0.728,1.245-0.728,2.045c0,0.914,0.275,1.639,0.83,2.174c0.551,0.537,1.217,0.805,1.997,0.805
				c0.608,0,1.153-0.172,1.629-0.51c0.478-0.339,0.758-0.785,0.838-1.336h-1.383V120.868z"/>
			<path fill="#FFFFFF" d="M141.667,123.605v-5.748h-1.096V116.9h2.617l3.361,5.958v-5.001h-1.084V116.9h3.145v0.957h-1.13v6.782
				h-1.187l-3.677-6.54v5.506h1.096v0.957h-3.142v-0.957H141.667z"/>
			<path fill="#FFFFFF" d="M151.06,123.605v-5.748h-0.99V116.9h6.369v2.308h-0.947v-1.351h-3.272v2.283h2.849v0.958h-2.849v2.507
				h3.272v-1.396h0.947v2.353h-6.369v-0.957H151.06z"/>
			<path fill="#FFFFFF" d="M159.136,123.605v-5.748h-1.051V116.9h3.112c0.651,0,1.167,0.051,1.548,0.15
				c0.383,0.102,0.699,0.316,0.947,0.641c0.252,0.325,0.375,0.729,0.375,1.213c0,1.016-0.526,1.651-1.578,1.912l1.354,2.789h0.936
				v0.957h-1.66l-1.744-3.579h-1.08v2.622h0.98v0.957h-3.189v-0.957H159.136z M160.294,120.022h0.903
				c0.437,0,0.759-0.028,0.968-0.085c0.206-0.058,0.377-0.172,0.509-0.348c0.134-0.173,0.2-0.406,0.2-0.7
				c0-0.251-0.068-0.464-0.203-0.633c-0.134-0.174-0.3-0.283-0.495-0.331c-0.197-0.045-0.497-0.068-0.901-0.068h-0.98V120.022z"/>
		</g>
	</g>
</g>
</svg>
