<?xml version="1.0" encoding="utf-8"?>
<!-- Generator: Adobe Illustrator 15.0.0, SVG Export Plug-In . SVG Version: 6.00 Build 0)  -->
<!DOCTYPE svg PUBLIC "-//W3C//DTD SVG 1.1//EN" "http://www.w3.org/Graphics/SVG/1.1/DTD/svg11.dtd">
<svg version="1.1" id="Ebene_1" xmlns="http://www.w3.org/2000/svg" xmlns:xlink="http://www.w3.org/1999/xlink" x="0px" y="0px"
	 height="143.65px" viewBox="0 0 144.416 143.65" enable-background="new 0 0 144.416 143.65"
	 xml:space="preserve">
<g>
	<g>
		<g>
			<g>
				<linearGradient id="SVGID_1_" gradientUnits="userSpaceOnUse" x1="119.2041" y1="4.3447" x2="38.6672" y2="118.4073">
					<stop  offset="0.0043" style="stop-color:#9FA2A6"/>
					<stop  offset="1" style="stop-color:#7A8086"/>
				</linearGradient>
				<polygon fill="url(#SVGID_1_)" points="87.201,0 96.742,15.732 114.802,12.233 117.119,30.487 135.039,34.643 129.733,52.256 
					144.416,63.34 132.402,77.272 141.31,93.37 124.666,101.212 126.256,119.542 107.859,119.936 101.856,137.327 84.894,130.206 
					72.336,143.65 59.733,130.249 42.793,137.421 36.736,120.05 18.336,119.714 19.869,101.382 3.202,93.591 12.058,77.467 0,63.57 
					14.645,52.439 9.283,34.84 27.193,30.63 29.452,12.372 47.519,15.811 57.007,0.049 72.123,10.54 				"/>
				<linearGradient id="SVGID_2_" gradientUnits="userSpaceOnUse" x1="0" y1="71.8257" x2="144.416" y2="71.8257">
					<stop  offset="0.0043" style="stop-color:#9FA2A6"/>
					<stop  offset="1" style="stop-color:#BFBFC2"/>
				</linearGradient>
				<polygon fill="url(#SVGID_2_)" points="72.209,0.013 84.788,13.437 101.742,6.288 107.771,23.67 126.162,24.037 124.609,42.366 
					141.261,50.184 132.381,66.294 144.416,80.207 129.751,91.317 135.086,108.923 117.174,113.103 114.884,131.356 96.817,127.892 
					87.304,143.639 72.209,133.123 57.114,143.639 47.601,127.892 29.53,131.356 27.244,113.103 9.329,108.923 14.663,91.317 
					0,80.207 12.034,66.294 3.157,50.181 19.809,42.366 18.252,24.037 36.645,23.67 42.672,6.288 59.628,13.437 				"/>
			</g>
			<g>
				<linearGradient id="SVGID_3_" gradientUnits="userSpaceOnUse" x1="-85.8604" y1="-55.4995" x2="126.1326" y2="115.2612">
					<stop  offset="0.0043" style="stop-color:#B8BABF"/>
					<stop  offset="1" style="stop-color:#EBECEE"/>
				</linearGradient>
				<path fill="url(#SVGID_3_)" stroke="#7A8086" stroke-width="1.3" stroke-miterlimit="3" d="M107.979,71.826
					c0,19.754-16.011,35.768-35.77,35.768c-19.754,0-35.77-16.014-35.77-35.768c0-19.752,16.016-35.769,35.77-35.769
					C91.968,36.058,107.979,52.074,107.979,71.826z"/>
				<g>
					<path fill="#929395" d="M72.211,39.478h-0.014h-0.004h-0.006h-0.01h-0.006h-0.006l0,0c-0.418,0-0.76,0.338-0.76,0.763
						c0.002,0.418,0.342,0.761,0.76,0.761h0.004h0.041c0.418-0.004,0.758-0.343,0.758-0.764
						C72.969,39.815,72.629,39.478,72.211,39.478L72.211,39.478z M68.313,39.716l-0.094,0.006h-0.012l0,0h-0.01l0,0l-0.012,0.004
						h-0.01c-0.418,0.055-0.711,0.434-0.66,0.848c0.047,0.385,0.377,0.67,0.755,0.67l0.091-0.007l0.045-0.006
						c0.415-0.052,0.709-0.43,0.664-0.849C69.022,39.995,68.689,39.716,68.313,39.716z M64.477,40.429l-0.188,0.023l-0.01,0.003
						l-0.021,0.007l-0.006,0.002c-0.412,0.101-0.66,0.519-0.555,0.924c0.088,0.346,0.397,0.576,0.74,0.576l0.188-0.024l0.036-0.012
						c0.406-0.101,0.654-0.516,0.551-0.921C65.128,40.658,64.815,40.429,64.477,40.429z M60.758,41.615
						c-0.092,0-0.183,0.019-0.273,0.052l-0.045,0.018c-0.391,0.151-0.582,0.595-0.431,0.985c0.118,0.299,0.409,0.484,0.709,0.484
						c0.094,0,0.188-0.016,0.278-0.055l0.037-0.012c0.391-0.154,0.584-0.598,0.434-0.988C61.352,41.8,61.062,41.615,60.758,41.615z
						 M57.214,43.254c-0.121,0-0.246,0.031-0.361,0.094l-0.012,0.006l-0.009,0.004l0,0l-0.019,0.008
						c-0.369,0.203-0.502,0.664-0.306,1.033c0.14,0.254,0.403,0.396,0.675,0.396c0.119,0,0.246-0.029,0.357-0.09l0.037-0.02
						c0.369-0.199,0.506-0.662,0.305-1.031C57.747,43.398,57.485,43.254,57.214,43.254z M53.902,45.316
						c-0.15,0-0.305,0.049-0.441,0.143l-0.012,0.012l-0.01,0.006l-0.016,0.01c-0.342,0.245-0.418,0.718-0.176,1.06
						c0.148,0.209,0.385,0.318,0.621,0.318c0.154,0,0.307-0.045,0.443-0.14l0.029-0.026c0.346-0.243,0.424-0.719,0.182-1.061
						C54.373,45.429,54.139,45.316,53.902,45.316z M50.868,47.776c-0.185,0-0.366,0.062-0.515,0.199l-0.027,0.023l-0.003,0.008
						c-0.309,0.281-0.33,0.766-0.046,1.07c0.148,0.164,0.354,0.25,0.561,0.25c0.185,0,0.369-0.067,0.518-0.203l0.031-0.027
						c0.306-0.281,0.33-0.768,0.042-1.076C51.274,47.858,51.074,47.776,50.868,47.776z M48.161,50.583
						c-0.215,0-0.434,0.091-0.582,0.271l-0.027,0.029c-0.272,0.321-0.233,0.803,0.088,1.076c0.143,0.121,0.314,0.178,0.494,0.178
						c0.215,0,0.426-0.09,0.578-0.27l0.023-0.027c0.275-0.32,0.236-0.799-0.084-1.074C48.509,50.644,48.333,50.583,48.161,50.583z
						 M45.816,53.706c-0.248,0-0.49,0.118-0.639,0.343l-0.01,0.018l0,0l-0.006,0.01v0.002l-0.01,0.006
						c-0.23,0.349-0.129,0.821,0.222,1.052c0.128,0.088,0.272,0.127,0.418,0.127c0.245,0,0.491-0.121,0.636-0.342l0.021-0.034
						c0.233-0.351,0.133-0.823-0.218-1.057C46.104,53.746,45.959,53.706,45.816,53.706z M43.871,57.093
						c-0.277,0-0.551,0.154-0.681,0.424l-0.019,0.029v0.006c-0.188,0.379-0.033,0.834,0.346,1.021
						c0.109,0.051,0.221,0.078,0.336,0.078c0.281,0,0.549-0.156,0.686-0.426l0.014-0.034c0.188-0.378,0.031-0.835-0.344-1.021
						C44.1,57.116,43.986,57.093,43.871,57.093z M42.367,60.69c-0.321,0-0.612,0.196-0.722,0.513l-0.006,0.018v0.002l-0.006,0.007
						v0.007l-0.003,0.006c-0.137,0.396,0.072,0.832,0.466,0.969c0.085,0.027,0.17,0.043,0.252,0.043
						c0.317,0,0.614-0.201,0.721-0.512l0.015-0.041c0.137-0.396-0.075-0.829-0.469-0.969C42.53,60.705,42.448,60.69,42.367,60.69z
						 M41.315,64.452c-0.352,0-0.666,0.242-0.745,0.6l-0.009,0.033v0.01c-0.088,0.408,0.176,0.814,0.588,0.902l0.157,0.016
						c0.352,0,0.669-0.246,0.742-0.604l0.009-0.039c0.088-0.412-0.176-0.815-0.582-0.903L41.315,64.452z M40.74,68.311
						c-0.392,0-0.722,0.297-0.761,0.693v0.049c-0.035,0.415,0.275,0.781,0.691,0.818l0.066,0.002c0.388,0,0.721-0.299,0.757-0.696
						l0.003-0.039c0.037-0.421-0.275-0.788-0.693-0.824L40.74,68.311z M40.644,72.215h-0.027c-0.422,0.016-0.748,0.369-0.732,0.787
						v0.019l0.002,0.027c0.012,0.408,0.348,0.729,0.758,0.729h0.027c0.424-0.015,0.751-0.369,0.732-0.787v-0.043
						C41.388,72.539,41.05,72.215,40.644,72.215z M41.021,76.101l-0.124,0.01c-0.412,0.066-0.693,0.457-0.627,0.871l0.004,0.024
						v0.021c0.062,0.369,0.384,0.636,0.75,0.636l0.125-0.012c0.414-0.063,0.696-0.455,0.63-0.873l-0.003-0.035
						C41.712,76.366,41.388,76.101,41.021,76.101z M41.876,79.908c-0.069,0-0.143,0.012-0.212,0.033
						c-0.406,0.115-0.636,0.535-0.519,0.941l0.004,0.01v0.002l0,0l0.006,0.012v0.016c0.1,0.334,0.399,0.549,0.732,0.549
						c0.07,0,0.143-0.01,0.209-0.031c0.409-0.117,0.64-0.541,0.524-0.944l-0.016-0.04C42.509,80.123,42.203,79.908,41.876,79.908z
						 M43.199,83.579c-0.103,0-0.205,0.021-0.303,0.062c-0.388,0.168-0.566,0.615-0.396,1l0.003,0.01v0.002h0.003l0.012,0.031
						c0.121,0.283,0.403,0.457,0.697,0.457c0.1,0,0.203-0.021,0.303-0.064c0.387-0.166,0.561-0.617,0.395-1.002l-0.014-0.037
						C43.771,83.751,43.494,83.579,43.199,83.579z M44.965,87.059c-0.131,0-0.264,0.036-0.385,0.105
						c-0.365,0.213-0.484,0.68-0.271,1.043l0.012,0.021l0.012,0.018c0.143,0.238,0.395,0.373,0.654,0.373
						c0.133,0,0.264-0.033,0.388-0.107c0.36-0.215,0.479-0.682,0.27-1.045l-0.021-0.033C45.48,87.195,45.226,87.059,44.965,87.059z
						 M47.149,90.297c-0.164,0-0.328,0.048-0.464,0.156c-0.333,0.258-0.396,0.733-0.14,1.066l0.007,0.003v0.007l0.021,0.024
						c0.148,0.193,0.376,0.297,0.604,0.297c0.16,0,0.326-0.052,0.463-0.158c0.33-0.258,0.395-0.736,0.133-1.069l-0.021-0.03
						C47.603,90.398,47.376,90.297,47.149,90.297z M49.714,93.237c-0.193,0-0.387,0.072-0.533,0.221
						c-0.303,0.293-0.303,0.775-0.012,1.072l0.021,0.021l0.012,0.012c0.148,0.152,0.342,0.227,0.543,0.227
						c0.193,0,0.385-0.074,0.532-0.221c0.297-0.293,0.3-0.777,0.007-1.078l-0.031-0.027C50.108,93.313,49.908,93.237,49.714,93.237z
						 M52.619,95.842c-0.225,0-0.442,0.104-0.597,0.291c-0.261,0.33-0.206,0.809,0.124,1.068l0.033,0.025
						c0.139,0.111,0.307,0.166,0.473,0.166c0.225,0,0.447-0.098,0.596-0.287c0.262-0.334,0.203-0.812-0.123-1.072l-0.033-0.024
						C52.951,95.899,52.789,95.842,52.619,95.842z M55.823,98.074c-0.258,0-0.509,0.131-0.651,0.365
						c-0.218,0.361-0.105,0.828,0.252,1.046l0.033,0.019l0.009,0.006c0.121,0.072,0.258,0.109,0.391,0.109
						c0.258,0,0.509-0.131,0.651-0.367c0.218-0.36,0.103-0.83-0.255-1.047l-0.036-0.02C56.096,98.109,55.96,98.074,55.823,98.074z
						 M59.282,99.892c-0.297,0-0.572,0.166-0.699,0.451c-0.17,0.381,0,0.832,0.381,1.006l0.01,0.002l0.033,0.013
						c0.103,0.046,0.203,0.067,0.306,0.067c0.291,0,0.569-0.168,0.696-0.449c0.173-0.385,0-0.836-0.381-1.009l-0.04-0.015
						C59.488,99.912,59.382,99.892,59.282,99.892z M62.932,101.267c-0.326,0-0.629,0.212-0.73,0.535
						c-0.123,0.404,0.104,0.83,0.504,0.955h0.012l0.002,0.002h0.004l0.006,0.004l0.018,0.002l0,0
						c0.076,0.025,0.148,0.037,0.223,0.037c0.326,0,0.629-0.213,0.729-0.539c0.121-0.402-0.105-0.83-0.506-0.951l-0.039-0.012
						C63.08,101.275,63.004,101.267,62.932,101.267z M66.724,102.179c-0.36,0-0.684,0.256-0.748,0.629
						c-0.072,0.412,0.203,0.807,0.617,0.879l0.014,0.002h0.006h0.002l0.021,0.007l0.133,0.009c0.361,0,0.682-0.26,0.746-0.627
						c0.072-0.418-0.207-0.809-0.621-0.881l-0.037-0.01L66.724,102.179z M70.607,102.61c-0.406,0-0.742,0.316-0.764,0.725
						c-0.021,0.418,0.303,0.775,0.724,0.797l0.04,0.003h0.041c0.4,0,0.74-0.318,0.758-0.724c0.018-0.418-0.307-0.775-0.725-0.797
						l-0.039-0.004H70.607z M74.55,102.565h-0.058l-0.039,0.006c-0.418,0.031-0.733,0.395-0.703,0.812
						c0.027,0.402,0.364,0.708,0.758,0.708l0.054-0.003l0.043-0.003l0,0c0.418-0.03,0.736-0.397,0.705-0.815
						C75.28,102.872,74.946,102.565,74.55,102.565z M78.418,102.038l-0.148,0.02l-0.04,0.006c-0.414,0.084-0.682,0.484-0.596,0.893
						c0.069,0.363,0.387,0.615,0.741,0.615l0.148-0.012l0.033-0.01h0.01c0.414-0.082,0.682-0.484,0.596-0.896
						C79.094,102.294,78.771,102.038,78.418,102.038z M82.188,101.042c-0.079,0-0.161,0.012-0.239,0.037l-0.037,0.015
						c-0.402,0.13-0.613,0.563-0.484,0.964c0.106,0.316,0.403,0.52,0.725,0.52c0.075,0,0.157-0.012,0.236-0.039l0.036-0.012h0.006
						c0.399-0.133,0.615-0.566,0.484-0.963C82.807,101.245,82.51,101.042,82.188,101.042z M85.808,99.582
						c-0.109,0-0.219,0.021-0.324,0.073l-0.039,0.018c-0.379,0.183-0.539,0.634-0.361,1.012c0.135,0.275,0.404,0.437,0.688,0.437
						c0.108,0,0.222-0.021,0.327-0.073l0.039-0.018c0.382-0.182,0.536-0.637,0.36-1.015C86.368,99.74,86.095,99.582,85.808,99.582z
						 M89.219,97.684c-0.141,0-0.281,0.039-0.41,0.121l-0.033,0.021c-0.354,0.227-0.457,0.695-0.232,1.051
						c0.145,0.227,0.395,0.352,0.643,0.352c0.139,0,0.281-0.04,0.408-0.121l0.01-0.004l0.008-0.006l0,0l0.01-0.006l0.002-0.004
						l0.01-0.002c0.352-0.228,0.455-0.697,0.23-1.051C89.715,97.807,89.467,97.684,89.219,97.684z M92.371,95.382
						c-0.17,0-0.342,0.054-0.487,0.172l-0.027,0.027c-0.324,0.267-0.373,0.749-0.104,1.073c0.151,0.182,0.367,0.275,0.588,0.275
						c0.17,0,0.342-0.059,0.484-0.174l0.037-0.029c0.317-0.27,0.363-0.748,0.096-1.072C92.808,95.476,92.589,95.382,92.371,95.382z
						 M95.215,92.708c-0.2,0-0.403,0.078-0.554,0.238l-0.027,0.031c-0.289,0.303-0.273,0.787,0.029,1.074
						c0.148,0.139,0.337,0.209,0.525,0.209c0.205,0,0.405-0.082,0.551-0.24l0.027-0.025l0.009-0.008
						c0.282-0.305,0.27-0.787-0.039-1.07C95.591,92.776,95.403,92.708,95.215,92.708z M97.711,89.705
						c-0.233,0-0.463,0.109-0.615,0.309l-0.021,0.034c-0.251,0.339-0.176,0.817,0.161,1.066c0.136,0.1,0.297,0.146,0.452,0.146
						c0.234,0,0.463-0.106,0.611-0.31l0.027-0.036c0.248-0.336,0.172-0.814-0.164-1.061C98.025,89.754,97.869,89.705,97.711,89.705z
						 M99.818,86.419c-0.266,0-0.527,0.143-0.666,0.392l-0.018,0.033c-0.207,0.369-0.074,0.832,0.293,1.039
						c0.119,0.066,0.246,0.096,0.369,0.096c0.27,0,0.527-0.142,0.667-0.391l0.003-0.006V87.58l0.018-0.027
						c0.207-0.367,0.073-0.83-0.293-1.036C100.073,86.45,99.943,86.419,99.818,86.419z M101.503,82.899
						c-0.297,0-0.582,0.18-0.706,0.477l-0.012,0.036c-0.161,0.39,0.03,0.833,0.418,0.993c0.094,0.037,0.19,0.055,0.284,0.055
						c0.303,0,0.588-0.18,0.709-0.475v-0.004l0.006-0.021l0.006-0.012v-0.004c0.158-0.391-0.027-0.832-0.418-0.99
						C101.696,82.918,101.603,82.899,101.503,82.899z M102.741,79.199c-0.34,0-0.648,0.225-0.738,0.562l-0.01,0.039
						c-0.109,0.406,0.133,0.824,0.543,0.934l0.193,0.023c0.336,0,0.643-0.223,0.736-0.562l0.006-0.023v-0.01l0.006-0.01
						c0.105-0.404-0.137-0.82-0.543-0.93L102.741,79.199z M103.501,75.37c-0.371,0-0.699,0.275-0.75,0.658l-0.01,0.041
						c-0.055,0.416,0.24,0.801,0.658,0.857l0.1,0.007c0.375,0,0.702-0.276,0.757-0.655v-0.014v-0.027v-0.004
						c0.061-0.414-0.233-0.799-0.647-0.857L103.501,75.37z M103.792,71.479c-0.414,0-0.754,0.334-0.756,0.752v0.039
						c-0.01,0.421,0.326,0.766,0.748,0.771h0.008c0.412,0,0.755-0.333,0.764-0.748v-0.012v-0.033
						c0.006-0.422-0.333-0.766-0.752-0.77H103.792z M103.608,67.575l-0.086,0.006c-0.418,0.048-0.721,0.42-0.676,0.839l0.004,0.042
						c0.045,0.388,0.375,0.679,0.76,0.679l0.082-0.006c0.418-0.046,0.721-0.418,0.672-0.836v-0.046
						C104.316,67.862,103.992,67.575,103.608,67.575z M102.94,63.731l-0.178,0.021c-0.402,0.094-0.657,0.506-0.563,0.915
						l0.009,0.043c0.086,0.348,0.396,0.581,0.74,0.581l0.178-0.019c0.406-0.097,0.66-0.506,0.566-0.914l-0.006-0.019v-0.006
						l-0.006-0.021C103.599,63.965,103.286,63.731,102.94,63.731z M101.803,59.997c-0.088,0-0.176,0.015-0.264,0.048
						c-0.394,0.148-0.594,0.588-0.448,0.982l0.012,0.035c0.115,0.307,0.409,0.498,0.715,0.498c0.092,0,0.18-0.02,0.268-0.049
						c0.393-0.146,0.594-0.586,0.447-0.979l-0.002-0.013l-0.01-0.019l-0.004-0.012C102.401,60.185,102.112,59.997,101.803,59.997z
						 M100.213,56.435c-0.121,0-0.24,0.027-0.355,0.086c-0.372,0.195-0.512,0.656-0.32,1.029l0.018,0.033
						c0.137,0.26,0.403,0.412,0.679,0.412c0.118,0,0.236-0.031,0.352-0.088c0.369-0.193,0.515-0.654,0.324-1.027l-0.019-0.027
						l-0.006-0.008C100.748,56.583,100.484,56.435,100.213,56.435z M98.193,53.094c-0.152,0-0.301,0.045-0.434,0.141
						c-0.349,0.235-0.434,0.708-0.194,1.053l0.024,0.037c0.145,0.212,0.385,0.326,0.627,0.326c0.145,0,0.299-0.042,0.43-0.136
						c0.348-0.236,0.434-0.712,0.193-1.058l-0.012-0.014v-0.004l-0.004-0.006l-0.002-0.004l-0.006-0.008
						C98.668,53.209,98.432,53.094,98.193,53.094z M95.775,50.029c-0.182,0-0.36,0.063-0.506,0.193
						c-0.315,0.279-0.343,0.764-0.063,1.076l0.023,0.029c0.155,0.167,0.364,0.255,0.573,0.255c0.182,0,0.36-0.063,0.506-0.194
						c0.314-0.278,0.339-0.76,0.063-1.075l0,0l-0.009-0.006l-0.021-0.024C96.188,50.114,95.984,50.029,95.775,50.029z
						 M93.001,47.282c-0.212,0-0.424,0.088-0.572,0.26c-0.278,0.316-0.248,0.797,0.069,1.076l0.034,0.023
						c0.142,0.131,0.32,0.191,0.496,0.191c0.215,0,0.424-0.088,0.576-0.262c0.275-0.314,0.244-0.795-0.074-1.074l-0.029-0.023
						C93.358,47.346,93.177,47.282,93.001,47.282z M89.908,44.898c-0.242,0-0.48,0.115-0.627,0.333
						c-0.238,0.349-0.145,0.821,0.201,1.058l0.033,0.023c0.133,0.088,0.281,0.131,0.426,0.131c0.246,0,0.482-0.115,0.633-0.333
						c0.236-0.349,0.146-0.821-0.205-1.058l-0.031-0.023C90.205,44.941,90.061,44.898,89.908,44.898z M86.553,42.912
						c-0.278,0-0.545,0.15-0.679,0.414c-0.193,0.375-0.045,0.834,0.33,1.027l0.037,0.016c0.109,0.057,0.23,0.084,0.345,0.084
						c0.275,0,0.542-0.152,0.679-0.414c0.194-0.373,0.046-0.834-0.33-1.024l-0.039-0.021C86.783,42.939,86.668,42.912,86.553,42.912
						z M82.97,41.357c-0.309,0-0.603,0.191-0.715,0.5c-0.142,0.395,0.063,0.833,0.457,0.979l0.037,0.012
						c0.084,0.031,0.172,0.046,0.257,0.046c0.315,0,0.606-0.194,0.718-0.5c0.146-0.396-0.057-0.833-0.457-0.979l-0.036-0.012
						C83.143,41.37,83.058,41.357,82.97,41.357z M79.223,40.259c-0.345,0-0.66,0.242-0.738,0.594
						c-0.094,0.411,0.166,0.817,0.576,0.908l0.035,0.012l0.17,0.016c0.348,0,0.66-0.239,0.742-0.591
						c0.094-0.409-0.164-0.817-0.572-0.911l-0.043-0.01L79.223,40.259z M75.374,39.632c-0.391,0-0.721,0.293-0.758,0.688
						c-0.039,0.414,0.264,0.79,0.682,0.832l0.039,0.004l0.08,0.003c0.385,0,0.713-0.291,0.754-0.685
						c0.041-0.418-0.262-0.791-0.68-0.834l-0.039-0.002h-0.006L75.374,39.632z"/>
				</g>
			</g>
		</g>
		<polygon fill="#6B6E73" points="72.209,54.812 77.736,66.013 90.096,67.808 81.152,76.527 83.264,88.84 72.209,83.027 
			61.15,88.84 63.262,76.527 54.318,67.808 66.679,66.013 		"/>
	</g>
	<g>
		<g>
			<g>
				<path fill="#6B6E73" d="M29.11,59.288l-3.489-1.009l-3.241,1.006l-0.131,0.46l-1.408-0.408l0.352-1.215l3.144-0.98l-2.135-2.506
					l0.349-1.214l1.411,0.405l-0.133,0.454l2.201,2.587l3.489,1.012L29.11,59.288z"/>
			</g>
			<g>
				<path fill="#6B6E73" d="M25.656,46.271c0.549-1.024,1.369-1.718,2.463-2.069c1.091-0.352,2.136-0.26,3.126,0.268
					c1,0.529,1.656,1.345,1.972,2.446c0.321,1.1,0.203,2.166-0.342,3.193c-0.546,1.029-1.364,1.72-2.456,2.071
					c-1.088,0.352-2.133,0.264-3.13-0.27c-0.992-0.527-1.646-1.342-1.971-2.444C25,48.364,25.111,47.3,25.656,46.271z
					 M26.943,46.955c-0.332,0.634-0.402,1.302-0.201,2.011c0.199,0.709,0.623,1.232,1.271,1.578
					c0.657,0.349,1.329,0.409,2.028,0.176c0.701-0.23,1.215-0.663,1.551-1.293c0.337-0.627,0.403-1.299,0.207-2.006
					c-0.197-0.708-0.627-1.235-1.281-1.584c-0.648-0.345-1.32-0.402-2.023-0.172C27.795,45.895,27.277,46.328,26.943,46.955z"/>
			</g>
			<g>
				<path fill="#6B6E73" d="M29.854,39.649l1.254-1.475l3.749,3.186c0.264,0.222,0.533,0.376,0.807,0.458
					c0.254,0.072,0.496,0.072,0.736,0.003c0.275-0.082,0.529-0.258,0.751-0.521c0.221-0.26,0.348-0.533,0.381-0.82
					c0.03-0.267-0.03-0.536-0.179-0.812c-0.121-0.215-0.299-0.42-0.533-0.619l-3.749-3.185l1.257-1.479l1.115,0.949l-0.312,0.363
					l2.638,2.235l0.04,0.029c0.206,0.176,0.391,0.367,0.558,0.57c0.188,0.236,0.336,0.479,0.441,0.727
					c0.14,0.318,0.213,0.643,0.215,0.979c0.004,0.352-0.069,0.699-0.209,1.033c-0.148,0.339-0.354,0.66-0.608,0.96
					c-0.242,0.285-0.5,0.521-0.778,0.705c-0.245,0.164-0.506,0.279-0.772,0.352c-0.312,0.082-0.637,0.1-0.967,0.051
					c-0.287-0.041-0.568-0.127-0.855-0.26c-0.305-0.145-0.609-0.348-0.918-0.611l-2.633-2.235l-0.31,0.363L29.854,39.649z"/>
			</g>
			<g>
				<path fill="#6B6E73" d="M47.307,33.961l-3.516-5.427l-0.824,0.533l0.254,0.391l-1.224,0.797l-1.055-1.621l5.319-3.446
					l1.054,1.62l-1.224,0.794l-0.258-0.395l-0.826,0.537l3.522,5.424L47.307,33.961z"/>
			</g>
			<g>
				<path fill="#6B6E73" d="M49.354,23.537l1.802-0.722l1.196,3.001l3.04-1.217l-1.201-3.001l1.853-0.742l0.549,1.359l-0.506,0.203
					l2.402,6.003l-1.348,0.54l-1.206-3.003L52.9,27.174l1.199,3.005l-1.357,0.543l-2.397-6.007l-0.449,0.18L49.354,23.537z"/>
			</g>
			<g>
				<path fill="#6B6E73" d="M59.431,19.936l5.679-1.1l0.366,1.899l-1.375,0.264l-0.091-0.467l-2.404,0.463l0.336,1.745l2.404-0.464
					l0.279,1.439l-2.404,0.463l0.336,1.733l2.401-0.465l-0.091-0.469l1.375-0.264l0.37,1.911l-5.216,1.006l-1.224-6.357
					l-0.467,0.088L59.431,19.936z"/>
			</g>
			<g>
				<path fill="#6B6E73" d="M73.09,26.287l0.121-1.463l0.479,0.039l0.431-4.979l-0.479-0.039l0.124-1.46l1.929,0.167
					c1.227,0.157,2.142,0.648,2.741,1.463c0.594,0.811,0.849,1.74,0.758,2.789v0.024c-0.1,1.061-0.484,1.959-1.146,2.695
					c-0.663,0.736-1.672,1.045-3.035,0.93L73.09,26.287z M75.141,24.99c0.052,0.006,0.097,0.012,0.148,0.016
					c0.702,0.061,1.269-0.115,1.687-0.53c0.439-0.433,0.691-1.015,0.752-1.741l0.003-0.03c0.066-0.83-0.095-1.475-0.473-1.936
					c-0.36-0.439-0.897-0.69-1.599-0.751l-0.088-0.009L75.141,24.99z"/>
			</g>
			<g>
				<path fill="#6B6E73" d="M82.867,19.46l5.598,1.479l-0.494,1.865l-1.354-0.354l0.121-0.464l-2.361-0.621l-0.455,1.718
					l2.362,0.624l-0.372,1.417l-2.363-0.626l-0.451,1.708l2.363,0.624l0.121-0.46l1.354,0.357l-0.494,1.88l-5.134-1.354l1.654-6.26
					l-0.464-0.125L82.867,19.46z"/>
			</g>
			<g>
				<path fill="#6B6E73" d="M89.918,27.747c0.238,0.448,0.572,0.842,0.996,1.182c0.236,0.189,0.463,0.338,0.693,0.445
					c0.143,0.062,0.285,0.111,0.425,0.142c0.479,0.108,0.803-0.021,0.969-0.385l0.006-0.013c0.094-0.215,0.072-0.445-0.057-0.688
					c-0.137-0.245-0.268-0.451-0.389-0.626c-0.205-0.273-0.408-0.543-0.617-0.809c-0.104-0.134-0.203-0.268-0.307-0.403
					c-0.105-0.134-0.206-0.271-0.303-0.405c-0.288-0.404-0.46-0.797-0.515-1.186c-0.043-0.32-0.003-0.62,0.131-0.898
					c0.008-0.024,0.023-0.052,0.039-0.076c0.199-0.396,0.496-0.696,0.887-0.899c0.367-0.188,0.772-0.275,1.222-0.261
					c0.365,0.019,0.729,0.101,1.09,0.255c0.055,0.023,0.111,0.045,0.164,0.069c0.387,0.179,0.738,0.394,1.06,0.651
					c0.19,0.157,0.372,0.327,0.539,0.509c0.166,0.179,0.33,0.369,0.496,0.578l-0.575,1.23l-1.324-0.615l0.195-0.422
					c-0.17-0.195-0.367-0.365-0.588-0.514c-0.104-0.066-0.207-0.127-0.312-0.173c-0.123-0.058-0.248-0.103-0.379-0.137
					c-0.502-0.127-0.829-0.033-0.975,0.284l-0.016,0.034c-0.057,0.134-0.061,0.267-0.006,0.399c0.052,0.131,0.121,0.258,0.2,0.373
					c0.124,0.191,0.257,0.385,0.405,0.582c0.148,0.199,0.301,0.398,0.457,0.602c0.115,0.154,0.229,0.315,0.344,0.476
					c0.111,0.161,0.221,0.318,0.314,0.473c0.285,0.467,0.447,0.882,0.494,1.251c0.033,0.333-0.031,0.669-0.188,1.009
					c-0.021,0.049-0.043,0.094-0.07,0.143c-0.246,0.439-0.576,0.748-0.984,0.924c-0.354,0.145-0.745,0.196-1.179,0.154
					c-0.257-0.031-0.512-0.086-0.763-0.17c-0.2-0.061-0.385-0.131-0.555-0.209c-0.048-0.021-0.097-0.049-0.146-0.072
					c-0.469-0.242-0.896-0.551-1.277-0.924c-0.367-0.349-0.654-0.709-0.863-1.082L89.918,27.747z"/>
			</g>
			<g>
				<path fill="#6B6E73" d="M99.316,27.668l-0.457-0.291l0.795-1.23l2.134,1.379l-0.794,1.229l-0.455-0.293l-2.707,4.197
					l0.451,0.294l-0.793,1.236l-2.136-1.379l0.797-1.235l0.454,0.293L99.316,27.668z"/>
			</g>
			<g>
				<path fill="#6B6E73" d="M109.018,34.107l-0.91,1.033l-1.102-0.973l0.312-0.349c-0.141-0.245-0.328-0.473-0.561-0.675
					c-0.536-0.473-1.169-0.691-1.905-0.661s-1.346,0.321-1.83,0.876c-0.49,0.555-0.705,1.195-0.641,1.932
					c0.062,0.73,0.363,1.333,0.896,1.806c0.227,0.196,0.475,0.352,0.748,0.46l0.669-0.76l-0.431-0.376l0.973-1.103l1.532,1.348
					l-2.25,2.554c-0.23-0.037-0.439-0.084-0.642-0.148c-0.572-0.182-1.092-0.479-1.557-0.887c-0.846-0.746-1.327-1.69-1.439-2.835
					c-0.109-1.146,0.212-2.151,0.975-3.018c0.758-0.86,1.715-1.308,2.863-1.345c1.147-0.033,2.149,0.32,2.995,1.066
					c0.445,0.391,0.764,0.787,0.959,1.199C108.871,33.662,108.983,33.949,109.018,34.107z"/>
			</g>
			<g>
				<path fill="#6B6E73" d="M105.485,41.04l1.169-0.895l0.289,0.377l5.126-3.932l0.895,1.163l-2.145,5.654l4.079-3.128l1.199,1.562
					l-1.166,0.89l-0.299-0.391l-5.131,3.935l-0.896-1.172l2.142-5.652l-4.081,3.126L105.485,41.04z"/>
			</g>
			<g>
				<path fill="#6B6E73" d="M117.906,44.848l2.603,5.166l-1.728,0.869l-0.63-1.253l0.427-0.213l-1.1-2.184l-1.59,0.801l1.1,2.183
					l-1.305,0.657l-1.1-2.184l-1.578,0.791l1.1,2.187l0.424-0.215l0.63,1.254l-1.735,0.871l-2.387-4.739l5.785-2.914l-0.219-0.427
					L117.906,44.848z"/>
			</g>
			<g>
				<path fill="#6B6E73" d="M121.786,53.182l0.951,3.229c0.061,0.199,0.097,0.424,0.115,0.662c0.009,0.355-0.046,0.688-0.158,0.994
					c-0.117,0.309-0.293,0.575-0.533,0.797c-0.264,0.236-0.58,0.412-0.959,0.521l-0.047,0.013c-0.316,0.088-0.619,0.117-0.896,0.088
					c-0.272-0.027-0.524-0.104-0.748-0.222c-0.197-0.103-0.379-0.229-0.552-0.396l-1.731,1.693l0.133,0.457l-1.412,0.414
					l-0.385-1.311l2.623-2.528l-0.359-1.228l-3.102,0.917l-0.415-1.398l6.203-1.833l-0.137-0.453L121.786,53.182z M120.927,55.45
					l-1.693,0.5l0.402,1.363c0.063,0.221,0.193,0.396,0.391,0.535c0.197,0.137,0.43,0.168,0.699,0.086
					c0.236-0.066,0.412-0.215,0.531-0.438c0.117-0.217,0.145-0.447,0.072-0.684L120.927,55.45z"/>
			</g>
		</g>
		<g>
			<g>
				<path fill="#6B6E73" d="M114.584,84.362l3.488,1.01l3.241-1.004l0.133-0.459l1.409,0.406l-0.352,1.213l-3.146,0.982l2.136,2.505
					l-0.352,1.217l-1.409-0.408l0.134-0.451l-2.202-2.59l-3.489-1.009L114.584,84.362z"/>
			</g>
			<g>
				<path fill="#6B6E73" d="M118.033,97.381c-0.542,1.025-1.365,1.717-2.455,2.068c-1.094,0.352-2.136,0.264-3.126-0.267
					c-1-0.53-1.66-1.345-1.979-2.447c-0.314-1.1-0.199-2.166,0.346-3.191c0.549-1.031,1.365-1.721,2.456-2.072
					c1.087-0.352,2.133-0.264,3.133,0.27c0.988,0.527,1.646,1.342,1.968,2.443C118.693,95.288,118.582,96.351,118.033,97.381z
					 M116.75,96.695c0.336-0.629,0.402-1.299,0.203-2.011c-0.201-0.709-0.625-1.232-1.273-1.578
					c-0.656-0.348-1.332-0.405-2.028-0.172c-0.699,0.227-1.215,0.66-1.551,1.289c-0.336,0.631-0.402,1.297-0.203,2.006
					c0.197,0.709,0.623,1.235,1.277,1.587c0.648,0.342,1.321,0.4,2.021,0.17C115.898,97.756,116.414,97.326,116.75,96.695z"/>
			</g>
			<g>
				<path fill="#6B6E73" d="M113.839,104.005l-1.254,1.472l-3.749-3.183c-0.262-0.225-0.531-0.379-0.803-0.461
					c-0.256-0.072-0.504-0.072-0.74,0c-0.275,0.082-0.523,0.254-0.75,0.518c-0.219,0.264-0.346,0.533-0.382,0.82
					c-0.03,0.268,0.03,0.537,0.179,0.812c0.121,0.215,0.299,0.421,0.533,0.62l3.752,3.184l-1.257,1.479l-1.118-0.945l0.312-0.367
					l-2.638-2.231l-0.04-0.033c-0.202-0.176-0.387-0.366-0.557-0.569c-0.188-0.236-0.336-0.479-0.442-0.728
					c-0.137-0.318-0.209-0.643-0.215-0.979c-0.003-0.352,0.069-0.695,0.209-1.031c0.151-0.344,0.354-0.661,0.608-0.961
					c0.242-0.285,0.503-0.521,0.775-0.703c0.252-0.163,0.506-0.281,0.779-0.351c0.311-0.085,0.633-0.104,0.965-0.055
					c0.285,0.042,0.57,0.13,0.854,0.261c0.306,0.148,0.612,0.348,0.918,0.611l2.635,2.234l0.307-0.363L113.839,104.005z"/>
			</g>
			<g>
				<path fill="#6B6E73" d="M96.387,109.692l3.517,5.425l0.824-0.533l-0.255-0.391l1.228-0.794l1.051,1.62l-5.319,3.447
					l-1.051-1.623l1.225-0.791l0.254,0.391l0.824-0.533l-3.517-5.427L96.387,109.692z"/>
			</g>
			<g>
				<path fill="#6B6E73" d="M94.343,120.114l-1.803,0.725l-1.202-3.005l-3.035,1.218l1.199,3l-1.853,0.743l-0.545-1.36l0.505-0.199
					l-2.405-6.003l1.355-0.543l1.198,3.002l3.035-1.215l-1.199-3.005l1.359-0.541l2.396,6.006l0.449-0.18L94.343,120.114z"/>
			</g>
			<g>
				<path fill="#6B6E73" d="M84.267,123.719l-5.683,1.096l-0.363-1.898l1.373-0.264l0.09,0.467l2.404-0.464l-0.338-1.744
					l-2.402,0.463l-0.275-1.438l2.401-0.464l-0.337-1.731l-2.4,0.463l0.09,0.47l-1.378,0.264l-0.363-1.911l5.212-1.006l1.228,6.36
					l0.467-0.092L84.267,123.719z"/>
			</g>
			<g>
				<path fill="#6B6E73" d="M70.607,117.363l-0.125,1.464l-0.479-0.039l-0.427,4.979l0.478,0.04l-0.123,1.459l-1.93-0.164
					c-1.228-0.16-2.145-0.65-2.744-1.465c-0.594-0.812-0.848-1.741-0.758-2.786l0.004-0.027c0.1-1.061,0.484-1.957,1.142-2.693
					c0.664-0.739,1.672-1.048,3.031-0.929L70.607,117.363z M68.554,118.663c-0.049-0.009-0.098-0.012-0.146-0.018
					c-0.705-0.061-1.27,0.118-1.689,0.529c-0.439,0.437-0.691,1.016-0.754,1.742l-0.004,0.029c-0.062,0.83,0.098,1.476,0.477,1.937
					c0.359,0.438,0.898,0.69,1.604,0.751l0.085,0.009L68.554,118.663z"/>
			</g>
			<g>
				<path fill="#6B6E73" d="M60.826,124.191l-5.597-1.476l0.494-1.869l1.354,0.357l-0.121,0.461l2.362,0.623l0.454-1.719
					l-2.359-0.625l0.373-1.414l2.362,0.624l0.448-1.709l-2.363-0.621l-0.121,0.458l-1.354-0.357l0.494-1.881l5.134,1.356
					l-1.65,6.261l0.463,0.121L60.826,124.191z"/>
			</g>
			<g>
				<path fill="#6B6E73" d="M53.779,115.904c-0.242-0.445-0.572-0.839-0.996-1.178c-0.24-0.194-0.467-0.34-0.697-0.449
					c-0.143-0.063-0.281-0.111-0.421-0.142c-0.481-0.106-0.806,0.021-0.973,0.384l-0.006,0.013c-0.091,0.215-0.072,0.448,0.061,0.69
					c0.137,0.242,0.264,0.451,0.385,0.625c0.206,0.271,0.409,0.545,0.618,0.807c0.103,0.135,0.205,0.271,0.309,0.404
					c0.104,0.133,0.203,0.27,0.297,0.408c0.293,0.4,0.463,0.794,0.518,1.182c0.043,0.321,0.006,0.62-0.127,0.899
					c-0.01,0.023-0.027,0.051-0.043,0.076c-0.195,0.396-0.496,0.695-0.887,0.898c-0.366,0.188-0.77,0.275-1.221,0.262
					c-0.366-0.016-0.729-0.102-1.091-0.256c-0.055-0.02-0.111-0.045-0.164-0.068c-0.385-0.176-0.734-0.395-1.059-0.652
					c-0.194-0.154-0.37-0.323-0.539-0.505c-0.167-0.183-0.33-0.373-0.497-0.582l0.572-1.227l1.327,0.612l-0.195,0.424
					c0.174,0.193,0.367,0.363,0.586,0.512c0.105,0.07,0.211,0.127,0.317,0.173c0.121,0.058,0.249,0.103,0.376,0.136
					c0.502,0.127,0.829,0.033,0.975-0.284l0.016-0.033c0.055-0.134,0.061-0.264,0.006-0.4c-0.052-0.13-0.121-0.254-0.2-0.372
					c-0.121-0.188-0.257-0.382-0.405-0.582c-0.146-0.2-0.3-0.399-0.455-0.599c-0.117-0.158-0.229-0.316-0.345-0.479
					c-0.112-0.158-0.218-0.318-0.315-0.473c-0.287-0.467-0.447-0.882-0.49-1.252c-0.033-0.332,0.027-0.669,0.186-1.008
					c0.02-0.046,0.045-0.091,0.068-0.143c0.248-0.439,0.576-0.748,0.984-0.921c0.354-0.148,0.746-0.199,1.179-0.158
					c0.261,0.031,0.516,0.088,0.764,0.17c0.199,0.061,0.385,0.131,0.555,0.209c0.051,0.025,0.1,0.049,0.148,0.073
					c0.469,0.245,0.893,0.551,1.273,0.924c0.367,0.352,0.654,0.709,0.863,1.084L53.779,115.904z"/>
			</g>
			<g>
				<path fill="#6B6E73" d="M44.383,115.982l0.451,0.291l-0.793,1.232l-2.135-1.377l0.793-1.233l0.455,0.298l2.711-4.202
					l-0.455-0.293l0.797-1.236l2.136,1.379l-0.797,1.234l-0.454-0.293L44.383,115.982z"/>
			</g>
			<g>
				<path fill="#6B6E73" d="M34.678,109.544l0.908-1.033l1.102,0.973l-0.309,0.348c0.139,0.246,0.326,0.473,0.557,0.68
					c0.537,0.469,1.173,0.688,1.909,0.656c0.732-0.029,1.344-0.32,1.828-0.872c0.488-0.558,0.707-1.199,0.64-1.932
					c-0.061-0.734-0.36-1.336-0.896-1.806c-0.228-0.2-0.476-0.354-0.745-0.464l-0.67,0.76l0.432,0.377l-0.977,1.102l-1.526-1.348
					l2.245-2.55c0.227,0.033,0.439,0.085,0.643,0.146c0.568,0.182,1.092,0.479,1.556,0.887c0.848,0.746,1.326,1.693,1.436,2.838
					c0.112,1.146-0.209,2.147-0.972,3.015c-0.758,0.859-1.711,1.308-2.863,1.344c-1.147,0.033-2.149-0.32-2.997-1.066
					c-0.443-0.387-0.762-0.787-0.957-1.199C34.824,109.989,34.707,109.701,34.678,109.544z"/>
			</g>
			<g>
				<path fill="#6B6E73" d="M38.208,102.614l-1.166,0.893l-0.288-0.375l-5.13,3.931l-0.895-1.165l2.148-5.655l-4.08,3.129
					l-1.2-1.563l1.164-0.89l0.3,0.391l5.13-3.934l0.9,1.172l-2.145,5.654l4.08-3.129L38.208,102.614z"/>
			</g>
			<g>
				<path fill="#6B6E73" d="M25.787,98.807l-2.602-5.169l1.727-0.869l0.631,1.252l-0.426,0.213l1.098,2.187l1.59-0.802l-1.1-2.182
					l1.309-0.66l1.097,2.184l1.578-0.791l-1.098-2.186l-0.427,0.215l-0.63-1.254l1.736-0.872l2.386,4.739l-5.785,2.915l0.219,0.426
					L25.787,98.807z"/>
			</g>
			<g>
				<path fill="#6B6E73" d="M21.911,90.472l-0.955-3.229c-0.057-0.203-0.096-0.427-0.111-0.666c-0.01-0.354,0.042-0.685,0.156-0.994
					c0.115-0.309,0.291-0.574,0.531-0.793c0.264-0.24,0.584-0.414,0.959-0.523l0.047-0.014c0.32-0.086,0.62-0.117,0.898-0.086
					c0.27,0.027,0.519,0.102,0.749,0.223c0.193,0.1,0.378,0.23,0.551,0.395l1.732-1.693l-0.133-0.454l1.408-0.415l0.385,1.309
					l-2.623,2.529l0.363,1.226l3.099-0.917l0.414,1.402L23.183,89.6l0.13,0.457L21.911,90.472z M22.768,88.201l1.693-0.504
					l-0.4-1.359c-0.063-0.222-0.196-0.397-0.394-0.536c-0.197-0.137-0.427-0.164-0.696-0.085c-0.236,0.066-0.415,0.215-0.533,0.437
					c-0.122,0.218-0.142,0.448-0.073,0.685L22.768,88.201z"/>
			</g>
		</g>
	</g>
</g>
</svg>
